<?xml version="1.0" encoding="UTF-8" standalone="no"?>
<!DOCTYPE svg PUBLIC "-//W3C//DTD SVG 1.1//EN"
 "http://www.w3.org/Graphics/SVG/1.1/DTD/svg11.dtd">
<!-- Generated by graphviz version 2.43.0 (0)
 -->
<!-- Title: G Pages: 1 -->
<svg width="920pt" height="236pt"
 viewBox="0.00 0.00 920.00 236.00" xmlns="http://www.w3.org/2000/svg" xmlns:xlink="http://www.w3.org/1999/xlink">
<g id="graph0" class="graph" transform="scale(1 1) rotate(0) translate(4 232)">
<title>G</title>
<polygon fill="white" stroke="transparent" points="-4,4 -4,-232 916,-232 916,4 -4,4"/>
<g id="clust1" class="cluster">
<title>cluster_legend</title>
<polygon fill="none" stroke="black" points="8,-8 8,-78 330,-78 330,-8 8,-8"/>
</g>
<!-- key -->
<g id="node1" class="node">
<title>key</title>
<text text-anchor="start" x="122.5" y="-55" font-family="monospace" font-size="10.00">FROM ... </text>
<text text-anchor="start" x="80.5" y="-40" font-family="monospace" font-size="10.00">COPY &#45;&#45;from=... </text>
<text text-anchor="start" x="26.5" y="-25" font-family="monospace" font-size="10.00">RUN &#45;&#45;mount=(.*)from=... </text>
</g>
<!-- key2 -->
<g id="node2" class="node">
<title>key2</title>
<text text-anchor="start" x="292" y="-55" font-family="monospace" font-size="10.00"> </text>
<text text-anchor="start" x="292" y="-40" font-family="monospace" font-size="10.00"> </text>
<text text-anchor="start" x="292" y="-25" font-family="monospace" font-size="10.00"> </text>
</g>
<!-- key&#45;&gt;key2 -->
<g id="edge1" class="edge">
<title>key:e&#45;&gt;key2:w</title>
<path fill="none" stroke="black" d="M180.5,-58C225.14,-58 238.79,-58 278.83,-58"/>
<polygon fill="black" stroke="black" points="279,-61.5 289,-58 279,-54.5 279,-61.5"/>
</g>
<!-- key&#45;&gt;key2 -->
<g id="edge2" class="edge">
<title>key:e&#45;&gt;key2:w</title>
<path fill="none" stroke="black" stroke-dasharray="5,2" d="M180.5,-42C225.14,-42 238.79,-42 278.83,-42"/>
<polygon fill="none" stroke="black" points="279,-45.5 289,-42 279,-38.5 279,-45.5"/>
</g>
<!-- key&#45;&gt;key2 -->
<g id="edge3" class="edge">
<title>key:e&#45;&gt;key2:w</title>
<path fill="none" stroke="black" stroke-dasharray="1,5" d="M180.5,-27C224.39,-27 238.32,-27 276.83,-27"/>
<polygon fill="none" stroke="black" points="277,-27 283,-23 289,-27 283,-31 277,-27"/>
</g>
<!-- external_image_0 -->
<g id="node3" class="node">
<title>external_image_0</title>
<path fill="none" stroke="#333333" stroke-dasharray="5,2" d="M161.5,-151C161.5,-151 41.5,-151 41.5,-151 35.5,-151 29.5,-145 29.5,-139 29.5,-139 29.5,-127 29.5,-127 29.5,-121 35.5,-115 41.5,-115 41.5,-115 161.5,-115 161.5,-115 167.5,-115 173.5,-121 173.5,-127 173.5,-127 173.5,-139 173.5,-139 173.5,-145 167.5,-151 161.5,-151"/>
<text text-anchor="middle" x="101.5" y="-129.3" font-family="Times,serif" font-size="14.00" fill="#333333">$BASE_IMAGE</text>
</g>
<!-- stage_0 -->
<g id="node4" class="node">
<title>stage_0</title>
<path fill="none" stroke="black" d="M355,-124C355,-124 235,-124 235,-124 229,-124 223,-118 223,-112 223,-112 223,-100 223,-100 223,-94 229,-88 235,-88 235,-88 355,-88 355,-88 361,-88 367,-94 367,-100 367,-100 367,-112 367,-112 367,-118 361,-124 355,-124"/>
<text text-anchor="middle" x="295" y="-102.3" font-family="Times,serif" font-size="14.00">base</text>
</g>
<!-- external_image_0&#45;&gt;stage_0 -->
<g id="edge4" class="edge">
<title>external_image_0&#45;&gt;stage_0</title>
<path fill="none" stroke="black" d="M173.54,-122.98C186.34,-121.18 199.78,-119.28 212.85,-117.44"/>
<polygon fill="black" stroke="black" points="213.35,-120.91 222.76,-116.04 212.37,-113.97 213.35,-120.91"/>
</g>
<!-- stage_1 -->
<g id="node5" class="node">
<title>stage_1</title>
<path fill="none" stroke="black" d="M355,-178C355,-178 235,-178 235,-178 229,-178 223,-172 223,-166 223,-166 223,-154 223,-154 223,-148 229,-142 235,-142 235,-142 355,-142 355,-142 361,-142 367,-148 367,-154 367,-154 367,-166 367,-166 367,-172 361,-178 355,-178"/>
<text text-anchor="middle" x="295" y="-156.3" font-family="Times,serif" font-size="14.00">rosdep&#45;depend</text>
</g>
<!-- external_image_0&#45;&gt;stage_1 -->
<g id="edge5" class="edge">
<title>external_image_0&#45;&gt;stage_1</title>
<path fill="none" stroke="black" d="M173.54,-143.02C186.34,-144.82 199.78,-146.72 212.85,-148.56"/>
<polygon fill="black" stroke="black" points="212.37,-152.03 222.76,-149.96 213.35,-145.09 212.37,-152.03"/>
</g>
<!-- stage_2 -->
<g id="node6" class="node">
<title>stage_2</title>
<path fill="none" stroke="black" d="M535,-132C535,-132 415,-132 415,-132 409,-132 403,-126 403,-120 403,-120 403,-108 403,-108 403,-102 409,-96 415,-96 415,-96 535,-96 535,-96 541,-96 547,-102 547,-108 547,-108 547,-120 547,-120 547,-126 541,-132 535,-132"/>
<text text-anchor="middle" x="475" y="-110.3" font-family="Times,serif" font-size="14.00">autoware&#45;core</text>
</g>
<!-- stage_0&#45;&gt;stage_2 -->
<g id="edge6" class="edge">
<title>stage_0&#45;&gt;stage_2</title>
<path fill="none" stroke="black" d="M367.12,-109.2C375.61,-109.58 384.33,-109.97 392.94,-110.36"/>
<polygon fill="black" stroke="black" points="392.85,-113.86 403,-110.81 393.16,-106.86 392.85,-113.86"/>
</g>
<!-- stage_5 -->
<g id="node9" class="node">
<title>stage_5</title>
<path fill="#e5e5e5" stroke="black" d="M900,-174C900,-174 780,-174 780,-174 774,-174 768,-168 768,-162 768,-162 768,-150 768,-150 768,-144 774,-138 780,-138 780,-138 900,-138 900,-138 906,-138 912,-144 912,-150 912,-150 912,-162 912,-162 912,-168 906,-174 900,-174"/>
<text text-anchor="middle" x="840" y="-152.3" font-family="Times,serif" font-size="14.00">runtime</text>
</g>
<!-- stage_0&#45;&gt;stage_5 -->
<g id="edge13" class="edge">
<title>stage_0&#45;&gt;stage_5</title>
<path fill="none" stroke="black" d="M367.14,-91.57C379.06,-89.67 391.35,-88.03 403,-87 466.75,-81.38 483.43,-79.59 547,-87 624.89,-96.08 712.15,-118.34 770.82,-135.14"/>
<polygon fill="black" stroke="black" points="770.13,-138.58 780.71,-138 772.08,-131.86 770.13,-138.58"/>
</g>
<!-- stage_1&#45;&gt;stage_2 -->
<g id="edge7" class="edge">
<title>stage_1&#45;&gt;stage_2</title>
<path fill="none" stroke="black" stroke-dasharray="5,2" d="M342.77,-141.89C358.09,-137.36 375.6,-132.6 392.71,-128.28"/>
<polygon fill="none" stroke="black" points="393.87,-131.6 402.73,-125.79 392.18,-124.81 393.87,-131.6"/>
</g>
<!-- stage_1&#45;&gt;stage_2 -->
<g id="edge8" class="edge">
<title>stage_1&#45;&gt;stage_2</title>
<path fill="none" stroke="black" stroke-dasharray="1,5" d="M367.12,-148.25C383.32,-144.29 400.35,-139.8 415.94,-135.38"/>
<polygon fill="none" stroke="black" points="416.01,-135.36 420.66,-129.85 427.53,-132.02 422.88,-137.53 416.01,-135.36"/>
</g>
<!-- stage_3 -->
<g id="node7" class="node">
<title>stage_3</title>
<path fill="none" stroke="black" d="M720,-225C720,-225 595,-225 595,-225 589,-225 583,-219 583,-213 583,-213 583,-201 583,-201 583,-195 589,-189 595,-189 595,-189 720,-189 720,-189 726,-189 732,-195 732,-201 732,-201 732,-213 732,-213 732,-219 726,-225 720,-225"/>
<text text-anchor="middle" x="657.5" y="-203.3" font-family="Times,serif" font-size="14.00">autoware&#45;universe</text>
</g>
<!-- stage_1&#45;&gt;stage_3 -->
<g id="edge10" class="edge">
<title>stage_1&#45;&gt;stage_3</title>
<path fill="none" stroke="black" stroke-dasharray="5,2" d="M367.08,-160.44C379.07,-161.87 391.39,-163.48 403,-165 459.61,-172.39 523.34,-180.68 572.73,-188.25"/>
<polygon fill="none" stroke="black" points="572.31,-191.73 582.73,-189.8 573.39,-184.81 572.31,-191.73"/>
</g>
<!-- stage_1&#45;&gt;stage_3 -->
<g id="edge11" class="edge">
<title>stage_1&#45;&gt;stage_3</title>
<path fill="none" stroke="black" stroke-dasharray="1,5" d="M365.93,-178.01C378.28,-179.77 391.02,-181.44 403,-183 458.78,-190.28 521.48,-198.44 570.56,-203.73"/>
<polygon fill="none" stroke="black" points="570.8,-203.76 577.18,-200.41 582.73,-205.02 576.35,-208.37 570.8,-203.76"/>
</g>
<!-- stage_1&#45;&gt;stage_5 -->
<g id="edge14" class="edge">
<title>stage_1&#45;&gt;stage_5</title>
<path fill="none" stroke="black" stroke-dasharray="5,2" d="M367.27,-159.48C468.03,-158.73 651.65,-157.38 757.64,-156.6"/>
<polygon fill="none" stroke="black" points="757.67,-160.1 767.65,-156.53 757.62,-153.1 757.67,-160.1"/>
</g>
<!-- stage_2&#45;&gt;stage_3 -->
<g id="edge9" class="edge">
<title>stage_2&#45;&gt;stage_3</title>
<path fill="none" stroke="black" d="M511.23,-132.15C540.18,-147.07 581.34,-168.27 612.46,-184.31"/>
<polygon fill="black" stroke="black" points="610.87,-187.42 621.36,-188.89 614.07,-181.2 610.87,-187.42"/>
</g>
<!-- stage_4 -->
<g id="node8" class="node">
<title>stage_4</title>
<path fill="none" stroke="black" d="M900,-228C900,-228 780,-228 780,-228 774,-228 768,-222 768,-216 768,-216 768,-204 768,-204 768,-198 774,-192 780,-192 780,-192 900,-192 900,-192 906,-192 912,-198 912,-204 912,-204 912,-216 912,-216 912,-222 906,-228 900,-228"/>
<text text-anchor="middle" x="840" y="-206.3" font-family="Times,serif" font-size="14.00">devel</text>
</g>
<!-- stage_3&#45;&gt;stage_4 -->
<g id="edge12" class="edge">
<title>stage_3&#45;&gt;stage_4</title>
<path fill="none" stroke="black" d="M732.18,-208.22C740.56,-208.36 749.15,-208.51 757.62,-208.65"/>
<polygon fill="black" stroke="black" points="757.84,-212.15 767.89,-208.82 757.95,-205.15 757.84,-212.15"/>
</g>
<!-- stage_3&#45;&gt;stage_5 -->
<g id="edge15" class="edge">
<title>stage_3&#45;&gt;stage_5</title>
<path fill="none" stroke="black" stroke-dasharray="5,2" d="M722.39,-188.95C736.32,-185.01 751.16,-180.82 765.43,-176.79"/>
<polygon fill="none" stroke="black" points="766.52,-180.12 775.19,-174.03 764.62,-173.38 766.52,-180.12"/>
</g>
</g>
</svg>
