<?xml version="1.0" encoding="UTF-8" standalone="no"?>
<!DOCTYPE svg PUBLIC "-//W3C//DTD SVG 1.1//EN" "http://www.w3.org/Graphics/SVG/1.1/DTD/svg11.dtd">
<!-- Generated by graphviz version 12.2.1 (20241206.2353)
 -->
<!-- Title: G Pages: 1 -->
<svg width="1843pt" height="971pt" viewBox="0.00 0.00 1843.00 971.44" xmlns="http://www.w3.org/2000/svg" xmlns:xlink="http://www.w3.org/1999/xlink">
  <g id="graph0" class="graph" transform="scale(1 1) rotate(0) translate(4 967.44)">
    <title>G</title>
    <polygon fill="white" stroke="none" points="-4,4 -4,-967.44 1839,-967.44 1839,4 -4,4"/>
    <g id="clust1" class="cluster">
      <title>cluster_legend</title>
      <polygon fill="none" stroke="black" points="8,-450.44 8,-524.44 353.12,-524.44 353.12,-450.44 8,-450.44"/>
    </g>
    <!-- key -->
    <g id="node1" class="node">
      <title>key</title>
      <text text-anchor="start" x="122" y="-501.07" font-family="monospace" font-size="10.00">FROM ...</text>
      <text text-anchor="start" x="80" y="-484.32" font-family="monospace" font-size="10.00">COPY &#45;&#45;from=... </text>
      <text text-anchor="start" x="26" y="-467.57" font-family="monospace" font-size="10.00">RUN &#45;&#45;mount=(.*)from=... </text>
    </g>
    <!-- key2 -->
    <g id="node2" class="node">
      <title>key2</title>
      <text text-anchor="start" x="315.12" y="-501.07" font-family="monospace" font-size="10.00"/>
      <text text-anchor="start" x="315.12" y="-484.32" font-family="monospace" font-size="10.00"/>
      <text text-anchor="start" x="315.12" y="-467.57" font-family="monospace" font-size="10.00"/>
    </g>
    <!-- key&#45;&gt;key2 -->
    <g id="edge1" class="edge">
      <title>key:e&#45;&gt;key2:w</title>
      <path fill="none" stroke="black" d="M179,-504.19C234.24,-504.19 250.8,-504.19 300.9,-504.19"/>
      <polygon fill="black" stroke="black" points="300.61,-507.69 310.61,-504.19 300.61,-500.69 300.61,-507.69"/>
    </g>
    <!-- key&#45;&gt;key2 -->
    <g id="edge2" class="edge">
      <title>key:e&#45;&gt;key2:w</title>
      <path fill="none" stroke="black" d="M179,-487.44C234.24,-487.44 250.8,-487.44 300.9,-487.44"/>
      <polygon fill="none" stroke="black" points="300.61,-490.94 310.61,-487.44 300.61,-483.94 300.61,-490.94"/>
    </g>
    <!-- key&#45;&gt;key2 -->
    <g id="edge3" class="edge">
      <title>key:e&#45;&gt;key2:w</title>
      <path fill="none" stroke="black" d="M179,-470.69C233.66,-470.69 250.45,-470.69 299.34,-470.69"/>
      <polygon fill="none" stroke="black" points="299.22,-470.69 305.22,-466.69 311.22,-470.69 305.22,-474.69 299.22,-470.69"/>
    </g>
    <!-- external_image_0 -->
    <g id="node3" class="node">
      <title>external_image_0</title>
      <path
        fill="none"
        stroke="#333333"
        stroke-dasharray="5,2"
        d="M161,-632.44C161,-632.44 41,-632.44 41,-632.44 35,-632.44 29,-626.44 29,-620.44 29,-620.44 29,-608.44 29,-608.44 29,-602.44 35,-596.44 41,-596.44 41,-596.44 161,-596.44 161,-596.44 167,-596.44 173,-602.44 173,-608.44 173,-608.44 173,-620.44 173,-620.44 173,-626.44 167,-632.44 161,-632.44"
      />
      <text text-anchor="middle" x="101" y="-609.39" font-family="Times,serif" font-size="14.00" fill="#333333">$BASE_IMAGE</text>
    </g>
    <!-- stage_0 -->
    <g id="node4" class="node">
      <title>stage_0</title>
      <path
        fill="none"
        stroke="black"
        d="M378.12,-632.44C378.12,-632.44 258.12,-632.44 258.12,-632.44 252.12,-632.44 246.12,-626.44 246.12,-620.44 246.12,-620.44 246.12,-608.44 246.12,-608.44 246.12,-602.44 252.12,-596.44 258.12,-596.44 258.12,-596.44 378.12,-596.44 378.12,-596.44 384.12,-596.44 390.12,-602.44 390.12,-608.44 390.12,-608.44 390.12,-620.44 390.12,-620.44 390.12,-626.44 384.12,-632.44 378.12,-632.44"
      />
      <text text-anchor="middle" x="318.12" y="-609.39" font-family="Times,serif" font-size="14.00">rosdep&#45;depend</text>
    </g>
    <!-- external_image_0&#45;&gt;stage_0 -->
    <g id="edge4" class="edge">
      <title>external_image_0&#45;&gt;stage_0</title>
      <path fill="none" stroke="black" d="M173.33,-614.44C192.95,-614.44 214.39,-614.44 234.59,-614.44"/>
      <polygon fill="black" stroke="black" points="234.47,-617.94 244.47,-614.44 234.47,-610.94 234.47,-617.94"/>
    </g>
    <!-- stage_1 -->
    <g id="node5" class="node">
      <title>stage_1</title>
      <path
        fill="none"
        stroke="black"
        d="M860.75,-876.44C860.75,-876.44 665.5,-876.44 665.5,-876.44 659.5,-876.44 653.5,-870.44 653.5,-864.44 653.5,-864.44 653.5,-852.44 653.5,-852.44 653.5,-846.44 659.5,-840.44 665.5,-840.44 665.5,-840.44 860.75,-840.44 860.75,-840.44 866.75,-840.44 872.75,-846.44 872.75,-852.44 872.75,-852.44 872.75,-864.44 872.75,-864.44 872.75,-870.44 866.75,-876.44 860.75,-876.44"
      />
      <text text-anchor="middle" x="763.12" y="-853.39" font-family="Times,serif" font-size="14.00">rosdep&#45;universe&#45;visualization&#45;depend</text>
    </g>
    <!-- stage_0&#45;&gt;stage_1 -->
    <g id="edge5" class="edge">
      <title>stage_0&#45;&gt;stage_1</title>
      <path fill="none" stroke="black" d="M523.25,-706.44C593.23,-714.72 569.98,-786.93 630.25,-823.44 638.19,-828.25 646.78,-832.4 655.65,-836"/>
      <polygon fill="black" stroke="black" points="654.15,-839.17 664.74,-839.42 656.62,-832.62 654.15,-839.17"/>
    </g>
    <!-- stage_2 -->
    <g id="node6" class="node">
      <title>stage_2</title>
      <path
        fill="none"
        stroke="black"
        d="M877.25,-772.44C877.25,-772.44 649,-772.44 649,-772.44 643,-772.44 637,-766.44 637,-760.44 637,-760.44 637,-748.44 637,-748.44 637,-742.44 643,-736.44 649,-736.44 649,-736.44 877.25,-736.44 877.25,-736.44 883.25,-736.44 889.25,-742.44 889.25,-748.44 889.25,-748.44 889.25,-760.44 889.25,-760.44 889.25,-766.44 883.25,-772.44 877.25,-772.44"
      />
      <text text-anchor="middle" x="763.12" y="-749.39" font-family="Times,serif" font-size="14.00">rosdep&#45;universe&#45;sensing&#45;perception&#45;depend</text>
    </g>
    <!-- stage_0&#45;&gt;stage_2 -->
    <g id="edge6" class="edge">
      <title>stage_0&#45;&gt;stage_2</title>
      <path fill="none" stroke="black" d="M523.25,-706.44C573.98,-712.44 630.01,-723.46 675.04,-733.43"/>
      <polygon fill="black" stroke="black" points="674.25,-736.84 684.77,-735.61 675.78,-730.01 674.25,-736.84"/>
    </g>
    <!-- stage_3 -->
    <g id="node7" class="node">
      <title>stage_3</title>
      <path
        fill="none"
        stroke="black"
        d="M884,-435.44C884,-435.44 642.25,-435.44 642.25,-435.44 636.25,-435.44 630.25,-429.44 630.25,-423.44 630.25,-423.44 630.25,-411.44 630.25,-411.44 630.25,-405.44 636.25,-399.44 642.25,-399.44 642.25,-399.44 884,-399.44 884,-399.44 890,-399.44 896,-405.44 896,-411.44 896,-411.44 896,-423.44 896,-423.44 896,-429.44 890,-435.44 884,-435.44"
      />
      <text text-anchor="middle" x="763.12" y="-412.39" font-family="Times,serif" font-size="14.00">rosdep&#45;universe&#45;localization&#45;mapping&#45;depend</text>
    </g>
    <!-- stage_0&#45;&gt;stage_3 -->
    <g id="edge7" class="edge">
      <title>stage_0&#45;&gt;stage_3</title>
      <path fill="none" stroke="black" d="M345.31,-632.82C382.4,-657.28 453.29,-698.4 521.25,-706.44"/>
      <path fill="none" stroke="black" d="M523.25,-706.44C610.05,-716.71 581.02,-613.66 630.25,-541.44 657.08,-502.08 698.38,-465.85 727.6,-442.85"/>
      <polygon fill="black" stroke="black" points="729.67,-445.68 735.43,-436.79 725.38,-440.14 729.67,-445.68"/>
    </g>
    <!-- stage_4 -->
    <g id="node8" class="node">
      <title>stage_4</title>
      <path
        fill="none"
        stroke="black"
        d="M871.25,-339.44C871.25,-339.44 655,-339.44 655,-339.44 649,-339.44 643,-333.44 643,-327.44 643,-327.44 643,-315.44 643,-315.44 643,-309.44 649,-303.44 655,-303.44 655,-303.44 871.25,-303.44 871.25,-303.44 877.25,-303.44 883.25,-309.44 883.25,-315.44 883.25,-315.44 883.25,-327.44 883.25,-327.44 883.25,-333.44 877.25,-339.44 871.25,-339.44"
      />
      <text text-anchor="middle" x="763.12" y="-316.39" font-family="Times,serif" font-size="14.00">rosdep&#45;universe&#45;planning&#45;control&#45;depend</text>
    </g>
    <!-- stage_0&#45;&gt;stage_4 -->
    <g id="edge8" class="edge">
      <title>stage_0&#45;&gt;stage_4</title>
      <path fill="none" stroke="black" d="M390.58,-630.26C452.37,-639.42 540.06,-640.85 594.25,-591.44 661.96,-529.7 575.67,-462.04 630.25,-388.44 644.78,-368.85 666.67,-354.58 688.47,-344.37"/>
      <polygon fill="black" stroke="black" points="689.67,-347.67 697.4,-340.43 686.84,-341.26 689.67,-347.67"/>
    </g>
    <!-- stage_5 -->
    <g id="node9" class="node">
      <title>stage_5</title>
      <path
        fill="none"
        stroke="black"
        d="M867.12,-235.44C867.12,-235.44 659.12,-235.44 659.12,-235.44 653.12,-235.44 647.12,-229.44 647.12,-223.44 647.12,-223.44 647.12,-211.44 647.12,-211.44 647.12,-205.44 653.12,-199.44 659.12,-199.44 659.12,-199.44 867.12,-199.44 867.12,-199.44 873.12,-199.44 879.12,-205.44 879.12,-211.44 879.12,-211.44 879.12,-223.44 879.12,-223.44 879.12,-229.44 873.12,-235.44 867.12,-235.44"
      />
      <text text-anchor="middle" x="763.12" y="-212.39" font-family="Times,serif" font-size="14.00">rosdep&#45;universe&#45;vehicle&#45;system&#45;depend</text>
    </g>
    <!-- stage_0&#45;&gt;stage_5 -->
    <g id="edge9" class="edge">
      <title>stage_0&#45;&gt;stage_5</title>
      <path
        fill="none"
        stroke="black"
        d="M390.26,-598.63C398.77,-595.07 407,-590.73 414.25,-585.44 436.95,-568.87 427.97,-550.58 450.25,-533.44 504.18,-491.94 550.09,-533.21 594.25,-481.44 649.74,-416.38 580.5,-361.99 630.25,-292.44 646.74,-269.39 672.68,-252.46 697.2,-240.58"
      />
      <polygon fill="black" stroke="black" points="698.59,-243.79 706.21,-236.43 695.67,-237.44 698.59,-243.79"/>
    </g>
    <!-- stage_6 -->
    <g id="node10" class="node">
      <title>stage_6</title>
      <path
        fill="none"
        stroke="black"
        d="M1100.62,-697.44C1100.62,-697.44 978.88,-697.44 978.88,-697.44 972.88,-697.44 966.88,-691.44 966.88,-685.44 966.88,-685.44 966.88,-673.44 966.88,-673.44 966.88,-667.44 972.88,-661.44 978.88,-661.44 978.88,-661.44 1100.62,-661.44 1100.62,-661.44 1106.62,-661.44 1112.62,-667.44 1112.62,-673.44 1112.62,-673.44 1112.62,-685.44 1112.62,-685.44 1112.62,-691.44 1106.62,-697.44 1100.62,-697.44"
      />
      <text text-anchor="middle" x="1039.75" y="-674.39" font-family="Times,serif" font-size="14.00">rosdep&#45;universe&#45;depend</text>
    </g>
    <!-- stage_0&#45;&gt;stage_6 -->
    <g id="edge10" class="edge">
      <title>stage_0&#45;&gt;stage_6</title>
      <path fill="none" stroke="black" d="M523.25,-706.44C675.09,-724.41 853.49,-706.43 955.62,-692.45"/>
      <polygon fill="black" stroke="black" points="955.86,-695.95 965.28,-691.1 954.89,-689.01 955.86,-695.95"/>
    </g>
    <!-- stage_7 -->
    <g id="node11" class="node">
      <title>stage_7</title>
      <path
        fill="none"
        stroke="black"
        d="M582.25,-580.44C582.25,-580.44 462.25,-580.44 462.25,-580.44 456.25,-580.44 450.25,-574.44 450.25,-568.44 450.25,-568.44 450.25,-556.44 450.25,-556.44 450.25,-550.44 456.25,-544.44 462.25,-544.44 462.25,-544.44 582.25,-544.44 582.25,-544.44 588.25,-544.44 594.25,-550.44 594.25,-556.44 594.25,-556.44 594.25,-568.44 594.25,-568.44 594.25,-574.44 588.25,-580.44 582.25,-580.44"
      />
      <text text-anchor="middle" x="522.25" y="-557.39" font-family="Times,serif" font-size="14.00">core&#45;devel</text>
    </g>
    <!-- stage_0&#45;&gt;stage_7 -->
    <g id="edge11" class="edge">
      <title>stage_0&#45;&gt;stage_7</title>
      <path fill="none" stroke="black" d="M390.39,-596.11C406.09,-592.07 422.84,-587.76 438.93,-583.62"/>
      <polygon fill="none" stroke="black" points="439.67,-587.04 448.48,-581.16 437.93,-580.26 439.67,-587.04"/>
    </g>
    <!-- stage_8 -->
    <g id="node12" class="node">
      <title>stage_8</title>
      <path
        fill="none"
        stroke="black"
        d="M825.5,-588.44C825.5,-588.44 700.75,-588.44 700.75,-588.44 694.75,-588.44 688.75,-582.44 688.75,-576.44 688.75,-576.44 688.75,-564.44 688.75,-564.44 688.75,-558.44 694.75,-552.44 700.75,-552.44 700.75,-552.44 825.5,-552.44 825.5,-552.44 831.5,-552.44 837.5,-558.44 837.5,-564.44 837.5,-564.44 837.5,-576.44 837.5,-576.44 837.5,-582.44 831.5,-588.44 825.5,-588.44"
      />
      <text text-anchor="middle" x="763.12" y="-565.39" font-family="Times,serif" font-size="14.00">universe&#45;common&#45;devel</text>
    </g>
    <!-- stage_0&#45;&gt;stage_8 -->
    <g id="edge13" class="edge">
      <title>stage_0&#45;&gt;stage_8</title>
      <path fill="none" stroke="black" d="M523.25,-706.44C611.92,-716.93 698.58,-639.43 738.8,-596.97"/>
      <polygon fill="none" stroke="black" points="741.18,-599.55 745.41,-589.84 736.05,-594.79 741.18,-599.55"/>
    </g>
    <!-- stage_15 -->
    <g id="node13" class="node">
      <title>stage_15</title>
      <path
        fill="none"
        stroke="black"
        d="M1112.25,-859.44C1112.25,-859.44 967.25,-859.44 967.25,-859.44 961.25,-859.44 955.25,-853.44 955.25,-847.44 955.25,-847.44 955.25,-835.44 955.25,-835.44 955.25,-829.44 961.25,-823.44 967.25,-823.44 967.25,-823.44 1112.25,-823.44 1112.25,-823.44 1118.25,-823.44 1124.25,-829.44 1124.25,-835.44 1124.25,-835.44 1124.25,-847.44 1124.25,-847.44 1124.25,-853.44 1118.25,-859.44 1112.25,-859.44"
      />
      <text text-anchor="middle" x="1039.75" y="-836.39" font-family="Times,serif" font-size="14.00">universe&#45;visualization&#45;devel</text>
    </g>
    <!-- stage_1&#45;&gt;stage_15 -->
    <g id="edge16" class="edge">
      <title>stage_1&#45;&gt;stage_15</title>
      <path fill="none" stroke="black" d="M873.06,-851.7C896.37,-850.25 920.83,-848.74 943.58,-847.33"/>
      <polygon fill="none" stroke="black" points="943.68,-850.83 953.44,-846.72 943.24,-843.85 943.68,-850.83"/>
    </g>
    <!-- stage_23 -->
    <g id="node14" class="node">
      <title>stage_23</title>
      <path
        fill="none"
        stroke="black"
        d="M1362.12,-963.44C1362.12,-963.44 1242.12,-963.44 1242.12,-963.44 1236.12,-963.44 1230.12,-957.44 1230.12,-951.44 1230.12,-951.44 1230.12,-939.44 1230.12,-939.44 1230.12,-933.44 1236.12,-927.44 1242.12,-927.44 1242.12,-927.44 1362.12,-927.44 1362.12,-927.44 1368.12,-927.44 1374.12,-933.44 1374.12,-939.44 1374.12,-939.44 1374.12,-951.44 1374.12,-951.44 1374.12,-957.44 1368.12,-963.44 1362.12,-963.44"
      />
      <text text-anchor="middle" x="1302.12" y="-940.39" font-family="Times,serif" font-size="14.00">universe&#45;visualization</text>
    </g>
    <!-- stage_1&#45;&gt;stage_23 -->
    <g id="edge18" class="edge">
      <title>stage_1&#45;&gt;stage_23</title>
      <path fill="none" stroke="black" d="M873.05,-868.29C923.74,-873.9 984.65,-882.12 1038.75,-893.44"/>
    </g>
    <!-- stage_10 -->
    <g id="node15" class="node">
      <title>stage_10</title>
      <path
        fill="none"
        stroke="black"
        d="M1128.75,-593.44C1128.75,-593.44 950.75,-593.44 950.75,-593.44 944.75,-593.44 938.75,-587.44 938.75,-581.44 938.75,-581.44 938.75,-569.44 938.75,-569.44 938.75,-563.44 944.75,-557.44 950.75,-557.44 950.75,-557.44 1128.75,-557.44 1128.75,-557.44 1134.75,-557.44 1140.75,-563.44 1140.75,-569.44 1140.75,-569.44 1140.75,-581.44 1140.75,-581.44 1140.75,-587.44 1134.75,-593.44 1128.75,-593.44"
      />
      <text text-anchor="middle" x="1039.75" y="-570.39" font-family="Times,serif" font-size="14.00">universe&#45;sensing&#45;perception&#45;devel</text>
    </g>
    <!-- stage_2&#45;&gt;stage_10 -->
    <g id="edge19" class="edge">
      <title>stage_2&#45;&gt;stage_10</title>
      <path fill="none" stroke="black" d="M780.5,-736.38C808.7,-706.27 869.43,-645.68 932,-610.44 940.24,-605.8 949.2,-601.66 958.3,-598"/>
      <polygon fill="none" stroke="black" points="959.49,-601.28 967.59,-594.45 957,-594.74 959.49,-601.28"/>
    </g>
    <!-- stage_11 -->
    <g id="node16" class="node">
      <title>stage_11</title>
      <path
        fill="none"
        stroke="black"
        d="M1406.12,-755.44C1406.12,-755.44 1198.12,-755.44 1198.12,-755.44 1192.12,-755.44 1186.12,-749.44 1186.12,-743.44 1186.12,-743.44 1186.12,-731.44 1186.12,-731.44 1186.12,-725.44 1192.12,-719.44 1198.12,-719.44 1198.12,-719.44 1406.12,-719.44 1406.12,-719.44 1412.12,-719.44 1418.12,-725.44 1418.12,-731.44 1418.12,-731.44 1418.12,-743.44 1418.12,-743.44 1418.12,-749.44 1412.12,-755.44 1406.12,-755.44"
      />
      <text text-anchor="middle" x="1302.12" y="-732.39" font-family="Times,serif" font-size="14.00">universe&#45;sensing&#45;perception&#45;devel&#45;cuda</text>
    </g>
    <!-- stage_2&#45;&gt;stage_11 -->
    <g id="edge22" class="edge">
      <title>stage_2&#45;&gt;stage_11</title>
      <path fill="none" stroke="black" d="M865.46,-772.92C917.13,-780.92 981.08,-788.66 1038.75,-789.44"/>
      <path fill="none" stroke="black" d="M1040.75,-789.44C1107.23,-790.34 1181.46,-773.72 1233.59,-759.03"/>
      <polygon fill="none" stroke="black" points="1234.27,-762.48 1242.92,-756.35 1232.34,-755.75 1234.27,-762.48"/>
    </g>
    <!-- stage_18 -->
    <g id="node17" class="node">
      <title>stage_18</title>
      <path
        fill="none"
        stroke="black"
        d="M1374.25,-599.44C1374.25,-599.44 1230,-599.44 1230,-599.44 1224,-599.44 1218,-593.44 1218,-587.44 1218,-587.44 1218,-575.44 1218,-575.44 1218,-569.44 1224,-563.44 1230,-563.44 1230,-563.44 1374.25,-563.44 1374.25,-563.44 1380.25,-563.44 1386.25,-569.44 1386.25,-575.44 1386.25,-575.44 1386.25,-587.44 1386.25,-587.44 1386.25,-593.44 1380.25,-599.44 1374.25,-599.44"
      />
      <text text-anchor="middle" x="1302.12" y="-576.39" font-family="Times,serif" font-size="14.00">universe&#45;sensing&#45;perception</text>
    </g>
    <!-- stage_2&#45;&gt;stage_18 -->
    <g id="edge25" class="edge">
      <title>stage_2&#45;&gt;stage_18</title>
      <path fill="none" stroke="black" d="M787.37,-736.1C818.48,-712.53 876.22,-672.06 932,-650.44 957.3,-640.63 1105.85,-614.39 1206.61,-597.25"/>
      <polygon fill="none" stroke="black" points="1206.97,-600.74 1216.24,-595.61 1205.8,-593.83 1206.97,-600.74"/>
    </g>
    <!-- stage_19 -->
    <g id="node18" class="node">
      <title>stage_19</title>
      <path
        fill="none"
        stroke="black"
        d="M1643,-807.44C1643,-807.44 1468.75,-807.44 1468.75,-807.44 1462.75,-807.44 1456.75,-801.44 1456.75,-795.44 1456.75,-795.44 1456.75,-783.44 1456.75,-783.44 1456.75,-777.44 1462.75,-771.44 1468.75,-771.44 1468.75,-771.44 1643,-771.44 1643,-771.44 1649,-771.44 1655,-777.44 1655,-783.44 1655,-783.44 1655,-795.44 1655,-795.44 1655,-801.44 1649,-807.44 1643,-807.44"
      />
      <text text-anchor="middle" x="1555.88" y="-784.39" font-family="Times,serif" font-size="14.00">universe&#45;sensing&#45;perception&#45;cuda</text>
    </g>
    <!-- stage_2&#45;&gt;stage_19 -->
    <g id="edge26" class="edge">
      <title>stage_2&#45;&gt;stage_19</title>
      <path fill="none" stroke="black" d="M1040.75,-789.44C1180.11,-791.33 1340.74,-790.91 1444.84,-790.3"/>
      <polygon fill="none" stroke="black" points="1444.82,-793.8 1454.79,-790.24 1444.77,-786.8 1444.82,-793.8"/>
    </g>
    <!-- stage_12 -->
    <g id="node19" class="node">
      <title>stage_12</title>
      <path
        fill="none"
        stroke="black"
        d="M1135.5,-443.44C1135.5,-443.44 944,-443.44 944,-443.44 938,-443.44 932,-437.44 932,-431.44 932,-431.44 932,-419.44 932,-419.44 932,-413.44 938,-407.44 944,-407.44 944,-407.44 1135.5,-407.44 1135.5,-407.44 1141.5,-407.44 1147.5,-413.44 1147.5,-419.44 1147.5,-419.44 1147.5,-431.44 1147.5,-431.44 1147.5,-437.44 1141.5,-443.44 1135.5,-443.44"
      />
      <text text-anchor="middle" x="1039.75" y="-420.39" font-family="Times,serif" font-size="14.00">universe&#45;localization&#45;mapping&#45;devel</text>
    </g>
    <!-- stage_3&#45;&gt;stage_12 -->
    <g id="edge27" class="edge">
      <title>stage_3&#45;&gt;stage_12</title>
      <path fill="none" stroke="black" d="M896.21,-421.29C904.33,-421.52 912.48,-421.76 920.54,-422"/>
      <polygon fill="none" stroke="black" points="920.26,-425.49 930.36,-422.28 920.46,-418.49 920.26,-425.49"/>
    </g>
    <!-- stage_20 -->
    <g id="node20" class="node">
      <title>stage_20</title>
      <path
        fill="none"
        stroke="black"
        d="M1381,-391.44C1381,-391.44 1223.25,-391.44 1223.25,-391.44 1217.25,-391.44 1211.25,-385.44 1211.25,-379.44 1211.25,-379.44 1211.25,-367.44 1211.25,-367.44 1211.25,-361.44 1217.25,-355.44 1223.25,-355.44 1223.25,-355.44 1381,-355.44 1381,-355.44 1387,-355.44 1393,-361.44 1393,-367.44 1393,-367.44 1393,-379.44 1393,-379.44 1393,-385.44 1387,-391.44 1381,-391.44"
      />
      <text text-anchor="middle" x="1302.12" y="-368.39" font-family="Times,serif" font-size="14.00">universe&#45;localization&#45;mapping</text>
    </g>
    <!-- stage_3&#45;&gt;stage_20 -->
    <g id="edge30" class="edge">
      <title>stage_3&#45;&gt;stage_20</title>
      <path fill="none" stroke="black" d="M896.46,-400.11C908.47,-398.77 920.45,-397.52 932,-396.44 1022.45,-387.97 1125.67,-381.84 1199.92,-378.05"/>
      <polygon fill="none" stroke="black" points="1199.8,-381.56 1209.61,-377.56 1199.44,-374.57 1199.8,-381.56"/>
    </g>
    <!-- stage_13 -->
    <g id="node21" class="node">
      <title>stage_13</title>
      <path
        fill="none"
        stroke="black"
        d="M1122.75,-339.44C1122.75,-339.44 956.75,-339.44 956.75,-339.44 950.75,-339.44 944.75,-333.44 944.75,-327.44 944.75,-327.44 944.75,-315.44 944.75,-315.44 944.75,-309.44 950.75,-303.44 956.75,-303.44 956.75,-303.44 1122.75,-303.44 1122.75,-303.44 1128.75,-303.44 1134.75,-309.44 1134.75,-315.44 1134.75,-315.44 1134.75,-327.44 1134.75,-327.44 1134.75,-333.44 1128.75,-339.44 1122.75,-339.44"
      />
      <text text-anchor="middle" x="1039.75" y="-316.39" font-family="Times,serif" font-size="14.00">universe&#45;planning&#45;control&#45;devel</text>
    </g>
    <!-- stage_4&#45;&gt;stage_13 -->
    <g id="edge31" class="edge">
      <title>stage_4&#45;&gt;stage_13</title>
      <path fill="none" stroke="black" d="M883.38,-321.44C899.96,-321.44 916.91,-321.44 933.21,-321.44"/>
      <polygon fill="none" stroke="black" points="932.88,-324.94 942.88,-321.44 932.88,-317.94 932.88,-324.94"/>
    </g>
    <!-- stage_21 -->
    <g id="node22" class="node">
      <title>stage_21</title>
      <path
        fill="none"
        stroke="black"
        d="M1368.25,-149.44C1368.25,-149.44 1236,-149.44 1236,-149.44 1230,-149.44 1224,-143.44 1224,-137.44 1224,-137.44 1224,-125.44 1224,-125.44 1224,-119.44 1230,-113.44 1236,-113.44 1236,-113.44 1368.25,-113.44 1368.25,-113.44 1374.25,-113.44 1380.25,-119.44 1380.25,-125.44 1380.25,-125.44 1380.25,-137.44 1380.25,-137.44 1380.25,-143.44 1374.25,-149.44 1368.25,-149.44"
      />
      <text text-anchor="middle" x="1302.12" y="-126.39" font-family="Times,serif" font-size="14.00">universe&#45;planning&#45;control</text>
    </g>
    <!-- stage_4&#45;&gt;stage_21 -->
    <g id="edge38" class="edge">
      <title>stage_4&#45;&gt;stage_21</title>
      <path fill="none" stroke="black" d="M871.56,-302.95C975.99,-284.58 1122.44,-257.57 1147.5,-246.44 1196.89,-224.51 1245.37,-184.19 1274.27,-157.6"/>
      <polygon fill="none" stroke="black" points="1276.56,-160.25 1281.48,-150.86 1271.78,-155.13 1276.56,-160.25"/>
    </g>
    <!-- stage_14 -->
    <g id="node23" class="node">
      <title>stage_14</title>
      <path
        fill="none"
        stroke="black"
        d="M1118.62,-235.44C1118.62,-235.44 960.88,-235.44 960.88,-235.44 954.88,-235.44 948.88,-229.44 948.88,-223.44 948.88,-223.44 948.88,-211.44 948.88,-211.44 948.88,-205.44 954.88,-199.44 960.88,-199.44 960.88,-199.44 1118.62,-199.44 1118.62,-199.44 1124.62,-199.44 1130.62,-205.44 1130.62,-211.44 1130.62,-211.44 1130.62,-223.44 1130.62,-223.44 1130.62,-229.44 1124.62,-235.44 1118.62,-235.44"
      />
      <text text-anchor="middle" x="1039.75" y="-212.39" font-family="Times,serif" font-size="14.00">universe&#45;vehicle&#45;system&#45;devel</text>
    </g>
    <!-- stage_5&#45;&gt;stage_14 -->
    <g id="edge39" class="edge">
      <title>stage_5&#45;&gt;stage_14</title>
      <path fill="none" stroke="black" d="M879.4,-217.44C898.57,-217.44 918.33,-217.44 937.14,-217.44"/>
      <polygon fill="none" stroke="black" points="936.88,-220.94 946.88,-217.44 936.88,-213.94 936.88,-220.94"/>
    </g>
    <!-- stage_22 -->
    <g id="node24" class="node">
      <title>stage_22</title>
      <path
        fill="none"
        stroke="black"
        d="M1364.12,-91.44C1364.12,-91.44 1240.12,-91.44 1240.12,-91.44 1234.12,-91.44 1228.12,-85.44 1228.12,-79.44 1228.12,-79.44 1228.12,-67.44 1228.12,-67.44 1228.12,-61.44 1234.12,-55.44 1240.12,-55.44 1240.12,-55.44 1364.12,-55.44 1364.12,-55.44 1370.12,-55.44 1376.12,-61.44 1376.12,-67.44 1376.12,-67.44 1376.12,-79.44 1376.12,-79.44 1376.12,-85.44 1370.12,-91.44 1364.12,-91.44"
      />
      <text text-anchor="middle" x="1302.12" y="-68.39" font-family="Times,serif" font-size="14.00">universe&#45;vehicle&#45;system</text>
    </g>
    <!-- stage_5&#45;&gt;stage_22 -->
    <g id="edge44" class="edge">
      <title>stage_5&#45;&gt;stage_22</title>
      <path fill="none" stroke="black" d="M834.32,-198.98C854.26,-193.69 876,-187.88 896,-182.44 1023.99,-147.65 1055.21,-136.1 1183.5,-102.44 1194.18,-99.64 1205.43,-96.77 1216.56,-93.97"/>
      <polygon fill="none" stroke="black" points="1217.31,-97.39 1226.16,-91.57 1215.61,-90.6 1217.31,-97.39"/>
    </g>
    <!-- stage_16 -->
    <g id="node25" class="node">
      <title>stage_16</title>
      <path
        fill="none"
        stroke="black"
        d="M1362.12,-541.44C1362.12,-541.44 1242.12,-541.44 1242.12,-541.44 1236.12,-541.44 1230.12,-535.44 1230.12,-529.44 1230.12,-529.44 1230.12,-517.44 1230.12,-517.44 1230.12,-511.44 1236.12,-505.44 1242.12,-505.44 1242.12,-505.44 1362.12,-505.44 1362.12,-505.44 1368.12,-505.44 1374.12,-511.44 1374.12,-517.44 1374.12,-517.44 1374.12,-529.44 1374.12,-529.44 1374.12,-535.44 1368.12,-541.44 1362.12,-541.44"
      />
      <text text-anchor="middle" x="1302.12" y="-518.39" font-family="Times,serif" font-size="14.00">universe&#45;devel</text>
    </g>
    <!-- stage_6&#45;&gt;stage_16 -->
    <g id="edge45" class="edge">
      <title>stage_6&#45;&gt;stage_16</title>
      <path
        fill="none"
        stroke="black"
        d="M1072.88,-661.06C1095.32,-647.26 1125.16,-626.94 1147.5,-604.44 1167.31,-584.5 1160.36,-568.39 1183.5,-552.44 1194.08,-545.15 1206.31,-539.68 1218.8,-535.59"
      />
      <polygon fill="none" stroke="black" points="1219.76,-538.96 1228.36,-532.77 1217.78,-532.24 1219.76,-538.96"/>
    </g>
    <!-- stage_17 -->
    <g id="node26" class="node">
      <title>stage_17</title>
      <path
        fill="none"
        stroke="black"
        d="M1615.88,-680.44C1615.88,-680.44 1495.88,-680.44 1495.88,-680.44 1489.88,-680.44 1483.88,-674.44 1483.88,-668.44 1483.88,-668.44 1483.88,-656.44 1483.88,-656.44 1483.88,-650.44 1489.88,-644.44 1495.88,-644.44 1495.88,-644.44 1615.88,-644.44 1615.88,-644.44 1621.88,-644.44 1627.88,-650.44 1627.88,-656.44 1627.88,-656.44 1627.88,-668.44 1627.88,-668.44 1627.88,-674.44 1621.88,-680.44 1615.88,-680.44"
      />
      <text text-anchor="middle" x="1555.88" y="-657.39" font-family="Times,serif" font-size="14.00">universe&#45;devel&#45;cuda</text>
    </g>
    <!-- stage_6&#45;&gt;stage_17 -->
    <g id="edge55" class="edge">
      <title>stage_6&#45;&gt;stage_17</title>
      <path fill="none" stroke="black" d="M1303.12,-639.44C1359.14,-630.04 1422.86,-636.02 1472.18,-644.24"/>
      <polygon fill="none" stroke="black" points="1471.49,-647.67 1481.94,-645.93 1472.69,-640.77 1471.49,-647.67"/>
    </g>
    <!-- stage_24 -->
    <g id="node27" class="node">
      <title>stage_24</title>
      <path
        fill="none"
        stroke="black"
        d="M1615.88,-541.44C1615.88,-541.44 1495.88,-541.44 1495.88,-541.44 1489.88,-541.44 1483.88,-535.44 1483.88,-529.44 1483.88,-529.44 1483.88,-517.44 1483.88,-517.44 1483.88,-511.44 1489.88,-505.44 1495.88,-505.44 1495.88,-505.44 1615.88,-505.44 1615.88,-505.44 1621.88,-505.44 1627.88,-511.44 1627.88,-517.44 1627.88,-517.44 1627.88,-529.44 1627.88,-529.44 1627.88,-535.44 1621.88,-541.44 1615.88,-541.44"
      />
      <text text-anchor="middle" x="1555.88" y="-518.39" font-family="Times,serif" font-size="14.00">universe</text>
    </g>
    <!-- stage_6&#45;&gt;stage_24 -->
    <g id="edge56" class="edge">
      <title>stage_6&#45;&gt;stage_24</title>
      <path fill="none" stroke="black" d="M1112.95,-668.9C1165.26,-661.12 1237.64,-650.09 1301.12,-639.44"/>
      <path fill="none" stroke="black" d="M1303.12,-639.44C1356.23,-630.53 1371.34,-631.83 1420.75,-610.44 1458.18,-594.24 1496.83,-567.97 1522.97,-548.53"/>
      <polygon fill="none" stroke="black" points="1524.93,-551.44 1530.8,-542.62 1520.71,-545.85 1524.93,-551.44"/>
    </g>
    <!-- stage_25 -->
    <g id="node28" class="node">
      <title>stage_25</title>
      <path
        fill="#e5e5e5"
        stroke="black"
        d="M1823,-807.44C1823,-807.44 1703,-807.44 1703,-807.44 1697,-807.44 1691,-801.44 1691,-795.44 1691,-795.44 1691,-783.44 1691,-783.44 1691,-777.44 1697,-771.44 1703,-771.44 1703,-771.44 1823,-771.44 1823,-771.44 1829,-771.44 1835,-777.44 1835,-783.44 1835,-783.44 1835,-795.44 1835,-795.44 1835,-801.44 1829,-807.44 1823,-807.44"
      />
      <text text-anchor="middle" x="1763" y="-784.39" font-family="Times,serif" font-size="14.00">universe&#45;cuda</text>
    </g>
    <!-- stage_6&#45;&gt;stage_25 -->
    <g id="edge57" class="edge">
      <title>stage_6&#45;&gt;stage_25</title>
      <path
        fill="none"
        stroke="black"
        d="M1112.95,-687.63C1125.86,-692.05 1138.15,-698.65 1147.5,-708.44 1198.42,-761.79 1127.42,-822.53 1183.5,-870.44 1246.37,-924.15 1473.55,-908.38 1554.88,-893.44"
      />
    </g>
    <!-- stage_7&#45;&gt;stage_8 -->
    <g id="edge65" class="edge">
      <title>stage_7&#45;&gt;stage_8</title>
      <path fill="none" stroke="black" d="M594.6,-564.83C620.58,-565.7 650.21,-566.69 677.25,-567.6"/>
      <polygon fill="black" stroke="black" points="677.04,-571.09 687.15,-567.93 677.27,-564.1 677.04,-571.09"/>
    </g>
    <!-- stage_8&#45;&gt;stage_15 -->
    <g id="edge71" class="edge">
      <title>stage_8&#45;&gt;stage_15</title>
      <path fill="none" stroke="black" d="M782.68,-588.62C810.12,-616.24 861.94,-671.31 896,-725.44 916.98,-758.79 902.77,-780.03 932,-806.44 936.77,-810.75 942.09,-814.54 947.73,-817.85"/>
      <polygon fill="black" stroke="black" points="945.68,-820.73 956.15,-822.3 948.95,-814.54 945.68,-820.73"/>
    </g>
    <!-- stage_8&#45;&gt;stage_10 -->
    <g id="edge67" class="edge">
      <title>stage_8&#45;&gt;stage_10</title>
      <path fill="none" stroke="black" d="M837.72,-571.78C865.12,-572.28 896.87,-572.86 926.93,-573.4"/>
      <polygon fill="black" stroke="black" points="926.79,-576.9 936.85,-573.59 926.91,-569.9 926.79,-576.9"/>
    </g>
    <!-- stage_8&#45;&gt;stage_12 -->
    <g id="edge68" class="edge">
      <title>stage_8&#45;&gt;stage_12</title>
      <path fill="none" stroke="black" d="M798.91,-552.08C848.4,-525.95 939.18,-478.01 993.74,-449.21"/>
      <polygon fill="black" stroke="black" points="995.27,-452.36 1002.48,-444.59 992,-446.16 995.27,-452.36"/>
    </g>
    <!-- stage_8&#45;&gt;stage_13 -->
    <g id="edge69" class="edge">
      <title>stage_8&#45;&gt;stage_13</title>
      <path fill="none" stroke="black" d="M785.89,-552.27C813.08,-529.08 860.35,-487.07 896,-446.44 914.06,-425.86 912.53,-415.69 932,-396.44 951.61,-377.06 976.7,-359.15 997.63,-345.7"/>
      <polygon fill="black" stroke="black" points="999.35,-348.75 1005.95,-340.46 995.62,-342.83 999.35,-348.75"/>
    </g>
    <!-- stage_8&#45;&gt;stage_14 -->
    <g id="edge70" class="edge">
      <title>stage_8&#45;&gt;stage_14</title>
      <path fill="none" stroke="black" d="M791.9,-552C822.23,-530.36 869.95,-491.64 896,-446.44 931.1,-385.54 892.66,-350.69 932,-292.44 946.33,-271.23 968.81,-254.13 989.45,-241.65"/>
      <polygon fill="black" stroke="black" points="991.18,-244.69 998.08,-236.65 987.67,-238.63 991.18,-244.69"/>
    </g>
    <!-- stage_8&#45;&gt;stage_16 -->
    <g id="edge72" class="edge">
      <title>stage_8&#45;&gt;stage_16</title>
      <path fill="none" stroke="black" d="M837.93,-558.59C867.16,-554.24 901.1,-549.61 932,-546.44 1030.27,-536.37 1143.75,-530.1 1218.65,-526.69"/>
      <polygon fill="black" stroke="black" points="1218.53,-530.2 1228.37,-526.26 1218.22,-523.21 1218.53,-530.2"/>
    </g>
    <!-- stage_9 -->
    <g id="node30" class="node">
      <title>stage_9</title>
      <path
        fill="none"
        stroke="black"
        d="M1117.12,-755.44C1117.12,-755.44 962.38,-755.44 962.38,-755.44 956.38,-755.44 950.38,-749.44 950.38,-743.44 950.38,-743.44 950.38,-731.44 950.38,-731.44 950.38,-725.44 956.38,-719.44 962.38,-719.44 962.38,-719.44 1117.12,-719.44 1117.12,-719.44 1123.12,-719.44 1129.12,-725.44 1129.12,-731.44 1129.12,-731.44 1129.12,-743.44 1129.12,-743.44 1129.12,-749.44 1123.12,-755.44 1117.12,-755.44"
      />
      <text text-anchor="middle" x="1039.75" y="-732.39" font-family="Times,serif" font-size="14.00">universe&#45;common&#45;devel&#45;cuda</text>
    </g>
    <!-- stage_8&#45;&gt;stage_9 -->
    <g id="edge66" class="edge">
      <title>stage_8&#45;&gt;stage_9</title>
      <path fill="none" stroke="black" d="M780.93,-588.53C809.28,-617.98 869.65,-676.24 932,-708.44 936.49,-710.76 941.18,-712.91 945.99,-714.89"/>
      <polygon fill="black" stroke="black" points="944.66,-718.13 955.25,-718.45 947.17,-711.6 944.66,-718.13"/>
    </g>
    <!-- stage_15&#45;&gt;stage_23 -->
    <g id="edge87" class="edge">
      <title>stage_15&#45;&gt;stage_23</title>
      <path
        fill="none"
        stroke="black"
        d="M1111.87,-859.89C1124.17,-864.43 1136.52,-869.91 1147.5,-876.44 1166.41,-887.7 1164.43,-899.45 1183.5,-910.44 1194.49,-916.78 1206.74,-922.06 1219.05,-926.44"
      />
      <polygon fill="none" stroke="black" points="1217.84,-929.72 1228.43,-929.57 1220.06,-923.08 1217.84,-929.72"/>
    </g>
    <!-- stage_15&#45;&gt;stage_16 -->
    <g id="edge86" class="edge">
      <title>stage_15&#45;&gt;stage_16</title>
      <path fill="none" stroke="black" d="M1124.71,-824.45C1133.35,-819.81 1141.24,-813.92 1147.5,-806.44 1220.72,-719.04 1107.05,-637.03 1183.5,-552.44 1192.96,-541.98 1205.54,-535 1218.95,-530.41"/>
      <polygon fill="none" stroke="black" points="1219.77,-533.82 1228.38,-527.65 1217.8,-527.1 1219.77,-533.82"/>
    </g>
    <!-- stage_10&#45;&gt;stage_11 -->
    <g id="edge75" class="edge">
      <title>stage_10&#45;&gt;stage_11</title>
      <path fill="none" stroke="black" d="M1070.36,-593.87C1117.45,-623.16 1209.4,-680.37 1261.9,-713.04"/>
      <polygon fill="none" stroke="black" points="1259.91,-715.92 1270.25,-718.23 1263.61,-709.98 1259.91,-715.92"/>
    </g>
    <!-- stage_10&#45;&gt;stage_18 -->
    <g id="edge77" class="edge">
      <title>stage_10&#45;&gt;stage_18</title>
      <path fill="none" stroke="black" d="M1141.05,-577.75C1162.54,-578.25 1185.18,-578.77 1206.46,-579.26"/>
      <polygon fill="none" stroke="black" points="1206.19,-582.75 1216.26,-579.49 1206.35,-575.76 1206.19,-582.75"/>
    </g>
    <!-- stage_10&#45;&gt;stage_16 -->
    <g id="edge76" class="edge">
      <title>stage_10&#45;&gt;stage_16</title>
      <path fill="none" stroke="black" d="M1133.28,-556.96C1161.16,-551.39 1191.56,-545.32 1218.73,-539.9"/>
      <polygon fill="none" stroke="black" points="1219.16,-543.38 1228.28,-537.99 1217.79,-536.51 1219.16,-543.38"/>
    </g>
    <!-- stage_11&#45;&gt;stage_19 -->
    <g id="edge79" class="edge">
      <title>stage_11&#45;&gt;stage_19</title>
      <path fill="none" stroke="black" d="M1392.59,-755.92C1412.62,-760.06 1434,-764.47 1454.45,-768.7"/>
      <polygon fill="none" stroke="black" points="1453.71,-772.12 1464.21,-770.71 1455.13,-765.26 1453.71,-772.12"/>
    </g>
    <!-- stage_11&#45;&gt;stage_17 -->
    <g id="edge78" class="edge">
      <title>stage_11&#45;&gt;stage_17</title>
      <path fill="none" stroke="black" d="M1365.09,-719.01C1383.05,-713.67 1402.68,-707.82 1420.75,-702.44 1440.69,-696.5 1462.3,-690.06 1482.23,-684.11"/>
      <polygon fill="none" stroke="black" points="1483.08,-687.51 1491.66,-681.3 1481.08,-680.81 1483.08,-687.51"/>
    </g>
    <!-- stage_12&#45;&gt;stage_20 -->
    <g id="edge81" class="edge">
      <title>stage_12&#45;&gt;stage_20</title>
      <path fill="none" stroke="black" d="M1133.28,-406.96C1154.91,-402.64 1178.06,-398.02 1200.05,-393.63"/>
      <polygon fill="none" stroke="black" points="1200.47,-397.11 1209.59,-391.72 1199.1,-390.25 1200.47,-397.11"/>
    </g>
    <!-- stage_12&#45;&gt;stage_16 -->
    <g id="edge80" class="edge">
      <title>stage_12&#45;&gt;stage_16</title>
      <path fill="none" stroke="black" d="M1099.74,-443.94C1115.35,-449.06 1132.13,-454.78 1147.5,-460.44 1181.23,-472.87 1218.54,-488.13 1247.95,-500.53"/>
      <polygon fill="none" stroke="black" points="1246.44,-503.69 1257.01,-504.36 1249.17,-497.24 1246.44,-503.69"/>
    </g>
    <!-- stage_13&#45;&gt;stage_21 -->
    <g id="edge83" class="edge">
      <title>stage_13&#45;&gt;stage_21</title>
      <path fill="none" stroke="black" d="M1112.9,-302.98C1124.9,-298.47 1136.88,-293 1147.5,-286.44 1203.33,-251.95 1253.94,-193.17 1280.84,-158.76"/>
      <polygon fill="none" stroke="black" points="1283.53,-161 1286.85,-150.95 1277.98,-156.74 1283.53,-161"/>
    </g>
    <!-- stage_13&#45;&gt;stage_16 -->
    <g id="edge82" class="edge">
      <title>stage_13&#45;&gt;stage_16</title>
      <path fill="none" stroke="black" d="M1067.93,-339.67C1089.76,-354.52 1121.03,-376.25 1147.5,-396.44 1191.82,-430.25 1241.2,-471.8 1271.72,-497.96"/>
      <polygon fill="none" stroke="black" points="1269.17,-500.38 1279.03,-504.25 1273.73,-495.08 1269.17,-500.38"/>
    </g>
    <!-- stage_14&#45;&gt;stage_22 -->
    <g id="edge85" class="edge">
      <title>stage_14&#45;&gt;stage_22</title>
      <path fill="none" stroke="black" d="M1066.37,-199.2C1088.37,-183.25 1120.7,-159.15 1147.5,-136.44 1164.29,-122.21 1164.18,-112.98 1183.5,-102.44 1193.78,-96.83 1205.16,-92.29 1216.67,-88.62"/>
      <polygon fill="none" stroke="black" points="1217.66,-91.97 1226.26,-85.79 1215.68,-85.26 1217.66,-91.97"/>
    </g>
    <!-- stage_14&#45;&gt;stage_16 -->
    <g id="edge84" class="edge">
      <title>stage_14&#45;&gt;stage_16</title>
      <path
        fill="none"
        stroke="black"
        d="M1078.33,-235.83C1101.25,-248.79 1129.51,-268.14 1147.5,-292.44 1178.11,-333.78 1156.89,-358.42 1183.5,-402.44 1206.38,-440.28 1243.17,-475.56 1269.51,-498.15"
      />
      <polygon fill="none" stroke="black" points="1266.95,-500.57 1276.85,-504.33 1271.46,-495.21 1266.95,-500.57"/>
    </g>
    <!-- stage_16&#45;&gt;stage_17 -->
    <g id="edge88" class="edge">
      <title>stage_16&#45;&gt;stage_17</title>
      <path fill="none" stroke="black" d="M1374.61,-535.67C1390.28,-539.82 1406.46,-545.28 1420.75,-552.44 1463.57,-573.89 1504.95,-611.13 1530.15,-636.28"/>
      <polygon fill="none" stroke="black" points="1527.48,-638.56 1536.99,-643.22 1532.47,-633.64 1527.48,-638.56"/>
    </g>
    <!-- stage_16&#45;&gt;stage_24 -->
    <g id="edge89" class="edge">
      <title>stage_16&#45;&gt;stage_24</title>
      <path fill="none" stroke="black" d="M1374.59,-523.44C1405.02,-523.44 1440.69,-523.44 1472.24,-523.44"/>
      <polygon fill="none" stroke="black" points="1472.15,-526.94 1482.15,-523.44 1472.15,-519.94 1472.15,-526.94"/>
    </g>
    <!-- stage_17&#45;&gt;stage_25 -->
    <g id="edge90" class="edge">
      <title>stage_17&#45;&gt;stage_25</title>
      <path fill="none" stroke="black" d="M1586.7,-680.91C1622.55,-703.1 1682.84,-740.43 1722.52,-765"/>
      <polygon fill="none" stroke="black" points="1720.51,-767.87 1730.85,-770.15 1724.19,-761.91 1720.51,-767.87"/>
    </g>
    <!-- external_image_1 -->
    <g id="node29" class="node">
      <title>external_image_1</title>
      <path
        fill="none"
        stroke="#333333"
        stroke-dasharray="5,2"
        d="M402.25,-574.44C402.25,-574.44 234,-574.44 234,-574.44 228,-574.44 222,-568.44 222,-562.44 222,-562.44 222,-550.44 222,-550.44 222,-544.44 228,-538.44 234,-538.44 234,-538.44 402.25,-538.44 402.25,-538.44 408.25,-538.44 414.25,-544.44 414.25,-550.44 414.25,-550.44 414.25,-562.44 414.25,-562.44 414.25,-568.44 408.25,-574.44 402.25,-574.44"
      />
      <text text-anchor="middle" x="318.12" y="-551.39" font-family="Times,serif" font-size="14.00" fill="#333333">$AUTOWARE_BASE_IMAGE</text>
    </g>
    <!-- external_image_1&#45;&gt;stage_7 -->
    <g id="edge58" class="edge">
      <title>external_image_1&#45;&gt;stage_7</title>
      <path fill="none" stroke="black" d="M414.56,-559.27C422.53,-559.51 430.54,-559.75 438.41,-559.98"/>
      <polygon fill="black" stroke="black" points="438.18,-563.48 448.28,-560.27 438.39,-556.48 438.18,-563.48"/>
    </g>
    <!-- external_image_1&#45;&gt;stage_23 -->
    <g id="edge63" class="edge">
      <title>external_image_1&#45;&gt;stage_23</title>
      <path
        fill="none"
        stroke="black"
        d="M395.32,-574.92C457.31,-593.76 542.69,-629 594.25,-689.44 623.29,-723.47 595.7,-755.03 630.25,-783.44 722.83,-859.58 791.43,-770.84 896,-829.44 917.15,-841.3 911.09,-858.16 932,-870.44 973.84,-895.03 991.25,-883.5 1038.75,-893.44"
      />
      <path fill="none" stroke="black" d="M1040.75,-893.44C1100.23,-905.89 1167.49,-919.31 1218.76,-929.39"/>
      <polygon fill="black" stroke="black" points="1217.8,-932.77 1228.29,-931.27 1219.15,-925.9 1217.8,-932.77"/>
    </g>
    <!-- external_image_1&#45;&gt;stage_18 -->
    <g id="edge59" class="edge">
      <title>external_image_1&#45;&gt;stage_18</title>
      <path fill="none" stroke="black" d="M523.25,-464.44C585.12,-431.78 1078.64,-534.1 1147.5,-546.44 1169.61,-550.4 1193.35,-555.42 1215.39,-560.42"/>
      <polygon fill="black" stroke="black" points="1214.39,-563.78 1224.92,-562.6 1215.96,-556.96 1214.39,-563.78"/>
    </g>
    <!-- external_image_1&#45;&gt;stage_20 -->
    <g id="edge60" class="edge">
      <title>external_image_1&#45;&gt;stage_20</title>
      <path fill="none" stroke="black" d="M764.12,-165.44C911.51,-79.34 995.23,-111.31 1147.5,-188.44 1215.48,-222.87 1264.62,-302.26 1287.23,-344.98"/>
      <polygon fill="black" stroke="black" points="1284.01,-346.38 1291.7,-353.66 1290.23,-343.17 1284.01,-346.38"/>
    </g>
    <!-- external_image_1&#45;&gt;stage_21 -->
    <g id="edge61" class="edge">
      <title>external_image_1&#45;&gt;stage_21</title>
      <path fill="none" stroke="black" d="M1040.75,-73.44C1049.53,-72.05 1141.53,-93.21 1213.71,-110.36"/>
      <polygon fill="black" stroke="black" points="1212.64,-113.71 1223.18,-112.62 1214.26,-106.9 1212.64,-113.71"/>
    </g>
    <!-- external_image_1&#45;&gt;stage_22 -->
    <g id="edge62" class="edge">
      <title>external_image_1&#45;&gt;stage_22</title>
      <path fill="none" stroke="black" d="M1040.75,-73.44C1098.86,-64.26 1165.19,-64.41 1216.36,-66.78"/>
      <polygon fill="black" stroke="black" points="1216.02,-70.27 1226.18,-67.28 1216.37,-63.28 1216.02,-70.27"/>
    </g>
    <!-- external_image_1&#45;&gt;stage_24 -->
    <g id="edge64" class="edge">
      <title>external_image_1&#45;&gt;stage_24</title>
      <path fill="none" stroke="black" d="M764.12,-165.44C874.46,-99.14 911.61,-93.53 1038.75,-73.44"/>
      <path fill="none" stroke="black" d="M523.25,-464.44C640.09,-403.97 528.52,-271.86 630.25,-188.44 676.26,-150.72 711.13,-196.09 762.12,-165.44"/>
      <path fill="none" stroke="black" d="M1040.75,-73.44C1208.05,-47 1285.8,57.92 1420.75,-44.44 1494.41,-100.31 1538.68,-397.8 1551.19,-493.66"/>
      <polygon fill="black" stroke="black" points="1547.72,-494.09 1552.46,-503.56 1554.66,-493.2 1547.72,-494.09"/>
      <path fill="none" stroke="black" d="M399.32,-538.03C404.56,-535.52 409.6,-532.67 414.25,-529.44 436.45,-514.03 427.64,-495.24 450.25,-480.44 477.32,-462.73 492.52,-479.31 521.25,-464.44"/>
    </g>
    <!-- stage_9&#45;&gt;stage_11 -->
    <g id="edge73" class="edge">
      <title>stage_9&#45;&gt;stage_11</title>
      <path fill="none" stroke="black" d="M1129.26,-737.44C1143.86,-737.44 1159.23,-737.44 1174.54,-737.44"/>
      <polygon fill="black" stroke="black" points="1174.14,-740.94 1184.14,-737.44 1174.14,-733.94 1174.14,-740.94"/>
    </g>
    <!-- stage_9&#45;&gt;stage_17 -->
    <g id="edge74" class="edge">
      <title>stage_9&#45;&gt;stage_17</title>
      <path fill="none" stroke="black" d="M1126.23,-718.96C1145.04,-715.2 1164.91,-711.48 1183.5,-708.44 1282.3,-692.31 1396.71,-678.93 1472.14,-670.84"/>
      <polygon fill="black" stroke="black" points="1472.37,-674.33 1481.94,-669.79 1471.63,-667.37 1472.37,-674.33"/>
    </g>
    <!-- external_image_2 -->
    <g id="node31" class="node">
      <title>external_image_2</title>
      <path
        fill="none"
        stroke="#333333"
        stroke-dasharray="5,2"
        d="M1408.75,-859.44C1408.75,-859.44 1195.5,-859.44 1195.5,-859.44 1189.5,-859.44 1183.5,-853.44 1183.5,-847.44 1183.5,-847.44 1183.5,-835.44 1183.5,-835.44 1183.5,-829.44 1189.5,-823.44 1195.5,-823.44 1195.5,-823.44 1408.75,-823.44 1408.75,-823.44 1414.75,-823.44 1420.75,-829.44 1420.75,-835.44 1420.75,-835.44 1420.75,-847.44 1420.75,-847.44 1420.75,-853.44 1414.75,-859.44 1408.75,-859.44"
      />
      <text text-anchor="middle" x="1302.12" y="-836.39" font-family="Times,serif" font-size="14.00" fill="#333333">$AUTOWARE_BASE_CUDA_IMAGE</text>
    </g>
    <!-- external_image_2&#45;&gt;stage_19 -->
    <g id="edge91" class="edge">
      <title>external_image_2&#45;&gt;stage_19</title>
      <path fill="none" stroke="black" d="M1392.59,-822.96C1412.62,-818.82 1434,-814.41 1454.45,-810.18"/>
      <polygon fill="black" stroke="black" points="1455.13,-813.62 1464.21,-808.17 1453.71,-806.76 1455.13,-813.62"/>
    </g>
    <!-- external_image_2&#45;&gt;stage_25 -->
    <g id="edge92" class="edge">
      <title>external_image_2&#45;&gt;stage_25</title>
      <path fill="none" stroke="black" d="M1365.36,-859.89C1427.67,-877.34 1519.27,-899.98 1554.88,-893.44"/>
      <path fill="none" stroke="black" d="M1556.88,-893.44C1622.22,-881.44 1689.28,-841.1 1728.22,-814.33"/>
      <polygon fill="black" stroke="black" points="1730.07,-817.31 1736.26,-808.71 1726.05,-811.58 1730.07,-817.31"/>
    </g>
  </g>
</svg>
