<?xml version="1.0" encoding="UTF-8" standalone="no"?>
<!DOCTYPE svg PUBLIC "-//W3C//DTD SVG 1.1//EN" "http://www.w3.org/Graphics/SVG/1.1/DTD/svg11.dtd">
<!-- Generated by graphviz version 12.2.1 (20241206.2353)
 -->
<!-- Title: G Pages: 1 -->
<svg width="1843pt" height="973pt" viewBox="0.00 0.00 1843.00 972.92" xmlns="http://www.w3.org/2000/svg" xmlns:xlink="http://www.w3.org/1999/xlink">
  <g id="graph0" class="graph" transform="scale(1 1) rotate(0) translate(4 968.92)">
    <title>G</title>
    <polygon fill="white" stroke="none" points="-4,4 -4,-968.92 1839,-968.92 1839,4 -4,4"/>
    <g id="clust1" class="cluster">
      <title>cluster_legend</title>
      <polygon fill="none" stroke="black" points="8,-248.92 8,-322.92 353.12,-322.92 353.12,-248.92 8,-248.92"/>
    </g>
    <!-- key -->
    <g id="node1" class="node">
      <title>key</title>
      <text text-anchor="start" x="122" y="-299.54" font-family="monospace" font-size="10.00">FROM ...</text>
      <text text-anchor="start" x="80" y="-282.79" font-family="monospace" font-size="10.00">COPY &#45;&#45;from=... </text>
      <text text-anchor="start" x="26" y="-266.04" font-family="monospace" font-size="10.00">RUN &#45;&#45;mount=(.*)from=... </text>
    </g>
    <!-- key2 -->
    <g id="node2" class="node">
      <title>key2</title>
      <text text-anchor="start" x="315.12" y="-299.54" font-family="monospace" font-size="10.00"/>
      <text text-anchor="start" x="315.12" y="-282.79" font-family="monospace" font-size="10.00"/>
      <text text-anchor="start" x="315.12" y="-266.04" font-family="monospace" font-size="10.00"/>
    </g>
    <!-- key&#45;&gt;key2 -->
    <g id="edge1" class="edge">
      <title>key:e&#45;&gt;key2:w</title>
      <path fill="none" stroke="black" d="M179,-302.67C234.24,-302.67 250.8,-302.67 300.9,-302.67"/>
      <polygon fill="black" stroke="black" points="300.61,-306.17 310.61,-302.67 300.61,-299.17 300.61,-306.17"/>
    </g>
    <!-- key&#45;&gt;key2 -->
    <g id="edge2" class="edge">
      <title>key:e&#45;&gt;key2:w</title>
      <path fill="none" stroke="black" d="M179,-285.92C234.24,-285.92 250.8,-285.92 300.9,-285.92"/>
      <polygon fill="none" stroke="black" points="300.61,-289.42 310.61,-285.92 300.61,-282.42 300.61,-289.42"/>
    </g>
    <!-- key&#45;&gt;key2 -->
    <g id="edge3" class="edge">
      <title>key:e&#45;&gt;key2:w</title>
      <path fill="none" stroke="black" d="M179,-269.17C233.66,-269.17 250.45,-269.17 299.34,-269.17"/>
      <polygon fill="none" stroke="black" points="299.22,-269.17 305.22,-265.17 311.22,-269.17 305.22,-273.17 299.22,-269.17"/>
    </g>
    <!-- external_image_0 -->
    <g id="node3" class="node">
      <title>external_image_0</title>
      <path
        fill="none"
        stroke="#333333"
        stroke-dasharray="5,2"
        d="M161,-430.92C161,-430.92 41,-430.92 41,-430.92 35,-430.92 29,-424.92 29,-418.92 29,-418.92 29,-406.92 29,-406.92 29,-400.92 35,-394.92 41,-394.92 41,-394.92 161,-394.92 161,-394.92 167,-394.92 173,-400.92 173,-406.92 173,-406.92 173,-418.92 173,-418.92 173,-424.92 167,-430.92 161,-430.92"
      />
      <text text-anchor="middle" x="101" y="-407.87" font-family="Times,serif" font-size="14.00" fill="#333333">$BASE_IMAGE</text>
    </g>
    <!-- stage_0 -->
    <g id="node4" class="node">
      <title>stage_0</title>
      <path
        fill="none"
        stroke="black"
        d="M378.12,-430.92C378.12,-430.92 258.12,-430.92 258.12,-430.92 252.12,-430.92 246.12,-424.92 246.12,-418.92 246.12,-418.92 246.12,-406.92 246.12,-406.92 246.12,-400.92 252.12,-394.92 258.12,-394.92 258.12,-394.92 378.12,-394.92 378.12,-394.92 384.12,-394.92 390.12,-400.92 390.12,-406.92 390.12,-406.92 390.12,-418.92 390.12,-418.92 390.12,-424.92 384.12,-430.92 378.12,-430.92"
      />
      <text text-anchor="middle" x="318.12" y="-407.87" font-family="Times,serif" font-size="14.00">rosdep&#45;depend</text>
    </g>
    <!-- external_image_0&#45;&gt;stage_0 -->
    <g id="edge4" class="edge">
      <title>external_image_0&#45;&gt;stage_0</title>
      <path fill="none" stroke="black" d="M173.33,-412.92C192.95,-412.92 214.39,-412.92 234.59,-412.92"/>
      <polygon fill="black" stroke="black" points="234.47,-416.42 244.47,-412.92 234.47,-409.42 234.47,-416.42"/>
    </g>
    <!-- stage_1 -->
    <g id="node5" class="node">
      <title>stage_1</title>
      <path
        fill="none"
        stroke="black"
        d="M860.75,-840.92C860.75,-840.92 665.5,-840.92 665.5,-840.92 659.5,-840.92 653.5,-834.92 653.5,-828.92 653.5,-828.92 653.5,-816.92 653.5,-816.92 653.5,-810.92 659.5,-804.92 665.5,-804.92 665.5,-804.92 860.75,-804.92 860.75,-804.92 866.75,-804.92 872.75,-810.92 872.75,-816.92 872.75,-816.92 872.75,-828.92 872.75,-828.92 872.75,-834.92 866.75,-840.92 860.75,-840.92"
      />
      <text text-anchor="middle" x="763.12" y="-817.87" font-family="Times,serif" font-size="14.00">rosdep&#45;universe&#45;visualization&#45;depend</text>
    </g>
    <!-- stage_0&#45;&gt;stage_1 -->
    <g id="edge5" class="edge">
      <title>stage_0&#45;&gt;stage_1</title>
      <path fill="none" stroke="black" d="M523.25,-661.92C589.98,-690.15 569.16,-745.96 630.25,-784.92 639.84,-791.04 650.44,-796.19 661.34,-800.53"/>
      <polygon fill="black" stroke="black" points="659.85,-803.71 670.44,-803.92 662.29,-797.15 659.85,-803.71"/>
    </g>
    <!-- stage_2 -->
    <g id="node6" class="node">
      <title>stage_2</title>
      <path
        fill="none"
        stroke="black"
        d="M877.25,-731.92C877.25,-731.92 649,-731.92 649,-731.92 643,-731.92 637,-725.92 637,-719.92 637,-719.92 637,-707.92 637,-707.92 637,-701.92 643,-695.92 649,-695.92 649,-695.92 877.25,-695.92 877.25,-695.92 883.25,-695.92 889.25,-701.92 889.25,-707.92 889.25,-707.92 889.25,-719.92 889.25,-719.92 889.25,-725.92 883.25,-731.92 877.25,-731.92"
      />
      <text text-anchor="middle" x="763.12" y="-708.87" font-family="Times,serif" font-size="14.00">rosdep&#45;universe&#45;sensing&#45;perception&#45;depend</text>
    </g>
    <!-- stage_0&#45;&gt;stage_2 -->
    <g id="edge6" class="edge">
      <title>stage_0&#45;&gt;stage_2</title>
      <path fill="none" stroke="black" d="M523.25,-661.92C555.35,-675.5 591.43,-685.72 625.64,-693.33"/>
      <polygon fill="black" stroke="black" points="624.68,-696.71 635.19,-695.39 626.16,-689.86 624.68,-696.71"/>
    </g>
    <!-- stage_3 -->
    <g id="node7" class="node">
      <title>stage_3</title>
      <path
        fill="none"
        stroke="black"
        d="M884,-470.92C884,-470.92 642.25,-470.92 642.25,-470.92 636.25,-470.92 630.25,-464.92 630.25,-458.92 630.25,-458.92 630.25,-446.92 630.25,-446.92 630.25,-440.92 636.25,-434.92 642.25,-434.92 642.25,-434.92 884,-434.92 884,-434.92 890,-434.92 896,-440.92 896,-446.92 896,-446.92 896,-458.92 896,-458.92 896,-464.92 890,-470.92 884,-470.92"
      />
      <text text-anchor="middle" x="763.12" y="-447.87" font-family="Times,serif" font-size="14.00">rosdep&#45;universe&#45;localization&#45;mapping&#45;depend</text>
    </g>
    <!-- stage_0&#45;&gt;stage_3 -->
    <g id="edge7" class="edge">
      <title>stage_0&#45;&gt;stage_3</title>
      <path fill="none" stroke="black" d="M325.41,-431.26C340.52,-472.76 382.67,-574.77 450.25,-632.92 476.09,-655.15 489.86,-648.64 521.25,-661.92"/>
      <path fill="none" stroke="black" d="M523.25,-661.92C593.44,-691.61 572.31,-577.43 630.25,-527.92 654.36,-507.32 684.97,-489.5 710.62,-476.41"/>
      <polygon fill="black" stroke="black" points="712.18,-479.55 719.56,-471.95 709.05,-473.29 712.18,-479.55"/>
    </g>
    <!-- stage_4 -->
    <g id="node8" class="node">
      <title>stage_4</title>
      <path
        fill="none"
        stroke="black"
        d="M871.25,-320.92C871.25,-320.92 655,-320.92 655,-320.92 649,-320.92 643,-314.92 643,-308.92 643,-308.92 643,-296.92 643,-296.92 643,-290.92 649,-284.92 655,-284.92 655,-284.92 871.25,-284.92 871.25,-284.92 877.25,-284.92 883.25,-290.92 883.25,-296.92 883.25,-296.92 883.25,-308.92 883.25,-308.92 883.25,-314.92 877.25,-320.92 871.25,-320.92"
      />
      <text text-anchor="middle" x="763.12" y="-297.87" font-family="Times,serif" font-size="14.00">rosdep&#45;universe&#45;planning&#45;control&#45;depend</text>
    </g>
    <!-- stage_0&#45;&gt;stage_4 -->
    <g id="edge8" class="edge">
      <title>stage_0&#45;&gt;stage_4</title>
      <path fill="none" stroke="black" d="M523.25,-302.92C557.32,-292.12 595.51,-288.59 631.2,-288.66"/>
      <polygon fill="black" stroke="black" points="631.14,-292.16 641.18,-288.78 631.23,-285.16 631.14,-292.16"/>
    </g>
    <!-- stage_5 -->
    <g id="node9" class="node">
      <title>stage_5</title>
      <path
        fill="none"
        stroke="black"
        d="M867.12,-262.92C867.12,-262.92 659.12,-262.92 659.12,-262.92 653.12,-262.92 647.12,-256.92 647.12,-250.92 647.12,-250.92 647.12,-238.92 647.12,-238.92 647.12,-232.92 653.12,-226.92 659.12,-226.92 659.12,-226.92 867.12,-226.92 867.12,-226.92 873.12,-226.92 879.12,-232.92 879.12,-238.92 879.12,-238.92 879.12,-250.92 879.12,-250.92 879.12,-256.92 873.12,-262.92 867.12,-262.92"
      />
      <text text-anchor="middle" x="763.12" y="-239.87" font-family="Times,serif" font-size="14.00">rosdep&#45;universe&#45;vehicle&#45;system&#45;depend</text>
    </g>
    <!-- stage_0&#45;&gt;stage_5 -->
    <g id="edge9" class="edge">
      <title>stage_0&#45;&gt;stage_5</title>
      <path fill="none" stroke="black" d="M390.26,-397.11C398.77,-393.55 407,-389.21 414.25,-383.92 436.95,-367.35 428.33,-349.52 450.25,-331.92 476.83,-310.58 488.76,-313.22 521.25,-302.92"/>
      <path fill="none" stroke="black" d="M523.25,-302.92C568.34,-288.62 619.17,-275.83 662.32,-265.92"/>
      <polygon fill="black" stroke="black" points="662.95,-269.37 671.93,-263.74 661.4,-262.54 662.95,-269.37"/>
    </g>
    <!-- stage_6 -->
    <g id="node10" class="node">
      <title>stage_6</title>
      <path
        fill="none"
        stroke="black"
        d="M1100.62,-678.92C1100.62,-678.92 978.88,-678.92 978.88,-678.92 972.88,-678.92 966.88,-672.92 966.88,-666.92 966.88,-666.92 966.88,-654.92 966.88,-654.92 966.88,-648.92 972.88,-642.92 978.88,-642.92 978.88,-642.92 1100.62,-642.92 1100.62,-642.92 1106.62,-642.92 1112.62,-648.92 1112.62,-654.92 1112.62,-654.92 1112.62,-666.92 1112.62,-666.92 1112.62,-672.92 1106.62,-678.92 1100.62,-678.92"
      />
      <text text-anchor="middle" x="1039.75" y="-655.87" font-family="Times,serif" font-size="14.00">rosdep&#45;universe&#45;depend</text>
    </g>
    <!-- stage_0&#45;&gt;stage_6 -->
    <g id="edge10" class="edge">
      <title>stage_0&#45;&gt;stage_6</title>
      <path fill="none" stroke="black" d="M523.25,-661.92C598.68,-693.83 829.77,-679.6 955.38,-668.89"/>
      <polygon fill="black" stroke="black" points="955.65,-672.38 965.31,-668.03 955.05,-665.41 955.65,-672.38"/>
    </g>
    <!-- stage_7 -->
    <g id="node11" class="node">
      <title>stage_7</title>
      <path
        fill="none"
        stroke="black"
        d="M582.25,-378.92C582.25,-378.92 462.25,-378.92 462.25,-378.92 456.25,-378.92 450.25,-372.92 450.25,-366.92 450.25,-366.92 450.25,-354.92 450.25,-354.92 450.25,-348.92 456.25,-342.92 462.25,-342.92 462.25,-342.92 582.25,-342.92 582.25,-342.92 588.25,-342.92 594.25,-348.92 594.25,-354.92 594.25,-354.92 594.25,-366.92 594.25,-366.92 594.25,-372.92 588.25,-378.92 582.25,-378.92"
      />
      <text text-anchor="middle" x="522.25" y="-355.87" font-family="Times,serif" font-size="14.00">core&#45;devel</text>
    </g>
    <!-- stage_0&#45;&gt;stage_7 -->
    <g id="edge11" class="edge">
      <title>stage_0&#45;&gt;stage_7</title>
      <path fill="none" stroke="black" d="M390.39,-394.59C406.09,-390.55 422.84,-386.24 438.93,-382.1"/>
      <polygon fill="none" stroke="black" points="439.67,-385.52 448.48,-379.64 437.93,-378.74 439.67,-385.52"/>
    </g>
    <!-- stage_8 -->
    <g id="node12" class="node">
      <title>stage_8</title>
      <path
        fill="none"
        stroke="black"
        d="M825.5,-574.92C825.5,-574.92 700.75,-574.92 700.75,-574.92 694.75,-574.92 688.75,-568.92 688.75,-562.92 688.75,-562.92 688.75,-550.92 688.75,-550.92 688.75,-544.92 694.75,-538.92 700.75,-538.92 700.75,-538.92 825.5,-538.92 825.5,-538.92 831.5,-538.92 837.5,-544.92 837.5,-550.92 837.5,-550.92 837.5,-562.92 837.5,-562.92 837.5,-568.92 831.5,-574.92 825.5,-574.92"
      />
      <text text-anchor="middle" x="763.12" y="-551.87" font-family="Times,serif" font-size="14.00">universe&#45;common&#45;devel</text>
    </g>
    <!-- stage_0&#45;&gt;stage_8 -->
    <g id="edge13" class="edge">
      <title>stage_0&#45;&gt;stage_8</title>
      <path fill="none" stroke="black" d="M523.25,-661.92C561.53,-678.11 667.65,-617.15 724.7,-581.32"/>
      <polygon fill="none" stroke="black" points="726.56,-584.28 733.14,-575.97 722.82,-578.37 726.56,-584.28"/>
    </g>
    <!-- stage_18 -->
    <g id="node13" class="node">
      <title>stage_18</title>
      <path
        fill="none"
        stroke="black"
        d="M823.12,-378.92C823.12,-378.92 703.12,-378.92 703.12,-378.92 697.12,-378.92 691.12,-372.92 691.12,-366.92 691.12,-366.92 691.12,-354.92 691.12,-354.92 691.12,-348.92 697.12,-342.92 703.12,-342.92 703.12,-342.92 823.12,-342.92 823.12,-342.92 829.12,-342.92 835.12,-348.92 835.12,-354.92 835.12,-354.92 835.12,-366.92 835.12,-366.92 835.12,-372.92 829.12,-378.92 823.12,-378.92"
      />
      <text text-anchor="middle" x="763.12" y="-355.87" font-family="Times,serif" font-size="14.00">core</text>
    </g>
    <!-- stage_0&#45;&gt;stage_18 -->
    <g id="edge16" class="edge">
      <title>stage_0&#45;&gt;stage_18</title>
      <path fill="none" stroke="black" d="M390.56,-408.67C446.2,-404.95 525.31,-398.74 594.25,-389.92 622.23,-386.34 652.65,-381.4 679.83,-376.62"/>
      <polygon fill="none" stroke="black" points="680.14,-380.12 689.37,-374.92 678.91,-373.23 680.14,-380.12"/>
    </g>
    <!-- stage_15 -->
    <g id="node14" class="node">
      <title>stage_15</title>
      <path
        fill="none"
        stroke="black"
        d="M1112.25,-840.92C1112.25,-840.92 967.25,-840.92 967.25,-840.92 961.25,-840.92 955.25,-834.92 955.25,-828.92 955.25,-828.92 955.25,-816.92 955.25,-816.92 955.25,-810.92 961.25,-804.92 967.25,-804.92 967.25,-804.92 1112.25,-804.92 1112.25,-804.92 1118.25,-804.92 1124.25,-810.92 1124.25,-816.92 1124.25,-816.92 1124.25,-828.92 1124.25,-828.92 1124.25,-834.92 1118.25,-840.92 1112.25,-840.92"
      />
      <text text-anchor="middle" x="1039.75" y="-817.87" font-family="Times,serif" font-size="14.00">universe&#45;visualization&#45;devel</text>
    </g>
    <!-- stage_1&#45;&gt;stage_15 -->
    <g id="edge17" class="edge">
      <title>stage_1&#45;&gt;stage_15</title>
      <path fill="none" stroke="black" d="M873.06,-822.92C896.37,-822.92 920.83,-822.92 943.58,-822.92"/>
      <polygon fill="none" stroke="black" points="943.44,-826.42 953.44,-822.92 943.44,-819.42 943.44,-826.42"/>
    </g>
    <!-- stage_24 -->
    <g id="node15" class="node">
      <title>stage_24</title>
      <path
        fill="none"
        stroke="black"
        d="M1362.12,-964.92C1362.12,-964.92 1242.12,-964.92 1242.12,-964.92 1236.12,-964.92 1230.12,-958.92 1230.12,-952.92 1230.12,-952.92 1230.12,-940.92 1230.12,-940.92 1230.12,-934.92 1236.12,-928.92 1242.12,-928.92 1242.12,-928.92 1362.12,-928.92 1362.12,-928.92 1368.12,-928.92 1374.12,-934.92 1374.12,-940.92 1374.12,-940.92 1374.12,-952.92 1374.12,-952.92 1374.12,-958.92 1368.12,-964.92 1362.12,-964.92"
      />
      <text text-anchor="middle" x="1302.12" y="-941.87" font-family="Times,serif" font-size="14.00">universe&#45;visualization</text>
    </g>
    <!-- stage_1&#45;&gt;stage_24 -->
    <g id="edge19" class="edge">
      <title>stage_1&#45;&gt;stage_24</title>
      <path fill="none" stroke="black" d="M804.97,-841.39C838.64,-856.2 887.84,-876.91 932,-891.92 978.55,-907.74 991.27,-908.17 1038.75,-920.92"/>
    </g>
    <!-- stage_10 -->
    <g id="node16" class="node">
      <title>stage_10</title>
      <path
        fill="none"
        stroke="black"
        d="M1128.75,-620.92C1128.75,-620.92 950.75,-620.92 950.75,-620.92 944.75,-620.92 938.75,-614.92 938.75,-608.92 938.75,-608.92 938.75,-596.92 938.75,-596.92 938.75,-590.92 944.75,-584.92 950.75,-584.92 950.75,-584.92 1128.75,-584.92 1128.75,-584.92 1134.75,-584.92 1140.75,-590.92 1140.75,-596.92 1140.75,-596.92 1140.75,-608.92 1140.75,-608.92 1140.75,-614.92 1134.75,-620.92 1128.75,-620.92"
      />
      <text text-anchor="middle" x="1039.75" y="-597.87" font-family="Times,serif" font-size="14.00">universe&#45;sensing&#45;perception&#45;devel</text>
    </g>
    <!-- stage_2&#45;&gt;stage_10 -->
    <g id="edge20" class="edge">
      <title>stage_2&#45;&gt;stage_10</title>
      <path fill="none" stroke="black" d="M797.06,-695.51C830.33,-677.48 883.58,-650.14 932,-631.92 938.74,-629.38 945.8,-626.97 952.94,-624.69"/>
      <polygon fill="none" stroke="black" points="953.83,-628.08 962.36,-621.79 951.77,-621.39 953.83,-628.08"/>
    </g>
    <!-- stage_11 -->
    <g id="node17" class="node">
      <title>stage_11</title>
      <path
        fill="none"
        stroke="black"
        d="M1406.12,-756.92C1406.12,-756.92 1198.12,-756.92 1198.12,-756.92 1192.12,-756.92 1186.12,-750.92 1186.12,-744.92 1186.12,-744.92 1186.12,-732.92 1186.12,-732.92 1186.12,-726.92 1192.12,-720.92 1198.12,-720.92 1198.12,-720.92 1406.12,-720.92 1406.12,-720.92 1412.12,-720.92 1418.12,-726.92 1418.12,-732.92 1418.12,-732.92 1418.12,-744.92 1418.12,-744.92 1418.12,-750.92 1412.12,-756.92 1406.12,-756.92"
      />
      <text text-anchor="middle" x="1302.12" y="-733.87" font-family="Times,serif" font-size="14.00">universe&#45;sensing&#45;perception&#45;devel&#45;cuda</text>
    </g>
    <!-- stage_2&#45;&gt;stage_11 -->
    <g id="edge23" class="edge">
      <title>stage_2&#45;&gt;stage_11</title>
      <path fill="none" stroke="black" d="M838.85,-732.38C867.75,-738.64 901.23,-744.83 932,-747.92 1027.3,-757.47 1051.76,-750.72 1147.5,-747.92 1156.33,-747.66 1165.44,-747.32 1174.61,-746.92"/>
      <polygon fill="none" stroke="black" points="1174.47,-750.43 1184.3,-746.48 1174.15,-743.44 1174.47,-750.43"/>
    </g>
    <!-- stage_19 -->
    <g id="node18" class="node">
      <title>stage_19</title>
      <path
        fill="none"
        stroke="black"
        d="M1374.25,-268.92C1374.25,-268.92 1230,-268.92 1230,-268.92 1224,-268.92 1218,-262.92 1218,-256.92 1218,-256.92 1218,-244.92 1218,-244.92 1218,-238.92 1224,-232.92 1230,-232.92 1230,-232.92 1374.25,-232.92 1374.25,-232.92 1380.25,-232.92 1386.25,-238.92 1386.25,-244.92 1386.25,-244.92 1386.25,-256.92 1386.25,-256.92 1386.25,-262.92 1380.25,-268.92 1374.25,-268.92"
      />
      <text text-anchor="middle" x="1302.12" y="-245.87" font-family="Times,serif" font-size="14.00">universe&#45;sensing&#45;perception</text>
    </g>
    <!-- stage_2&#45;&gt;stage_19 -->
    <g id="edge26" class="edge">
      <title>stage_2&#45;&gt;stage_19</title>
      <path fill="none" stroke="black" d="M782.36,-695.58C811.78,-666.75 872.44,-610.38 932,-573.92 1020.82,-519.55 1067.43,-548.51 1147.5,-481.92 1216.9,-424.21 1267.02,-327.2 1288.89,-279.36"/>
      <polygon fill="none" stroke="black" points="1291.97,-281.05 1292.87,-270.5 1285.58,-278.19 1291.97,-281.05"/>
    </g>
    <!-- stage_20 -->
    <g id="node19" class="node">
      <title>stage_20</title>
      <path
        fill="none"
        stroke="black"
        d="M1643,-808.92C1643,-808.92 1468.75,-808.92 1468.75,-808.92 1462.75,-808.92 1456.75,-802.92 1456.75,-796.92 1456.75,-796.92 1456.75,-784.92 1456.75,-784.92 1456.75,-778.92 1462.75,-772.92 1468.75,-772.92 1468.75,-772.92 1643,-772.92 1643,-772.92 1649,-772.92 1655,-778.92 1655,-784.92 1655,-784.92 1655,-796.92 1655,-796.92 1655,-802.92 1649,-808.92 1643,-808.92"
      />
      <text text-anchor="middle" x="1555.88" y="-785.87" font-family="Times,serif" font-size="14.00">universe&#45;sensing&#45;perception&#45;cuda</text>
    </g>
    <!-- stage_2&#45;&gt;stage_20 -->
    <g id="edge27" class="edge">
      <title>stage_2&#45;&gt;stage_20</title>
      <path
        fill="none"
        stroke="black"
        d="M867.96,-732.39C878.21,-737.22 887.83,-743.29 896,-750.92 930.84,-783.44 893.05,-824.46 932,-851.92 1010.27,-907.12 1059.52,-889.76 1147.5,-851.92 1168.87,-842.73 1162.42,-823.77 1183.5,-813.92 1265.36,-775.67 1368.63,-772.35 1445.48,-777.21"
      />
      <polygon fill="none" stroke="black" points="1444.89,-780.68 1455.11,-777.88 1445.38,-773.69 1444.89,-780.68"/>
    </g>
    <!-- stage_12 -->
    <g id="node20" class="node">
      <title>stage_12</title>
      <path
        fill="none"
        stroke="black"
        d="M1135.5,-470.92C1135.5,-470.92 944,-470.92 944,-470.92 938,-470.92 932,-464.92 932,-458.92 932,-458.92 932,-446.92 932,-446.92 932,-440.92 938,-434.92 944,-434.92 944,-434.92 1135.5,-434.92 1135.5,-434.92 1141.5,-434.92 1147.5,-440.92 1147.5,-446.92 1147.5,-446.92 1147.5,-458.92 1147.5,-458.92 1147.5,-464.92 1141.5,-470.92 1135.5,-470.92"
      />
      <text text-anchor="middle" x="1039.75" y="-447.87" font-family="Times,serif" font-size="14.00">universe&#45;localization&#45;mapping&#45;devel</text>
    </g>
    <!-- stage_3&#45;&gt;stage_12 -->
    <g id="edge28" class="edge">
      <title>stage_3&#45;&gt;stage_12</title>
      <path fill="none" stroke="black" d="M896.21,-452.92C904.33,-452.92 912.48,-452.92 920.54,-452.92"/>
      <polygon fill="none" stroke="black" points="920.36,-456.42 930.36,-452.92 920.36,-449.42 920.36,-456.42"/>
    </g>
    <!-- stage_21 -->
    <g id="node21" class="node">
      <title>stage_21</title>
      <path
        fill="none"
        stroke="black"
        d="M1381,-210.92C1381,-210.92 1223.25,-210.92 1223.25,-210.92 1217.25,-210.92 1211.25,-204.92 1211.25,-198.92 1211.25,-198.92 1211.25,-186.92 1211.25,-186.92 1211.25,-180.92 1217.25,-174.92 1223.25,-174.92 1223.25,-174.92 1381,-174.92 1381,-174.92 1387,-174.92 1393,-180.92 1393,-186.92 1393,-186.92 1393,-198.92 1393,-198.92 1393,-204.92 1387,-210.92 1381,-210.92"
      />
      <text text-anchor="middle" x="1302.12" y="-187.87" font-family="Times,serif" font-size="14.00">universe&#45;localization&#45;mapping</text>
    </g>
    <!-- stage_3&#45;&gt;stage_21 -->
    <g id="edge31" class="edge">
      <title>stage_3&#45;&gt;stage_21</title>
      <path fill="none" stroke="black" d="M865.57,-434.45C977.41,-413.9 1142.36,-382.89 1147.5,-377.92 1198.65,-328.46 1133.56,-272.61 1183.5,-221.92 1188.59,-216.76 1194.43,-212.46 1200.74,-208.89"/>
      <polygon fill="none" stroke="black" points="1202.21,-212.07 1209.64,-204.52 1199.13,-205.78 1202.21,-212.07"/>
    </g>
    <!-- stage_13 -->
    <g id="node22" class="node">
      <title>stage_13</title>
      <path
        fill="none"
        stroke="black"
        d="M1122.75,-366.92C1122.75,-366.92 956.75,-366.92 956.75,-366.92 950.75,-366.92 944.75,-360.92 944.75,-354.92 944.75,-354.92 944.75,-342.92 944.75,-342.92 944.75,-336.92 950.75,-330.92 956.75,-330.92 956.75,-330.92 1122.75,-330.92 1122.75,-330.92 1128.75,-330.92 1134.75,-336.92 1134.75,-342.92 1134.75,-342.92 1134.75,-354.92 1134.75,-354.92 1134.75,-360.92 1128.75,-366.92 1122.75,-366.92"
      />
      <text text-anchor="middle" x="1039.75" y="-343.87" font-family="Times,serif" font-size="14.00">universe&#45;planning&#45;control&#45;devel</text>
    </g>
    <!-- stage_4&#45;&gt;stage_13 -->
    <g id="edge32" class="edge">
      <title>stage_4&#45;&gt;stage_13</title>
      <path fill="none" stroke="black" d="M874.24,-321.36C893.7,-324.62 913.92,-328.01 933.25,-331.25"/>
      <polygon fill="none" stroke="black" points="932.58,-334.68 943.02,-332.89 933.74,-327.78 932.58,-334.68"/>
    </g>
    <!-- stage_22 -->
    <g id="node23" class="node">
      <title>stage_22</title>
      <path
        fill="none"
        stroke="black"
        d="M1368.25,-152.92C1368.25,-152.92 1236,-152.92 1236,-152.92 1230,-152.92 1224,-146.92 1224,-140.92 1224,-140.92 1224,-128.92 1224,-128.92 1224,-122.92 1230,-116.92 1236,-116.92 1236,-116.92 1368.25,-116.92 1368.25,-116.92 1374.25,-116.92 1380.25,-122.92 1380.25,-128.92 1380.25,-128.92 1380.25,-140.92 1380.25,-140.92 1380.25,-146.92 1374.25,-152.92 1368.25,-152.92"
      />
      <text text-anchor="middle" x="1302.12" y="-129.87" font-family="Times,serif" font-size="14.00">universe&#45;planning&#45;control</text>
    </g>
    <!-- stage_4&#45;&gt;stage_22 -->
    <g id="edge39" class="edge">
      <title>stage_4&#45;&gt;stage_22</title>
      <path fill="none" stroke="black" d="M883.73,-307.96C980.75,-309.55 1107.71,-305.12 1147.5,-273.92 1187.98,-242.18 1145.8,-198.91 1183.5,-163.92 1191.97,-156.06 1202.22,-150.24 1213.1,-145.94"/>
      <polygon fill="none" stroke="black" points="1213.95,-149.35 1222.26,-142.77 1211.66,-142.73 1213.95,-149.35"/>
    </g>
    <!-- stage_14 -->
    <g id="node24" class="node">
      <title>stage_14</title>
      <path
        fill="none"
        stroke="black"
        d="M1118.62,-262.92C1118.62,-262.92 960.88,-262.92 960.88,-262.92 954.88,-262.92 948.88,-256.92 948.88,-250.92 948.88,-250.92 948.88,-238.92 948.88,-238.92 948.88,-232.92 954.88,-226.92 960.88,-226.92 960.88,-226.92 1118.62,-226.92 1118.62,-226.92 1124.62,-226.92 1130.62,-232.92 1130.62,-238.92 1130.62,-238.92 1130.62,-250.92 1130.62,-250.92 1130.62,-256.92 1124.62,-262.92 1118.62,-262.92"
      />
      <text text-anchor="middle" x="1039.75" y="-239.87" font-family="Times,serif" font-size="14.00">universe&#45;vehicle&#45;system&#45;devel</text>
    </g>
    <!-- stage_5&#45;&gt;stage_14 -->
    <g id="edge40" class="edge">
      <title>stage_5&#45;&gt;stage_14</title>
      <path fill="none" stroke="black" d="M879.4,-244.92C898.57,-244.92 918.33,-244.92 937.14,-244.92"/>
      <polygon fill="none" stroke="black" points="936.88,-248.42 946.88,-244.92 936.88,-241.42 936.88,-248.42"/>
    </g>
    <!-- stage_23 -->
    <g id="node25" class="node">
      <title>stage_23</title>
      <path
        fill="none"
        stroke="black"
        d="M1364.12,-94.92C1364.12,-94.92 1240.12,-94.92 1240.12,-94.92 1234.12,-94.92 1228.12,-88.92 1228.12,-82.92 1228.12,-82.92 1228.12,-70.92 1228.12,-70.92 1228.12,-64.92 1234.12,-58.92 1240.12,-58.92 1240.12,-58.92 1364.12,-58.92 1364.12,-58.92 1370.12,-58.92 1376.12,-64.92 1376.12,-70.92 1376.12,-70.92 1376.12,-82.92 1376.12,-82.92 1376.12,-88.92 1370.12,-94.92 1364.12,-94.92"
      />
      <text text-anchor="middle" x="1302.12" y="-71.87" font-family="Times,serif" font-size="14.00">universe&#45;vehicle&#45;system</text>
    </g>
    <!-- stage_5&#45;&gt;stage_23 -->
    <g id="edge45" class="edge">
      <title>stage_5&#45;&gt;stage_23</title>
      <path fill="none" stroke="black" d="M838.39,-226.43C857.27,-221.4 877.46,-215.72 896,-209.92 1025.68,-169.34 1053.47,-145.35 1183.5,-105.92 1194.14,-102.69 1205.41,-99.56 1216.58,-96.62"/>
      <polygon fill="none" stroke="black" points="1217.43,-100.02 1226.23,-94.13 1215.68,-93.24 1217.43,-100.02"/>
    </g>
    <!-- stage_16 -->
    <g id="node26" class="node">
      <title>stage_16</title>
      <path
        fill="none"
        stroke="black"
        d="M1362.12,-554.92C1362.12,-554.92 1242.12,-554.92 1242.12,-554.92 1236.12,-554.92 1230.12,-548.92 1230.12,-542.92 1230.12,-542.92 1230.12,-530.92 1230.12,-530.92 1230.12,-524.92 1236.12,-518.92 1242.12,-518.92 1242.12,-518.92 1362.12,-518.92 1362.12,-518.92 1368.12,-518.92 1374.12,-524.92 1374.12,-530.92 1374.12,-530.92 1374.12,-542.92 1374.12,-542.92 1374.12,-548.92 1368.12,-554.92 1362.12,-554.92"
      />
      <text text-anchor="middle" x="1302.12" y="-531.87" font-family="Times,serif" font-size="14.00">universe&#45;devel</text>
    </g>
    <!-- stage_6&#45;&gt;stage_16 -->
    <g id="edge46" class="edge">
      <title>stage_6&#45;&gt;stage_16</title>
      <path fill="none" stroke="black" d="M1112.93,-644.37C1124.68,-640.81 1136.58,-636.66 1147.5,-631.92 1191.24,-612.93 1237.21,-582.99 1267.34,-561.8"/>
      <polygon fill="none" stroke="black" points="1269.19,-564.78 1275.31,-556.13 1265.13,-559.08 1269.19,-564.78"/>
    </g>
    <!-- stage_17 -->
    <g id="node27" class="node">
      <title>stage_17</title>
      <path
        fill="none"
        stroke="black"
        d="M1615.88,-681.92C1615.88,-681.92 1495.88,-681.92 1495.88,-681.92 1489.88,-681.92 1483.88,-675.92 1483.88,-669.92 1483.88,-669.92 1483.88,-657.92 1483.88,-657.92 1483.88,-651.92 1489.88,-645.92 1495.88,-645.92 1495.88,-645.92 1615.88,-645.92 1615.88,-645.92 1621.88,-645.92 1627.88,-651.92 1627.88,-657.92 1627.88,-657.92 1627.88,-669.92 1627.88,-669.92 1627.88,-675.92 1621.88,-681.92 1615.88,-681.92"
      />
      <text text-anchor="middle" x="1555.88" y="-658.87" font-family="Times,serif" font-size="14.00">universe&#45;devel&#45;cuda</text>
    </g>
    <!-- stage_6&#45;&gt;stage_17 -->
    <g id="edge56" class="edge">
      <title>stage_6&#45;&gt;stage_17</title>
      <path fill="none" stroke="black" d="M1303.12,-640.92C1359.43,-634.29 1423.02,-640.21 1472.2,-647.7"/>
      <polygon fill="none" stroke="black" points="1471.5,-651.13 1481.93,-649.24 1472.6,-644.22 1471.5,-651.13"/>
    </g>
    <!-- stage_25 -->
    <g id="node28" class="node">
      <title>stage_25</title>
      <path
        fill="none"
        stroke="black"
        d="M1615.88,-554.92C1615.88,-554.92 1495.88,-554.92 1495.88,-554.92 1489.88,-554.92 1483.88,-548.92 1483.88,-542.92 1483.88,-542.92 1483.88,-530.92 1483.88,-530.92 1483.88,-524.92 1489.88,-518.92 1495.88,-518.92 1495.88,-518.92 1615.88,-518.92 1615.88,-518.92 1621.88,-518.92 1627.88,-524.92 1627.88,-530.92 1627.88,-530.92 1627.88,-542.92 1627.88,-542.92 1627.88,-548.92 1621.88,-554.92 1615.88,-554.92"
      />
      <text text-anchor="middle" x="1555.88" y="-531.87" font-family="Times,serif" font-size="14.00">universe</text>
    </g>
    <!-- stage_6&#45;&gt;stage_25 -->
    <g id="edge57" class="edge">
      <title>stage_6&#45;&gt;stage_25</title>
      <path fill="none" stroke="black" d="M1113.02,-656.94C1165.36,-653.68 1237.75,-648.38 1301.12,-640.92"/>
      <path fill="none" stroke="black" d="M1303.12,-640.92C1383.14,-631.5 1468.16,-588.55 1516.08,-560.88"/>
      <polygon fill="none" stroke="black" points="1517.57,-564.06 1524.42,-555.99 1514.03,-558.02 1517.57,-564.06"/>
    </g>
    <!-- stage_26 -->
    <g id="node29" class="node">
      <title>stage_26</title>
      <path
        fill="#e5e5e5"
        stroke="black"
        d="M1823,-785.92C1823,-785.92 1703,-785.92 1703,-785.92 1697,-785.92 1691,-779.92 1691,-773.92 1691,-773.92 1691,-761.92 1691,-761.92 1691,-755.92 1697,-749.92 1703,-749.92 1703,-749.92 1823,-749.92 1823,-749.92 1829,-749.92 1835,-755.92 1835,-761.92 1835,-761.92 1835,-773.92 1835,-773.92 1835,-779.92 1829,-785.92 1823,-785.92"
      />
      <text text-anchor="middle" x="1763" y="-762.87" font-family="Times,serif" font-size="14.00">universe&#45;cuda</text>
    </g>
    <!-- stage_6&#45;&gt;stage_26 -->
    <g id="edge58" class="edge">
      <title>stage_6&#45;&gt;stage_26</title>
      <path
        fill="none"
        stroke="black"
        d="M1112.85,-668.84C1125.85,-673.27 1138.2,-679.95 1147.5,-689.92 1203.73,-750.23 1121.44,-817.63 1183.5,-871.92 1245.74,-926.36 1474.25,-913.28 1554.88,-894.92"
      />
    </g>
    <!-- stage_7&#45;&gt;stage_8 -->
    <g id="edge67" class="edge">
      <title>stage_7&#45;&gt;stage_8</title>
      <path fill="none" stroke="black" d="M536.2,-379.01C554.9,-404.25 591.5,-450.46 630.25,-481.92 655.25,-502.22 686.45,-520.23 712.23,-533.52"/>
      <polygon fill="black" stroke="black" points="710.33,-536.48 720.83,-537.87 713.49,-530.23 710.33,-536.48"/>
    </g>
    <!-- stage_7&#45;&gt;stage_18 -->
    <g id="edge68" class="edge">
      <title>stage_7&#45;&gt;stage_18</title>
      <path fill="none" stroke="black" d="M594.6,-360.92C621.3,-360.92 651.85,-360.92 679.49,-360.92"/>
      <polygon fill="none" stroke="black" points="679.22,-364.42 689.22,-360.92 679.22,-357.42 679.22,-364.42"/>
    </g>
    <!-- stage_8&#45;&gt;stage_15 -->
    <g id="edge74" class="edge">
      <title>stage_8&#45;&gt;stage_15</title>
      <path fill="none" stroke="black" d="M786.54,-575.21C814.4,-598.68 862.36,-641.56 896,-684.92 915.77,-710.4 910.28,-724.08 932,-747.92 950.17,-767.87 974.55,-785.49 995.42,-798.64"/>
      <polygon fill="black" stroke="black" points="993.39,-801.5 1003.74,-803.74 997.05,-795.53 993.39,-801.5"/>
    </g>
    <!-- stage_8&#45;&gt;stage_10 -->
    <g id="edge70" class="edge">
      <title>stage_8&#45;&gt;stage_10</title>
      <path fill="none" stroke="black" d="M837.72,-569.25C865.24,-573.86 897.15,-579.2 927.33,-584.26"/>
      <polygon fill="black" stroke="black" points="926.43,-587.65 936.87,-585.85 927.58,-580.75 926.43,-587.65"/>
    </g>
    <!-- stage_8&#45;&gt;stage_12 -->
    <g id="edge71" class="edge">
      <title>stage_8&#45;&gt;stage_12</title>
      <path fill="none" stroke="black" d="M806.57,-538.47C840.3,-524.05 888.84,-503.84 932,-487.92 943.89,-483.53 956.62,-479.12 969,-474.98"/>
      <polygon fill="black" stroke="black" points="969.93,-478.35 978.32,-471.89 967.72,-471.71 969.93,-478.35"/>
    </g>
    <!-- stage_8&#45;&gt;stage_13 -->
    <g id="edge72" class="edge">
      <title>stage_8&#45;&gt;stage_13</title>
      <path fill="none" stroke="black" d="M808.72,-538.44C836.15,-525.5 870.76,-506.21 896,-481.92 917.86,-460.88 911.17,-445.97 932,-423.92 950.66,-404.16 975.28,-386.45 996.18,-373.2"/>
      <polygon fill="black" stroke="black" points="997.84,-376.29 1004.5,-368.05 994.15,-370.34 997.84,-376.29"/>
    </g>
    <!-- stage_8&#45;&gt;stage_14 -->
    <g id="edge73" class="edge">
      <title>stage_8&#45;&gt;stage_14</title>
      <path fill="none" stroke="black" d="M818.01,-538.47C845.3,-526.46 876.67,-508.08 896,-481.92 939.82,-422.59 891.06,-381.27 932,-319.92 946.21,-298.63 968.68,-281.52 989.34,-269.05"/>
      <polygon fill="black" stroke="black" points="991.07,-272.09 997.98,-264.06 987.57,-266.03 991.07,-272.09"/>
    </g>
    <!-- stage_8&#45;&gt;stage_16 -->
    <g id="edge75" class="edge">
      <title>stage_8&#45;&gt;stage_16</title>
      <path fill="none" stroke="black" d="M837.95,-554.17C937.56,-550.46 1114.49,-543.87 1218.46,-540"/>
      <polygon fill="black" stroke="black" points="1218.46,-543.5 1228.32,-539.63 1218.2,-536.51 1218.46,-543.5"/>
    </g>
    <!-- stage_9 -->
    <g id="node31" class="node">
      <title>stage_9</title>
      <path
        fill="none"
        stroke="black"
        d="M1117.12,-736.92C1117.12,-736.92 962.38,-736.92 962.38,-736.92 956.38,-736.92 950.38,-730.92 950.38,-724.92 950.38,-724.92 950.38,-712.92 950.38,-712.92 950.38,-706.92 956.38,-700.92 962.38,-700.92 962.38,-700.92 1117.12,-700.92 1117.12,-700.92 1123.12,-700.92 1129.12,-706.92 1129.12,-712.92 1129.12,-712.92 1129.12,-724.92 1129.12,-724.92 1129.12,-730.92 1123.12,-736.92 1117.12,-736.92"
      />
      <text text-anchor="middle" x="1039.75" y="-713.87" font-family="Times,serif" font-size="14.00">universe&#45;common&#45;devel&#45;cuda</text>
    </g>
    <!-- stage_8&#45;&gt;stage_9 -->
    <g id="edge69" class="edge">
      <title>stage_8&#45;&gt;stage_9</title>
      <path fill="none" stroke="black" d="M782,-575.24C810.92,-603.86 870.93,-659.08 932,-689.92 936.68,-692.28 941.58,-694.47 946.6,-696.5"/>
      <polygon fill="black" stroke="black" points="945.01,-699.64 955.6,-699.9 947.48,-693.09 945.01,-699.64"/>
    </g>
    <!-- stage_15&#45;&gt;stage_24 -->
    <g id="edge90" class="edge">
      <title>stage_15&#45;&gt;stage_24</title>
      <path fill="none" stroke="black" d="M1065.38,-841.16C1092.96,-860.87 1139.57,-892.12 1183.5,-911.92 1194.77,-917 1206.97,-921.57 1219.1,-925.61"/>
      <polygon fill="none" stroke="black" points="1217.69,-928.83 1228.28,-928.55 1219.83,-922.16 1217.69,-928.83"/>
    </g>
    <!-- stage_15&#45;&gt;stage_16 -->
    <g id="edge89" class="edge">
      <title>stage_15&#45;&gt;stage_16</title>
      <path
        fill="none"
        stroke="black"
        d="M1079.13,-804.44C1102.07,-791.57 1130.05,-772.34 1147.5,-747.92 1180.86,-701.23 1150.71,-671.01 1183.5,-623.92 1201.74,-597.72 1230.42,-576.28 1254.9,-561.23"
      />
      <polygon fill="none" stroke="black" points="1256.63,-564.28 1263.43,-556.16 1253.05,-558.26 1256.63,-564.28"/>
    </g>
    <!-- stage_10&#45;&gt;stage_11 -->
    <g id="edge78" class="edge">
      <title>stage_10&#45;&gt;stage_11</title>
      <path
        fill="none"
        stroke="black"
        d="M1121.17,-621.38C1130.23,-624.45 1139.18,-627.95 1147.5,-631.92 1165.31,-640.42 1167.37,-646.54 1183.5,-657.92 1210.45,-676.93 1241.14,-698.05 1264.42,-713.95"
      />
      <polygon fill="none" stroke="black" points="1262.43,-716.83 1272.66,-719.58 1266.37,-711.05 1262.43,-716.83"/>
    </g>
    <!-- stage_10&#45;&gt;stage_19 -->
    <g id="edge80" class="edge">
      <title>stage_10&#45;&gt;stage_19</title>
      <path fill="none" stroke="black" d="M1121.26,-584.5C1130.75,-580.1 1139.79,-574.66 1147.5,-567.92 1159.46,-557.47 1253.21,-355.15 1288.1,-279.31"/>
      <polygon fill="none" stroke="black" points="1291.18,-281 1292.17,-270.45 1284.82,-278.07 1291.18,-281"/>
    </g>
    <!-- stage_10&#45;&gt;stage_16 -->
    <g id="edge79" class="edge">
      <title>stage_10&#45;&gt;stage_16</title>
      <path fill="none" stroke="black" d="M1113.63,-584.45C1146.48,-576.12 1185.41,-566.25 1219.27,-557.67"/>
      <polygon fill="none" stroke="black" points="1219.77,-561.15 1228.6,-555.3 1218.05,-554.37 1219.77,-561.15"/>
    </g>
    <!-- stage_11&#45;&gt;stage_20 -->
    <g id="edge82" class="edge">
      <title>stage_11&#45;&gt;stage_20</title>
      <path fill="none" stroke="black" d="M1392.59,-757.4C1412.62,-761.54 1434,-765.95 1454.45,-770.18"/>
      <polygon fill="none" stroke="black" points="1453.71,-773.6 1464.21,-772.19 1455.13,-766.74 1453.71,-773.6"/>
    </g>
    <!-- stage_11&#45;&gt;stage_17 -->
    <g id="edge81" class="edge">
      <title>stage_11&#45;&gt;stage_17</title>
      <path fill="none" stroke="black" d="M1365.09,-720.49C1383.05,-715.15 1402.68,-709.3 1420.75,-703.92 1440.69,-697.98 1462.3,-691.54 1482.23,-685.59"/>
      <polygon fill="none" stroke="black" points="1483.08,-688.99 1491.66,-682.78 1481.08,-682.28 1483.08,-688.99"/>
    </g>
    <!-- stage_12&#45;&gt;stage_21 -->
    <g id="edge84" class="edge">
      <title>stage_12&#45;&gt;stage_21</title>
      <path
        fill="none"
        stroke="black"
        d="M1126.49,-434.55C1134.37,-430.14 1141.6,-424.68 1147.5,-417.92 1205.75,-351.21 1122.78,-286.4 1183.5,-221.92 1188.52,-216.59 1194.34,-212.18 1200.66,-208.53"
      />
      <polygon fill="none" stroke="black" points="1202.21,-211.67 1209.6,-204.07 1199.09,-205.4 1202.21,-211.67"/>
    </g>
    <!-- stage_12&#45;&gt;stage_16 -->
    <g id="edge83" class="edge">
      <title>stage_12&#45;&gt;stage_16</title>
      <path fill="none" stroke="black" d="M1097.89,-471.35C1137.83,-484.24 1191.32,-501.5 1233.4,-515.07"/>
      <polygon fill="none" stroke="black" points="1232.09,-518.32 1242.68,-518.06 1234.24,-511.66 1232.09,-518.32"/>
    </g>
    <!-- stage_13&#45;&gt;stage_22 -->
    <g id="edge86" class="edge">
      <title>stage_13&#45;&gt;stage_22</title>
      <path fill="none" stroke="black" d="M1125.6,-330.5C1133.76,-326.1 1141.29,-320.66 1147.5,-313.92 1193.97,-263.51 1135.17,-212.55 1183.5,-163.92 1191.76,-155.61 1201.99,-149.54 1212.95,-145.14"/>
      <polygon fill="none" stroke="black" points="1213.92,-148.51 1222.21,-141.9 1211.61,-141.9 1213.92,-148.51"/>
    </g>
    <!-- stage_13&#45;&gt;stage_16 -->
    <g id="edge85" class="edge">
      <title>stage_13&#45;&gt;stage_16</title>
      <path fill="none" stroke="black" d="M1067.18,-367.25C1088.86,-382.34 1120.28,-404.35 1147.5,-423.92 1189.04,-453.78 1236.4,-488.76 1267.42,-511.8"/>
      <polygon fill="none" stroke="black" points="1265.17,-514.49 1275.29,-517.65 1269.35,-508.87 1265.17,-514.49"/>
    </g>
    <!-- stage_14&#45;&gt;stage_23 -->
    <g id="edge88" class="edge">
      <title>stage_14&#45;&gt;stage_23</title>
      <path fill="none" stroke="black" d="M1123.9,-226.42C1132.57,-222.04 1140.69,-216.62 1147.5,-209.92 1182.37,-175.62 1147.37,-138.89 1183.5,-105.92 1192.99,-97.26 1204.66,-91.08 1216.91,-86.69"/>
      <polygon fill="none" stroke="black" points="1217.85,-90.06 1226.35,-83.73 1215.76,-83.38 1217.85,-90.06"/>
    </g>
    <!-- stage_14&#45;&gt;stage_16 -->
    <g id="edge87" class="edge">
      <title>stage_14&#45;&gt;stage_16</title>
      <path fill="none" stroke="black" d="M1072.81,-263.37C1095.22,-277.21 1125.04,-297.54 1147.5,-319.92 1207.31,-379.52 1260.08,-464.73 1285.34,-508.53"/>
      <polygon fill="none" stroke="black" points="1282.27,-510.22 1290.26,-517.17 1288.35,-506.75 1282.27,-510.22"/>
    </g>
    <!-- stage_16&#45;&gt;stage_17 -->
    <g id="edge91" class="edge">
      <title>stage_16&#45;&gt;stage_17</title>
      <path fill="none" stroke="black" d="M1339.73,-555.39C1384.2,-577.82 1459.29,-615.7 1507.96,-640.25"/>
      <polygon fill="none" stroke="black" points="1506.37,-643.37 1516.87,-644.75 1509.52,-637.12 1506.37,-643.37"/>
    </g>
    <!-- stage_16&#45;&gt;stage_25 -->
    <g id="edge92" class="edge">
      <title>stage_16&#45;&gt;stage_25</title>
      <path fill="none" stroke="black" d="M1374.59,-536.92C1405.02,-536.92 1440.69,-536.92 1472.24,-536.92"/>
      <polygon fill="none" stroke="black" points="1472.15,-540.42 1482.15,-536.92 1472.15,-533.42 1472.15,-540.42"/>
    </g>
    <!-- stage_17&#45;&gt;stage_26 -->
    <g id="edge93" class="edge">
      <title>stage_17&#45;&gt;stage_26</title>
      <path fill="none" stroke="black" d="M1593.08,-682.27C1627.24,-699.6 1678.63,-725.65 1715.75,-744.47"/>
      <polygon fill="none" stroke="black" points="1713.97,-747.49 1724.47,-748.89 1717.13,-741.25 1713.97,-747.49"/>
    </g>
    <!-- external_image_1 -->
    <g id="node30" class="node">
      <title>external_image_1</title>
      <path
        fill="none"
        stroke="#333333"
        stroke-dasharray="5,2"
        d="M402.25,-372.92C402.25,-372.92 234,-372.92 234,-372.92 228,-372.92 222,-366.92 222,-360.92 222,-360.92 222,-348.92 222,-348.92 222,-342.92 228,-336.92 234,-336.92 234,-336.92 402.25,-336.92 402.25,-336.92 408.25,-336.92 414.25,-342.92 414.25,-348.92 414.25,-348.92 414.25,-360.92 414.25,-360.92 414.25,-366.92 408.25,-372.92 402.25,-372.92"
      />
      <text text-anchor="middle" x="318.12" y="-349.87" font-family="Times,serif" font-size="14.00" fill="#333333">$AUTOWARE_BASE_IMAGE</text>
    </g>
    <!-- external_image_1&#45;&gt;stage_7 -->
    <g id="edge59" class="edge">
      <title>external_image_1&#45;&gt;stage_7</title>
      <path fill="none" stroke="black" d="M414.56,-357.75C422.53,-357.99 430.54,-358.23 438.41,-358.46"/>
      <polygon fill="black" stroke="black" points="438.18,-361.95 448.28,-358.75 438.39,-354.96 438.18,-361.95"/>
    </g>
    <!-- external_image_1&#45;&gt;stage_18 -->
    <g id="edge60" class="edge">
      <title>external_image_1&#45;&gt;stage_18</title>
      <path fill="none" stroke="black" d="M523.25,-192.92C600.12,-179.91 564.43,-290.14 630.25,-331.92 645.16,-341.39 662.73,-347.79 680.08,-352.12"/>
      <polygon fill="black" stroke="black" points="678.84,-355.43 689.36,-354.22 680.38,-348.6 678.84,-355.43"/>
    </g>
    <!-- external_image_1&#45;&gt;stage_24 -->
    <g id="edge65" class="edge">
      <title>external_image_1&#45;&gt;stage_24</title>
      <path
        fill="none"
        stroke="black"
        d="M396.1,-373.31C402.52,-376.33 408.68,-379.84 414.25,-383.92 527.99,-467.1 529.44,-519.8 594.25,-644.92 615.59,-686.12 594.89,-712.88 630.25,-742.92 721.91,-820.78 803.67,-716.85 896,-793.92 930.03,-822.32 899.72,-856.55 932,-886.92 968.27,-921.04 990.66,-908.01 1038.75,-920.92"
      />
      <path fill="none" stroke="black" d="M1040.75,-920.92C1098.88,-936.51 1166.58,-942.92 1218.37,-945.49"/>
      <polygon fill="black" stroke="black" points="1218.18,-948.98 1228.33,-945.94 1218.49,-941.99 1218.18,-948.98"/>
    </g>
    <!-- external_image_1&#45;&gt;stage_19 -->
    <g id="edge61" class="edge">
      <title>external_image_1&#45;&gt;stage_19</title>
      <path fill="none" stroke="black" d="M1040.75,-192.92C1058.31,-192.92 1146.42,-213.27 1215.34,-229.86"/>
      <polygon fill="black" stroke="black" points="1214.21,-233.19 1224.76,-232.13 1215.86,-226.38 1214.21,-233.19"/>
    </g>
    <!-- external_image_1&#45;&gt;stage_21 -->
    <g id="edge62" class="edge">
      <title>external_image_1&#45;&gt;stage_21</title>
      <path fill="none" stroke="black" d="M1040.75,-192.92C1093.17,-192.92 1151.52,-192.92 1199.67,-192.92"/>
      <polygon fill="black" stroke="black" points="1199.54,-196.42 1209.54,-192.92 1199.54,-189.42 1199.54,-196.42"/>
    </g>
    <!-- external_image_1&#45;&gt;stage_22 -->
    <g id="edge63" class="edge">
      <title>external_image_1&#45;&gt;stage_22</title>
      <path fill="none" stroke="black" d="M764.12,-192.92C885.53,-180.33 916.69,-192.92 1038.75,-192.92"/>
      <path
        fill="none"
        stroke="black"
        d="M1040.75,-192.92C1088.86,-192.92 1100.67,-185.97 1147.5,-174.92 1163.78,-171.08 1167.37,-168.37 1183.5,-163.92 1192.93,-161.32 1202.81,-158.71 1212.67,-156.17"
      />
      <polygon fill="black" stroke="black" points="1213.48,-159.58 1222.31,-153.72 1211.76,-152.79 1213.48,-159.58"/>
    </g>
    <!-- external_image_1&#45;&gt;stage_23 -->
    <g id="edge64" class="edge">
      <title>external_image_1&#45;&gt;stage_23</title>
      <path fill="none" stroke="black" d="M1040.75,-76.92C1098.09,-62.4 1164.84,-62.73 1216.4,-66.51"/>
      <polygon fill="black" stroke="black" points="1216.07,-70 1226.32,-67.31 1216.63,-63.02 1216.07,-70"/>
    </g>
    <!-- external_image_1&#45;&gt;stage_25 -->
    <g id="edge66" class="edge">
      <title>external_image_1&#45;&gt;stage_25</title>
      <path fill="none" stroke="black" d="M764.12,-192.92C846.53,-184.37 855.17,-142.89 932,-111.92 978.31,-93.25 990.35,-89.17 1038.75,-76.92"/>
      <path fill="none" stroke="black" d="M523.25,-192.92C627.93,-175.2 656.52,-203.87 762.12,-192.92"/>
      <path fill="none" stroke="black" d="M1040.75,-76.92C1204.95,-35.36 1286.07,54.8 1420.75,-47.92 1495.85,-105.19 1539.28,-410 1551.37,-507.15"/>
      <polygon fill="black" stroke="black" points="1547.88,-507.43 1552.57,-516.93 1554.83,-506.58 1547.88,-507.43"/>
      <path fill="none" stroke="black" d="M398.71,-336.53C404.15,-334.02 409.4,-331.16 414.25,-327.92 477.93,-285.41 445.76,-205.69 521.25,-192.92"/>
    </g>
    <!-- stage_9&#45;&gt;stage_11 -->
    <g id="edge76" class="edge">
      <title>stage_9&#45;&gt;stage_11</title>
      <path fill="none" stroke="black" d="M1129.26,-725.72C1143.86,-726.84 1159.23,-728.02 1174.54,-729.2"/>
      <polygon fill="black" stroke="black" points="1173.91,-732.66 1184.15,-729.93 1174.45,-725.68 1173.91,-732.66"/>
    </g>
    <!-- stage_9&#45;&gt;stage_17 -->
    <g id="edge77" class="edge">
      <title>stage_9&#45;&gt;stage_17</title>
      <path fill="none" stroke="black" d="M1129.42,-709.43C1225.66,-699.14 1378.12,-682.83 1472.02,-672.78"/>
      <polygon fill="black" stroke="black" points="1472.38,-676.27 1481.95,-671.72 1471.63,-669.3 1472.38,-676.27"/>
    </g>
    <!-- external_image_2 -->
    <g id="node32" class="node">
      <title>external_image_2</title>
      <path
        fill="none"
        stroke="#333333"
        stroke-dasharray="5,2"
        d="M1408.75,-860.92C1408.75,-860.92 1195.5,-860.92 1195.5,-860.92 1189.5,-860.92 1183.5,-854.92 1183.5,-848.92 1183.5,-848.92 1183.5,-836.92 1183.5,-836.92 1183.5,-830.92 1189.5,-824.92 1195.5,-824.92 1195.5,-824.92 1408.75,-824.92 1408.75,-824.92 1414.75,-824.92 1420.75,-830.92 1420.75,-836.92 1420.75,-836.92 1420.75,-848.92 1420.75,-848.92 1420.75,-854.92 1414.75,-860.92 1408.75,-860.92"
      />
      <text text-anchor="middle" x="1302.12" y="-837.87" font-family="Times,serif" font-size="14.00" fill="#333333">$AUTOWARE_BASE_CUDA_IMAGE</text>
    </g>
    <!-- external_image_2&#45;&gt;stage_20 -->
    <g id="edge94" class="edge">
      <title>external_image_2&#45;&gt;stage_20</title>
      <path fill="none" stroke="black" d="M1392.59,-824.44C1412.62,-820.3 1434,-815.89 1454.45,-811.66"/>
      <polygon fill="black" stroke="black" points="1455.13,-815.1 1464.21,-809.65 1453.71,-808.24 1455.13,-815.1"/>
    </g>
    <!-- external_image_2&#45;&gt;stage_26 -->
    <g id="edge95" class="edge">
      <title>external_image_2&#45;&gt;stage_26</title>
      <path fill="none" stroke="black" d="M1363.47,-861.39C1425.91,-879.42 1519.19,-903.05 1554.88,-894.92"/>
      <path fill="none" stroke="black" d="M1556.88,-894.92C1627.95,-878.73 1697.2,-825.85 1734.25,-793.65"/>
      <polygon fill="black" stroke="black" points="1736.21,-796.59 1741.39,-787.34 1731.58,-791.34 1736.21,-796.59"/>
    </g>
  </g>
</svg>
