<?xml version="1.0" encoding="UTF-8" standalone="no"?>
<!DOCTYPE svg PUBLIC "-//W3C//DTD SVG 1.1//EN"
 "http://www.w3.org/Graphics/SVG/1.1/DTD/svg11.dtd">
<!-- Generated by graphviz version 2.43.0 (0)
 -->
<!-- Title: G Pages: 1 -->
<svg width="1687pt" height="460pt"
 viewBox="0.00 0.00 1687.00 460.43" xmlns="http://www.w3.org/2000/svg" xmlns:xlink="http://www.w3.org/1999/xlink">
<g id="graph0" class="graph" transform="scale(1 1) rotate(0) translate(4 456.43)">
<title>G</title>
<polygon fill="white" stroke="transparent" points="-4,4 -4,-456.43 1683,-456.43 1683,4 -4,4"/>
<g id="clust1" class="cluster">
<title>cluster_legend</title>
<polygon fill="none" stroke="black" points="8,-142.43 8,-212.43 330,-212.43 330,-142.43 8,-142.43"/>
</g>
<!-- key -->
<g id="node1" class="node">
<title>key</title>
<text text-anchor="start" x="122.5" y="-189.43" font-family="monospace" font-size="10.00">FROM ... </text>
<text text-anchor="start" x="80.5" y="-174.43" font-family="monospace" font-size="10.00">COPY &#45;&#45;from=... </text>
<text text-anchor="start" x="26.5" y="-159.43" font-family="monospace" font-size="10.00">RUN &#45;&#45;mount=(.*)from=... </text>
</g>
<!-- key2 -->
<g id="node2" class="node">
<title>key2</title>
<text text-anchor="start" x="292" y="-189.43" font-family="monospace" font-size="10.00"> </text>
<text text-anchor="start" x="292" y="-174.43" font-family="monospace" font-size="10.00"> </text>
<text text-anchor="start" x="292" y="-159.43" font-family="monospace" font-size="10.00"> </text>
</g>
<!-- key&#45;&gt;key2 -->
<g id="edge1" class="edge">
<title>key:e&#45;&gt;key2:w</title>
<path fill="none" stroke="black" d="M180.5,-192.43C225.14,-192.43 238.79,-192.43 278.83,-192.43"/>
<polygon fill="black" stroke="black" points="279,-195.93 289,-192.43 279,-188.93 279,-195.93"/>
</g>
<!-- key&#45;&gt;key2 -->
<g id="edge2" class="edge">
<title>key:e&#45;&gt;key2:w</title>
<path fill="none" stroke="black" stroke-dasharray="5,2" d="M180.5,-176.43C225.14,-176.43 238.79,-176.43 278.83,-176.43"/>
<polygon fill="none" stroke="black" points="279,-179.93 289,-176.43 279,-172.93 279,-179.93"/>
</g>
<!-- key&#45;&gt;key2 -->
<g id="edge3" class="edge">
<title>key:e&#45;&gt;key2:w</title>
<path fill="none" stroke="black" stroke-dasharray="1,5" d="M180.5,-161.43C224.39,-161.43 238.32,-161.43 276.83,-161.43"/>
<polygon fill="none" stroke="black" points="277,-161.43 283,-157.43 289,-161.43 283,-165.43 277,-161.43"/>
</g>
<!-- external_image_0 -->
<g id="node3" class="node">
<title>external_image_0</title>
<path fill="none" stroke="#333333" stroke-dasharray="5,2" d="M161.5,-291.43C161.5,-291.43 41.5,-291.43 41.5,-291.43 35.5,-291.43 29.5,-285.43 29.5,-279.43 29.5,-279.43 29.5,-267.43 29.5,-267.43 29.5,-261.43 35.5,-255.43 41.5,-255.43 41.5,-255.43 161.5,-255.43 161.5,-255.43 167.5,-255.43 173.5,-261.43 173.5,-267.43 173.5,-267.43 173.5,-279.43 173.5,-279.43 173.5,-285.43 167.5,-291.43 161.5,-291.43"/>
<text text-anchor="middle" x="101.5" y="-269.73" font-family="Times,serif" font-size="14.00" fill="#333333">$BASE_IMAGE</text>
</g>
<!-- stage_0 -->
<g id="node4" class="node">
<title>stage_0</title>
<path fill="none" stroke="black" d="M355,-262.43C355,-262.43 235,-262.43 235,-262.43 229,-262.43 223,-256.43 223,-250.43 223,-250.43 223,-238.43 223,-238.43 223,-232.43 229,-226.43 235,-226.43 235,-226.43 355,-226.43 355,-226.43 361,-226.43 367,-232.43 367,-238.43 367,-238.43 367,-250.43 367,-250.43 367,-256.43 361,-262.43 355,-262.43"/>
<text text-anchor="middle" x="295" y="-240.73" font-family="Times,serif" font-size="14.00">base</text>
</g>
<!-- external_image_0&#45;&gt;stage_0 -->
<g id="edge4" class="edge">
<title>external_image_0&#45;&gt;stage_0</title>
<path fill="none" stroke="black" d="M173.54,-262.67C186.34,-260.73 199.78,-258.7 212.85,-256.72"/>
<polygon fill="black" stroke="black" points="213.4,-260.18 222.76,-255.22 212.35,-253.26 213.4,-260.18"/>
</g>
<!-- stage_1 -->
<g id="node5" class="node">
<title>stage_1</title>
<path fill="none" stroke="black" d="M355,-320.43C355,-320.43 235,-320.43 235,-320.43 229,-320.43 223,-314.43 223,-308.43 223,-308.43 223,-296.43 223,-296.43 223,-290.43 229,-284.43 235,-284.43 235,-284.43 355,-284.43 355,-284.43 361,-284.43 367,-290.43 367,-296.43 367,-296.43 367,-308.43 367,-308.43 367,-314.43 361,-320.43 355,-320.43"/>
<text text-anchor="middle" x="295" y="-298.73" font-family="Times,serif" font-size="14.00">rosdep&#45;depend</text>
</g>
<!-- external_image_0&#45;&gt;stage_1 -->
<g id="edge5" class="edge">
<title>external_image_0&#45;&gt;stage_1</title>
<path fill="none" stroke="black" d="M173.54,-284.19C186.34,-286.13 199.78,-288.16 212.85,-290.14"/>
<polygon fill="black" stroke="black" points="212.35,-293.61 222.76,-291.64 213.4,-286.68 212.35,-293.61"/>
</g>
<!-- stage_6 -->
<g id="node6" class="node">
<title>stage_6</title>
<path fill="none" stroke="black" d="M535,-320.43C535,-320.43 415,-320.43 415,-320.43 409,-320.43 403,-314.43 403,-308.43 403,-308.43 403,-296.43 403,-296.43 403,-290.43 409,-284.43 415,-284.43 415,-284.43 535,-284.43 535,-284.43 541,-284.43 547,-290.43 547,-296.43 547,-296.43 547,-308.43 547,-308.43 547,-314.43 541,-320.43 535,-320.43"/>
<text text-anchor="middle" x="475" y="-298.73" font-family="Times,serif" font-size="14.00">core&#45;devel</text>
</g>
<!-- stage_0&#45;&gt;stage_6 -->
<g id="edge6" class="edge">
<title>stage_0&#45;&gt;stage_6</title>
<path fill="none" stroke="black" d="M351.34,-262.46C369.59,-268.41 390.06,-275.08 408.97,-281.24"/>
<polygon fill="black" stroke="black" points="408.1,-284.64 418.69,-284.41 410.27,-277.98 408.1,-284.64"/>
</g>
<!-- stage_12 -->
<g id="node7" class="node">
<title>stage_12</title>
<path fill="none" stroke="black" d="M1481,-146.43C1481,-146.43 1287,-146.43 1287,-146.43 1281,-146.43 1275,-140.43 1275,-134.43 1275,-134.43 1275,-122.43 1275,-122.43 1275,-116.43 1281,-110.43 1287,-110.43 1287,-110.43 1481,-110.43 1481,-110.43 1487,-110.43 1493,-116.43 1493,-122.43 1493,-122.43 1493,-134.43 1493,-134.43 1493,-140.43 1487,-146.43 1481,-146.43"/>
<text text-anchor="middle" x="1384" y="-124.73" font-family="Times,serif" font-size="14.00">universe&#45;sensing&#45;perception</text>
</g>
<!-- stage_0&#45;&gt;stage_12 -->
<g id="edge7" class="edge">
<title>stage_0&#45;&gt;stage_12</title>
<path fill="none" stroke="black" d="M1097.5,-70.43C1136.25,-70.57 1230.88,-91.31 1300.62,-107.95"/>
<polygon fill="black" stroke="black" points="1300.18,-111.45 1310.72,-110.38 1301.82,-104.64 1300.18,-111.45"/>
</g>
<!-- stage_13 -->
<g id="node8" class="node">
<title>stage_13</title>
<path fill="none" stroke="black" d="M1487,-88.43C1487,-88.43 1281,-88.43 1281,-88.43 1275,-88.43 1269,-82.43 1269,-76.43 1269,-76.43 1269,-64.43 1269,-64.43 1269,-58.43 1275,-52.43 1281,-52.43 1281,-52.43 1487,-52.43 1487,-52.43 1493,-52.43 1499,-58.43 1499,-64.43 1499,-64.43 1499,-76.43 1499,-76.43 1499,-82.43 1493,-88.43 1487,-88.43"/>
<text text-anchor="middle" x="1384" y="-66.73" font-family="Times,serif" font-size="14.00">universe&#45;localization&#45;mapping</text>
</g>
<!-- stage_0&#45;&gt;stage_13 -->
<g id="edge8" class="edge">
<title>stage_0&#45;&gt;stage_13</title>
<path fill="none" stroke="black" d="M1097.5,-70.43C1150.25,-70.61 1208.48,-70.64 1258.51,-70.62"/>
<polygon fill="black" stroke="black" points="1258.74,-74.12 1268.74,-70.61 1258.73,-67.12 1258.74,-74.12"/>
</g>
<!-- stage_14 -->
<g id="node9" class="node">
<title>stage_14</title>
<path fill="#e5e5e5" stroke="black" d="M1667,-342.43C1667,-342.43 1547,-342.43 1547,-342.43 1541,-342.43 1535,-336.43 1535,-330.43 1535,-330.43 1535,-318.43 1535,-318.43 1535,-312.43 1541,-306.43 1547,-306.43 1547,-306.43 1667,-306.43 1667,-306.43 1673,-306.43 1679,-312.43 1679,-318.43 1679,-318.43 1679,-330.43 1679,-330.43 1679,-336.43 1673,-342.43 1667,-342.43"/>
<text text-anchor="middle" x="1607" y="-320.73" font-family="Times,serif" font-size="14.00">universe</text>
</g>
<!-- stage_0&#45;&gt;stage_14 -->
<g id="edge9" class="edge">
<title>stage_0&#45;&gt;stage_14</title>
<path fill="none" stroke="black" d="M343.88,-226.34C466.79,-181.6 804.3,-69.42 1095.5,-70.43"/>
<path fill="none" stroke="black" d="M1097.5,-70.43C1276.05,-59.13 1351.81,60.28 1499,-41.43 1584.43,-100.46 1601.73,-237.09 1605.17,-296.26"/>
<polygon fill="black" stroke="black" points="1601.68,-296.56 1605.67,-306.38 1608.67,-296.22 1601.68,-296.56"/>
</g>
<!-- stage_1&#45;&gt;stage_6 -->
<g id="edge14" class="edge">
<title>stage_1&#45;&gt;stage_6</title>
<path fill="none" stroke="black" stroke-dasharray="5,2" d="M367.12,-302.43C375.61,-302.43 384.33,-302.43 392.94,-302.43"/>
<polygon fill="none" stroke="black" points="393,-305.93 403,-302.43 393,-298.93 393,-305.93"/>
</g>
<!-- stage_2 -->
<g id="node10" class="node">
<title>stage_2</title>
<path fill="none" stroke="black" d="M906,-278.43C906,-278.43 601,-278.43 601,-278.43 595,-278.43 589,-272.43 589,-266.43 589,-266.43 589,-254.43 589,-254.43 589,-248.43 595,-242.43 601,-242.43 601,-242.43 906,-242.43 906,-242.43 912,-242.43 918,-248.43 918,-254.43 918,-254.43 918,-266.43 918,-266.43 918,-272.43 912,-278.43 906,-278.43"/>
<text text-anchor="middle" x="753.5" y="-256.73" font-family="Times,serif" font-size="14.00">rosdep&#45;universe&#45;sensing&#45;perception&#45;depend</text>
</g>
<!-- stage_1&#45;&gt;stage_2 -->
<g id="edge10" class="edge">
<title>stage_1&#45;&gt;stage_2</title>
<path fill="none" stroke="black" d="M326.14,-320.55C360.48,-339.85 418.99,-368.65 474,-376.43"/>
<path fill="none" stroke="black" d="M476,-376.43C512.99,-381.66 518.75,-355.88 547,-331.43 565.59,-315.34 561.61,-301.56 583,-289.43 587.51,-286.87 592.19,-284.53 596.99,-282.38"/>
<polygon fill="black" stroke="black" points="598.48,-285.56 606.37,-278.49 595.79,-279.09 598.48,-285.56"/>
</g>
<!-- stage_3 -->
<g id="node11" class="node">
<title>stage_3</title>
<path fill="none" stroke="black" d="M912,-220.43C912,-220.43 595,-220.43 595,-220.43 589,-220.43 583,-214.43 583,-208.43 583,-208.43 583,-196.43 583,-196.43 583,-190.43 589,-184.43 595,-184.43 595,-184.43 912,-184.43 912,-184.43 918,-184.43 924,-190.43 924,-196.43 924,-196.43 924,-208.43 924,-208.43 924,-214.43 918,-220.43 912,-220.43"/>
<text text-anchor="middle" x="753.5" y="-198.73" font-family="Times,serif" font-size="14.00">rosdep&#45;universe&#45;localization&#45;mapping&#45;depend</text>
</g>
<!-- stage_1&#45;&gt;stage_3 -->
<g id="edge11" class="edge">
<title>stage_1&#45;&gt;stage_3</title>
<path fill="none" stroke="black" d="M360.97,-284.42C374.82,-280.7 389.38,-276.86 403,-273.43 482.66,-253.35 502.48,-247.7 583,-231.43 598.63,-228.27 615.12,-225.17 631.42,-222.24"/>
<polygon fill="black" stroke="black" points="632.31,-225.63 641.54,-220.43 631.08,-218.74 632.31,-225.63"/>
</g>
<!-- stage_4 -->
<g id="node12" class="node">
<title>stage_4</title>
<path fill="none" stroke="black" d="M896.5,-394.43C896.5,-394.43 610.5,-394.43 610.5,-394.43 604.5,-394.43 598.5,-388.43 598.5,-382.43 598.5,-382.43 598.5,-370.43 598.5,-370.43 598.5,-364.43 604.5,-358.43 610.5,-358.43 610.5,-358.43 896.5,-358.43 896.5,-358.43 902.5,-358.43 908.5,-364.43 908.5,-370.43 908.5,-370.43 908.5,-382.43 908.5,-382.43 908.5,-388.43 902.5,-394.43 896.5,-394.43"/>
<text text-anchor="middle" x="753.5" y="-372.73" font-family="Times,serif" font-size="14.00">rosdep&#45;universe&#45;planning&#45;control&#45;depend</text>
</g>
<!-- stage_1&#45;&gt;stage_4 -->
<g id="edge12" class="edge">
<title>stage_1&#45;&gt;stage_4</title>
<path fill="none" stroke="black" d="M476,-376.43C512.06,-381.53 551.03,-383.61 588.02,-384"/>
<polygon fill="black" stroke="black" points="588.37,-387.51 598.4,-384.07 588.42,-380.51 588.37,-387.51"/>
</g>
<!-- stage_5 -->
<g id="node13" class="node">
<title>stage_5</title>
<path fill="none" stroke="black" d="M1178.5,-452.43C1178.5,-452.43 1014.5,-452.43 1014.5,-452.43 1008.5,-452.43 1002.5,-446.43 1002.5,-440.43 1002.5,-440.43 1002.5,-428.43 1002.5,-428.43 1002.5,-422.43 1008.5,-416.43 1014.5,-416.43 1014.5,-416.43 1178.5,-416.43 1178.5,-416.43 1184.5,-416.43 1190.5,-422.43 1190.5,-428.43 1190.5,-428.43 1190.5,-440.43 1190.5,-440.43 1190.5,-446.43 1184.5,-452.43 1178.5,-452.43"/>
<text text-anchor="middle" x="1096.5" y="-430.73" font-family="Times,serif" font-size="14.00">rosdep&#45;universe&#45;depend</text>
</g>
<!-- stage_1&#45;&gt;stage_5 -->
<g id="edge13" class="edge">
<title>stage_1&#45;&gt;stage_5</title>
<path fill="none" stroke="black" d="M476,-376.43C524.79,-383.33 534.36,-397.55 583,-405.43 723.47,-428.19 888.11,-433.84 992.1,-434.87"/>
<polygon fill="black" stroke="black" points="992.26,-438.37 1002.29,-434.96 992.32,-431.37 992.26,-438.37"/>
</g>
<!-- stage_7 -->
<g id="node14" class="node">
<title>stage_7</title>
<path fill="none" stroke="black" d="M834,-336.43C834,-336.43 673,-336.43 673,-336.43 667,-336.43 661,-330.43 661,-324.43 661,-324.43 661,-312.43 661,-312.43 661,-306.43 667,-300.43 673,-300.43 673,-300.43 834,-300.43 834,-300.43 840,-300.43 846,-306.43 846,-312.43 846,-312.43 846,-324.43 846,-324.43 846,-330.43 840,-336.43 834,-336.43"/>
<text text-anchor="middle" x="753.5" y="-314.73" font-family="Times,serif" font-size="14.00">universe&#45;common&#45;devel</text>
</g>
<!-- stage_1&#45;&gt;stage_7 -->
<g id="edge16" class="edge">
<title>stage_1&#45;&gt;stage_7</title>
<path fill="none" stroke="black" stroke-dasharray="5,2" d="M476,-376.43C524.79,-383.33 534.88,-358.04 583,-347.43 604.84,-342.61 628.41,-338.13 650.83,-334.2"/>
<polygon fill="none" stroke="black" points="651.45,-337.65 660.7,-332.5 650.25,-330.75 651.45,-337.65"/>
</g>
<!-- stage_6&#45;&gt;stage_7 -->
<g id="edge49" class="edge">
<title>stage_6&#45;&gt;stage_7</title>
<path fill="none" stroke="black" d="M547.21,-306.55C578.74,-308.38 616.4,-310.55 650.82,-312.55"/>
<polygon fill="black" stroke="black" points="650.72,-316.05 660.9,-313.13 651.12,-309.06 650.72,-316.05"/>
</g>
<!-- stage_2&#45;&gt;stage_12 -->
<g id="edge24" class="edge">
<title>stage_2&#45;&gt;stage_12</title>
<path fill="none" stroke="black" stroke-dasharray="5,2" d="M901.7,-242.42C909.46,-239.28 916.95,-235.64 924,-231.43 946.29,-218.13 937.48,-198.34 960,-185.43 1010.45,-156.52 1158.01,-141.64 1264.66,-134.44"/>
<polygon fill="none" stroke="black" points="1265.1,-137.92 1274.85,-133.77 1264.64,-130.94 1265.1,-137.92"/>
</g>
<!-- stage_8 -->
<g id="node15" class="node">
<title>stage_8</title>
<path fill="none" stroke="black" d="M1215,-290.43C1215,-290.43 978,-290.43 978,-290.43 972,-290.43 966,-284.43 966,-278.43 966,-278.43 966,-266.43 966,-266.43 966,-260.43 972,-254.43 978,-254.43 978,-254.43 1215,-254.43 1215,-254.43 1221,-254.43 1227,-260.43 1227,-266.43 1227,-266.43 1227,-278.43 1227,-278.43 1227,-284.43 1221,-290.43 1215,-290.43"/>
<text text-anchor="middle" x="1096.5" y="-268.73" font-family="Times,serif" font-size="14.00">universe&#45;sensing&#45;perception&#45;devel</text>
</g>
<!-- stage_2&#45;&gt;stage_8 -->
<g id="edge21" class="edge">
<title>stage_2&#45;&gt;stage_8</title>
<path fill="none" stroke="black" stroke-dasharray="5,2" d="M918.01,-266.18C930.56,-266.63 943.16,-267.07 955.55,-267.51"/>
<polygon fill="none" stroke="black" points="955.77,-271.02 965.89,-267.87 956.02,-264.02 955.77,-271.02"/>
</g>
<!-- stage_3&#45;&gt;stage_13 -->
<g id="edge28" class="edge">
<title>stage_3&#45;&gt;stage_13</title>
<path fill="none" stroke="black" stroke-dasharray="5,2" d="M799.9,-184.28C841.08,-168.47 903.76,-146.01 960,-132.43 1015.04,-119.14 1154.73,-99.67 1258.62,-86.1"/>
<polygon fill="none" stroke="black" points="1259.09,-89.57 1268.56,-84.81 1258.19,-82.63 1259.09,-89.57"/>
</g>
<!-- stage_9 -->
<g id="node16" class="node">
<title>stage_9</title>
<path fill="none" stroke="black" d="M1221,-232.43C1221,-232.43 972,-232.43 972,-232.43 966,-232.43 960,-226.43 960,-220.43 960,-220.43 960,-208.43 960,-208.43 960,-202.43 966,-196.43 972,-196.43 972,-196.43 1221,-196.43 1221,-196.43 1227,-196.43 1233,-202.43 1233,-208.43 1233,-208.43 1233,-220.43 1233,-220.43 1233,-226.43 1227,-232.43 1221,-232.43"/>
<text text-anchor="middle" x="1096.5" y="-210.73" font-family="Times,serif" font-size="14.00">universe&#45;localization&#45;mapping&#45;devel</text>
</g>
<!-- stage_3&#45;&gt;stage_9 -->
<g id="edge25" class="edge">
<title>stage_3&#45;&gt;stage_9</title>
<path fill="none" stroke="black" stroke-dasharray="5,2" d="M924,-208.4C932.65,-208.7 941.3,-209 949.87,-209.31"/>
<polygon fill="none" stroke="black" points="949.77,-212.8 959.89,-209.66 950.02,-205.81 949.77,-212.8"/>
</g>
<!-- stage_10 -->
<g id="node17" class="node">
<title>stage_10</title>
<path fill="none" stroke="black" d="M1205.5,-394.43C1205.5,-394.43 987.5,-394.43 987.5,-394.43 981.5,-394.43 975.5,-388.43 975.5,-382.43 975.5,-382.43 975.5,-370.43 975.5,-370.43 975.5,-364.43 981.5,-358.43 987.5,-358.43 987.5,-358.43 1205.5,-358.43 1205.5,-358.43 1211.5,-358.43 1217.5,-364.43 1217.5,-370.43 1217.5,-370.43 1217.5,-382.43 1217.5,-382.43 1217.5,-388.43 1211.5,-394.43 1205.5,-394.43"/>
<text text-anchor="middle" x="1096.5" y="-372.73" font-family="Times,serif" font-size="14.00">universe&#45;planning&#45;control&#45;devel</text>
</g>
<!-- stage_4&#45;&gt;stage_10 -->
<g id="edge29" class="edge">
<title>stage_4&#45;&gt;stage_10</title>
<path fill="none" stroke="black" stroke-dasharray="5,2" d="M908.54,-376.43C927.45,-376.43 946.64,-376.43 965.15,-376.43"/>
<polygon fill="none" stroke="black" points="965.37,-379.93 975.37,-376.43 965.37,-372.93 965.37,-379.93"/>
</g>
<!-- stage_5&#45;&gt;stage_14 -->
<g id="edge48" class="edge">
<title>stage_5&#45;&gt;stage_14</title>
<path fill="none" stroke="black" stroke-dasharray="5,2" d="M1190.77,-417.41C1272.39,-402.09 1393.98,-378.23 1499,-353.43 1509.87,-350.86 1521.3,-347.97 1532.49,-345.03"/>
<polygon fill="none" stroke="black" points="1533.47,-348.4 1542.24,-342.45 1531.68,-341.63 1533.47,-348.4"/>
</g>
<!-- stage_11 -->
<g id="node18" class="node">
<title>stage_11</title>
<path fill="none" stroke="black" d="M1444,-342.43C1444,-342.43 1324,-342.43 1324,-342.43 1318,-342.43 1312,-336.43 1312,-330.43 1312,-330.43 1312,-318.43 1312,-318.43 1312,-312.43 1318,-306.43 1324,-306.43 1324,-306.43 1444,-306.43 1444,-306.43 1450,-306.43 1456,-312.43 1456,-318.43 1456,-318.43 1456,-330.43 1456,-330.43 1456,-336.43 1450,-342.43 1444,-342.43"/>
<text text-anchor="middle" x="1384" y="-320.73" font-family="Times,serif" font-size="14.00">universe&#45;devel</text>
</g>
<!-- stage_5&#45;&gt;stage_11 -->
<g id="edge36" class="edge">
<title>stage_5&#45;&gt;stage_11</title>
<path fill="none" stroke="black" stroke-dasharray="5,2" d="M1190.7,-418.15C1205.06,-414.59 1219.57,-410.38 1233,-405.43 1244.26,-401.28 1301.49,-369.86 1341.9,-347.4"/>
<polygon fill="none" stroke="black" points="1343.72,-350.4 1350.75,-342.47 1340.31,-344.28 1343.72,-350.4"/>
</g>
<!-- stage_7&#45;&gt;stage_8 -->
<g id="edge50" class="edge">
<title>stage_7&#45;&gt;stage_8</title>
<path fill="none" stroke="black" d="M846.33,-306.04C879.87,-301.52 918.61,-296.29 955.4,-291.33"/>
<polygon fill="black" stroke="black" points="956.27,-294.74 965.71,-289.94 955.34,-287.81 956.27,-294.74"/>
</g>
<!-- stage_7&#45;&gt;stage_9 -->
<g id="edge51" class="edge">
<title>stage_7&#45;&gt;stage_9</title>
<path fill="none" stroke="black" d="M846.34,-315.1C872.82,-310.96 900.8,-303.28 924,-289.43 946.29,-276.13 937.99,-257.19 960,-243.43 963.89,-241 967.96,-238.77 972.14,-236.72"/>
<polygon fill="black" stroke="black" points="973.8,-239.81 981.5,-232.53 970.94,-233.42 973.8,-239.81"/>
</g>
<!-- stage_7&#45;&gt;stage_10 -->
<g id="edge52" class="edge">
<title>stage_7&#45;&gt;stage_10</title>
<path fill="none" stroke="black" d="M846.33,-334.05C887.32,-341.02 936.09,-349.32 979.56,-356.71"/>
<polygon fill="black" stroke="black" points="979.18,-360.2 989.62,-358.42 980.35,-353.29 979.18,-360.2"/>
</g>
<!-- stage_7&#45;&gt;stage_11 -->
<g id="edge53" class="edge">
<title>stage_7&#45;&gt;stage_11</title>
<path fill="none" stroke="black" d="M846.23,-319.31C968.76,-320.48 1184,-322.53 1301.25,-323.65"/>
<polygon fill="black" stroke="black" points="1301.56,-327.15 1311.59,-323.75 1301.62,-320.15 1301.56,-327.15"/>
</g>
<!-- stage_8&#45;&gt;stage_12 -->
<g id="edge55" class="edge">
<title>stage_8&#45;&gt;stage_12</title>
<path fill="none" stroke="black" stroke-dasharray="5,2" d="M1204.02,-254.39C1214.02,-251.29 1223.83,-247.66 1233,-243.43 1281.75,-220.93 1329.46,-180.21 1357.54,-153.76"/>
<polygon fill="none" stroke="black" points="1360.11,-156.14 1364.93,-146.7 1355.28,-151.08 1360.11,-156.14"/>
</g>
<!-- stage_8&#45;&gt;stage_11 -->
<g id="edge54" class="edge">
<title>stage_8&#45;&gt;stage_11</title>
<path fill="none" stroke="black" stroke-dasharray="5,2" d="M1196.55,-290.47C1230.85,-296.72 1268.88,-303.64 1301.59,-309.6"/>
<polygon fill="none" stroke="black" points="1301.1,-313.07 1311.56,-311.42 1302.35,-306.18 1301.1,-313.07"/>
</g>
<!-- stage_9&#45;&gt;stage_13 -->
<g id="edge57" class="edge">
<title>stage_9&#45;&gt;stage_13</title>
<path fill="none" stroke="black" stroke-dasharray="5,2" d="M1132.23,-196.41C1160.42,-181.16 1200.66,-157.91 1233,-133.43 1250.55,-120.15 1249.72,-110.04 1269,-99.43 1273.81,-96.78 1278.86,-94.38 1284.06,-92.18"/>
<polygon fill="none" stroke="black" points="1285.52,-95.37 1293.55,-88.46 1282.96,-88.85 1285.52,-95.37"/>
</g>
<!-- stage_9&#45;&gt;stage_11 -->
<g id="edge56" class="edge">
<title>stage_9&#45;&gt;stage_11</title>
<path fill="none" stroke="black" stroke-dasharray="5,2" d="M1197.59,-232.47C1209.67,-235.63 1221.71,-239.27 1233,-243.43 1273.77,-258.45 1317.11,-282.88 1346.67,-300.99"/>
<polygon fill="none" stroke="black" points="1345.03,-304.1 1355.38,-306.39 1348.72,-298.15 1345.03,-304.1"/>
</g>
<!-- stage_10&#45;&gt;stage_11 -->
<g id="edge58" class="edge">
<title>stage_10&#45;&gt;stage_11</title>
<path fill="none" stroke="black" stroke-dasharray="5,2" d="M1196.55,-358.39C1230.85,-352.14 1268.88,-345.22 1301.59,-339.26"/>
<polygon fill="none" stroke="black" points="1302.35,-342.68 1311.56,-337.44 1301.1,-335.79 1302.35,-342.68"/>
</g>
<!-- stage_11&#45;&gt;stage_14 -->
<g id="edge59" class="edge">
<title>stage_11&#45;&gt;stage_14</title>
<path fill="none" stroke="black" stroke-dasharray="5,2" d="M1456.14,-324.43C1478.03,-324.43 1502.28,-324.43 1524.79,-324.43"/>
<polygon fill="none" stroke="black" points="1524.99,-327.93 1534.99,-324.43 1524.99,-320.93 1524.99,-327.93"/>
</g>
</g>
</svg>
