<?xml version="1.0" encoding="UTF-8" standalone="no"?>
<!DOCTYPE svg PUBLIC "-//W3C//DTD SVG 1.1//EN"
 "http://www.w3.org/Graphics/SVG/1.1/DTD/svg11.dtd">
<!-- Generated by graphviz version 12.1.2 (20240928.0832)
 -->
<!-- Title: G Pages: 1 -->
<svg width="1790pt" height="709pt"
 viewBox="0.00 0.00 1789.50 708.65" xmlns="http://www.w3.org/2000/svg" xmlns:xlink="http://www.w3.org/1999/xlink">
<g id="graph0" class="graph" transform="scale(1 1) rotate(0) translate(4 704.65)">
<title>G</title>
<polygon fill="white" stroke="none" points="-4,4 -4,-704.65 1785.5,-704.65 1785.5,4 -4,4"/>
<g id="clust1" class="cluster">
<title>cluster_legend</title>
<polygon fill="none" stroke="black" points="8,-261.17 8,-335.17 329,-335.17 329,-261.17 8,-261.17"/>
</g>
<!-- key -->
<g id="node1" class="node">
<title>key</title>
<text text-anchor="start" x="122" y="-311.79" font-family="monospace" font-size="10.00">FROM ... </text>
<text text-anchor="start" x="80" y="-295.04" font-family="monospace" font-size="10.00">COPY &#45;&#45;from=... </text>
<text text-anchor="start" x="26" y="-278.29" font-family="monospace" font-size="10.00">RUN &#45;&#45;mount=(.*)from=... </text>
</g>
<!-- key2 -->
<g id="node2" class="node">
<title>key2</title>
<text text-anchor="start" x="291" y="-311.79" font-family="monospace" font-size="10.00"> </text>
<text text-anchor="start" x="291" y="-295.04" font-family="monospace" font-size="10.00"> </text>
<text text-anchor="start" x="291" y="-278.29" font-family="monospace" font-size="10.00"> </text>
</g>
<!-- key&#45;&gt;key2 -->
<g id="edge1" class="edge">
<title>key:e&#45;&gt;key2:w</title>
<path fill="none" stroke="black" d="M179,-314.92C223.38,-314.92 237.26,-314.92 276.52,-314.92"/>
<polygon fill="black" stroke="black" points="276.49,-318.42 286.49,-314.92 276.49,-311.42 276.49,-318.42"/>
</g>
<!-- key&#45;&gt;key2 -->
<g id="edge2" class="edge">
<title>key:e&#45;&gt;key2:w</title>
<path fill="none" stroke="black" stroke-dasharray="5,2" d="M179,-298.17C223.38,-298.17 237.26,-298.17 276.52,-298.17"/>
<polygon fill="none" stroke="black" points="276.49,-301.67 286.49,-298.17 276.49,-294.67 276.49,-301.67"/>
</g>
<!-- key&#45;&gt;key2 -->
<g id="edge3" class="edge">
<title>key:e&#45;&gt;key2:w</title>
<path fill="none" stroke="black" stroke-dasharray="1,5" d="M179,-281.42C222.9,-281.42 236.97,-281.42 275.27,-281.42"/>
<polygon fill="none" stroke="black" points="275.1,-281.42 281.1,-277.42 287.1,-281.42 281.1,-285.42 275.1,-281.42"/>
</g>
<!-- external_image_0 -->
<g id="node3" class="node">
<title>external_image_0</title>
<path fill="none" stroke="#333333" stroke-dasharray="5,2" d="M161,-414.17C161,-414.17 41,-414.17 41,-414.17 35,-414.17 29,-408.17 29,-402.17 29,-402.17 29,-390.17 29,-390.17 29,-384.17 35,-378.17 41,-378.17 41,-378.17 161,-378.17 161,-378.17 167,-378.17 173,-384.17 173,-390.17 173,-390.17 173,-402.17 173,-402.17 173,-408.17 167,-414.17 161,-414.17"/>
<text text-anchor="middle" x="101" y="-391.12" font-family="Times,serif" font-size="14.00" fill="#333333">$BASE_IMAGE</text>
</g>
<!-- stage_0 -->
<g id="node4" class="node">
<title>stage_0</title>
<path fill="none" stroke="black" d="M354,-385.17C354,-385.17 234,-385.17 234,-385.17 228,-385.17 222,-379.17 222,-373.17 222,-373.17 222,-361.17 222,-361.17 222,-355.17 228,-349.17 234,-349.17 234,-349.17 354,-349.17 354,-349.17 360,-349.17 366,-355.17 366,-361.17 366,-361.17 366,-373.17 366,-373.17 366,-379.17 360,-385.17 354,-385.17"/>
<text text-anchor="middle" x="294" y="-362.12" font-family="Times,serif" font-size="14.00">base</text>
</g>
<!-- external_image_0&#45;&gt;stage_0 -->
<g id="edge4" class="edge">
<title>external_image_0&#45;&gt;stage_0</title>
<path fill="none" stroke="black" d="M173.39,-385.33C185.48,-383.49 198.12,-381.57 210.46,-379.7"/>
<polygon fill="black" stroke="black" points="210.84,-383.18 220.2,-378.22 209.79,-376.26 210.84,-383.18"/>
</g>
<!-- stage_1 -->
<g id="node5" class="node">
<title>stage_1</title>
<path fill="none" stroke="black" d="M354,-443.17C354,-443.17 234,-443.17 234,-443.17 228,-443.17 222,-437.17 222,-431.17 222,-431.17 222,-419.17 222,-419.17 222,-413.17 228,-407.17 234,-407.17 234,-407.17 354,-407.17 354,-407.17 360,-407.17 366,-413.17 366,-419.17 366,-419.17 366,-431.17 366,-431.17 366,-437.17 360,-443.17 354,-443.17"/>
<text text-anchor="middle" x="294" y="-420.12" font-family="Times,serif" font-size="14.00">rosdep&#45;depend</text>
</g>
<!-- external_image_0&#45;&gt;stage_1 -->
<g id="edge5" class="edge">
<title>external_image_0&#45;&gt;stage_1</title>
<path fill="none" stroke="black" d="M173.39,-407.01C185.48,-408.84 198.12,-410.76 210.46,-412.64"/>
<polygon fill="black" stroke="black" points="209.79,-416.07 220.2,-414.11 210.84,-409.15 209.79,-416.07"/>
</g>
<!-- stage_7 -->
<g id="node6" class="node">
<title>stage_7</title>
<path fill="none" stroke="black" d="M534,-483.17C534,-483.17 414,-483.17 414,-483.17 408,-483.17 402,-477.17 402,-471.17 402,-471.17 402,-459.17 402,-459.17 402,-453.17 408,-447.17 414,-447.17 414,-447.17 534,-447.17 534,-447.17 540,-447.17 546,-453.17 546,-459.17 546,-459.17 546,-471.17 546,-471.17 546,-477.17 540,-483.17 534,-483.17"/>
<text text-anchor="middle" x="474" y="-460.12" font-family="Times,serif" font-size="14.00">core&#45;devel</text>
</g>
<!-- stage_0&#45;&gt;stage_7 -->
<g id="edge6" class="edge">
<title>stage_0&#45;&gt;stage_7</title>
<path fill="none" stroke="black" d="M343.67,-385.64C351.25,-388.92 358.91,-392.48 366,-396.17 391.05,-409.21 417.74,-426.43 438.21,-440.39"/>
<polygon fill="black" stroke="black" points="435.96,-443.1 446.18,-445.9 439.94,-437.34 435.96,-443.1"/>
</g>
<!-- stage_16 -->
<g id="node7" class="node">
<title>stage_16</title>
<path fill="none" stroke="black" d="M1323.38,-645.17C1323.38,-645.17 1179.12,-645.17 1179.12,-645.17 1173.12,-645.17 1167.12,-639.17 1167.12,-633.17 1167.12,-633.17 1167.12,-621.17 1167.12,-621.17 1167.12,-615.17 1173.12,-609.17 1179.12,-609.17 1179.12,-609.17 1323.38,-609.17 1323.38,-609.17 1329.38,-609.17 1335.38,-615.17 1335.38,-621.17 1335.38,-621.17 1335.38,-633.17 1335.38,-633.17 1335.38,-639.17 1329.38,-645.17 1323.38,-645.17"/>
<text text-anchor="middle" x="1251.25" y="-622.12" font-family="Times,serif" font-size="14.00">universe&#45;sensing&#45;perception</text>
</g>
<!-- stage_0&#45;&gt;stage_16 -->
<g id="edge7" class="edge">
<title>stage_0&#45;&gt;stage_16</title>
<path fill="none" stroke="black" d="M366.23,-367.64C422.84,-371.97 499.92,-387.37 546,-436.17 598.43,-491.68 525.91,-552.35 582,-604.17 749.75,-759.11 1054.29,-689.51 1186.33,-648.96"/>
<polygon fill="black" stroke="black" points="1187.1,-652.39 1195.61,-646.07 1185.02,-645.71 1187.1,-652.39"/>
</g>
<!-- stage_18 -->
<g id="node8" class="node">
<title>stage_18</title>
<path fill="none" stroke="black" d="M1330.12,-137.17C1330.12,-137.17 1172.38,-137.17 1172.38,-137.17 1166.38,-137.17 1160.38,-131.17 1160.38,-125.17 1160.38,-125.17 1160.38,-113.17 1160.38,-113.17 1160.38,-107.17 1166.38,-101.17 1172.38,-101.17 1172.38,-101.17 1330.12,-101.17 1330.12,-101.17 1336.12,-101.17 1342.12,-107.17 1342.12,-113.17 1342.12,-113.17 1342.12,-125.17 1342.12,-125.17 1342.12,-131.17 1336.12,-137.17 1330.12,-137.17"/>
<text text-anchor="middle" x="1251.25" y="-114.12" font-family="Times,serif" font-size="14.00">universe&#45;localization&#45;mapping</text>
</g>
<!-- stage_0&#45;&gt;stage_18 -->
<g id="edge8" class="edge">
<title>stage_0&#45;&gt;stage_18</title>
<path fill="none" stroke="black" d="M992.5,-61.17C1001.23,-60.39 1091.48,-81.23 1162.76,-98.14"/>
<polygon fill="black" stroke="black" points="1161.56,-101.46 1172.1,-100.36 1163.18,-94.65 1161.56,-101.46"/>
</g>
<!-- stage_19 -->
<g id="node9" class="node">
<title>stage_19</title>
<path fill="none" stroke="black" d="M1317.38,-79.17C1317.38,-79.17 1185.12,-79.17 1185.12,-79.17 1179.12,-79.17 1173.12,-73.17 1173.12,-67.17 1173.12,-67.17 1173.12,-55.17 1173.12,-55.17 1173.12,-49.17 1179.12,-43.17 1185.12,-43.17 1185.12,-43.17 1317.38,-43.17 1317.38,-43.17 1323.38,-43.17 1329.38,-49.17 1329.38,-55.17 1329.38,-55.17 1329.38,-67.17 1329.38,-67.17 1329.38,-73.17 1323.38,-79.17 1317.38,-79.17"/>
<text text-anchor="middle" x="1251.25" y="-56.12" font-family="Times,serif" font-size="14.00">universe&#45;planning&#45;control</text>
</g>
<!-- stage_0&#45;&gt;stage_19 -->
<g id="edge9" class="edge">
<title>stage_0&#45;&gt;stage_19</title>
<path fill="none" stroke="black" d="M992.5,-61.17C1048.53,-56.16 1111.68,-56.07 1161.45,-57.28"/>
<polygon fill="black" stroke="black" points="1161.23,-60.77 1171.32,-57.54 1161.42,-53.78 1161.23,-60.77"/>
</g>
<!-- stage_20 -->
<g id="node10" class="node">
<title>stage_20</title>
<path fill="none" stroke="black" d="M1313.25,-489.17C1313.25,-489.17 1189.25,-489.17 1189.25,-489.17 1183.25,-489.17 1177.25,-483.17 1177.25,-477.17 1177.25,-477.17 1177.25,-465.17 1177.25,-465.17 1177.25,-459.17 1183.25,-453.17 1189.25,-453.17 1189.25,-453.17 1313.25,-453.17 1313.25,-453.17 1319.25,-453.17 1325.25,-459.17 1325.25,-465.17 1325.25,-465.17 1325.25,-477.17 1325.25,-477.17 1325.25,-483.17 1319.25,-489.17 1313.25,-489.17"/>
<text text-anchor="middle" x="1251.25" y="-466.12" font-family="Times,serif" font-size="14.00">universe&#45;vehicle&#45;system</text>
</g>
<!-- stage_0&#45;&gt;stage_20 -->
<g id="edge10" class="edge">
<title>stage_0&#45;&gt;stage_20</title>
<path fill="none" stroke="black" d="M475,-165.17C566.67,-140.3 504.21,-295.66 582,-350.17 677.61,-417.17 984.45,-420.93 1099.25,-442.17 1120.82,-446.16 1144.1,-450.57 1165.77,-454.73"/>
<polygon fill="black" stroke="black" points="1164.97,-458.14 1175.46,-456.59 1166.3,-451.27 1164.97,-458.14"/>
</g>
<!-- stage_21 -->
<g id="node11" class="node">
<title>stage_21</title>
<path fill="none" stroke="black" d="M1562.38,-336.17C1562.38,-336.17 1442.38,-336.17 1442.38,-336.17 1436.38,-336.17 1430.38,-330.17 1430.38,-324.17 1430.38,-324.17 1430.38,-312.17 1430.38,-312.17 1430.38,-306.17 1436.38,-300.17 1442.38,-300.17 1442.38,-300.17 1562.38,-300.17 1562.38,-300.17 1568.38,-300.17 1574.38,-306.17 1574.38,-312.17 1574.38,-312.17 1574.38,-324.17 1574.38,-324.17 1574.38,-330.17 1568.38,-336.17 1562.38,-336.17"/>
<text text-anchor="middle" x="1502.38" y="-313.12" font-family="Times,serif" font-size="14.00">universe</text>
</g>
<!-- stage_0&#45;&gt;stage_21 -->
<g id="edge11" class="edge">
<title>stage_0&#45;&gt;stage_21</title>
<path fill="none" stroke="black" d="M1252.25,-9.17C1302.07,-24.49 1326.23,-0.01 1367.25,-32.17 1451.64,-98.32 1485.36,-230.26 1496.59,-288.91"/>
<polygon fill="black" stroke="black" points="1493.09,-289.24 1498.32,-298.45 1499.98,-287.98 1493.09,-289.24"/>
<path fill="none" stroke="black" d="M475,-165.17C701.09,-105.9 757.7,-81.95 990.5,-61.17"/>
<path fill="none" stroke="black" d="M992.5,-61.17C1109,-51.93 1138.55,25.18 1250.25,-9.17"/>
<path fill="none" stroke="black" d="M355.65,-348.84C359.42,-346.31 362.93,-343.43 366,-340.17 402.96,-300.82 372,-269.05 402,-224.17 424.8,-190.06 433.37,-175.78 473,-165.17"/>
</g>
<!-- stage_1&#45;&gt;stage_7 -->
<g id="edge17" class="edge">
<title>stage_1&#45;&gt;stage_7</title>
<path fill="none" stroke="black" stroke-dasharray="5,2" d="M366.37,-441.21C374.35,-443 382.53,-444.84 390.63,-446.66"/>
<polygon fill="none" stroke="black" points="389.61,-450.01 400.13,-448.79 391.14,-443.18 389.61,-450.01"/>
</g>
<!-- stage_2 -->
<g id="node12" class="node">
<title>stage_2</title>
<path fill="none" stroke="black" d="M829,-593.17C829,-593.17 600.75,-593.17 600.75,-593.17 594.75,-593.17 588.75,-587.17 588.75,-581.17 588.75,-581.17 588.75,-569.17 588.75,-569.17 588.75,-563.17 594.75,-557.17 600.75,-557.17 600.75,-557.17 829,-557.17 829,-557.17 835,-557.17 841,-563.17 841,-569.17 841,-569.17 841,-581.17 841,-581.17 841,-587.17 835,-593.17 829,-593.17"/>
<text text-anchor="middle" x="714.88" y="-570.12" font-family="Times,serif" font-size="14.00">rosdep&#45;universe&#45;sensing&#45;perception&#45;depend</text>
</g>
<!-- stage_1&#45;&gt;stage_2 -->
<g id="edge12" class="edge">
<title>stage_1&#45;&gt;stage_2</title>
<path fill="none" stroke="black" d="M475,-517.17C523.82,-523.84 534.15,-534.43 582,-546.17 593.04,-548.88 604.63,-551.6 616.17,-554.23"/>
<polygon fill="black" stroke="black" points="615.19,-557.6 625.72,-556.4 616.74,-550.77 615.19,-557.6"/>
</g>
<!-- stage_3 -->
<g id="node13" class="node">
<title>stage_3</title>
<path fill="none" stroke="black" d="M835.75,-339.17C835.75,-339.17 594,-339.17 594,-339.17 588,-339.17 582,-333.17 582,-327.17 582,-327.17 582,-315.17 582,-315.17 582,-309.17 588,-303.17 594,-303.17 594,-303.17 835.75,-303.17 835.75,-303.17 841.75,-303.17 847.75,-309.17 847.75,-315.17 847.75,-315.17 847.75,-327.17 847.75,-327.17 847.75,-333.17 841.75,-339.17 835.75,-339.17"/>
<text text-anchor="middle" x="714.88" y="-316.12" font-family="Times,serif" font-size="14.00">rosdep&#45;universe&#45;localization&#45;mapping&#45;depend</text>
</g>
<!-- stage_1&#45;&gt;stage_3 -->
<g id="edge13" class="edge">
<title>stage_1&#45;&gt;stage_3</title>
<path fill="none" stroke="black" d="M475,-517.17C507.86,-521.66 520.33,-515.17 546,-494.17 571.26,-473.5 561.07,-455.21 582,-430.17 609.73,-397 648.55,-366.31 676.9,-346.01"/>
<polygon fill="black" stroke="black" points="678.68,-349.03 684.84,-340.4 674.65,-343.31 678.68,-349.03"/>
<path fill="none" stroke="black" d="M317.96,-443.66C350.26,-468.04 412,-508.82 473,-517.17"/>
</g>
<!-- stage_4 -->
<g id="node14" class="node">
<title>stage_4</title>
<path fill="none" stroke="black" d="M823,-281.17C823,-281.17 606.75,-281.17 606.75,-281.17 600.75,-281.17 594.75,-275.17 594.75,-269.17 594.75,-269.17 594.75,-257.17 594.75,-257.17 594.75,-251.17 600.75,-245.17 606.75,-245.17 606.75,-245.17 823,-245.17 823,-245.17 829,-245.17 835,-251.17 835,-257.17 835,-257.17 835,-269.17 835,-269.17 835,-275.17 829,-281.17 823,-281.17"/>
<text text-anchor="middle" x="714.88" y="-258.12" font-family="Times,serif" font-size="14.00">rosdep&#45;universe&#45;planning&#45;control&#45;depend</text>
</g>
<!-- stage_1&#45;&gt;stage_4 -->
<g id="edge14" class="edge">
<title>stage_1&#45;&gt;stage_4</title>
<path fill="none" stroke="black" d="M341.39,-406.7C349.62,-403.28 358.09,-399.68 366,-396.17 463.36,-352.89 481.29,-326.95 582,-292.17 589.86,-289.45 598.07,-286.93 606.38,-284.61"/>
<polygon fill="black" stroke="black" points="607.14,-288.03 615.89,-282.06 605.33,-281.27 607.14,-288.03"/>
</g>
<!-- stage_5 -->
<g id="node15" class="node">
<title>stage_5</title>
<path fill="none" stroke="black" d="M818.88,-535.17C818.88,-535.17 610.88,-535.17 610.88,-535.17 604.88,-535.17 598.88,-529.17 598.88,-523.17 598.88,-523.17 598.88,-511.17 598.88,-511.17 598.88,-505.17 604.88,-499.17 610.88,-499.17 610.88,-499.17 818.88,-499.17 818.88,-499.17 824.88,-499.17 830.88,-505.17 830.88,-511.17 830.88,-511.17 830.88,-523.17 830.88,-523.17 830.88,-529.17 824.88,-535.17 818.88,-535.17"/>
<text text-anchor="middle" x="714.88" y="-512.12" font-family="Times,serif" font-size="14.00">rosdep&#45;universe&#45;vehicle&#45;system&#45;depend</text>
</g>
<!-- stage_1&#45;&gt;stage_5 -->
<g id="edge15" class="edge">
<title>stage_1&#45;&gt;stage_5</title>
<path fill="none" stroke="black" d="M475,-517.17C511.31,-522.13 551.01,-523.67 587.43,-523.55"/>
<polygon fill="black" stroke="black" points="587.14,-527.06 597.11,-523.48 587.09,-520.06 587.14,-527.06"/>
</g>
<!-- stage_6 -->
<g id="node16" class="node">
<title>stage_6</title>
<path fill="none" stroke="black" d="M1052.38,-131.17C1052.38,-131.17 930.62,-131.17 930.62,-131.17 924.62,-131.17 918.62,-125.17 918.62,-119.17 918.62,-119.17 918.62,-107.17 918.62,-107.17 918.62,-101.17 924.62,-95.17 930.62,-95.17 930.62,-95.17 1052.38,-95.17 1052.38,-95.17 1058.38,-95.17 1064.38,-101.17 1064.38,-107.17 1064.38,-107.17 1064.38,-119.17 1064.38,-119.17 1064.38,-125.17 1058.38,-131.17 1052.38,-131.17"/>
<text text-anchor="middle" x="991.5" y="-108.12" font-family="Times,serif" font-size="14.00">rosdep&#45;universe&#45;depend</text>
</g>
<!-- stage_1&#45;&gt;stage_6 -->
<g id="edge16" class="edge">
<title>stage_1&#45;&gt;stage_6</title>
<path fill="none" stroke="black" d="M352.36,-406.86C357.35,-403.81 362,-400.27 366,-396.17 397.52,-363.83 369.98,-333 402,-301.17 474.19,-229.4 762.84,-160.71 907.29,-129.98"/>
<polygon fill="black" stroke="black" points="907.74,-133.46 916.79,-127.97 906.29,-126.61 907.74,-133.46"/>
</g>
<!-- stage_8 -->
<g id="node17" class="node">
<title>stage_8</title>
<path fill="none" stroke="black" d="M777.25,-477.17C777.25,-477.17 652.5,-477.17 652.5,-477.17 646.5,-477.17 640.5,-471.17 640.5,-465.17 640.5,-465.17 640.5,-453.17 640.5,-453.17 640.5,-447.17 646.5,-441.17 652.5,-441.17 652.5,-441.17 777.25,-441.17 777.25,-441.17 783.25,-441.17 789.25,-447.17 789.25,-453.17 789.25,-453.17 789.25,-465.17 789.25,-465.17 789.25,-471.17 783.25,-477.17 777.25,-477.17"/>
<text text-anchor="middle" x="714.88" y="-454.12" font-family="Times,serif" font-size="14.00">universe&#45;common&#45;devel</text>
</g>
<!-- stage_1&#45;&gt;stage_8 -->
<g id="edge19" class="edge">
<title>stage_1&#45;&gt;stage_8</title>
<path fill="none" stroke="black" stroke-dasharray="5,2" d="M475,-517.17C523.82,-523.84 534.15,-499.91 582,-488.17 597.26,-484.42 613.57,-480.65 629.34,-477.12"/>
<polygon fill="none" stroke="black" points="629.66,-480.64 638.66,-475.05 628.14,-473.8 629.66,-480.64"/>
</g>
<!-- stage_7&#45;&gt;stage_8 -->
<g id="edge56" class="edge">
<title>stage_7&#45;&gt;stage_8</title>
<path fill="none" stroke="black" d="M546.35,-463.37C572.33,-462.72 601.96,-461.98 629,-461.3"/>
<polygon fill="black" stroke="black" points="628.99,-464.8 638.9,-461.05 628.82,-457.8 628.99,-464.8"/>
</g>
<!-- stage_17 -->
<g id="node25" class="node">
<title>stage_17</title>
<path fill="none" stroke="black" d="M1589.5,-616.17C1589.5,-616.17 1415.25,-616.17 1415.25,-616.17 1409.25,-616.17 1403.25,-610.17 1403.25,-604.17 1403.25,-604.17 1403.25,-592.17 1403.25,-592.17 1403.25,-586.17 1409.25,-580.17 1415.25,-580.17 1415.25,-580.17 1589.5,-580.17 1589.5,-580.17 1595.5,-580.17 1601.5,-586.17 1601.5,-592.17 1601.5,-592.17 1601.5,-604.17 1601.5,-604.17 1601.5,-610.17 1595.5,-616.17 1589.5,-616.17"/>
<text text-anchor="middle" x="1502.38" y="-593.12" font-family="Times,serif" font-size="14.00">universe&#45;sensing&#45;perception&#45;cuda</text>
</g>
<!-- stage_16&#45;&gt;stage_17 -->
<g id="edge76" class="edge">
<title>stage_16&#45;&gt;stage_17</title>
<path fill="none" stroke="black" d="M1335.55,-617.47C1353.56,-615.37 1372.86,-613.13 1391.7,-610.93"/>
<polygon fill="black" stroke="black" points="1392.01,-614.42 1401.54,-609.79 1391.2,-607.47 1392.01,-614.42"/>
</g>
<!-- stage_22 -->
<g id="node26" class="node">
<title>stage_22</title>
<path fill="#e5e5e5" stroke="black" d="M1769.5,-365.17C1769.5,-365.17 1649.5,-365.17 1649.5,-365.17 1643.5,-365.17 1637.5,-359.17 1637.5,-353.17 1637.5,-353.17 1637.5,-341.17 1637.5,-341.17 1637.5,-335.17 1643.5,-329.17 1649.5,-329.17 1649.5,-329.17 1769.5,-329.17 1769.5,-329.17 1775.5,-329.17 1781.5,-335.17 1781.5,-341.17 1781.5,-341.17 1781.5,-353.17 1781.5,-353.17 1781.5,-359.17 1775.5,-365.17 1769.5,-365.17"/>
<text text-anchor="middle" x="1709.5" y="-342.12" font-family="Times,serif" font-size="14.00">universe&#45;cuda</text>
</g>
<!-- stage_21&#45;&gt;stage_22 -->
<g id="edge77" class="edge">
<title>stage_21&#45;&gt;stage_22</title>
<path fill="none" stroke="black" d="M1574.83,-328.27C1591.43,-330.62 1609.23,-333.13 1626.25,-335.54"/>
<polygon fill="black" stroke="black" points="1625.41,-338.95 1635.8,-336.89 1626.39,-332.02 1625.41,-338.95"/>
</g>
<!-- stage_2&#45;&gt;stage_16 -->
<g id="edge26" class="edge">
<title>stage_2&#45;&gt;stage_16</title>
<path fill="none" stroke="black" stroke-dasharray="5,2" d="M992.5,-627.17C1046.32,-629.18 1106.5,-629.3 1155.17,-628.86"/>
<polygon fill="none" stroke="black" points="1155.16,-632.36 1165.13,-628.76 1155.09,-625.36 1155.16,-632.36"/>
</g>
<!-- stage_9 -->
<g id="node18" class="node">
<title>stage_9</title>
<path fill="none" stroke="black" d="M1080.5,-593.17C1080.5,-593.17 902.5,-593.17 902.5,-593.17 896.5,-593.17 890.5,-587.17 890.5,-581.17 890.5,-581.17 890.5,-569.17 890.5,-569.17 890.5,-563.17 896.5,-557.17 902.5,-557.17 902.5,-557.17 1080.5,-557.17 1080.5,-557.17 1086.5,-557.17 1092.5,-563.17 1092.5,-569.17 1092.5,-569.17 1092.5,-581.17 1092.5,-581.17 1092.5,-587.17 1086.5,-593.17 1080.5,-593.17"/>
<text text-anchor="middle" x="991.5" y="-570.12" font-family="Times,serif" font-size="14.00">universe&#45;sensing&#45;perception&#45;devel</text>
</g>
<!-- stage_2&#45;&gt;stage_9 -->
<g id="edge22" class="edge">
<title>stage_2&#45;&gt;stage_9</title>
<path fill="none" stroke="black" stroke-dasharray="5,2" d="M841.13,-575.17C853.7,-575.17 866.4,-575.17 878.81,-575.17"/>
<polygon fill="none" stroke="black" points="878.6,-578.67 888.6,-575.17 878.6,-571.67 878.6,-578.67"/>
</g>
<!-- stage_10 -->
<g id="node19" class="node">
<title>stage_10</title>
<path fill="none" stroke="black" d="M1355.25,-587.17C1355.25,-587.17 1147.25,-587.17 1147.25,-587.17 1141.25,-587.17 1135.25,-581.17 1135.25,-575.17 1135.25,-575.17 1135.25,-563.17 1135.25,-563.17 1135.25,-557.17 1141.25,-551.17 1147.25,-551.17 1147.25,-551.17 1355.25,-551.17 1355.25,-551.17 1361.25,-551.17 1367.25,-557.17 1367.25,-563.17 1367.25,-563.17 1367.25,-575.17 1367.25,-575.17 1367.25,-581.17 1361.25,-587.17 1355.25,-587.17"/>
<text text-anchor="middle" x="1251.25" y="-564.12" font-family="Times,serif" font-size="14.00">universe&#45;sensing&#45;perception&#45;cuda&#45;devel</text>
</g>
<!-- stage_2&#45;&gt;stage_10 -->
<g id="edge25" class="edge">
<title>stage_2&#45;&gt;stage_10</title>
<path fill="none" stroke="black" stroke-dasharray="1,5" d="M992.5,-627.17C1009.81,-627.81 1096.48,-607.49 1164.6,-590.73"/>
<polygon fill="none" stroke="black" points="1164.56,-590.74 1169.42,-585.42 1176.21,-587.86 1171.34,-593.18 1164.56,-590.74"/>
<path fill="none" stroke="black" stroke-dasharray="1,5" d="M782.67,-593.62C837.89,-607.47 918.61,-624.48 990.5,-627.17"/>
</g>
<!-- stage_3&#45;&gt;stage_18 -->
<g id="edge30" class="edge">
<title>stage_3&#45;&gt;stage_18</title>
<path fill="none" stroke="black" stroke-dasharray="5,2" d="M829.32,-302.77C835.8,-299.74 842.01,-296.23 847.75,-292.17 872.52,-274.64 859.16,-251.94 883.75,-234.17 963.59,-176.44 1005.6,-212.79 1099.25,-182.17 1133.76,-170.88 1171.44,-155.16 1200.54,-142.25"/>
<polygon fill="none" stroke="black" points="1201.77,-145.53 1209.46,-138.25 1198.9,-139.15 1201.77,-145.53"/>
</g>
<!-- stage_11 -->
<g id="node20" class="node">
<title>stage_11</title>
<path fill="none" stroke="black" d="M1087.25,-339.17C1087.25,-339.17 895.75,-339.17 895.75,-339.17 889.75,-339.17 883.75,-333.17 883.75,-327.17 883.75,-327.17 883.75,-315.17 883.75,-315.17 883.75,-309.17 889.75,-303.17 895.75,-303.17 895.75,-303.17 1087.25,-303.17 1087.25,-303.17 1093.25,-303.17 1099.25,-309.17 1099.25,-315.17 1099.25,-315.17 1099.25,-327.17 1099.25,-327.17 1099.25,-333.17 1093.25,-339.17 1087.25,-339.17"/>
<text text-anchor="middle" x="991.5" y="-316.12" font-family="Times,serif" font-size="14.00">universe&#45;localization&#45;mapping&#45;devel</text>
</g>
<!-- stage_3&#45;&gt;stage_11 -->
<g id="edge27" class="edge">
<title>stage_3&#45;&gt;stage_11</title>
<path fill="none" stroke="black" stroke-dasharray="5,2" d="M847.96,-321.17C856.08,-321.17 864.23,-321.17 872.29,-321.17"/>
<polygon fill="none" stroke="black" points="872.11,-324.67 882.11,-321.17 872.11,-317.67 872.11,-324.67"/>
</g>
<!-- stage_4&#45;&gt;stage_19 -->
<g id="edge38" class="edge">
<title>stage_4&#45;&gt;stage_19</title>
<path fill="none" stroke="black" stroke-dasharray="5,2" d="M814.8,-244.68C826.42,-240.29 837.7,-234.87 847.75,-228.17 869.64,-213.56 861.29,-194.88 883.75,-181.17 966.83,-130.45 1017.42,-194.87 1099.25,-142.17 1122.88,-126.95 1112.15,-106.18 1135.25,-90.17 1143.36,-84.54 1152.47,-80.01 1161.92,-76.35"/>
<polygon fill="none" stroke="black" points="1162.98,-79.69 1171.27,-73.08 1160.67,-73.08 1162.98,-79.69"/>
</g>
<!-- stage_12 -->
<g id="node21" class="node">
<title>stage_12</title>
<path fill="none" stroke="black" d="M1074.5,-281.17C1074.5,-281.17 908.5,-281.17 908.5,-281.17 902.5,-281.17 896.5,-275.17 896.5,-269.17 896.5,-269.17 896.5,-257.17 896.5,-257.17 896.5,-251.17 902.5,-245.17 908.5,-245.17 908.5,-245.17 1074.5,-245.17 1074.5,-245.17 1080.5,-245.17 1086.5,-251.17 1086.5,-257.17 1086.5,-257.17 1086.5,-269.17 1086.5,-269.17 1086.5,-275.17 1080.5,-281.17 1074.5,-281.17"/>
<text text-anchor="middle" x="991.5" y="-258.12" font-family="Times,serif" font-size="14.00">universe&#45;planning&#45;control&#45;devel</text>
</g>
<!-- stage_4&#45;&gt;stage_12 -->
<g id="edge31" class="edge">
<title>stage_4&#45;&gt;stage_12</title>
<path fill="none" stroke="black" stroke-dasharray="5,2" d="M835.13,-263.17C851.71,-263.17 868.66,-263.17 884.96,-263.17"/>
<polygon fill="none" stroke="black" points="884.63,-266.67 894.63,-263.17 884.63,-259.67 884.63,-266.67"/>
</g>
<!-- stage_5&#45;&gt;stage_20 -->
<g id="edge44" class="edge">
<title>stage_5&#45;&gt;stage_20</title>
<path fill="none" stroke="black" stroke-dasharray="5,2" d="M831.14,-516.42C907.44,-514.85 1009.59,-510.71 1099.25,-500.17 1120.92,-497.62 1144.15,-493.74 1165.73,-489.64"/>
<polygon fill="none" stroke="black" points="1166.22,-493.11 1175.37,-487.77 1164.88,-486.24 1166.22,-493.11"/>
</g>
<!-- stage_13 -->
<g id="node22" class="node">
<title>stage_13</title>
<path fill="none" stroke="black" d="M1070.38,-489.17C1070.38,-489.17 912.62,-489.17 912.62,-489.17 906.62,-489.17 900.62,-483.17 900.62,-477.17 900.62,-477.17 900.62,-465.17 900.62,-465.17 900.62,-459.17 906.62,-453.17 912.62,-453.17 912.62,-453.17 1070.38,-453.17 1070.38,-453.17 1076.38,-453.17 1082.38,-459.17 1082.38,-465.17 1082.38,-465.17 1082.38,-477.17 1082.38,-477.17 1082.38,-483.17 1076.38,-489.17 1070.38,-489.17"/>
<text text-anchor="middle" x="991.5" y="-466.12" font-family="Times,serif" font-size="14.00">universe&#45;vehicle&#45;system&#45;devel</text>
</g>
<!-- stage_5&#45;&gt;stage_13 -->
<g id="edge39" class="edge">
<title>stage_5&#45;&gt;stage_13</title>
<path fill="none" stroke="black" stroke-dasharray="5,2" d="M825.99,-498.72C846.77,-495.24 868.41,-491.62 888.91,-488.18"/>
<polygon fill="none" stroke="black" points="889.39,-491.65 898.67,-486.55 888.23,-484.75 889.39,-491.65"/>
</g>
<!-- stage_6&#45;&gt;stage_21 -->
<g id="edge55" class="edge">
<title>stage_6&#45;&gt;stage_21</title>
<path fill="none" stroke="black" stroke-dasharray="5,2" d="M1064.77,-95.95C1076.88,-91.29 1088.87,-85.45 1099.25,-78.17 1120.5,-63.26 1113.15,-45.78 1135.25,-32.17 1179.63,-4.83 1200.43,6.15 1250.25,-9.17"/>
</g>
<!-- stage_14 -->
<g id="node23" class="node">
<title>stage_14</title>
<path fill="none" stroke="black" d="M1311.25,-365.17C1311.25,-365.17 1191.25,-365.17 1191.25,-365.17 1185.25,-365.17 1179.25,-359.17 1179.25,-353.17 1179.25,-353.17 1179.25,-341.17 1179.25,-341.17 1179.25,-335.17 1185.25,-329.17 1191.25,-329.17 1191.25,-329.17 1311.25,-329.17 1311.25,-329.17 1317.25,-329.17 1323.25,-335.17 1323.25,-341.17 1323.25,-341.17 1323.25,-353.17 1323.25,-353.17 1323.25,-359.17 1317.25,-365.17 1311.25,-365.17"/>
<text text-anchor="middle" x="1251.25" y="-342.12" font-family="Times,serif" font-size="14.00">universe&#45;devel</text>
</g>
<!-- stage_6&#45;&gt;stage_14 -->
<g id="edge45" class="edge">
<title>stage_6&#45;&gt;stage_14</title>
<path fill="none" stroke="black" stroke-dasharray="5,2" d="M1012.73,-131.53C1058.27,-172.88 1169,-273.4 1221.6,-321.15"/>
<polygon fill="none" stroke="black" points="1219.24,-323.74 1229,-327.87 1223.95,-318.56 1219.24,-323.74"/>
</g>
<!-- stage_8&#45;&gt;stage_9 -->
<g id="edge57" class="edge">
<title>stage_8&#45;&gt;stage_9</title>
<path fill="none" stroke="black" d="M789.73,-470.91C809,-475.18 829.48,-480.83 847.75,-488.17 887.5,-504.13 928.87,-530.61 956.77,-550.17"/>
<polygon fill="black" stroke="black" points="954.64,-552.95 964.82,-555.89 958.7,-547.24 954.64,-552.95"/>
</g>
<!-- stage_8&#45;&gt;stage_11 -->
<g id="edge58" class="edge">
<title>stage_8&#45;&gt;stage_11</title>
<path fill="none" stroke="black" d="M741.56,-440.77C773.61,-418.44 830.69,-380.73 883.75,-356.17 893.77,-351.53 904.58,-347.23 915.34,-343.34"/>
<polygon fill="black" stroke="black" points="916.34,-346.7 924.63,-340.1 914.03,-340.09 916.34,-346.7"/>
</g>
<!-- stage_8&#45;&gt;stage_12 -->
<g id="edge59" class="edge">
<title>stage_8&#45;&gt;stage_12</title>
<path fill="none" stroke="black" d="M743.1,-440.72C771.42,-420.64 816,-386.52 847.75,-350.17 867.7,-327.31 859.42,-310.29 883.75,-292.17 886.23,-290.32 888.81,-288.59 891.49,-286.97"/>
<polygon fill="black" stroke="black" points="893.03,-290.12 900.17,-282.3 889.71,-283.96 893.03,-290.12"/>
</g>
<!-- stage_8&#45;&gt;stage_13 -->
<g id="edge60" class="edge">
<title>stage_8&#45;&gt;stage_13</title>
<path fill="none" stroke="black" d="M789.47,-462.38C820.09,-463.72 856.14,-465.3 889.19,-466.74"/>
<polygon fill="black" stroke="black" points="888.62,-470.22 898.76,-467.16 888.93,-463.22 888.62,-470.22"/>
</g>
<!-- stage_8&#45;&gt;stage_14 -->
<g id="edge61" class="edge">
<title>stage_8&#45;&gt;stage_14</title>
<path fill="none" stroke="black" d="M789.62,-443.71C888.79,-422.93 1064.6,-386.08 1167.97,-364.41"/>
<polygon fill="black" stroke="black" points="1168.42,-367.89 1177.49,-362.42 1166.98,-361.04 1168.42,-367.89"/>
</g>
<!-- stage_9&#45;&gt;stage_16 -->
<g id="edge64" class="edge">
<title>stage_9&#45;&gt;stage_16</title>
<path fill="none" stroke="black" stroke-dasharray="5,2" d="M1084.1,-593.65C1107.33,-598.33 1132.34,-603.38 1155.71,-608.09"/>
<polygon fill="none" stroke="black" points="1154.7,-611.46 1165.2,-610.01 1156.09,-604.6 1154.7,-611.46"/>
</g>
<!-- stage_9&#45;&gt;stage_10 -->
<g id="edge62" class="edge">
<title>stage_9&#45;&gt;stage_10</title>
<path fill="none" stroke="black" d="M1092.89,-572.83C1103.06,-572.59 1113.49,-572.35 1123.89,-572.11"/>
<polygon fill="black" stroke="black" points="1123.72,-575.61 1133.64,-571.88 1123.56,-568.61 1123.72,-575.61"/>
</g>
<!-- stage_9&#45;&gt;stage_14 -->
<g id="edge63" class="edge">
<title>stage_9&#45;&gt;stage_14</title>
<path fill="none" stroke="black" stroke-dasharray="5,2" d="M1025.46,-556.83C1048.02,-543.2 1077.63,-523.05 1099.25,-500.17 1120.08,-478.11 1115.29,-465.02 1135.25,-442.17 1158.71,-415.31 1190.21,-389.85 1214.31,-372.06"/>
<polygon fill="none" stroke="black" points="1216.22,-375 1222.26,-366.29 1212.11,-369.34 1216.22,-375"/>
</g>
<!-- stage_15 -->
<g id="node24" class="node">
<title>stage_15</title>
<path fill="none" stroke="black" d="M1562.38,-394.17C1562.38,-394.17 1442.38,-394.17 1442.38,-394.17 1436.38,-394.17 1430.38,-388.17 1430.38,-382.17 1430.38,-382.17 1430.38,-370.17 1430.38,-370.17 1430.38,-364.17 1436.38,-358.17 1442.38,-358.17 1442.38,-358.17 1562.38,-358.17 1562.38,-358.17 1568.38,-358.17 1574.38,-364.17 1574.38,-370.17 1574.38,-370.17 1574.38,-382.17 1574.38,-382.17 1574.38,-388.17 1568.38,-394.17 1562.38,-394.17"/>
<text text-anchor="middle" x="1502.38" y="-371.12" font-family="Times,serif" font-size="14.00">universe&#45;cuda&#45;devel</text>
</g>
<!-- stage_10&#45;&gt;stage_15 -->
<g id="edge65" class="edge">
<title>stage_10&#45;&gt;stage_15</title>
<path fill="none" stroke="black" stroke-dasharray="5,2" d="M1287.15,-550.7C1310.59,-537.72 1341.73,-519.3 1367.25,-500.17 1408,-469.61 1450.42,-428.59 1476.36,-402.26"/>
<polygon fill="none" stroke="black" points="1478.64,-404.94 1483.13,-395.34 1473.63,-400.04 1478.64,-404.94"/>
</g>
<!-- stage_10&#45;&gt;stage_17 -->
<g id="edge66" class="edge">
<title>stage_10&#45;&gt;stage_17</title>
<path fill="none" stroke="black" stroke-dasharray="5,2" d="M1367.7,-582.61C1375.74,-583.54 1383.84,-584.48 1391.85,-585.42"/>
<polygon fill="none" stroke="black" points="1391.27,-588.87 1401.6,-586.55 1392.08,-581.92 1391.27,-588.87"/>
</g>
<!-- stage_11&#45;&gt;stage_18 -->
<g id="edge68" class="edge">
<title>stage_11&#45;&gt;stage_18</title>
<path fill="none" stroke="black" stroke-dasharray="5,2" d="M1078.34,-302.77C1085.66,-299.75 1092.74,-296.24 1099.25,-292.17 1159.43,-254.5 1208.96,-185.52 1233.53,-147.02"/>
<polygon fill="none" stroke="black" points="1236.36,-149.09 1238.7,-138.76 1230.43,-145.37 1236.36,-149.09"/>
</g>
<!-- stage_11&#45;&gt;stage_14 -->
<g id="edge67" class="edge">
<title>stage_11&#45;&gt;stage_14</title>
<path fill="none" stroke="black" stroke-dasharray="5,2" d="M1099.57,-331.97C1122.42,-334.27 1146.21,-336.67 1167.96,-338.87"/>
<polygon fill="none" stroke="black" points="1167.32,-342.32 1177.62,-339.84 1168.02,-335.35 1167.32,-342.32"/>
</g>
<!-- stage_12&#45;&gt;stage_19 -->
<g id="edge70" class="edge">
<title>stage_12&#45;&gt;stage_19</title>
<path fill="none" stroke="black" stroke-dasharray="5,2" d="M1025.3,-244.96C1048.66,-230.56 1079.33,-208.52 1099.25,-182.17 1125.73,-147.14 1102.31,-119.2 1135.25,-90.17 1143.08,-83.27 1152.31,-77.96 1162.09,-73.89"/>
<polygon fill="none" stroke="black" points="1163.26,-77.19 1171.45,-70.47 1160.86,-70.62 1163.26,-77.19"/>
</g>
<!-- stage_12&#45;&gt;stage_14 -->
<g id="edge69" class="edge">
<title>stage_12&#45;&gt;stage_14</title>
<path fill="none" stroke="black" stroke-dasharray="5,2" d="M1063.66,-281.6C1075.59,-284.95 1087.81,-288.54 1099.25,-292.17 1130.12,-301.96 1164.05,-314.19 1191.91,-324.62"/>
<polygon fill="none" stroke="black" points="1190.65,-327.89 1201.24,-328.13 1193.12,-321.33 1190.65,-327.89"/>
</g>
<!-- stage_13&#45;&gt;stage_20 -->
<g id="edge72" class="edge">
<title>stage_13&#45;&gt;stage_20</title>
<path fill="none" stroke="black" stroke-dasharray="5,2" d="M1082.65,-471.17C1109.58,-471.17 1138.99,-471.17 1165.56,-471.17"/>
<polygon fill="none" stroke="black" points="1165.24,-474.67 1175.24,-471.17 1165.24,-467.67 1165.24,-474.67"/>
</g>
<!-- stage_13&#45;&gt;stage_14 -->
<g id="edge71" class="edge">
<title>stage_13&#45;&gt;stage_14</title>
<path fill="none" stroke="black" stroke-dasharray="5,2" d="M1030.81,-452.74C1076.37,-430.82 1152.47,-394.21 1202,-370.38"/>
<polygon fill="none" stroke="black" points="1203.29,-373.64 1210.79,-366.15 1200.26,-367.33 1203.29,-373.64"/>
</g>
<!-- stage_14&#45;&gt;stage_21 -->
<g id="edge74" class="edge">
<title>stage_14&#45;&gt;stage_21</title>
<path fill="none" stroke="black" stroke-dasharray="5,2" d="M1323.64,-338.86C1353.35,-335.4 1388.02,-331.36 1418.82,-327.78"/>
<polygon fill="none" stroke="black" points="1418.94,-331.29 1428.47,-326.65 1418.13,-324.33 1418.94,-331.29"/>
</g>
<!-- stage_14&#45;&gt;stage_15 -->
<g id="edge73" class="edge">
<title>stage_14&#45;&gt;stage_15</title>
<path fill="none" stroke="black" d="M1323.64,-355.48C1353.35,-358.94 1388.02,-362.97 1418.82,-366.56"/>
<polygon fill="black" stroke="black" points="1418.13,-370 1428.47,-367.68 1418.94,-363.05 1418.13,-370"/>
</g>
<!-- stage_15&#45;&gt;stage_22 -->
<g id="edge75" class="edge">
<title>stage_15&#45;&gt;stage_22</title>
<path fill="none" stroke="black" stroke-dasharray="5,2" d="M1574.83,-366.06C1591.43,-363.72 1609.23,-361.2 1626.25,-358.8"/>
<polygon fill="none" stroke="black" points="1626.39,-362.31 1635.8,-357.44 1625.41,-355.38 1626.39,-362.31"/>
</g>
</g>
</svg>
