<?xml version="1.0" encoding="UTF-8" standalone="no"?>
<!DOCTYPE svg PUBLIC "-//W3C//DTD SVG 1.1//EN"
 "http://www.w3.org/Graphics/SVG/1.1/DTD/svg11.dtd">
<!-- Generated by graphviz version 2.43.0 (0)
 -->
<!-- Title: G Pages: 1 -->
<svg width="1507pt" height="313pt"
 viewBox="0.00 0.00 1507.00 312.70" xmlns="http://www.w3.org/2000/svg" xmlns:xlink="http://www.w3.org/1999/xlink">
<g id="graph0" class="graph" transform="scale(1 1) rotate(0) translate(4 308.7)">
<title>G</title>
<polygon fill="white" stroke="transparent" points="-4,4 -4,-308.7 1503,-308.7 1503,4 -4,4"/>
<g id="clust1" class="cluster">
<title>cluster_legend</title>
<polygon fill="none" stroke="black" points="8,-88.46 8,-158.46 330,-158.46 330,-88.46 8,-88.46"/>
</g>
<!-- key -->
<g id="node1" class="node">
<title>key</title>
<text text-anchor="start" x="122.5" y="-135.46" font-family="monospace" font-size="10.00">FROM ... </text>
<text text-anchor="start" x="80.5" y="-120.46" font-family="monospace" font-size="10.00">COPY &#45;&#45;from=... </text>
<text text-anchor="start" x="26.5" y="-105.46" font-family="monospace" font-size="10.00">RUN &#45;&#45;mount=(.*)from=... </text>
</g>
<!-- key2 -->
<g id="node2" class="node">
<title>key2</title>
<text text-anchor="start" x="292" y="-135.46" font-family="monospace" font-size="10.00"> </text>
<text text-anchor="start" x="292" y="-120.46" font-family="monospace" font-size="10.00"> </text>
<text text-anchor="start" x="292" y="-105.46" font-family="monospace" font-size="10.00"> </text>
</g>
<!-- key&#45;&gt;key2 -->
<g id="edge1" class="edge">
<title>key:e&#45;&gt;key2:w</title>
<path fill="none" stroke="black" d="M180.5,-138.46C225.14,-138.46 238.79,-138.46 278.83,-138.46"/>
<polygon fill="black" stroke="black" points="279,-141.96 289,-138.46 279,-134.96 279,-141.96"/>
</g>
<!-- key&#45;&gt;key2 -->
<g id="edge2" class="edge">
<title>key:e&#45;&gt;key2:w</title>
<path fill="none" stroke="black" stroke-dasharray="5,2" d="M180.5,-122.46C225.14,-122.46 238.79,-122.46 278.83,-122.46"/>
<polygon fill="none" stroke="black" points="279,-125.96 289,-122.46 279,-118.96 279,-125.96"/>
</g>
<!-- key&#45;&gt;key2 -->
<g id="edge3" class="edge">
<title>key:e&#45;&gt;key2:w</title>
<path fill="none" stroke="black" stroke-dasharray="1,5" d="M180.5,-107.46C224.39,-107.46 238.32,-107.46 276.83,-107.46"/>
<polygon fill="none" stroke="black" points="277,-107.46 283,-103.46 289,-107.46 283,-111.46 277,-107.46"/>
</g>
<!-- external_image_0 -->
<g id="node3" class="node">
<title>external_image_0</title>
<path fill="none" stroke="#333333" stroke-dasharray="5,2" d="M161.5,-237.46C161.5,-237.46 41.5,-237.46 41.5,-237.46 35.5,-237.46 29.5,-231.46 29.5,-225.46 29.5,-225.46 29.5,-213.46 29.5,-213.46 29.5,-207.46 35.5,-201.46 41.5,-201.46 41.5,-201.46 161.5,-201.46 161.5,-201.46 167.5,-201.46 173.5,-207.46 173.5,-213.46 173.5,-213.46 173.5,-225.46 173.5,-225.46 173.5,-231.46 167.5,-237.46 161.5,-237.46"/>
<text text-anchor="middle" x="101.5" y="-215.76" font-family="Times,serif" font-size="14.00" fill="#333333">$BASE_IMAGE</text>
</g>
<!-- stage_0 -->
<g id="node4" class="node">
<title>stage_0</title>
<path fill="none" stroke="black" d="M355,-266.46C355,-266.46 235,-266.46 235,-266.46 229,-266.46 223,-260.46 223,-254.46 223,-254.46 223,-242.46 223,-242.46 223,-236.46 229,-230.46 235,-230.46 235,-230.46 355,-230.46 355,-230.46 361,-230.46 367,-236.46 367,-242.46 367,-242.46 367,-254.46 367,-254.46 367,-260.46 361,-266.46 355,-266.46"/>
<text text-anchor="middle" x="295" y="-244.76" font-family="Times,serif" font-size="14.00">base</text>
</g>
<!-- external_image_0&#45;&gt;stage_0 -->
<g id="edge4" class="edge">
<title>external_image_0&#45;&gt;stage_0</title>
<path fill="none" stroke="black" d="M173.54,-230.22C186.34,-232.16 199.78,-234.19 212.85,-236.17"/>
<polygon fill="black" stroke="black" points="212.35,-239.64 222.76,-237.67 213.4,-232.71 212.35,-239.64"/>
</g>
<!-- stage_1 -->
<g id="node5" class="node">
<title>stage_1</title>
<path fill="none" stroke="black" d="M355,-208.46C355,-208.46 235,-208.46 235,-208.46 229,-208.46 223,-202.46 223,-196.46 223,-196.46 223,-184.46 223,-184.46 223,-178.46 229,-172.46 235,-172.46 235,-172.46 355,-172.46 355,-172.46 361,-172.46 367,-178.46 367,-184.46 367,-184.46 367,-196.46 367,-196.46 367,-202.46 361,-208.46 355,-208.46"/>
<text text-anchor="middle" x="295" y="-186.76" font-family="Times,serif" font-size="14.00">rosdep&#45;depend</text>
</g>
<!-- external_image_0&#45;&gt;stage_1 -->
<g id="edge5" class="edge">
<title>external_image_0&#45;&gt;stage_1</title>
<path fill="none" stroke="black" d="M173.54,-208.7C186.34,-206.76 199.78,-204.73 212.85,-202.75"/>
<polygon fill="black" stroke="black" points="213.4,-206.21 222.76,-201.25 212.35,-199.29 213.4,-206.21"/>
</g>
<!-- stage_2 -->
<g id="node6" class="node">
<title>stage_2</title>
<path fill="none" stroke="black" d="M535,-234.46C535,-234.46 415,-234.46 415,-234.46 409,-234.46 403,-228.46 403,-222.46 403,-222.46 403,-210.46 403,-210.46 403,-204.46 409,-198.46 415,-198.46 415,-198.46 535,-198.46 535,-198.46 541,-198.46 547,-204.46 547,-210.46 547,-210.46 547,-222.46 547,-222.46 547,-228.46 541,-234.46 535,-234.46"/>
<text text-anchor="middle" x="475" y="-212.76" font-family="Times,serif" font-size="14.00">core&#45;devel</text>
</g>
<!-- stage_0&#45;&gt;stage_2 -->
<g id="edge6" class="edge">
<title>stage_0&#45;&gt;stage_2</title>
<path fill="none" stroke="black" d="M367.12,-235.68C375.61,-234.15 384.33,-232.58 392.94,-231.03"/>
<polygon fill="black" stroke="black" points="393.77,-234.44 403,-229.23 392.53,-227.55 393.77,-234.44"/>
</g>
<!-- stage_6 -->
<g id="node7" class="node">
<title>stage_6</title>
<path fill="none" stroke="black" d="M1307,-78.46C1307,-78.46 1113,-78.46 1113,-78.46 1107,-78.46 1101,-72.46 1101,-66.46 1101,-66.46 1101,-54.46 1101,-54.46 1101,-48.46 1107,-42.46 1113,-42.46 1113,-42.46 1307,-42.46 1307,-42.46 1313,-42.46 1319,-48.46 1319,-54.46 1319,-54.46 1319,-66.46 1319,-66.46 1319,-72.46 1313,-78.46 1307,-78.46"/>
<text text-anchor="middle" x="1210" y="-56.76" font-family="Times,serif" font-size="14.00">universe&#45;sensing&#45;perception</text>
</g>
<!-- stage_0&#45;&gt;stage_6 -->
<g id="edge7" class="edge">
<title>stage_0&#45;&gt;stage_6</title>
<path fill="none" stroke="black" d="M359.38,-266.51C434.36,-285.78 563.09,-312.28 674.5,-302.46"/>
<path fill="none" stroke="black" d="M676.5,-302.46C863.12,-292.09 896.92,-223.2 1065,-141.46 1101.54,-123.69 1141.74,-100.78 1170.36,-83.86"/>
<polygon fill="black" stroke="black" points="1172.41,-86.71 1179.22,-78.6 1168.84,-80.7 1172.41,-86.71"/>
</g>
<!-- stage_7 -->
<g id="node8" class="node">
<title>stage_7</title>
<path fill="#e5e5e5" stroke="black" d="M1487,-182.46C1487,-182.46 1367,-182.46 1367,-182.46 1361,-182.46 1355,-176.46 1355,-170.46 1355,-170.46 1355,-158.46 1355,-158.46 1355,-152.46 1361,-146.46 1367,-146.46 1367,-146.46 1487,-146.46 1487,-146.46 1493,-146.46 1499,-152.46 1499,-158.46 1499,-158.46 1499,-170.46 1499,-170.46 1499,-176.46 1493,-182.46 1487,-182.46"/>
<text text-anchor="middle" x="1427" y="-160.76" font-family="Times,serif" font-size="14.00">universe</text>
</g>
<!-- stage_0&#45;&gt;stage_7 -->
<g id="edge8" class="edge">
<title>stage_0&#45;&gt;stage_7</title>
<path fill="none" stroke="black" d="M676.5,-302.46C965.69,-286.39 1036.12,-255.64 1319,-193.46 1330.19,-191 1341.97,-188.11 1353.45,-185.14"/>
<polygon fill="black" stroke="black" points="1354.67,-188.43 1363.45,-182.5 1352.89,-181.67 1354.67,-188.43"/>
</g>
<!-- stage_1&#45;&gt;stage_2 -->
<g id="edge9" class="edge">
<title>stage_1&#45;&gt;stage_2</title>
<path fill="none" stroke="black" stroke-dasharray="5,2" d="M367.12,-200.85C375.61,-202.09 384.33,-203.36 392.94,-204.62"/>
<polygon fill="none" stroke="black" points="392.59,-208.11 403,-206.09 393.61,-201.18 392.59,-208.11"/>
</g>
<!-- stage_1&#45;&gt;stage_6 -->
<g id="edge35" class="edge">
<title>stage_1&#45;&gt;stage_6</title>
<path fill="none" stroke="black" stroke-dasharray="5,2" d="M935.5,-60.46C986.05,-53.02 1042.42,-51.84 1090.79,-52.96"/>
<polygon fill="none" stroke="black" points="1090.89,-56.47 1100.98,-53.23 1091.08,-49.47 1090.89,-56.47"/>
</g>
<!-- stage_1&#45;&gt;stage_7 -->
<g id="edge36" class="edge">
<title>stage_1&#45;&gt;stage_7</title>
<path fill="none" stroke="black" stroke-dasharray="5,2" d="M367.23,-178.06C399.69,-172.92 438.68,-167.47 474,-164.46"/>
<path fill="none" stroke="black" stroke-dasharray="5,2" d="M476,-164.46C525.09,-160.28 535.33,-147.91 583,-135.46 623.57,-124.86 633.22,-119.84 674.5,-112.46"/>
<path fill="none" stroke="black" stroke-dasharray="5,2" d="M676.5,-112.46C733.71,-102.23 747.04,-94.99 804,-83.46 861.29,-71.86 875.67,-68.97 933.5,-60.46"/>
<path fill="none" stroke="black" stroke-dasharray="5,2" d="M935.5,-60.46C1104.61,-35.57 1164.84,42.37 1319,-31.46 1364.54,-53.27 1396.86,-104.96 1413.38,-137.1"/>
<polygon fill="none" stroke="black" points="1410.41,-138.99 1418,-146.39 1416.68,-135.87 1410.41,-138.99"/>
</g>
<!-- stage_3 -->
<g id="node9" class="node">
<title>stage_3</title>
<path fill="none" stroke="black" d="M756,-182.46C756,-182.46 595,-182.46 595,-182.46 589,-182.46 583,-176.46 583,-170.46 583,-170.46 583,-158.46 583,-158.46 583,-152.46 589,-146.46 595,-146.46 595,-146.46 756,-146.46 756,-146.46 762,-146.46 768,-152.46 768,-158.46 768,-158.46 768,-170.46 768,-170.46 768,-176.46 762,-182.46 756,-182.46"/>
<text text-anchor="middle" x="675.5" y="-160.76" font-family="Times,serif" font-size="14.00">universe&#45;common&#45;devel</text>
</g>
<!-- stage_1&#45;&gt;stage_3 -->
<g id="edge11" class="edge">
<title>stage_1&#45;&gt;stage_3</title>
<path fill="none" stroke="black" stroke-dasharray="5,2" d="M476,-164.46C507.35,-162.21 541.55,-161.56 572.59,-161.66"/>
<polygon fill="none" stroke="black" points="572.97,-165.16 582.99,-161.72 573.01,-158.16 572.97,-165.16"/>
</g>
<!-- stage_4 -->
<g id="node10" class="node">
<title>stage_4</title>
<path fill="none" stroke="black" d="M1053,-130.46C1053,-130.46 816,-130.46 816,-130.46 810,-130.46 804,-124.46 804,-118.46 804,-118.46 804,-106.46 804,-106.46 804,-100.46 810,-94.46 816,-94.46 816,-94.46 1053,-94.46 1053,-94.46 1059,-94.46 1065,-100.46 1065,-106.46 1065,-106.46 1065,-118.46 1065,-118.46 1065,-124.46 1059,-130.46 1053,-130.46"/>
<text text-anchor="middle" x="934.5" y="-108.76" font-family="Times,serif" font-size="14.00">universe&#45;sensing&#45;perception&#45;devel</text>
</g>
<!-- stage_1&#45;&gt;stage_4 -->
<g id="edge16" class="edge">
<title>stage_1&#45;&gt;stage_4</title>
<path fill="none" stroke="black" stroke-dasharray="5,2" d="M676.5,-112.46C714.2,-105.72 755.51,-103.5 793.77,-103.53"/>
<polygon fill="none" stroke="black" points="793.93,-107.03 803.95,-103.59 793.97,-100.03 793.93,-107.03"/>
</g>
<!-- stage_5 -->
<g id="node11" class="node">
<title>stage_5</title>
<path fill="none" stroke="black" d="M1270,-182.46C1270,-182.46 1150,-182.46 1150,-182.46 1144,-182.46 1138,-176.46 1138,-170.46 1138,-170.46 1138,-158.46 1138,-158.46 1138,-152.46 1144,-146.46 1150,-146.46 1150,-146.46 1270,-146.46 1270,-146.46 1276,-146.46 1282,-152.46 1282,-158.46 1282,-158.46 1282,-170.46 1282,-170.46 1282,-176.46 1276,-182.46 1270,-182.46"/>
<text text-anchor="middle" x="1210" y="-160.76" font-family="Times,serif" font-size="14.00">universe&#45;devel</text>
</g>
<!-- stage_1&#45;&gt;stage_5 -->
<g id="edge19" class="edge">
<title>stage_1&#45;&gt;stage_5</title>
<path fill="none" stroke="black" stroke-dasharray="5,2" d="M476,-164.46C525.14,-160.93 534.16,-186.96 583,-193.46 795.41,-221.74 851.38,-198.36 1065,-181.46 1085.29,-179.86 1107.12,-177.57 1127.5,-175.19"/>
<polygon fill="none" stroke="black" points="1128.18,-178.64 1137.69,-173.98 1127.35,-171.68 1128.18,-178.64"/>
</g>
<!-- stage_2&#45;&gt;stage_3 -->
<g id="edge37" class="edge">
<title>stage_2&#45;&gt;stage_3</title>
<path fill="none" stroke="black" d="M544.87,-198.42C561.34,-194.1 579.05,-189.46 595.93,-185.04"/>
<polygon fill="black" stroke="black" points="596.97,-188.39 605.75,-182.47 595.19,-181.62 596.97,-188.39"/>
</g>
<!-- stage_3&#45;&gt;stage_4 -->
<g id="edge38" class="edge">
<title>stage_3&#45;&gt;stage_4</title>
<path fill="none" stroke="black" d="M765.66,-146.42C787.89,-141.92 811.86,-137.07 834.52,-132.49"/>
<polygon fill="black" stroke="black" points="835.39,-135.88 844.49,-130.47 834,-129.02 835.39,-135.88"/>
</g>
<!-- stage_3&#45;&gt;stage_5 -->
<g id="edge39" class="edge">
<title>stage_3&#45;&gt;stage_5</title>
<path fill="none" stroke="black" d="M768.04,-164.46C869.28,-164.46 1030.85,-164.46 1127.76,-164.46"/>
<polygon fill="black" stroke="black" points="1127.8,-167.96 1137.8,-164.46 1127.8,-160.96 1127.8,-167.96"/>
</g>
<!-- stage_4&#45;&gt;stage_6 -->
<g id="edge41" class="edge">
<title>stage_4&#45;&gt;stage_6</title>
<path fill="none" stroke="black" stroke-dasharray="5,2" d="M1030.39,-94.42C1054.26,-89.88 1080,-84.99 1104.32,-80.36"/>
<polygon fill="none" stroke="black" points="1105.11,-83.78 1114.28,-78.47 1103.8,-76.9 1105.11,-83.78"/>
</g>
<!-- stage_4&#45;&gt;stage_5 -->
<g id="edge40" class="edge">
<title>stage_4&#45;&gt;stage_5</title>
<path fill="none" stroke="black" stroke-dasharray="5,2" d="M1030.39,-130.5C1061.99,-136.51 1096.9,-143.15 1127.41,-148.95"/>
<polygon fill="none" stroke="black" points="1127.09,-152.45 1137.57,-150.88 1128.4,-145.57 1127.09,-152.45"/>
</g>
<!-- stage_5&#45;&gt;stage_7 -->
<g id="edge42" class="edge">
<title>stage_5&#45;&gt;stage_7</title>
<path fill="none" stroke="black" stroke-dasharray="5,2" d="M1282.29,-164.46C1302.27,-164.46 1324.13,-164.46 1344.64,-164.46"/>
<polygon fill="none" stroke="black" points="1344.9,-167.96 1354.9,-164.46 1344.9,-160.96 1344.9,-167.96"/>
</g>
</g>
</svg>
