<?xml version="1.0" encoding="UTF-8" standalone="no"?>
<!DOCTYPE svg PUBLIC "-//W3C//DTD SVG 1.1//EN"
 "http://www.w3.org/Graphics/SVG/1.1/DTD/svg11.dtd">
<!-- Generated by graphviz version 2.43.0 (0)
 -->
<!-- Title: G Pages: 1 -->
<svg width="1687pt" height="510pt"
 viewBox="0.00 0.00 1687.00 510.42" xmlns="http://www.w3.org/2000/svg" xmlns:xlink="http://www.w3.org/1999/xlink">
<g id="graph0" class="graph" transform="scale(1 1) rotate(0) translate(4 506.42)">
<title>G</title>
<polygon fill="white" stroke="transparent" points="-4,4 -4,-506.42 1683,-506.42 1683,4 -4,4"/>
<g id="clust1" class="cluster">
<title>cluster_legend</title>
<polygon fill="none" stroke="black" points="8,-14 8,-84 330,-84 330,-14 8,-14"/>
</g>
<!-- key -->
<g id="node1" class="node">
<title>key</title>
<text text-anchor="start" x="122.5" y="-61" font-family="monospace" font-size="10.00">FROM ... </text>
<text text-anchor="start" x="80.5" y="-46" font-family="monospace" font-size="10.00">COPY &#45;&#45;from=... </text>
<text text-anchor="start" x="26.5" y="-31" font-family="monospace" font-size="10.00">RUN &#45;&#45;mount=(.*)from=... </text>
</g>
<!-- key2 -->
<g id="node2" class="node">
<title>key2</title>
<text text-anchor="start" x="292" y="-61" font-family="monospace" font-size="10.00"> </text>
<text text-anchor="start" x="292" y="-46" font-family="monospace" font-size="10.00"> </text>
<text text-anchor="start" x="292" y="-31" font-family="monospace" font-size="10.00"> </text>
</g>
<!-- key&#45;&gt;key2 -->
<g id="edge1" class="edge">
<title>key:e&#45;&gt;key2:w</title>
<path fill="none" stroke="black" d="M180.5,-64C225.14,-64 238.79,-64 278.83,-64"/>
<polygon fill="black" stroke="black" points="279,-67.5 289,-64 279,-60.5 279,-67.5"/>
</g>
<!-- key&#45;&gt;key2 -->
<g id="edge2" class="edge">
<title>key:e&#45;&gt;key2:w</title>
<path fill="none" stroke="black" stroke-dasharray="5,2" d="M180.5,-48C225.14,-48 238.79,-48 278.83,-48"/>
<polygon fill="none" stroke="black" points="279,-51.5 289,-48 279,-44.5 279,-51.5"/>
</g>
<!-- key&#45;&gt;key2 -->
<g id="edge3" class="edge">
<title>key:e&#45;&gt;key2:w</title>
<path fill="none" stroke="black" stroke-dasharray="1,5" d="M180.5,-33C224.39,-33 238.32,-33 276.83,-33"/>
<polygon fill="none" stroke="black" points="277,-33 283,-29 289,-33 283,-37 277,-33"/>
</g>
<!-- external_image_0 -->
<g id="node3" class="node">
<title>external_image_0</title>
<path fill="none" stroke="#333333" stroke-dasharray="5,2" d="M161.5,-163C161.5,-163 41.5,-163 41.5,-163 35.5,-163 29.5,-157 29.5,-151 29.5,-151 29.5,-139 29.5,-139 29.5,-133 35.5,-127 41.5,-127 41.5,-127 161.5,-127 161.5,-127 167.5,-127 173.5,-133 173.5,-139 173.5,-139 173.5,-151 173.5,-151 173.5,-157 167.5,-163 161.5,-163"/>
<text text-anchor="middle" x="101.5" y="-141.3" font-family="Times,serif" font-size="14.00" fill="#333333">$BASE_IMAGE</text>
</g>
<!-- stage_0 -->
<g id="node4" class="node">
<title>stage_0</title>
<path fill="none" stroke="black" d="M355,-192C355,-192 235,-192 235,-192 229,-192 223,-186 223,-180 223,-180 223,-168 223,-168 223,-162 229,-156 235,-156 235,-156 355,-156 355,-156 361,-156 367,-162 367,-168 367,-168 367,-180 367,-180 367,-186 361,-192 355,-192"/>
<text text-anchor="middle" x="295" y="-170.3" font-family="Times,serif" font-size="14.00">base</text>
</g>
<!-- external_image_0&#45;&gt;stage_0 -->
<g id="edge4" class="edge">
<title>external_image_0&#45;&gt;stage_0</title>
<path fill="none" stroke="black" d="M173.54,-155.76C186.34,-157.7 199.78,-159.73 212.85,-161.71"/>
<polygon fill="black" stroke="black" points="212.35,-165.17 222.76,-163.21 213.4,-158.25 212.35,-165.17"/>
</g>
<!-- stage_1 -->
<g id="node5" class="node">
<title>stage_1</title>
<path fill="none" stroke="black" d="M355,-134C355,-134 235,-134 235,-134 229,-134 223,-128 223,-122 223,-122 223,-110 223,-110 223,-104 229,-98 235,-98 235,-98 355,-98 355,-98 361,-98 367,-104 367,-110 367,-110 367,-122 367,-122 367,-128 361,-134 355,-134"/>
<text text-anchor="middle" x="295" y="-112.3" font-family="Times,serif" font-size="14.00">rosdep&#45;depend</text>
</g>
<!-- external_image_0&#45;&gt;stage_1 -->
<g id="edge5" class="edge">
<title>external_image_0&#45;&gt;stage_1</title>
<path fill="none" stroke="black" d="M173.54,-134.24C186.34,-132.3 199.78,-130.27 212.85,-128.29"/>
<polygon fill="black" stroke="black" points="213.4,-131.75 222.76,-126.79 212.35,-124.83 213.4,-131.75"/>
</g>
<!-- stage_6 -->
<g id="node6" class="node">
<title>stage_6</title>
<path fill="none" stroke="black" d="M535,-192C535,-192 415,-192 415,-192 409,-192 403,-186 403,-180 403,-180 403,-168 403,-168 403,-162 409,-156 415,-156 415,-156 535,-156 535,-156 541,-156 547,-162 547,-168 547,-168 547,-180 547,-180 547,-186 541,-192 535,-192"/>
<text text-anchor="middle" x="475" y="-170.3" font-family="Times,serif" font-size="14.00">core&#45;devel</text>
</g>
<!-- stage_0&#45;&gt;stage_6 -->
<g id="edge6" class="edge">
<title>stage_0&#45;&gt;stage_6</title>
<path fill="none" stroke="black" d="M367.12,-174C375.61,-174 384.33,-174 392.94,-174"/>
<polygon fill="black" stroke="black" points="393,-177.5 403,-174 393,-170.5 393,-177.5"/>
</g>
<!-- stage_12 -->
<g id="node7" class="node">
<title>stage_12</title>
<path fill="none" stroke="black" d="M1481,-296C1481,-296 1287,-296 1287,-296 1281,-296 1275,-290 1275,-284 1275,-284 1275,-272 1275,-272 1275,-266 1281,-260 1287,-260 1287,-260 1481,-260 1481,-260 1487,-260 1493,-266 1493,-272 1493,-272 1493,-284 1493,-284 1493,-290 1487,-296 1481,-296"/>
<text text-anchor="middle" x="1384" y="-274.3" font-family="Times,serif" font-size="14.00">universe&#45;sensing&#45;perception</text>
</g>
<!-- stage_0&#45;&gt;stage_12 -->
<g id="edge7" class="edge">
<title>stage_0&#45;&gt;stage_12</title>
<path fill="none" stroke="black" d="M309.21,-192.31C359.37,-259.5 545.74,-487.8 752.5,-474"/>
<path fill="none" stroke="black" d="M754.5,-474C862.88,-488.58 1130.86,-398.09 1233,-359 1273.33,-343.57 1316.41,-319.41 1346.01,-301.49"/>
<polygon fill="black" stroke="black" points="1348.04,-304.35 1354.75,-296.15 1344.39,-298.38 1348.04,-304.35"/>
</g>
<!-- stage_13 -->
<g id="node8" class="node">
<title>stage_13</title>
<path fill="none" stroke="black" d="M1487,-123C1487,-123 1281,-123 1281,-123 1275,-123 1269,-117 1269,-111 1269,-111 1269,-99 1269,-99 1269,-93 1275,-87 1281,-87 1281,-87 1487,-87 1487,-87 1493,-87 1499,-93 1499,-99 1499,-99 1499,-111 1499,-111 1499,-117 1493,-123 1487,-123"/>
<text text-anchor="middle" x="1384" y="-101.3" font-family="Times,serif" font-size="14.00">universe&#45;localization&#45;mapping</text>
</g>
<!-- stage_0&#45;&gt;stage_13 -->
<g id="edge8" class="edge">
<title>stage_0&#45;&gt;stage_13</title>
<path fill="none" stroke="black" d="M355.28,-155.93C370.7,-151.79 387.37,-147.79 403,-145 631.85,-104.21 693.44,-128.62 924,-99 1000.67,-89.15 1018.22,-68.24 1095.5,-70"/>
</g>
<!-- stage_14 -->
<g id="node9" class="node">
<title>stage_14</title>
<path fill="none" stroke="black" d="M1472,-440C1472,-440 1296,-440 1296,-440 1290,-440 1284,-434 1284,-428 1284,-428 1284,-416 1284,-416 1284,-410 1290,-404 1296,-404 1296,-404 1472,-404 1472,-404 1478,-404 1484,-410 1484,-416 1484,-416 1484,-428 1484,-428 1484,-434 1478,-440 1472,-440"/>
<text text-anchor="middle" x="1384" y="-418.3" font-family="Times,serif" font-size="14.00">universe&#45;planning&#45;control</text>
</g>
<!-- stage_0&#45;&gt;stage_14 -->
<g id="edge9" class="edge">
<title>stage_0&#45;&gt;stage_14</title>
<path fill="none" stroke="black" d="M754.5,-474C904.4,-496.36 944.1,-480.83 1095.5,-474"/>
<path fill="none" stroke="black" d="M1097.5,-474C1168.01,-470.82 1246.84,-455.55 1303.78,-442.37"/>
<polygon fill="black" stroke="black" points="1304.85,-445.71 1313.79,-440.02 1303.25,-438.9 1304.85,-445.71"/>
</g>
<!-- stage_15 -->
<g id="node10" class="node">
<title>stage_15</title>
<path fill="#e5e5e5" stroke="black" d="M1667,-192C1667,-192 1547,-192 1547,-192 1541,-192 1535,-186 1535,-180 1535,-180 1535,-168 1535,-168 1535,-162 1541,-156 1547,-156 1547,-156 1667,-156 1667,-156 1673,-156 1679,-162 1679,-168 1679,-168 1679,-180 1679,-180 1679,-186 1673,-192 1667,-192"/>
<text text-anchor="middle" x="1607" y="-170.3" font-family="Times,serif" font-size="14.00">universe</text>
</g>
<!-- stage_0&#45;&gt;stage_15 -->
<g id="edge10" class="edge">
<title>stage_0&#45;&gt;stage_15</title>
<path fill="none" stroke="black" d="M1097.5,-474C1276.06,-465.94 1354.54,-556.26 1499,-451 1580.81,-391.39 1600.07,-260.27 1604.6,-202.4"/>
<polygon fill="black" stroke="black" points="1608.11,-202.38 1605.31,-192.17 1601.13,-201.9 1608.11,-202.38"/>
</g>
<!-- stage_1&#45;&gt;stage_6 -->
<g id="edge15" class="edge">
<title>stage_1&#45;&gt;stage_6</title>
<path fill="none" stroke="black" stroke-dasharray="5,2" d="M351.34,-134.03C369.59,-139.98 390.06,-146.65 408.97,-152.81"/>
<polygon fill="none" stroke="black" points="408.1,-156.21 418.69,-155.98 410.27,-149.55 408.1,-156.21"/>
</g>
<!-- stage_2 -->
<g id="node11" class="node">
<title>stage_2</title>
<path fill="none" stroke="black" d="M906,-250C906,-250 601,-250 601,-250 595,-250 589,-244 589,-238 589,-238 589,-226 589,-226 589,-220 595,-214 601,-214 601,-214 906,-214 906,-214 912,-214 918,-220 918,-226 918,-226 918,-238 918,-238 918,-244 912,-250 906,-250"/>
<text text-anchor="middle" x="753.5" y="-228.3" font-family="Times,serif" font-size="14.00">rosdep&#45;universe&#45;sensing&#45;perception&#45;depend</text>
</g>
<!-- stage_1&#45;&gt;stage_2 -->
<g id="edge11" class="edge">
<title>stage_1&#45;&gt;stage_2</title>
<path fill="none" stroke="black" d="M476,-76C519.97,-77.69 519.41,-110.72 547,-145 566.02,-168.64 557.83,-186.06 583,-203 586.39,-205.28 589.89,-207.4 593.5,-209.37"/>
<polygon fill="black" stroke="black" points="592.15,-212.6 602.66,-213.95 595.29,-206.35 592.15,-212.6"/>
</g>
<!-- stage_3 -->
<g id="node12" class="node">
<title>stage_3</title>
<path fill="none" stroke="black" d="M912,-88C912,-88 595,-88 595,-88 589,-88 583,-82 583,-76 583,-76 583,-64 583,-64 583,-58 589,-52 595,-52 595,-52 912,-52 912,-52 918,-52 924,-58 924,-64 924,-64 924,-76 924,-76 924,-82 918,-88 912,-88"/>
<text text-anchor="middle" x="753.5" y="-66.3" font-family="Times,serif" font-size="14.00">rosdep&#45;universe&#45;localization&#45;mapping&#45;depend</text>
</g>
<!-- stage_1&#45;&gt;stage_3 -->
<g id="edge12" class="edge">
<title>stage_1&#45;&gt;stage_3</title>
<path fill="none" stroke="black" d="M476,-76C507.17,-77.2 540.33,-77.4 572.46,-77.04"/>
<polygon fill="black" stroke="black" points="572.9,-80.53 582.85,-76.9 572.8,-73.54 572.9,-80.53"/>
</g>
<!-- stage_4 -->
<g id="node13" class="node">
<title>stage_4</title>
<path fill="none" stroke="black" d="M896.5,-328C896.5,-328 610.5,-328 610.5,-328 604.5,-328 598.5,-322 598.5,-316 598.5,-316 598.5,-304 598.5,-304 598.5,-298 604.5,-292 610.5,-292 610.5,-292 896.5,-292 896.5,-292 902.5,-292 908.5,-298 908.5,-304 908.5,-304 908.5,-316 908.5,-316 908.5,-322 902.5,-328 896.5,-328"/>
<text text-anchor="middle" x="753.5" y="-306.3" font-family="Times,serif" font-size="14.00">rosdep&#45;universe&#45;planning&#45;control&#45;depend</text>
</g>
<!-- stage_1&#45;&gt;stage_4 -->
<g id="edge13" class="edge">
<title>stage_1&#45;&gt;stage_4</title>
<path fill="none" stroke="black" d="M476,-76C519.97,-77.69 523.99,-107.49 547,-145 575.23,-191.01 544.46,-223.2 583,-261 594.68,-272.46 608.87,-281.26 624,-288.03"/>
<polygon fill="black" stroke="black" points="622.96,-291.39 633.54,-291.99 625.64,-284.92 622.96,-291.39"/>
</g>
<!-- stage_5 -->
<g id="node14" class="node">
<title>stage_5</title>
<path fill="none" stroke="black" d="M1178.5,-36C1178.5,-36 1014.5,-36 1014.5,-36 1008.5,-36 1002.5,-30 1002.5,-24 1002.5,-24 1002.5,-12 1002.5,-12 1002.5,-6 1008.5,0 1014.5,0 1014.5,0 1178.5,0 1178.5,0 1184.5,0 1190.5,-6 1190.5,-12 1190.5,-12 1190.5,-24 1190.5,-24 1190.5,-30 1184.5,-36 1178.5,-36"/>
<text text-anchor="middle" x="1096.5" y="-14.3" font-family="Times,serif" font-size="14.00">rosdep&#45;universe&#45;depend</text>
</g>
<!-- stage_1&#45;&gt;stage_5 -->
<g id="edge14" class="edge">
<title>stage_1&#45;&gt;stage_5</title>
<path fill="none" stroke="black" d="M344.47,-98C379.91,-86.59 429.37,-74.28 474,-76"/>
<path fill="none" stroke="black" d="M476,-76C526,-77.92 533.78,-49.98 583,-41 722.91,-15.47 887.68,-12.84 991.86,-14.48"/>
<polygon fill="black" stroke="black" points="992.01,-17.98 1002.07,-14.65 992.13,-10.98 992.01,-17.98"/>
</g>
<!-- stage_7 -->
<g id="node15" class="node">
<title>stage_7</title>
<path fill="none" stroke="black" d="M834,-192C834,-192 673,-192 673,-192 667,-192 661,-186 661,-180 661,-180 661,-168 661,-168 661,-162 667,-156 673,-156 673,-156 834,-156 834,-156 840,-156 846,-162 846,-168 846,-168 846,-180 846,-180 846,-186 840,-192 834,-192"/>
<text text-anchor="middle" x="753.5" y="-170.3" font-family="Times,serif" font-size="14.00">universe&#45;common&#45;devel</text>
</g>
<!-- stage_1&#45;&gt;stage_7 -->
<g id="edge17" class="edge">
<title>stage_1&#45;&gt;stage_7</title>
<path fill="none" stroke="black" stroke-dasharray="5,2" d="M476,-76C520.87,-77.73 635.1,-123.57 701.86,-151.93"/>
<polygon fill="none" stroke="black" points="700.78,-155.28 711.36,-155.98 703.53,-148.84 700.78,-155.28"/>
</g>
<!-- stage_6&#45;&gt;stage_7 -->
<g id="edge51" class="edge">
<title>stage_6&#45;&gt;stage_7</title>
<path fill="none" stroke="black" d="M547.21,-174C578.74,-174 616.4,-174 650.82,-174"/>
<polygon fill="black" stroke="black" points="650.9,-177.5 660.9,-174 650.9,-170.5 650.9,-177.5"/>
</g>
<!-- stage_2&#45;&gt;stage_12 -->
<g id="edge25" class="edge">
<title>stage_2&#45;&gt;stage_12</title>
<path fill="none" stroke="black" stroke-dasharray="5,2" d="M906.75,-250.02C924.68,-251.86 942.74,-253.57 960,-255 1062.65,-263.53 1179.59,-269.61 1264.46,-273.37"/>
<polygon fill="none" stroke="black" points="1264.51,-276.87 1274.65,-273.81 1264.81,-269.88 1264.51,-276.87"/>
</g>
<!-- stage_8 -->
<g id="node16" class="node">
<title>stage_8</title>
<path fill="none" stroke="black" d="M1215,-244C1215,-244 978,-244 978,-244 972,-244 966,-238 966,-232 966,-232 966,-220 966,-220 966,-214 972,-208 978,-208 978,-208 1215,-208 1215,-208 1221,-208 1227,-214 1227,-220 1227,-220 1227,-232 1227,-232 1227,-238 1221,-244 1215,-244"/>
<text text-anchor="middle" x="1096.5" y="-222.3" font-family="Times,serif" font-size="14.00">universe&#45;sensing&#45;perception&#45;devel</text>
</g>
<!-- stage_2&#45;&gt;stage_8 -->
<g id="edge22" class="edge">
<title>stage_2&#45;&gt;stage_8</title>
<path fill="none" stroke="black" stroke-dasharray="5,2" d="M918.01,-229.12C930.56,-228.9 943.16,-228.68 955.55,-228.46"/>
<polygon fill="none" stroke="black" points="955.95,-231.96 965.89,-228.28 955.83,-224.96 955.95,-231.96"/>
</g>
<!-- stage_3&#45;&gt;stage_13 -->
<g id="edge29" class="edge">
<title>stage_3&#45;&gt;stage_13</title>
<path fill="none" stroke="black" stroke-dasharray="5,2" d="M924.06,-68.48C978.79,-68.4 1039.72,-68.73 1095.5,-70"/>
<path fill="none" stroke="black" stroke-dasharray="5,2" d="M1097.5,-70C1153.55,-71.27 1215.34,-78.16 1267.07,-85.5"/>
<polygon fill="none" stroke="black" points="1266.88,-89 1277.27,-86.97 1267.87,-82.08 1266.88,-89"/>
</g>
<!-- stage_9 -->
<g id="node17" class="node">
<title>stage_9</title>
<path fill="none" stroke="black" d="M1221,-140C1221,-140 972,-140 972,-140 966,-140 960,-134 960,-128 960,-128 960,-116 960,-116 960,-110 966,-104 972,-104 972,-104 1221,-104 1221,-104 1227,-104 1233,-110 1233,-116 1233,-116 1233,-128 1233,-128 1233,-134 1227,-140 1221,-140"/>
<text text-anchor="middle" x="1096.5" y="-118.3" font-family="Times,serif" font-size="14.00">universe&#45;localization&#45;mapping&#45;devel</text>
</g>
<!-- stage_3&#45;&gt;stage_9 -->
<g id="edge26" class="edge">
<title>stage_3&#45;&gt;stage_9</title>
<path fill="none" stroke="black" stroke-dasharray="5,2" d="M872.81,-88.04C903.36,-92.7 936.38,-97.74 967.4,-102.47"/>
<polygon fill="none" stroke="black" points="966.99,-105.94 977.4,-103.99 968.04,-99.02 966.99,-105.94"/>
</g>
<!-- stage_4&#45;&gt;stage_14 -->
<g id="edge37" class="edge">
<title>stage_4&#45;&gt;stage_14</title>
<path fill="none" stroke="black" stroke-dasharray="5,2" d="M823.62,-328.05C863.33,-338.03 914.27,-350.16 960,-359 1066.06,-379.5 1188.19,-397.05 1273.87,-408.38"/>
<polygon fill="none" stroke="black" points="1273.5,-411.86 1283.87,-409.69 1274.41,-404.92 1273.5,-411.86"/>
</g>
<!-- stage_10 -->
<g id="node18" class="node">
<title>stage_10</title>
<path fill="none" stroke="black" d="M1205.5,-348C1205.5,-348 987.5,-348 987.5,-348 981.5,-348 975.5,-342 975.5,-336 975.5,-336 975.5,-324 975.5,-324 975.5,-318 981.5,-312 987.5,-312 987.5,-312 1205.5,-312 1205.5,-312 1211.5,-312 1217.5,-318 1217.5,-324 1217.5,-324 1217.5,-336 1217.5,-336 1217.5,-342 1211.5,-348 1205.5,-348"/>
<text text-anchor="middle" x="1096.5" y="-326.3" font-family="Times,serif" font-size="14.00">universe&#45;planning&#45;control&#45;devel</text>
</g>
<!-- stage_4&#45;&gt;stage_10 -->
<g id="edge30" class="edge">
<title>stage_4&#45;&gt;stage_10</title>
<path fill="none" stroke="black" stroke-dasharray="5,2" d="M908.54,-319.03C927.45,-320.14 946.64,-321.27 965.15,-322.36"/>
<polygon fill="none" stroke="black" points="965.18,-325.86 975.37,-322.95 965.59,-318.87 965.18,-325.86"/>
</g>
<!-- stage_5&#45;&gt;stage_15 -->
<g id="edge50" class="edge">
<title>stage_5&#45;&gt;stage_15</title>
<path fill="none" stroke="black" stroke-dasharray="5,2" d="M1190.84,-16.16C1275.19,-17.97 1400.83,-29.48 1499,-76 1534.23,-92.69 1565.97,-125.02 1585.56,-147.97"/>
<polygon fill="none" stroke="black" points="1582.88,-150.22 1591.97,-155.66 1588.25,-145.74 1582.88,-150.22"/>
</g>
<!-- stage_11 -->
<g id="node19" class="node">
<title>stage_11</title>
<path fill="none" stroke="black" d="M1444,-192C1444,-192 1324,-192 1324,-192 1318,-192 1312,-186 1312,-180 1312,-180 1312,-168 1312,-168 1312,-162 1318,-156 1324,-156 1324,-156 1444,-156 1444,-156 1450,-156 1456,-162 1456,-168 1456,-168 1456,-180 1456,-180 1456,-186 1450,-192 1444,-192"/>
<text text-anchor="middle" x="1384" y="-170.3" font-family="Times,serif" font-size="14.00">universe&#45;devel</text>
</g>
<!-- stage_5&#45;&gt;stage_11 -->
<g id="edge38" class="edge">
<title>stage_5&#45;&gt;stage_11</title>
<path fill="none" stroke="black" stroke-dasharray="5,2" d="M1138.6,-36.14C1166.71,-49.61 1203.99,-69.65 1233,-93 1251.89,-108.21 1248.9,-120.43 1269,-134 1279.67,-141.2 1291.77,-147.25 1304.01,-152.28"/>
<polygon fill="none" stroke="black" points="1302.78,-155.56 1313.37,-155.93 1305.33,-149.04 1302.78,-155.56"/>
</g>
<!-- stage_7&#45;&gt;stage_8 -->
<g id="edge52" class="edge">
<title>stage_7&#45;&gt;stage_8</title>
<path fill="none" stroke="black" d="M846.33,-188C883.43,-193.66 926.89,-200.29 967.04,-206.41"/>
<polygon fill="black" stroke="black" points="966.75,-209.91 977.17,-207.95 967.81,-202.99 966.75,-209.91"/>
</g>
<!-- stage_7&#45;&gt;stage_9 -->
<g id="edge53" class="edge">
<title>stage_7&#45;&gt;stage_9</title>
<path fill="none" stroke="black" d="M846.33,-160C883.43,-154.34 926.89,-147.71 967.04,-141.59"/>
<polygon fill="black" stroke="black" points="967.81,-145.01 977.17,-140.05 966.75,-138.09 967.81,-145.01"/>
</g>
<!-- stage_7&#45;&gt;stage_10 -->
<g id="edge54" class="edge">
<title>stage_7&#45;&gt;stage_10</title>
<path fill="none" stroke="black" d="M846.42,-176.42C873.05,-180.52 901.09,-188.4 924,-203 947.71,-218.11 939.16,-236.14 960,-255 984.08,-276.78 1015.59,-294.7 1042.17,-307.56"/>
<polygon fill="black" stroke="black" points="1040.81,-310.79 1051.34,-311.89 1043.8,-304.46 1040.81,-310.79"/>
</g>
<!-- stage_7&#45;&gt;stage_11 -->
<g id="edge55" class="edge">
<title>stage_7&#45;&gt;stage_11</title>
<path fill="none" stroke="black" d="M846.23,-174C968.76,-174 1184,-174 1301.25,-174"/>
<polygon fill="black" stroke="black" points="1301.59,-177.5 1311.59,-174 1301.59,-170.5 1301.59,-177.5"/>
</g>
<!-- stage_8&#45;&gt;stage_12 -->
<g id="edge57" class="edge">
<title>stage_8&#45;&gt;stage_12</title>
<path fill="none" stroke="black" stroke-dasharray="5,2" d="M1196.55,-244.04C1221.58,-248.6 1248.58,-253.52 1274.06,-258.16"/>
<polygon fill="none" stroke="black" points="1273.66,-261.64 1284.12,-259.99 1274.91,-254.76 1273.66,-261.64"/>
</g>
<!-- stage_8&#45;&gt;stage_11 -->
<g id="edge56" class="edge">
<title>stage_8&#45;&gt;stage_11</title>
<path fill="none" stroke="black" stroke-dasharray="5,2" d="M1196.55,-207.96C1230.85,-201.71 1268.88,-194.79 1301.59,-188.83"/>
<polygon fill="none" stroke="black" points="1302.35,-192.25 1311.56,-187.01 1301.1,-185.36 1302.35,-192.25"/>
</g>
<!-- stage_9&#45;&gt;stage_13 -->
<g id="edge59" class="edge">
<title>stage_9&#45;&gt;stage_13</title>
<path fill="none" stroke="black" stroke-dasharray="5,2" d="M1233.14,-113.92C1241.63,-113.42 1250.16,-112.91 1258.59,-112.41"/>
<polygon fill="none" stroke="black" points="1259.06,-115.89 1268.83,-111.8 1258.64,-108.9 1259.06,-115.89"/>
</g>
<!-- stage_9&#45;&gt;stage_11 -->
<g id="edge58" class="edge">
<title>stage_9&#45;&gt;stage_11</title>
<path fill="none" stroke="black" stroke-dasharray="5,2" d="M1196.55,-140.04C1230.85,-146.29 1268.88,-153.21 1301.59,-159.17"/>
<polygon fill="none" stroke="black" points="1301.1,-162.64 1311.56,-160.99 1302.35,-155.75 1301.1,-162.64"/>
</g>
<!-- stage_10&#45;&gt;stage_14 -->
<g id="edge61" class="edge">
<title>stage_10&#45;&gt;stage_14</title>
<path fill="none" stroke="black" stroke-dasharray="5,2" d="M1153.56,-348.07C1200.61,-363.23 1267.87,-384.9 1317.4,-400.86"/>
<polygon fill="none" stroke="black" points="1316.47,-404.24 1327.06,-403.97 1318.62,-397.58 1316.47,-404.24"/>
</g>
<!-- stage_10&#45;&gt;stage_11 -->
<g id="edge60" class="edge">
<title>stage_10&#45;&gt;stage_11</title>
<path fill="none" stroke="black" stroke-dasharray="5,2" d="M1130.53,-311.95C1182.64,-283.48 1283.87,-228.17 1341.04,-196.93"/>
<polygon fill="none" stroke="black" points="1342.73,-199.99 1349.83,-192.13 1339.37,-193.85 1342.73,-199.99"/>
</g>
<!-- stage_11&#45;&gt;stage_15 -->
<g id="edge62" class="edge">
<title>stage_11&#45;&gt;stage_15</title>
<path fill="none" stroke="black" stroke-dasharray="5,2" d="M1456.14,-174C1478.03,-174 1502.28,-174 1524.79,-174"/>
<polygon fill="none" stroke="black" points="1524.99,-177.5 1534.99,-174 1524.99,-170.5 1524.99,-177.5"/>
</g>
</g>
</svg>
