<?xml version="1.0" encoding="UTF-8" standalone="no"?>
<!DOCTYPE svg PUBLIC "-//W3C//DTD SVG 1.1//EN"
 "http://www.w3.org/Graphics/SVG/1.1/DTD/svg11.dtd">
<!-- Generated by graphviz version 2.43.0 (0)
 -->
<!-- Title: G Pages: 1 -->
<svg width="1675pt" height="351pt"
 viewBox="0.00 0.00 1675.00 351.40" xmlns="http://www.w3.org/2000/svg" xmlns:xlink="http://www.w3.org/1999/xlink">
<g id="graph0" class="graph" transform="scale(1 1) rotate(0) translate(4 347.4)">
<title>G</title>
<polygon fill="white" stroke="transparent" points="-4,4 -4,-347.4 1671,-347.4 1671,4 -4,4"/>
<g id="clust1" class="cluster">
<title>cluster_legend</title>
<polygon fill="none" stroke="black" points="8,-81.4 8,-151.4 330,-151.4 330,-81.4 8,-81.4"/>
</g>
<!-- key -->
<g id="node1" class="node">
<title>key</title>
<text text-anchor="start" x="122.5" y="-128.4" font-family="monospace" font-size="10.00">FROM ... </text>
<text text-anchor="start" x="80.5" y="-113.4" font-family="monospace" font-size="10.00">COPY &#45;&#45;from=... </text>
<text text-anchor="start" x="26.5" y="-98.4" font-family="monospace" font-size="10.00">RUN &#45;&#45;mount=(.*)from=... </text>
</g>
<!-- key2 -->
<g id="node2" class="node">
<title>key2</title>
<text text-anchor="start" x="292" y="-128.4" font-family="monospace" font-size="10.00"> </text>
<text text-anchor="start" x="292" y="-113.4" font-family="monospace" font-size="10.00"> </text>
<text text-anchor="start" x="292" y="-98.4" font-family="monospace" font-size="10.00"> </text>
</g>
<!-- key&#45;&gt;key2 -->
<g id="edge1" class="edge">
<title>key:e&#45;&gt;key2:w</title>
<path fill="none" stroke="black" d="M180.5,-131.4C225.14,-131.4 238.79,-131.4 278.83,-131.4"/>
<polygon fill="black" stroke="black" points="279,-134.9 289,-131.4 279,-127.9 279,-134.9"/>
</g>
<!-- key&#45;&gt;key2 -->
<g id="edge2" class="edge">
<title>key:e&#45;&gt;key2:w</title>
<path fill="none" stroke="black" stroke-dasharray="5,2" d="M180.5,-115.4C225.14,-115.4 238.79,-115.4 278.83,-115.4"/>
<polygon fill="none" stroke="black" points="279,-118.9 289,-115.4 279,-111.9 279,-118.9"/>
</g>
<!-- key&#45;&gt;key2 -->
<g id="edge3" class="edge">
<title>key:e&#45;&gt;key2:w</title>
<path fill="none" stroke="black" stroke-dasharray="1,5" d="M180.5,-100.4C224.39,-100.4 238.32,-100.4 276.83,-100.4"/>
<polygon fill="none" stroke="black" points="277,-100.4 283,-96.4 289,-100.4 283,-104.4 277,-100.4"/>
</g>
<!-- external_image_0 -->
<g id="node3" class="node">
<title>external_image_0</title>
<path fill="none" stroke="#333333" stroke-dasharray="5,2" d="M161.5,-230.4C161.5,-230.4 41.5,-230.4 41.5,-230.4 35.5,-230.4 29.5,-224.4 29.5,-218.4 29.5,-218.4 29.5,-206.4 29.5,-206.4 29.5,-200.4 35.5,-194.4 41.5,-194.4 41.5,-194.4 161.5,-194.4 161.5,-194.4 167.5,-194.4 173.5,-200.4 173.5,-206.4 173.5,-206.4 173.5,-218.4 173.5,-218.4 173.5,-224.4 167.5,-230.4 161.5,-230.4"/>
<text text-anchor="middle" x="101.5" y="-208.7" font-family="Times,serif" font-size="14.00" fill="#333333">$BASE_IMAGE</text>
</g>
<!-- stage_0 -->
<g id="node4" class="node">
<title>stage_0</title>
<path fill="none" stroke="black" d="M355,-201.4C355,-201.4 235,-201.4 235,-201.4 229,-201.4 223,-195.4 223,-189.4 223,-189.4 223,-177.4 223,-177.4 223,-171.4 229,-165.4 235,-165.4 235,-165.4 355,-165.4 355,-165.4 361,-165.4 367,-171.4 367,-177.4 367,-177.4 367,-189.4 367,-189.4 367,-195.4 361,-201.4 355,-201.4"/>
<text text-anchor="middle" x="295" y="-179.7" font-family="Times,serif" font-size="14.00">base</text>
</g>
<!-- external_image_0&#45;&gt;stage_0 -->
<g id="edge4" class="edge">
<title>external_image_0&#45;&gt;stage_0</title>
<path fill="none" stroke="black" d="M173.54,-201.65C186.34,-199.71 199.78,-197.67 212.85,-195.69"/>
<polygon fill="black" stroke="black" points="213.4,-199.15 222.76,-194.19 212.35,-192.23 213.4,-199.15"/>
</g>
<!-- stage_1 -->
<g id="node5" class="node">
<title>stage_1</title>
<path fill="none" stroke="black" d="M355,-259.4C355,-259.4 235,-259.4 235,-259.4 229,-259.4 223,-253.4 223,-247.4 223,-247.4 223,-235.4 223,-235.4 223,-229.4 229,-223.4 235,-223.4 235,-223.4 355,-223.4 355,-223.4 361,-223.4 367,-229.4 367,-235.4 367,-235.4 367,-247.4 367,-247.4 367,-253.4 361,-259.4 355,-259.4"/>
<text text-anchor="middle" x="295" y="-237.7" font-family="Times,serif" font-size="14.00">rosdep&#45;depend</text>
</g>
<!-- external_image_0&#45;&gt;stage_1 -->
<g id="edge5" class="edge">
<title>external_image_0&#45;&gt;stage_1</title>
<path fill="none" stroke="black" d="M173.54,-223.16C186.34,-225.1 199.78,-227.14 212.85,-229.11"/>
<polygon fill="black" stroke="black" points="212.35,-232.58 222.76,-230.61 213.4,-225.66 212.35,-232.58"/>
</g>
<!-- stage_5 -->
<g id="node6" class="node">
<title>stage_5</title>
<path fill="none" stroke="black" d="M535,-230.4C535,-230.4 415,-230.4 415,-230.4 409,-230.4 403,-224.4 403,-218.4 403,-218.4 403,-206.4 403,-206.4 403,-200.4 409,-194.4 415,-194.4 415,-194.4 535,-194.4 535,-194.4 541,-194.4 547,-200.4 547,-206.4 547,-206.4 547,-218.4 547,-218.4 547,-224.4 541,-230.4 535,-230.4"/>
<text text-anchor="middle" x="475" y="-208.7" font-family="Times,serif" font-size="14.00">core&#45;devel</text>
</g>
<!-- stage_0&#45;&gt;stage_5 -->
<g id="edge6" class="edge">
<title>stage_0&#45;&gt;stage_5</title>
<path fill="none" stroke="black" d="M367.12,-194.99C375.61,-196.37 384.33,-197.79 392.94,-199.2"/>
<polygon fill="black" stroke="black" points="392.56,-202.68 403,-200.83 393.69,-195.77 392.56,-202.68"/>
</g>
<!-- stage_10 -->
<g id="node7" class="node">
<title>stage_10</title>
<path fill="none" stroke="black" d="M1475,-83.4C1475,-83.4 1281,-83.4 1281,-83.4 1275,-83.4 1269,-77.4 1269,-71.4 1269,-71.4 1269,-59.4 1269,-59.4 1269,-53.4 1275,-47.4 1281,-47.4 1281,-47.4 1475,-47.4 1475,-47.4 1481,-47.4 1487,-53.4 1487,-59.4 1487,-59.4 1487,-71.4 1487,-71.4 1487,-77.4 1481,-83.4 1475,-83.4"/>
<text text-anchor="middle" x="1378" y="-61.7" font-family="Times,serif" font-size="14.00">universe&#45;sensing&#45;perception</text>
</g>
<!-- stage_0&#45;&gt;stage_10 -->
<g id="edge7" class="edge">
<title>stage_0&#45;&gt;stage_10</title>
<path fill="none" stroke="black" d="M1097.5,-65.4C1150.33,-62.97 1208.84,-62.61 1258.61,-62.99"/>
<polygon fill="black" stroke="black" points="1258.74,-66.5 1268.77,-63.08 1258.8,-59.5 1258.74,-66.5"/>
</g>
<!-- stage_11 -->
<g id="node8" class="node">
<title>stage_11</title>
<path fill="#e5e5e5" stroke="black" d="M1655,-247.4C1655,-247.4 1535,-247.4 1535,-247.4 1529,-247.4 1523,-241.4 1523,-235.4 1523,-235.4 1523,-223.4 1523,-223.4 1523,-217.4 1529,-211.4 1535,-211.4 1535,-211.4 1655,-211.4 1655,-211.4 1661,-211.4 1667,-217.4 1667,-223.4 1667,-223.4 1667,-235.4 1667,-235.4 1667,-241.4 1661,-247.4 1655,-247.4"/>
<text text-anchor="middle" x="1595" y="-225.7" font-family="Times,serif" font-size="14.00">universe</text>
</g>
<!-- stage_0&#45;&gt;stage_11 -->
<g id="edge8" class="edge">
<title>stage_0&#45;&gt;stage_11</title>
<path fill="none" stroke="black" d="M367.06,-167.34C424.96,-154.66 508.95,-137.2 583,-125.4 809.48,-89.32 866.41,-75.96 1095.5,-65.4"/>
<path fill="none" stroke="black" d="M1097.5,-65.4C1270.25,-48.36 1337.43,51.7 1487,-36.4 1548.12,-72.4 1576.8,-157.29 1588,-201.51"/>
<polygon fill="black" stroke="black" points="1584.61,-202.42 1590.36,-211.32 1591.42,-200.78 1584.61,-202.42"/>
</g>
<!-- stage_1&#45;&gt;stage_5 -->
<g id="edge12" class="edge">
<title>stage_1&#45;&gt;stage_5</title>
<path fill="none" stroke="black" stroke-dasharray="5,2" d="M367.12,-229.82C375.61,-228.43 384.33,-227.01 392.94,-225.61"/>
<polygon fill="none" stroke="black" points="393.69,-229.03 403,-223.97 392.56,-222.12 393.69,-229.03"/>
</g>
<!-- stage_2 -->
<g id="node9" class="node">
<title>stage_2</title>
<path fill="none" stroke="black" d="M906,-172.4C906,-172.4 601,-172.4 601,-172.4 595,-172.4 589,-166.4 589,-160.4 589,-160.4 589,-148.4 589,-148.4 589,-142.4 595,-136.4 601,-136.4 601,-136.4 906,-136.4 906,-136.4 912,-136.4 918,-142.4 918,-148.4 918,-148.4 918,-160.4 918,-160.4 918,-166.4 912,-172.4 906,-172.4"/>
<text text-anchor="middle" x="753.5" y="-150.7" font-family="Times,serif" font-size="14.00">rosdep&#45;universe&#45;sensing&#45;perception&#45;depend</text>
</g>
<!-- stage_1&#45;&gt;stage_2 -->
<g id="edge9" class="edge">
<title>stage_1&#45;&gt;stage_2</title>
<path fill="none" stroke="black" d="M367.04,-257.52C399.46,-263.7 438.47,-269.5 474,-270.4"/>
<path fill="none" stroke="black" d="M476,-270.4C510.08,-271.27 520.96,-263.4 547,-241.4 570.17,-221.82 557.83,-200.34 583,-183.4 586.39,-181.12 589.89,-179.01 593.5,-177.04"/>
<polygon fill="black" stroke="black" points="595.29,-180.06 602.66,-172.45 592.15,-173.8 595.29,-180.06"/>
</g>
<!-- stage_3 -->
<g id="node10" class="node">
<title>stage_3</title>
<path fill="none" stroke="black" d="M912,-288.4C912,-288.4 595,-288.4 595,-288.4 589,-288.4 583,-282.4 583,-276.4 583,-276.4 583,-264.4 583,-264.4 583,-258.4 589,-252.4 595,-252.4 595,-252.4 912,-252.4 912,-252.4 918,-252.4 924,-258.4 924,-264.4 924,-264.4 924,-276.4 924,-276.4 924,-282.4 918,-288.4 912,-288.4"/>
<text text-anchor="middle" x="753.5" y="-266.7" font-family="Times,serif" font-size="14.00">rosdep&#45;universe&#45;localization&#45;mapping&#45;depend</text>
</g>
<!-- stage_1&#45;&gt;stage_3 -->
<g id="edge10" class="edge">
<title>stage_1&#45;&gt;stage_3</title>
<path fill="none" stroke="black" d="M476,-270.4C507.18,-271.19 540.34,-271.58 572.47,-271.72"/>
<polygon fill="black" stroke="black" points="572.85,-275.22 582.86,-271.76 572.87,-268.22 572.85,-275.22"/>
</g>
<!-- stage_4 -->
<g id="node11" class="node">
<title>stage_4</title>
<path fill="none" stroke="black" d="M1178.5,-343.4C1178.5,-343.4 1014.5,-343.4 1014.5,-343.4 1008.5,-343.4 1002.5,-337.4 1002.5,-331.4 1002.5,-331.4 1002.5,-319.4 1002.5,-319.4 1002.5,-313.4 1008.5,-307.4 1014.5,-307.4 1014.5,-307.4 1178.5,-307.4 1178.5,-307.4 1184.5,-307.4 1190.5,-313.4 1190.5,-319.4 1190.5,-319.4 1190.5,-331.4 1190.5,-331.4 1190.5,-337.4 1184.5,-343.4 1178.5,-343.4"/>
<text text-anchor="middle" x="1096.5" y="-321.7" font-family="Times,serif" font-size="14.00">rosdep&#45;universe&#45;depend</text>
</g>
<!-- stage_1&#45;&gt;stage_4 -->
<g id="edge11" class="edge">
<title>stage_1&#45;&gt;stage_4</title>
<path fill="none" stroke="black" d="M476,-270.4C525.26,-271.65 534.34,-291.67 583,-299.4 723.5,-321.74 888.12,-326.33 992.11,-326.62"/>
<polygon fill="black" stroke="black" points="992.29,-330.12 1002.3,-326.63 992.3,-323.12 992.29,-330.12"/>
</g>
<!-- stage_6 -->
<g id="node12" class="node">
<title>stage_6</title>
<path fill="none" stroke="black" d="M834,-230.4C834,-230.4 673,-230.4 673,-230.4 667,-230.4 661,-224.4 661,-218.4 661,-218.4 661,-206.4 661,-206.4 661,-200.4 667,-194.4 673,-194.4 673,-194.4 834,-194.4 834,-194.4 840,-194.4 846,-200.4 846,-206.4 846,-206.4 846,-218.4 846,-218.4 846,-224.4 840,-230.4 834,-230.4"/>
<text text-anchor="middle" x="753.5" y="-208.7" font-family="Times,serif" font-size="14.00">universe&#45;common&#45;devel</text>
</g>
<!-- stage_1&#45;&gt;stage_6 -->
<g id="edge14" class="edge">
<title>stage_1&#45;&gt;stage_6</title>
<path fill="none" stroke="black" stroke-dasharray="5,2" d="M476,-270.4C525.26,-271.65 534.88,-252.01 583,-241.4 604.84,-236.59 628.41,-232.11 650.83,-228.18"/>
<polygon fill="none" stroke="black" points="651.45,-231.62 660.7,-226.47 650.25,-224.72 651.45,-231.62"/>
</g>
<!-- stage_5&#45;&gt;stage_6 -->
<g id="edge41" class="edge">
<title>stage_5&#45;&gt;stage_6</title>
<path fill="none" stroke="black" d="M547.21,-212.4C578.74,-212.4 616.4,-212.4 650.82,-212.4"/>
<polygon fill="black" stroke="black" points="650.9,-215.9 660.9,-212.4 650.9,-208.9 650.9,-215.9"/>
</g>
<!-- stage_2&#45;&gt;stage_10 -->
<g id="edge22" class="edge">
<title>stage_2&#45;&gt;stage_10</title>
<path fill="none" stroke="black" stroke-dasharray="5,2" d="M880.47,-136.39C991.06,-120.58 1150.71,-97.76 1258.89,-82.29"/>
<polygon fill="none" stroke="black" points="1259.46,-85.74 1268.87,-80.86 1258.47,-78.81 1259.46,-85.74"/>
</g>
<!-- stage_7 -->
<g id="node13" class="node">
<title>stage_7</title>
<path fill="none" stroke="black" d="M1215,-181.4C1215,-181.4 978,-181.4 978,-181.4 972,-181.4 966,-175.4 966,-169.4 966,-169.4 966,-157.4 966,-157.4 966,-151.4 972,-145.4 978,-145.4 978,-145.4 1215,-145.4 1215,-145.4 1221,-145.4 1227,-151.4 1227,-157.4 1227,-157.4 1227,-169.4 1227,-169.4 1227,-175.4 1221,-181.4 1215,-181.4"/>
<text text-anchor="middle" x="1096.5" y="-159.7" font-family="Times,serif" font-size="14.00">universe&#45;sensing&#45;perception&#45;devel</text>
</g>
<!-- stage_2&#45;&gt;stage_7 -->
<g id="edge19" class="edge">
<title>stage_2&#45;&gt;stage_7</title>
<path fill="none" stroke="black" stroke-dasharray="5,2" d="M918.01,-158.72C930.56,-159.05 943.16,-159.38 955.55,-159.71"/>
<polygon fill="none" stroke="black" points="955.8,-163.22 965.89,-159.98 955.98,-156.22 955.8,-163.22"/>
</g>
<!-- stage_8 -->
<g id="node14" class="node">
<title>stage_8</title>
<path fill="none" stroke="black" d="M1221,-285.4C1221,-285.4 972,-285.4 972,-285.4 966,-285.4 960,-279.4 960,-273.4 960,-273.4 960,-261.4 960,-261.4 960,-255.4 966,-249.4 972,-249.4 972,-249.4 1221,-249.4 1221,-249.4 1227,-249.4 1233,-255.4 1233,-261.4 1233,-261.4 1233,-273.4 1233,-273.4 1233,-279.4 1227,-285.4 1221,-285.4"/>
<text text-anchor="middle" x="1096.5" y="-263.7" font-family="Times,serif" font-size="14.00">universe&#45;localization&#45;mapping&#45;devel</text>
</g>
<!-- stage_3&#45;&gt;stage_8 -->
<g id="edge23" class="edge">
<title>stage_3&#45;&gt;stage_8</title>
<path fill="none" stroke="black" stroke-dasharray="5,2" d="M924,-268.91C932.65,-268.84 941.3,-268.76 949.87,-268.68"/>
<polygon fill="none" stroke="black" points="949.92,-272.18 959.89,-268.6 949.86,-265.18 949.92,-272.18"/>
</g>
<!-- stage_4&#45;&gt;stage_11 -->
<g id="edge40" class="edge">
<title>stage_4&#45;&gt;stage_11</title>
<path fill="none" stroke="black" stroke-dasharray="5,2" d="M1190.85,-311.88C1270.05,-299.8 1386.5,-280.61 1487,-258.4 1498.19,-255.93 1509.97,-253.04 1521.45,-250.06"/>
<polygon fill="none" stroke="black" points="1522.67,-253.35 1531.44,-247.42 1520.88,-246.59 1522.67,-253.35"/>
</g>
<!-- stage_9 -->
<g id="node15" class="node">
<title>stage_9</title>
<path fill="none" stroke="black" d="M1438,-247.4C1438,-247.4 1318,-247.4 1318,-247.4 1312,-247.4 1306,-241.4 1306,-235.4 1306,-235.4 1306,-223.4 1306,-223.4 1306,-217.4 1312,-211.4 1318,-211.4 1318,-211.4 1438,-211.4 1438,-211.4 1444,-211.4 1450,-217.4 1450,-223.4 1450,-223.4 1450,-235.4 1450,-235.4 1450,-241.4 1444,-247.4 1438,-247.4"/>
<text text-anchor="middle" x="1378" y="-225.7" font-family="Times,serif" font-size="14.00">universe&#45;devel</text>
</g>
<!-- stage_4&#45;&gt;stage_9 -->
<g id="edge26" class="edge">
<title>stage_4&#45;&gt;stage_9</title>
<path fill="none" stroke="black" stroke-dasharray="5,2" d="M1190.82,-308.32C1205.09,-304.88 1219.54,-300.91 1233,-296.4 1268.35,-284.56 1306.53,-266.54 1334.69,-252.17"/>
<polygon fill="none" stroke="black" points="1336.56,-255.14 1343.84,-247.45 1333.35,-248.92 1336.56,-255.14"/>
</g>
<!-- stage_6&#45;&gt;stage_7 -->
<g id="edge42" class="edge">
<title>stage_6&#45;&gt;stage_7</title>
<path fill="none" stroke="black" d="M846.33,-199.21C881.28,-194.19 921.88,-188.35 960.03,-182.87"/>
<polygon fill="black" stroke="black" points="960.79,-186.3 970.19,-181.41 959.8,-179.37 960.79,-186.3"/>
</g>
<!-- stage_6&#45;&gt;stage_8 -->
<g id="edge43" class="edge">
<title>stage_6&#45;&gt;stage_8</title>
<path fill="none" stroke="black" d="M846.33,-227.21C885.5,-233.53 931.77,-241 973.74,-247.76"/>
<polygon fill="black" stroke="black" points="973.31,-251.24 983.74,-249.38 974.43,-244.33 973.31,-251.24"/>
</g>
<!-- stage_6&#45;&gt;stage_9 -->
<g id="edge44" class="edge">
<title>stage_6&#45;&gt;stage_9</title>
<path fill="none" stroke="black" d="M846.02,-214.9C967.4,-218.22 1179.77,-224.02 1295.75,-227.18"/>
<polygon fill="black" stroke="black" points="1295.89,-230.69 1305.98,-227.46 1296.08,-223.69 1295.89,-230.69"/>
</g>
<!-- stage_7&#45;&gt;stage_10 -->
<g id="edge46" class="edge">
<title>stage_7&#45;&gt;stage_10</title>
<path fill="none" stroke="black" stroke-dasharray="5,2" d="M1176.23,-145.33C1195.01,-140.4 1214.86,-134.67 1233,-128.4 1266.48,-116.84 1303.04,-100.8 1330.94,-87.8"/>
<polygon fill="none" stroke="black" points="1332.49,-90.94 1340.06,-83.52 1329.52,-84.6 1332.49,-90.94"/>
</g>
<!-- stage_7&#45;&gt;stage_9 -->
<g id="edge45" class="edge">
<title>stage_7&#45;&gt;stage_9</title>
<path fill="none" stroke="black" stroke-dasharray="5,2" d="M1173.87,-181.44C1211.71,-190.37 1257.41,-201.16 1295.87,-210.25"/>
<polygon fill="none" stroke="black" points="1295.46,-213.74 1306,-212.64 1297.07,-206.93 1295.46,-213.74"/>
</g>
<!-- stage_8&#45;&gt;stage_9 -->
<g id="edge47" class="edge">
<title>stage_8&#45;&gt;stage_9</title>
<path fill="none" stroke="black" stroke-dasharray="5,2" d="M1230.29,-249.35C1252.69,-246.3 1275.32,-243.23 1295.88,-240.43"/>
<polygon fill="none" stroke="black" points="1296.36,-243.9 1305.8,-239.08 1295.42,-236.96 1296.36,-243.9"/>
</g>
<!-- stage_9&#45;&gt;stage_11 -->
<g id="edge48" class="edge">
<title>stage_9&#45;&gt;stage_11</title>
<path fill="none" stroke="black" stroke-dasharray="5,2" d="M1450.29,-229.4C1470.27,-229.4 1492.13,-229.4 1512.64,-229.4"/>
<polygon fill="none" stroke="black" points="1512.9,-232.9 1522.9,-229.4 1512.9,-225.9 1512.9,-232.9"/>
</g>
</g>
</svg>
