<?xml version="1.0" encoding="UTF-8" standalone="no"?>
<!DOCTYPE svg PUBLIC "-//W3C//DTD SVG 1.1//EN" "http://www.w3.org/Graphics/SVG/1.1/DTD/svg11.dtd">
<!-- Generated by graphviz version 12.2.1 (20241206.2353)
 -->
<!-- Title: G Pages: 1 -->
<svg width="2023pt" height="1123pt" viewBox="0.00 0.00 2023.00 1122.63" xmlns="http://www.w3.org/2000/svg" xmlns:xlink="http://www.w3.org/1999/xlink">
  <g id="graph0" class="graph" transform="scale(1 1) rotate(0) translate(4 1118.63)">
    <title>G</title>
    <polygon fill="white" stroke="none" points="-4,4 -4,-1118.63 2019,-1118.63 2019,4 -4,4"/>
    <g id="clust1" class="cluster">
      <title>cluster_legend</title>
      <polygon fill="none" stroke="black" points="8,-303.18 8,-377.18 353.12,-377.18 353.12,-303.18 8,-303.18"/>
    </g>
    <!-- key -->
    <g id="node1" class="node">
      <title>key</title>
      <text text-anchor="start" x="122" y="-353.8" font-family="monospace" font-size="10.00">FROM ...</text>
      <text text-anchor="start" x="80" y="-337.05" font-family="monospace" font-size="10.00">COPY &#45;&#45;from=... </text>
      <text text-anchor="start" x="26" y="-320.3" font-family="monospace" font-size="10.00">RUN &#45;&#45;mount=(.*)from=... </text>
    </g>
    <!-- key2 -->
    <g id="node2" class="node">
      <title>key2</title>
      <text text-anchor="start" x="315.12" y="-353.8" font-family="monospace" font-size="10.00"/>
      <text text-anchor="start" x="315.12" y="-337.05" font-family="monospace" font-size="10.00"/>
      <text text-anchor="start" x="315.12" y="-320.3" font-family="monospace" font-size="10.00"/>
    </g>
    <!-- key&#45;&gt;key2 -->
    <g id="edge1" class="edge">
      <title>key:e&#45;&gt;key2:w</title>
      <path fill="none" stroke="black" d="M179,-356.93C234.24,-356.93 250.8,-356.93 300.9,-356.93"/>
      <polygon fill="black" stroke="black" points="300.61,-360.43 310.61,-356.93 300.61,-353.43 300.61,-360.43"/>
    </g>
    <!-- key&#45;&gt;key2 -->
    <g id="edge2" class="edge">
      <title>key:e&#45;&gt;key2:w</title>
      <path fill="none" stroke="black" d="M179,-340.18C234.24,-340.18 250.8,-340.18 300.9,-340.18"/>
      <polygon fill="none" stroke="black" points="300.61,-343.68 310.61,-340.18 300.61,-336.68 300.61,-343.68"/>
    </g>
    <!-- key&#45;&gt;key2 -->
    <g id="edge3" class="edge">
      <title>key:e&#45;&gt;key2:w</title>
      <path fill="none" stroke="black" d="M179,-323.43C233.66,-323.43 250.45,-323.43 299.34,-323.43"/>
      <polygon fill="none" stroke="black" points="299.22,-323.43 305.22,-319.43 311.22,-323.43 305.22,-327.43 299.22,-323.43"/>
    </g>
    <!-- external_image_0 -->
    <g id="node3" class="node">
      <title>external_image_0</title>
      <path
        fill="none"
        stroke="#333333"
        stroke-dasharray="5,2"
        d="M161,-508.18C161,-508.18 41,-508.18 41,-508.18 35,-508.18 29,-502.18 29,-496.18 29,-496.18 29,-484.18 29,-484.18 29,-478.18 35,-472.18 41,-472.18 41,-472.18 161,-472.18 161,-472.18 167,-472.18 173,-478.18 173,-484.18 173,-484.18 173,-496.18 173,-496.18 173,-502.18 167,-508.18 161,-508.18"
      />
      <text text-anchor="middle" x="101" y="-485.13" font-family="Times,serif" font-size="14.00" fill="#333333">$BASE_IMAGE</text>
    </g>
    <!-- stage_0 -->
    <g id="node4" class="node">
      <title>stage_0</title>
      <path
        fill="none"
        stroke="black"
        d="M378.12,-508.18C378.12,-508.18 258.12,-508.18 258.12,-508.18 252.12,-508.18 246.12,-502.18 246.12,-496.18 246.12,-496.18 246.12,-484.18 246.12,-484.18 246.12,-478.18 252.12,-472.18 258.12,-472.18 258.12,-472.18 378.12,-472.18 378.12,-472.18 384.12,-472.18 390.12,-478.18 390.12,-484.18 390.12,-484.18 390.12,-496.18 390.12,-496.18 390.12,-502.18 384.12,-508.18 378.12,-508.18"
      />
      <text text-anchor="middle" x="318.12" y="-485.13" font-family="Times,serif" font-size="14.00">rosdep&#45;depend</text>
    </g>
    <!-- external_image_0&#45;&gt;stage_0 -->
    <g id="edge4" class="edge">
      <title>external_image_0&#45;&gt;stage_0</title>
      <path fill="none" stroke="black" d="M173.33,-490.18C192.95,-490.18 214.39,-490.18 234.59,-490.18"/>
      <polygon fill="black" stroke="black" points="234.47,-493.68 244.47,-490.18 234.47,-486.68 234.47,-493.68"/>
    </g>
    <!-- stage_1 -->
    <g id="node5" class="node">
      <title>stage_1</title>
      <path
        fill="none"
        stroke="black"
        d="M1040.75,-331.18C1040.75,-331.18 845.5,-331.18 845.5,-331.18 839.5,-331.18 833.5,-325.18 833.5,-319.18 833.5,-319.18 833.5,-307.18 833.5,-307.18 833.5,-301.18 839.5,-295.18 845.5,-295.18 845.5,-295.18 1040.75,-295.18 1040.75,-295.18 1046.75,-295.18 1052.75,-301.18 1052.75,-307.18 1052.75,-307.18 1052.75,-319.18 1052.75,-319.18 1052.75,-325.18 1046.75,-331.18 1040.75,-331.18"
      />
      <text text-anchor="middle" x="943.12" y="-308.13" font-family="Times,serif" font-size="14.00">rosdep&#45;universe&#45;visualization&#45;depend</text>
    </g>
    <!-- stage_0&#45;&gt;stage_1 -->
    <g id="edge5" class="edge">
      <title>stage_0&#45;&gt;stage_1</title>
      <path
        fill="none"
        stroke="black"
        d="M523.25,-501.18C556.32,-503.72 566.75,-496.73 594.25,-478.18 614.91,-464.24 610.8,-450.76 630.25,-435.18 700.53,-378.88 725.56,-372.77 810.25,-342.18 817.75,-339.47 825.59,-336.96 833.54,-334.66"
      />
      <polygon fill="black" stroke="black" points="834.28,-338.09 842.98,-332.05 832.41,-331.35 834.28,-338.09"/>
      <path fill="none" stroke="black" d="M390.33,-492.61C429.1,-494.29 477.87,-497 521.25,-501.18"/>
    </g>
    <!-- stage_2 -->
    <g id="node6" class="node">
      <title>stage_2</title>
      <path
        fill="none"
        stroke="black"
        d="M1057.25,-747.18C1057.25,-747.18 829,-747.18 829,-747.18 823,-747.18 817,-741.18 817,-735.18 817,-735.18 817,-723.18 817,-723.18 817,-717.18 823,-711.18 829,-711.18 829,-711.18 1057.25,-711.18 1057.25,-711.18 1063.25,-711.18 1069.25,-717.18 1069.25,-723.18 1069.25,-723.18 1069.25,-735.18 1069.25,-735.18 1069.25,-741.18 1063.25,-747.18 1057.25,-747.18"
      />
      <text text-anchor="middle" x="943.12" y="-724.13" font-family="Times,serif" font-size="14.00">rosdep&#45;universe&#45;sensing&#45;perception&#45;depend</text>
    </g>
    <!-- stage_0&#45;&gt;stage_2 -->
    <g id="edge6" class="edge">
      <title>stage_0&#45;&gt;stage_2</title>
      <path fill="none" stroke="black" d="M703.25,-729.18C735.03,-742.18 771.24,-746.77 805.68,-747.03"/>
      <polygon fill="black" stroke="black" points="805.3,-750.53 815.29,-746.98 805.27,-743.53 805.3,-750.53"/>
    </g>
    <!-- stage_3 -->
    <g id="node7" class="node">
      <title>stage_3</title>
      <path
        fill="none"
        stroke="black"
        d="M1064,-689.18C1064,-689.18 822.25,-689.18 822.25,-689.18 816.25,-689.18 810.25,-683.18 810.25,-677.18 810.25,-677.18 810.25,-665.18 810.25,-665.18 810.25,-659.18 816.25,-653.18 822.25,-653.18 822.25,-653.18 1064,-653.18 1064,-653.18 1070,-653.18 1076,-659.18 1076,-665.18 1076,-665.18 1076,-677.18 1076,-677.18 1076,-683.18 1070,-689.18 1064,-689.18"
      />
      <text text-anchor="middle" x="943.12" y="-666.13" font-family="Times,serif" font-size="14.00">rosdep&#45;universe&#45;localization&#45;mapping&#45;depend</text>
    </g>
    <!-- stage_0&#45;&gt;stage_3 -->
    <g id="edge7" class="edge">
      <title>stage_0&#45;&gt;stage_3</title>
      <path fill="none" stroke="black" d="M703.25,-729.18C748.85,-747.83 762.4,-711.92 810.25,-700.18 821.29,-697.47 832.88,-694.75 844.42,-692.11"/>
      <polygon fill="black" stroke="black" points="844.99,-695.57 853.97,-689.95 843.44,-688.74 844.99,-695.57"/>
    </g>
    <!-- stage_4 -->
    <g id="node8" class="node">
      <title>stage_4</title>
      <path
        fill="none"
        stroke="black"
        d="M1051.25,-469.18C1051.25,-469.18 835,-469.18 835,-469.18 829,-469.18 823,-463.18 823,-457.18 823,-457.18 823,-445.18 823,-445.18 823,-439.18 829,-433.18 835,-433.18 835,-433.18 1051.25,-433.18 1051.25,-433.18 1057.25,-433.18 1063.25,-439.18 1063.25,-445.18 1063.25,-445.18 1063.25,-457.18 1063.25,-457.18 1063.25,-463.18 1057.25,-469.18 1051.25,-469.18"
      />
      <text text-anchor="middle" x="943.12" y="-446.13" font-family="Times,serif" font-size="14.00">rosdep&#45;universe&#45;planning&#45;control&#45;depend</text>
    </g>
    <!-- stage_0&#45;&gt;stage_4 -->
    <g id="edge8" class="edge">
      <title>stage_0&#45;&gt;stage_4</title>
      <path fill="none" stroke="black" d="M703.25,-452.18C737.78,-444.56 775.81,-441.9 811.18,-441.75"/>
      <polygon fill="black" stroke="black" points="811.04,-445.25 821.05,-441.78 811.06,-438.25 811.04,-445.25"/>
    </g>
    <!-- stage_5 -->
    <g id="node9" class="node">
      <title>stage_5</title>
      <path
        fill="none"
        stroke="black"
        d="M1047.12,-389.18C1047.12,-389.18 839.12,-389.18 839.12,-389.18 833.12,-389.18 827.12,-383.18 827.12,-377.18 827.12,-377.18 827.12,-365.18 827.12,-365.18 827.12,-359.18 833.12,-353.18 839.12,-353.18 839.12,-353.18 1047.12,-353.18 1047.12,-353.18 1053.12,-353.18 1059.12,-359.18 1059.12,-365.18 1059.12,-365.18 1059.12,-377.18 1059.12,-377.18 1059.12,-383.18 1053.12,-389.18 1047.12,-389.18"
      />
      <text text-anchor="middle" x="943.12" y="-366.13" font-family="Times,serif" font-size="14.00">rosdep&#45;universe&#45;vehicle&#45;system&#45;depend</text>
    </g>
    <!-- stage_0&#45;&gt;stage_5 -->
    <g id="edge9" class="edge">
      <title>stage_0&#45;&gt;stage_5</title>
      <path fill="none" stroke="black" d="M523.25,-501.18C605.06,-507.47 621.12,-469.86 701.25,-452.18"/>
      <path fill="none" stroke="black" d="M703.25,-452.18C767.85,-437.92 839.4,-412.28 887.19,-393.66"/>
      <polygon fill="black" stroke="black" points="888.18,-397.03 896.21,-390.12 885.62,-390.52 888.18,-397.03"/>
    </g>
    <!-- stage_6 -->
    <g id="node10" class="node">
      <title>stage_6</title>
      <path
        fill="none"
        stroke="black"
        d="M1280.62,-955.18C1280.62,-955.18 1158.88,-955.18 1158.88,-955.18 1152.88,-955.18 1146.88,-949.18 1146.88,-943.18 1146.88,-943.18 1146.88,-931.18 1146.88,-931.18 1146.88,-925.18 1152.88,-919.18 1158.88,-919.18 1158.88,-919.18 1280.62,-919.18 1280.62,-919.18 1286.62,-919.18 1292.62,-925.18 1292.62,-931.18 1292.62,-931.18 1292.62,-943.18 1292.62,-943.18 1292.62,-949.18 1286.62,-955.18 1280.62,-955.18"
      />
      <text text-anchor="middle" x="1219.75" y="-932.13" font-family="Times,serif" font-size="14.00">rosdep&#45;universe&#45;depend</text>
    </g>
    <!-- stage_0&#45;&gt;stage_6 -->
    <g id="edge10" class="edge">
      <title>stage_0&#45;&gt;stage_6</title>
      <path fill="none" stroke="black" d="M703.25,-729.18C869.68,-797.25 1066.91,-876.42 1161.96,-914.47"/>
      <polygon fill="black" stroke="black" points="1160.49,-917.65 1171.08,-918.12 1163.09,-911.15 1160.49,-917.65"/>
    </g>
    <!-- stage_7 -->
    <g id="node11" class="node">
      <title>stage_7</title>
      <path
        fill="none"
        stroke="black"
        d="M582.25,-467.18C582.25,-467.18 462.25,-467.18 462.25,-467.18 456.25,-467.18 450.25,-461.18 450.25,-455.18 450.25,-455.18 450.25,-443.18 450.25,-443.18 450.25,-437.18 456.25,-431.18 462.25,-431.18 462.25,-431.18 582.25,-431.18 582.25,-431.18 588.25,-431.18 594.25,-437.18 594.25,-443.18 594.25,-443.18 594.25,-455.18 594.25,-455.18 594.25,-461.18 588.25,-467.18 582.25,-467.18"
      />
      <text text-anchor="middle" x="522.25" y="-444.13" font-family="Times,serif" font-size="14.00">core&#45;common&#45;devel</text>
    </g>
    <!-- stage_0&#45;&gt;stage_7 -->
    <g id="edge11" class="edge">
      <title>stage_0&#45;&gt;stage_7</title>
      <path fill="none" stroke="black" d="M390.39,-475.72C406.09,-472.54 422.84,-469.14 438.93,-465.87"/>
      <polygon fill="none" stroke="black" points="439.36,-469.36 448.47,-463.94 437.97,-462.5 439.36,-469.36"/>
    </g>
    <!-- stage_8 -->
    <g id="node12" class="node">
      <title>stage_8</title>
      <path
        fill="none"
        stroke="black"
        d="M762.25,-571.18C762.25,-571.18 642.25,-571.18 642.25,-571.18 636.25,-571.18 630.25,-565.18 630.25,-559.18 630.25,-559.18 630.25,-547.18 630.25,-547.18 630.25,-541.18 636.25,-535.18 642.25,-535.18 642.25,-535.18 762.25,-535.18 762.25,-535.18 768.25,-535.18 774.25,-541.18 774.25,-547.18 774.25,-547.18 774.25,-559.18 774.25,-559.18 774.25,-565.18 768.25,-571.18 762.25,-571.18"
      />
      <text text-anchor="middle" x="702.25" y="-548.13" font-family="Times,serif" font-size="14.00">core&#45;devel</text>
    </g>
    <!-- stage_0&#45;&gt;stage_8 -->
    <g id="edge18" class="edge">
      <title>stage_0&#45;&gt;stage_8</title>
      <path fill="none" stroke="black" d="M523.25,-501.18C565.87,-504.45 612.16,-518.32 646.85,-530.91"/>
      <polygon fill="none" stroke="black" points="645.21,-534.03 655.8,-534.23 647.65,-527.47 645.21,-534.03"/>
    </g>
    <!-- stage_9 -->
    <g id="node13" class="node">
      <title>stage_9</title>
      <path
        fill="none"
        stroke="black"
        d="M1005.5,-631.18C1005.5,-631.18 880.75,-631.18 880.75,-631.18 874.75,-631.18 868.75,-625.18 868.75,-619.18 868.75,-619.18 868.75,-607.18 868.75,-607.18 868.75,-601.18 874.75,-595.18 880.75,-595.18 880.75,-595.18 1005.5,-595.18 1005.5,-595.18 1011.5,-595.18 1017.5,-601.18 1017.5,-607.18 1017.5,-607.18 1017.5,-619.18 1017.5,-619.18 1017.5,-625.18 1011.5,-631.18 1005.5,-631.18"
      />
      <text text-anchor="middle" x="943.12" y="-608.13" font-family="Times,serif" font-size="14.00">universe&#45;common&#45;devel</text>
    </g>
    <!-- stage_0&#45;&gt;stage_9 -->
    <g id="edge20" class="edge">
      <title>stage_0&#45;&gt;stage_9</title>
      <path fill="none" stroke="black" d="M703.25,-729.18C759.98,-752.38 755.05,-668.81 810.25,-642.18 824.92,-635.1 841.33,-629.73 857.47,-625.66"/>
      <polygon fill="none" stroke="black" points="858.17,-629.09 867.1,-623.39 856.57,-622.28 858.17,-629.09"/>
      <path fill="none" stroke="black" d="M523.25,-501.18C651.43,-511.03 582.26,-680.51 701.25,-729.18"/>
    </g>
    <!-- stage_19 -->
    <g id="node14" class="node">
      <title>stage_19</title>
      <path
        fill="none"
        stroke="black"
        d="M1003.12,-573.18C1003.12,-573.18 883.12,-573.18 883.12,-573.18 877.12,-573.18 871.12,-567.18 871.12,-561.18 871.12,-561.18 871.12,-549.18 871.12,-549.18 871.12,-543.18 877.12,-537.18 883.12,-537.18 883.12,-537.18 1003.12,-537.18 1003.12,-537.18 1009.12,-537.18 1015.12,-543.18 1015.12,-549.18 1015.12,-549.18 1015.12,-561.18 1015.12,-561.18 1015.12,-567.18 1009.12,-573.18 1003.12,-573.18"
      />
      <text text-anchor="middle" x="943.12" y="-550.13" font-family="Times,serif" font-size="14.00">core</text>
    </g>
    <!-- stage_0&#45;&gt;stage_19 -->
    <g id="edge23" class="edge">
      <title>stage_0&#45;&gt;stage_19</title>
      <path fill="none" stroke="black" d="M523.25,-501.18C602.13,-507.24 624.62,-481.54 701.25,-501.18"/>
    </g>
    <!-- stage_16 -->
    <g id="node15" class="node">
      <title>stage_16</title>
      <path
        fill="none"
        stroke="black"
        d="M1292.25,-331.18C1292.25,-331.18 1147.25,-331.18 1147.25,-331.18 1141.25,-331.18 1135.25,-325.18 1135.25,-319.18 1135.25,-319.18 1135.25,-307.18 1135.25,-307.18 1135.25,-301.18 1141.25,-295.18 1147.25,-295.18 1147.25,-295.18 1292.25,-295.18 1292.25,-295.18 1298.25,-295.18 1304.25,-301.18 1304.25,-307.18 1304.25,-307.18 1304.25,-319.18 1304.25,-319.18 1304.25,-325.18 1298.25,-331.18 1292.25,-331.18"
      />
      <text text-anchor="middle" x="1219.75" y="-308.13" font-family="Times,serif" font-size="14.00">universe&#45;visualization&#45;devel</text>
    </g>
    <!-- stage_1&#45;&gt;stage_16 -->
    <g id="edge24" class="edge">
      <title>stage_1&#45;&gt;stage_16</title>
      <path fill="none" stroke="black" d="M1053.06,-313.18C1076.37,-313.18 1100.83,-313.18 1123.58,-313.18"/>
      <polygon fill="none" stroke="black" points="1123.44,-316.68 1133.44,-313.18 1123.44,-309.68 1123.44,-316.68"/>
    </g>
    <!-- stage_25 -->
    <g id="node16" class="node">
      <title>stage_25</title>
      <path
        fill="none"
        stroke="black"
        d="M1542.12,-83.18C1542.12,-83.18 1422.12,-83.18 1422.12,-83.18 1416.12,-83.18 1410.12,-77.18 1410.12,-71.18 1410.12,-71.18 1410.12,-59.18 1410.12,-59.18 1410.12,-53.18 1416.12,-47.18 1422.12,-47.18 1422.12,-47.18 1542.12,-47.18 1542.12,-47.18 1548.12,-47.18 1554.12,-53.18 1554.12,-59.18 1554.12,-59.18 1554.12,-71.18 1554.12,-71.18 1554.12,-77.18 1548.12,-83.18 1542.12,-83.18"
      />
      <text text-anchor="middle" x="1482.12" y="-60.13" font-family="Times,serif" font-size="14.00">universe&#45;visualization</text>
    </g>
    <!-- stage_1&#45;&gt;stage_25 -->
    <g id="edge26" class="edge">
      <title>stage_1&#45;&gt;stage_25</title>
      <path
        fill="none"
        stroke="black"
        d="M965.73,-294.77C996.37,-269.56 1055.05,-224.42 1112,-198.18 1202.08,-156.67 1244.8,-194.93 1327.5,-140.18 1349.15,-125.85 1341.7,-108.28 1363.5,-94.18 1374.22,-87.24 1386.47,-81.96 1398.93,-77.95"
      />
      <polygon fill="none" stroke="black" points="1399.83,-81.33 1408.44,-75.16 1397.86,-74.61 1399.83,-81.33"/>
    </g>
    <!-- stage_11 -->
    <g id="node17" class="node">
      <title>stage_11</title>
      <path
        fill="none"
        stroke="black"
        d="M1308.75,-747.18C1308.75,-747.18 1130.75,-747.18 1130.75,-747.18 1124.75,-747.18 1118.75,-741.18 1118.75,-735.18 1118.75,-735.18 1118.75,-723.18 1118.75,-723.18 1118.75,-717.18 1124.75,-711.18 1130.75,-711.18 1130.75,-711.18 1308.75,-711.18 1308.75,-711.18 1314.75,-711.18 1320.75,-717.18 1320.75,-723.18 1320.75,-723.18 1320.75,-735.18 1320.75,-735.18 1320.75,-741.18 1314.75,-747.18 1308.75,-747.18"
      />
      <text text-anchor="middle" x="1219.75" y="-724.13" font-family="Times,serif" font-size="14.00">universe&#45;sensing&#45;perception&#45;devel</text>
    </g>
    <!-- stage_2&#45;&gt;stage_11 -->
    <g id="edge27" class="edge">
      <title>stage_2&#45;&gt;stage_11</title>
      <path fill="none" stroke="black" d="M1069.38,-729.18C1081.95,-729.18 1094.65,-729.18 1107.06,-729.18"/>
      <polygon fill="none" stroke="black" points="1106.85,-732.68 1116.85,-729.18 1106.85,-725.68 1106.85,-732.68"/>
    </g>
    <!-- stage_12 -->
    <g id="node18" class="node">
      <title>stage_12</title>
      <path
        fill="none"
        stroke="black"
        d="M1586.12,-903.18C1586.12,-903.18 1378.12,-903.18 1378.12,-903.18 1372.12,-903.18 1366.12,-897.18 1366.12,-891.18 1366.12,-891.18 1366.12,-879.18 1366.12,-879.18 1366.12,-873.18 1372.12,-867.18 1378.12,-867.18 1378.12,-867.18 1586.12,-867.18 1586.12,-867.18 1592.12,-867.18 1598.12,-873.18 1598.12,-879.18 1598.12,-879.18 1598.12,-891.18 1598.12,-891.18 1598.12,-897.18 1592.12,-903.18 1586.12,-903.18"
      />
      <text text-anchor="middle" x="1482.12" y="-880.13" font-family="Times,serif" font-size="14.00">universe&#45;sensing&#45;perception&#45;devel&#45;cuda</text>
    </g>
    <!-- stage_2&#45;&gt;stage_12 -->
    <g id="edge30" class="edge">
      <title>stage_2&#45;&gt;stage_12</title>
      <path fill="none" stroke="black" d="M1051.1,-747.61C1060.16,-752.03 1068.65,-757.48 1076,-764.18 1110.29,-795.43 1074.8,-834.45 1112,-862.18 1149.37,-890.03 1263.09,-893.69 1354.53,-891.64"/>
      <polygon fill="none" stroke="black" points="1354.43,-895.14 1364.34,-891.39 1354.25,-888.14 1354.43,-895.14"/>
    </g>
    <!-- stage_20 -->
    <g id="node19" class="node">
      <title>stage_20</title>
      <path
        fill="none"
        stroke="black"
        d="M1554.25,-747.18C1554.25,-747.18 1410,-747.18 1410,-747.18 1404,-747.18 1398,-741.18 1398,-735.18 1398,-735.18 1398,-723.18 1398,-723.18 1398,-717.18 1404,-711.18 1410,-711.18 1410,-711.18 1554.25,-711.18 1554.25,-711.18 1560.25,-711.18 1566.25,-717.18 1566.25,-723.18 1566.25,-723.18 1566.25,-735.18 1566.25,-735.18 1566.25,-741.18 1560.25,-747.18 1554.25,-747.18"
      />
      <text text-anchor="middle" x="1482.12" y="-724.13" font-family="Times,serif" font-size="14.00">universe&#45;sensing&#45;perception</text>
    </g>
    <!-- stage_2&#45;&gt;stage_20 -->
    <g id="edge33" class="edge">
      <title>stage_2&#45;&gt;stage_20</title>
      <path fill="none" stroke="black" d="M1033.93,-747.61C1059.08,-751.97 1086.51,-755.99 1112,-758.18 1207.43,-766.36 1232.14,-767.1 1327.5,-758.18 1347.13,-756.34 1367.99,-753.21 1387.8,-749.67"/>
      <polygon fill="none" stroke="black" points="1388.32,-753.13 1397.52,-747.88 1387.05,-746.25 1388.32,-753.13"/>
    </g>
    <!-- stage_21 -->
    <g id="node20" class="node">
      <title>stage_21</title>
      <path
        fill="none"
        stroke="black"
        d="M1823,-1007.18C1823,-1007.18 1648.75,-1007.18 1648.75,-1007.18 1642.75,-1007.18 1636.75,-1001.18 1636.75,-995.18 1636.75,-995.18 1636.75,-983.18 1636.75,-983.18 1636.75,-977.18 1642.75,-971.18 1648.75,-971.18 1648.75,-971.18 1823,-971.18 1823,-971.18 1829,-971.18 1835,-977.18 1835,-983.18 1835,-983.18 1835,-995.18 1835,-995.18 1835,-1001.18 1829,-1007.18 1823,-1007.18"
      />
      <text text-anchor="middle" x="1735.88" y="-984.13" font-family="Times,serif" font-size="14.00">universe&#45;sensing&#45;perception&#45;cuda</text>
    </g>
    <!-- stage_2&#45;&gt;stage_21 -->
    <g id="edge34" class="edge">
      <title>stage_2&#45;&gt;stage_21</title>
      <path fill="none" stroke="black" d="M950.51,-747.45C967.86,-794.01 1020.85,-916.89 1112,-966.18 1197.61,-1012.47 1470.42,-1005.06 1625.1,-996.57"/>
      <polygon fill="none" stroke="black" points="1625.19,-1000.07 1634.98,-996.01 1624.8,-993.08 1625.19,-1000.07"/>
    </g>
    <!-- stage_13 -->
    <g id="node21" class="node">
      <title>stage_13</title>
      <path
        fill="none"
        stroke="black"
        d="M1315.5,-597.18C1315.5,-597.18 1124,-597.18 1124,-597.18 1118,-597.18 1112,-591.18 1112,-585.18 1112,-585.18 1112,-573.18 1112,-573.18 1112,-567.18 1118,-561.18 1124,-561.18 1124,-561.18 1315.5,-561.18 1315.5,-561.18 1321.5,-561.18 1327.5,-567.18 1327.5,-573.18 1327.5,-573.18 1327.5,-585.18 1327.5,-585.18 1327.5,-591.18 1321.5,-597.18 1315.5,-597.18"
      />
      <text text-anchor="middle" x="1219.75" y="-574.13" font-family="Times,serif" font-size="14.00">universe&#45;localization&#45;mapping&#45;devel</text>
    </g>
    <!-- stage_3&#45;&gt;stage_13 -->
    <g id="edge35" class="edge">
      <title>stage_3&#45;&gt;stage_13</title>
      <path fill="none" stroke="black" d="M1048.87,-652.7C1058.23,-649.69 1067.41,-646.21 1076,-642.18 1094.35,-633.57 1094.11,-623.7 1112,-614.18 1120.85,-609.47 1130.45,-605.24 1140.15,-601.49"/>
      <polygon fill="none" stroke="black" points="1141.08,-604.87 1149.25,-598.13 1138.65,-598.31 1141.08,-604.87"/>
    </g>
    <!-- stage_22 -->
    <g id="node22" class="node">
      <title>stage_22</title>
      <path
        fill="none"
        stroke="black"
        d="M1561,-603.18C1561,-603.18 1403.25,-603.18 1403.25,-603.18 1397.25,-603.18 1391.25,-597.18 1391.25,-591.18 1391.25,-591.18 1391.25,-579.18 1391.25,-579.18 1391.25,-573.18 1397.25,-567.18 1403.25,-567.18 1403.25,-567.18 1561,-567.18 1561,-567.18 1567,-567.18 1573,-573.18 1573,-579.18 1573,-579.18 1573,-591.18 1573,-591.18 1573,-597.18 1567,-603.18 1561,-603.18"
      />
      <text text-anchor="middle" x="1482.12" y="-580.13" font-family="Times,serif" font-size="14.00">universe&#45;localization&#45;mapping</text>
    </g>
    <!-- stage_3&#45;&gt;stage_22 -->
    <g id="edge38" class="edge">
      <title>stage_3&#45;&gt;stage_22</title>
      <path fill="none" stroke="black" d="M1059.32,-652.73C1154.59,-637.47 1288.56,-616.02 1379.79,-601.41"/>
      <polygon fill="none" stroke="black" points="1380.16,-604.89 1389.48,-599.85 1379.05,-597.98 1380.16,-604.89"/>
    </g>
    <!-- stage_14 -->
    <g id="node23" class="node">
      <title>stage_14</title>
      <path
        fill="none"
        stroke="black"
        d="M1302.75,-447.18C1302.75,-447.18 1136.75,-447.18 1136.75,-447.18 1130.75,-447.18 1124.75,-441.18 1124.75,-435.18 1124.75,-435.18 1124.75,-423.18 1124.75,-423.18 1124.75,-417.18 1130.75,-411.18 1136.75,-411.18 1136.75,-411.18 1302.75,-411.18 1302.75,-411.18 1308.75,-411.18 1314.75,-417.18 1314.75,-423.18 1314.75,-423.18 1314.75,-435.18 1314.75,-435.18 1314.75,-441.18 1308.75,-447.18 1302.75,-447.18"
      />
      <text text-anchor="middle" x="1219.75" y="-424.13" font-family="Times,serif" font-size="14.00">universe&#45;planning&#45;control&#45;devel</text>
    </g>
    <!-- stage_4&#45;&gt;stage_14 -->
    <g id="edge39" class="edge">
      <title>stage_4&#45;&gt;stage_14</title>
      <path fill="none" stroke="black" d="M1063.38,-441.62C1079.96,-440.3 1096.91,-438.94 1113.21,-437.63"/>
      <polygon fill="none" stroke="black" points="1113.19,-441.14 1122.88,-436.86 1112.63,-434.17 1113.19,-441.14"/>
    </g>
    <!-- stage_23 -->
    <g id="node24" class="node">
      <title>stage_23</title>
      <path
        fill="none"
        stroke="black"
        d="M1548.25,-199.18C1548.25,-199.18 1416,-199.18 1416,-199.18 1410,-199.18 1404,-193.18 1404,-187.18 1404,-187.18 1404,-175.18 1404,-175.18 1404,-169.18 1410,-163.18 1416,-163.18 1416,-163.18 1548.25,-163.18 1548.25,-163.18 1554.25,-163.18 1560.25,-169.18 1560.25,-175.18 1560.25,-175.18 1560.25,-187.18 1560.25,-187.18 1560.25,-193.18 1554.25,-199.18 1548.25,-199.18"
      />
      <text text-anchor="middle" x="1482.12" y="-176.13" font-family="Times,serif" font-size="14.00">universe&#45;planning&#45;control</text>
    </g>
    <!-- stage_4&#45;&gt;stage_23 -->
    <g id="edge46" class="edge">
      <title>stage_4&#45;&gt;stage_23</title>
      <path
        fill="none"
        stroke="black"
        d="M1025.38,-432.77C1044.02,-425.28 1062.34,-414.8 1076,-400.18 1112.85,-360.73 1072.63,-321.1 1112,-284.18 1183.87,-216.78 1232.77,-259.28 1327.5,-232.18 1357.67,-223.55 1390.76,-212.74 1418.47,-203.3"
      />
      <polygon fill="none" stroke="black" points="1419.44,-206.66 1427.77,-200.11 1417.17,-200.04 1419.44,-206.66"/>
    </g>
    <!-- stage_15 -->
    <g id="node25" class="node">
      <title>stage_15</title>
      <path
        fill="none"
        stroke="black"
        d="M1298.62,-389.18C1298.62,-389.18 1140.88,-389.18 1140.88,-389.18 1134.88,-389.18 1128.88,-383.18 1128.88,-377.18 1128.88,-377.18 1128.88,-365.18 1128.88,-365.18 1128.88,-359.18 1134.88,-353.18 1140.88,-353.18 1140.88,-353.18 1298.62,-353.18 1298.62,-353.18 1304.62,-353.18 1310.62,-359.18 1310.62,-365.18 1310.62,-365.18 1310.62,-377.18 1310.62,-377.18 1310.62,-383.18 1304.62,-389.18 1298.62,-389.18"
      />
      <text text-anchor="middle" x="1219.75" y="-366.13" font-family="Times,serif" font-size="14.00">universe&#45;vehicle&#45;system&#45;devel</text>
    </g>
    <!-- stage_5&#45;&gt;stage_15 -->
    <g id="edge47" class="edge">
      <title>stage_5&#45;&gt;stage_15</title>
      <path fill="none" stroke="black" d="M1059.4,-371.18C1078.57,-371.18 1098.33,-371.18 1117.14,-371.18"/>
      <polygon fill="none" stroke="black" points="1116.88,-374.68 1126.88,-371.18 1116.88,-367.68 1116.88,-374.68"/>
    </g>
    <!-- stage_24 -->
    <g id="node26" class="node">
      <title>stage_24</title>
      <path
        fill="none"
        stroke="black"
        d="M1544.12,-141.18C1544.12,-141.18 1420.12,-141.18 1420.12,-141.18 1414.12,-141.18 1408.12,-135.18 1408.12,-129.18 1408.12,-129.18 1408.12,-117.18 1408.12,-117.18 1408.12,-111.18 1414.12,-105.18 1420.12,-105.18 1420.12,-105.18 1544.12,-105.18 1544.12,-105.18 1550.12,-105.18 1556.12,-111.18 1556.12,-117.18 1556.12,-117.18 1556.12,-129.18 1556.12,-129.18 1556.12,-135.18 1550.12,-141.18 1544.12,-141.18"
      />
      <text text-anchor="middle" x="1482.12" y="-118.13" font-family="Times,serif" font-size="14.00">universe&#45;vehicle&#45;system</text>
    </g>
    <!-- stage_5&#45;&gt;stage_24 -->
    <g id="edge52" class="edge">
      <title>stage_5&#45;&gt;stage_24</title>
      <path
        fill="none"
        stroke="black"
        d="M1059.54,-353.58C1065.42,-350.35 1070.97,-346.57 1076,-342.18 1110.96,-311.66 1077.76,-275.49 1112,-244.18 1185.19,-177.24 1240.93,-234.59 1327.5,-186.18 1346.71,-175.44 1344.18,-162.71 1363.5,-152.18 1373.78,-146.57 1385.16,-142.03 1396.67,-138.36"
      />
      <polygon fill="none" stroke="black" points="1397.66,-141.71 1406.26,-135.52 1395.68,-135 1397.66,-141.71"/>
    </g>
    <!-- stage_17 -->
    <g id="node27" class="node">
      <title>stage_17</title>
      <path
        fill="none"
        stroke="black"
        d="M1542.12,-545.18C1542.12,-545.18 1422.12,-545.18 1422.12,-545.18 1416.12,-545.18 1410.12,-539.18 1410.12,-533.18 1410.12,-533.18 1410.12,-521.18 1410.12,-521.18 1410.12,-515.18 1416.12,-509.18 1422.12,-509.18 1422.12,-509.18 1542.12,-509.18 1542.12,-509.18 1548.12,-509.18 1554.12,-515.18 1554.12,-521.18 1554.12,-521.18 1554.12,-533.18 1554.12,-533.18 1554.12,-539.18 1548.12,-545.18 1542.12,-545.18"
      />
      <text text-anchor="middle" x="1482.12" y="-522.13" font-family="Times,serif" font-size="14.00">universe&#45;devel</text>
    </g>
    <!-- stage_6&#45;&gt;stage_17 -->
    <g id="edge53" class="edge">
      <title>stage_6&#45;&gt;stage_17</title>
      <path
        fill="none"
        stroke="black"
        d="M1262.18,-918.79C1285.34,-906.27 1312.48,-887.37 1327.5,-862.18 1397.64,-744.56 1272.89,-658.85 1363.5,-556.18 1372.83,-545.6 1385.35,-538.58 1398.74,-533.97"
      />
      <polygon fill="none" stroke="black" points="1399.57,-537.37 1408.17,-531.19 1397.59,-530.66 1399.57,-537.37"/>
    </g>
    <!-- stage_18 -->
    <g id="node28" class="node">
      <title>stage_18</title>
      <path
        fill="none"
        stroke="black"
        d="M1795.88,-926.18C1795.88,-926.18 1675.88,-926.18 1675.88,-926.18 1669.88,-926.18 1663.88,-920.18 1663.88,-914.18 1663.88,-914.18 1663.88,-902.18 1663.88,-902.18 1663.88,-896.18 1669.88,-890.18 1675.88,-890.18 1675.88,-890.18 1795.88,-890.18 1795.88,-890.18 1801.88,-890.18 1807.88,-896.18 1807.88,-902.18 1807.88,-902.18 1807.88,-914.18 1807.88,-914.18 1807.88,-920.18 1801.88,-926.18 1795.88,-926.18"
      />
      <text text-anchor="middle" x="1735.88" y="-903.13" font-family="Times,serif" font-size="14.00">universe&#45;devel&#45;cuda</text>
    </g>
    <!-- stage_6&#45;&gt;stage_18 -->
    <g id="edge63" class="edge">
      <title>stage_6&#45;&gt;stage_18</title>
      <path fill="none" stroke="black" d="M1483.12,-937.18C1513.25,-925.95 1591.04,-918.09 1652.24,-913.41"/>
      <polygon fill="none" stroke="black" points="1652.24,-916.92 1661.95,-912.69 1651.72,-909.94 1652.24,-916.92"/>
    </g>
    <!-- stage_26 -->
    <g id="node29" class="node">
      <title>stage_26</title>
      <path
        fill="none"
        stroke="black"
        d="M1795.88,-545.18C1795.88,-545.18 1675.88,-545.18 1675.88,-545.18 1669.88,-545.18 1663.88,-539.18 1663.88,-533.18 1663.88,-533.18 1663.88,-521.18 1663.88,-521.18 1663.88,-515.18 1669.88,-509.18 1675.88,-509.18 1675.88,-509.18 1795.88,-509.18 1795.88,-509.18 1801.88,-509.18 1807.88,-515.18 1807.88,-521.18 1807.88,-521.18 1807.88,-533.18 1807.88,-533.18 1807.88,-539.18 1801.88,-545.18 1795.88,-545.18"
      />
      <text text-anchor="middle" x="1735.88" y="-522.13" font-family="Times,serif" font-size="14.00">universe</text>
    </g>
    <!-- stage_6&#45;&gt;stage_26 -->
    <g id="edge64" class="edge">
      <title>stage_6&#45;&gt;stage_26</title>
      <path fill="none" stroke="black" d="M1293.03,-950.4C1346.66,-957.11 1420.66,-959.7 1481.12,-937.18"/>
      <path fill="none" stroke="black" d="M1483.12,-937.18C1533.04,-918.58 1560.53,-949.11 1600.75,-914.18 1710.12,-819.19 1730.36,-630.32 1734.06,-557.13"/>
      <polygon fill="none" stroke="black" points="1737.56,-557.28 1734.49,-547.14 1730.57,-556.98 1737.56,-557.28"/>
    </g>
    <!-- stage_27 -->
    <g id="node30" class="node">
      <title>stage_27</title>
      <path
        fill="#e5e5e5"
        stroke="black"
        d="M2003,-1030.18C2003,-1030.18 1883,-1030.18 1883,-1030.18 1877,-1030.18 1871,-1024.18 1871,-1018.18 1871,-1018.18 1871,-1006.18 1871,-1006.18 1871,-1000.18 1877,-994.18 1883,-994.18 1883,-994.18 2003,-994.18 2003,-994.18 2009,-994.18 2015,-1000.18 2015,-1006.18 2015,-1006.18 2015,-1018.18 2015,-1018.18 2015,-1024.18 2009,-1030.18 2003,-1030.18"
      />
      <text text-anchor="middle" x="1943" y="-1007.13" font-family="Times,serif" font-size="14.00">universe&#45;cuda</text>
    </g>
    <!-- stage_6&#45;&gt;stage_27 -->
    <g id="edge65" class="edge">
      <title>stage_6&#45;&gt;stage_27</title>
      <path fill="none" stroke="black" d="M1233.59,-955.5C1255.96,-985.73 1305.31,-1045.16 1363.5,-1070.18 1515.43,-1135.48 1571.02,-1115.49 1734.88,-1093.18"/>
    </g>
    <!-- stage_7&#45;&gt;stage_8 -->
    <g id="edge74" class="edge">
      <title>stage_7&#45;&gt;stage_8</title>
      <path fill="none" stroke="black" d="M565.73,-467.54C575.42,-472.42 585.45,-478.06 594.25,-484.18 612.32,-496.74 612.18,-505.62 630.25,-518.18 636.03,-522.19 642.33,-526 648.72,-529.53"/>
      <polygon fill="black" stroke="black" points="646.96,-532.55 657.43,-534.11 650.22,-526.36 646.96,-532.55"/>
    </g>
    <!-- stage_8&#45;&gt;stage_9 -->
    <g id="edge75" class="edge">
      <title>stage_8&#45;&gt;stage_9</title>
      <path fill="none" stroke="black" d="M764.45,-571.66C779.38,-575.96 795.35,-580.38 810.25,-584.18 825.48,-588.05 841.77,-591.89 857.53,-595.44"/>
      <polygon fill="black" stroke="black" points="856.34,-598.76 866.86,-597.52 857.86,-591.92 856.34,-598.76"/>
    </g>
    <!-- stage_8&#45;&gt;stage_19 -->
    <g id="edge76" class="edge">
      <title>stage_8&#45;&gt;stage_19</title>
      <path fill="none" stroke="black" d="M774.6,-553.77C801.3,-554 831.85,-554.25 859.49,-554.49"/>
      <polygon fill="none" stroke="black" points="859.19,-557.98 869.22,-554.57 859.25,-550.98 859.19,-557.98"/>
    </g>
    <!-- stage_9&#45;&gt;stage_16 -->
    <g id="edge82" class="edge">
      <title>stage_9&#45;&gt;stage_16</title>
      <path fill="none" stroke="black" d="M1018,-612.32C1039.42,-608.39 1061.04,-600.2 1076,-584.18 1150.2,-504.69 1039.76,-423.45 1112,-342.18 1115.85,-337.85 1120.27,-334.14 1125.08,-330.96"/>
      <polygon fill="black" stroke="black" points="1126.47,-334.19 1133.44,-326.22 1123.01,-328.1 1126.47,-334.19"/>
    </g>
    <!-- stage_9&#45;&gt;stage_11 -->
    <g id="edge78" class="edge">
      <title>stage_9&#45;&gt;stage_11</title>
      <path fill="none" stroke="black" d="M1017.83,-619.41C1037.93,-623.67 1058.87,-630.69 1076,-642.18 1099.34,-657.84 1089.47,-677.37 1112,-694.18 1118.04,-698.68 1124.69,-702.63 1131.62,-706.07"/>
      <polygon fill="black" stroke="black" points="1130.02,-709.19 1140.57,-710.15 1132.92,-702.82 1130.02,-709.19"/>
    </g>
    <!-- stage_9&#45;&gt;stage_13 -->
    <g id="edge79" class="edge">
      <title>stage_9&#45;&gt;stage_13</title>
      <path fill="none" stroke="black" d="M1017.72,-604.07C1043.18,-600.91 1072.39,-597.3 1100.51,-593.82"/>
      <polygon fill="black" stroke="black" points="1100.65,-597.33 1110.14,-592.62 1099.79,-590.38 1100.65,-597.33"/>
    </g>
    <!-- stage_9&#45;&gt;stage_14 -->
    <g id="edge80" class="edge">
      <title>stage_9&#45;&gt;stage_14</title>
      <path fill="none" stroke="black" d="M1018,-608.81C1038.44,-604.61 1059.52,-597.16 1076,-584.18 1104.73,-561.54 1088.8,-538.45 1112,-510.18 1130.3,-487.88 1155.92,-468.17 1177.48,-453.79"/>
      <polygon fill="black" stroke="black" points="1179.31,-456.77 1185.78,-448.38 1175.49,-450.9 1179.31,-456.77"/>
    </g>
    <!-- stage_9&#45;&gt;stage_15 -->
    <g id="edge81" class="edge">
      <title>stage_9&#45;&gt;stage_15</title>
      <path fill="none" stroke="black" d="M1017.9,-611.84C1039.19,-607.86 1060.76,-599.77 1076,-584.18 1134.23,-524.57 1055.24,-461.18 1112,-400.18 1114.16,-397.85 1116.49,-395.71 1118.96,-393.73"/>
      <polygon fill="black" stroke="black" points="1120.89,-396.64 1127.17,-388.11 1116.94,-390.86 1120.89,-396.64"/>
    </g>
    <!-- stage_9&#45;&gt;stage_17 -->
    <g id="edge83" class="edge">
      <title>stage_9&#45;&gt;stage_17</title>
      <path fill="none" stroke="black" d="M1017.78,-604.27C1037.45,-599.97 1058.18,-593.61 1076,-584.18 1095.45,-573.89 1091.81,-558.94 1112,-550.18 1204.07,-510.21 1321.32,-510.48 1398.68,-516.74"/>
      <polygon fill="black" stroke="black" points="1398.02,-520.2 1408.29,-517.58 1398.63,-513.23 1398.02,-520.2"/>
    </g>
    <!-- stage_10 -->
    <g id="node32" class="node">
      <title>stage_10</title>
      <path
        fill="none"
        stroke="black"
        d="M1297.12,-851.18C1297.12,-851.18 1142.38,-851.18 1142.38,-851.18 1136.38,-851.18 1130.38,-845.18 1130.38,-839.18 1130.38,-839.18 1130.38,-827.18 1130.38,-827.18 1130.38,-821.18 1136.38,-815.18 1142.38,-815.18 1142.38,-815.18 1297.12,-815.18 1297.12,-815.18 1303.12,-815.18 1309.12,-821.18 1309.12,-827.18 1309.12,-827.18 1309.12,-839.18 1309.12,-839.18 1309.12,-845.18 1303.12,-851.18 1297.12,-851.18"
      />
      <text text-anchor="middle" x="1219.75" y="-828.13" font-family="Times,serif" font-size="14.00">universe&#45;common&#45;devel&#45;cuda</text>
    </g>
    <!-- stage_9&#45;&gt;stage_10 -->
    <g id="edge77" class="edge">
      <title>stage_9&#45;&gt;stage_10</title>
      <path fill="none" stroke="black" d="M1017.94,-615.73C1038.86,-619.82 1060.21,-627.66 1076,-642.18 1115.75,-678.7 1080.21,-714.55 1112,-758.18 1127.31,-779.2 1150.36,-796.45 1171.13,-809.08"/>
      <polygon fill="black" stroke="black" points="1169.08,-811.94 1179.48,-813.97 1172.62,-805.9 1169.08,-811.94"/>
    </g>
    <!-- stage_16&#45;&gt;stage_25 -->
    <g id="edge98" class="edge">
      <title>stage_16&#45;&gt;stage_25</title>
      <path fill="none" stroke="black" d="M1239.52,-294.89C1262.71,-271.46 1302.2,-228.77 1327.5,-186.18 1349.92,-148.43 1330.48,-123.12 1363.5,-94.18 1373.57,-85.35 1385.91,-79.12 1398.76,-74.74"/>
      <polygon fill="none" stroke="black" points="1399.62,-78.14 1408.19,-71.91 1397.61,-71.43 1399.62,-78.14"/>
    </g>
    <!-- stage_16&#45;&gt;stage_17 -->
    <g id="edge97" class="edge">
      <title>stage_16&#45;&gt;stage_17</title>
      <path fill="none" stroke="black" d="M1304.5,-330.5C1312.58,-333.75 1320.39,-337.61 1327.5,-342.18 1390.81,-382.89 1441.15,-458.03 1465.38,-498.9"/>
      <polygon fill="none" stroke="black" points="1462.29,-500.55 1470.34,-507.44 1468.34,-497.04 1462.29,-500.55"/>
    </g>
    <!-- stage_11&#45;&gt;stage_12 -->
    <g id="edge86" class="edge">
      <title>stage_11&#45;&gt;stage_12</title>
      <path fill="none" stroke="black" d="M1251.38,-747.53C1298.49,-775.75 1388.73,-829.82 1441,-861.14"/>
      <polygon fill="none" stroke="black" points="1438.93,-863.98 1449.31,-866.12 1442.53,-857.97 1438.93,-863.98"/>
    </g>
    <!-- stage_11&#45;&gt;stage_20 -->
    <g id="edge88" class="edge">
      <title>stage_11&#45;&gt;stage_20</title>
      <path fill="none" stroke="black" d="M1321.05,-729.18C1342.54,-729.18 1365.18,-729.18 1386.46,-729.18"/>
      <polygon fill="none" stroke="black" points="1386.26,-732.68 1396.26,-729.18 1386.26,-725.68 1386.26,-732.68"/>
    </g>
    <!-- stage_11&#45;&gt;stage_17 -->
    <g id="edge87" class="edge">
      <title>stage_11&#45;&gt;stage_17</title>
      <path fill="none" stroke="black" d="M1238.09,-710.9C1259.82,-687.7 1297.8,-646.12 1327.5,-608.18 1344.83,-586.04 1340.36,-572.13 1363.5,-556.18 1374.08,-548.88 1386.31,-543.42 1398.8,-539.33"/>
      <polygon fill="none" stroke="black" points="1399.76,-542.69 1408.36,-536.5 1397.78,-535.98 1399.76,-542.69"/>
    </g>
    <!-- stage_12&#45;&gt;stage_21 -->
    <g id="edge90" class="edge">
      <title>stage_12&#45;&gt;stage_21</title>
      <path fill="none" stroke="black" d="M1552.9,-903.61C1568.82,-908.46 1585.53,-914.06 1600.75,-920.18 1618.34,-927.25 1658.96,-948.4 1690.91,-965.44"/>
      <polygon fill="none" stroke="black" points="1689.14,-968.46 1699.61,-970.09 1692.44,-962.29 1689.14,-968.46"/>
    </g>
    <!-- stage_12&#45;&gt;stage_18 -->
    <g id="edge89" class="edge">
      <title>stage_12&#45;&gt;stage_18</title>
      <path fill="none" stroke="black" d="M1598.32,-895.7C1616.58,-897.37 1635.15,-899.07 1652.47,-900.65"/>
      <polygon fill="none" stroke="black" points="1651.87,-904.11 1662.15,-901.53 1652.51,-897.14 1651.87,-904.11"/>
    </g>
    <!-- stage_13&#45;&gt;stage_22 -->
    <g id="edge92" class="edge">
      <title>stage_13&#45;&gt;stage_22</title>
      <path fill="none" stroke="black" d="M1327.78,-581.64C1345.04,-582.04 1362.86,-582.45 1379.98,-582.85"/>
      <polygon fill="none" stroke="black" points="1379.52,-586.34 1389.59,-583.07 1379.68,-579.34 1379.52,-586.34"/>
    </g>
    <!-- stage_13&#45;&gt;stage_17 -->
    <g id="edge91" class="edge">
      <title>stage_13&#45;&gt;stage_17</title>
      <path fill="none" stroke="black" d="M1313.28,-560.7C1341.16,-555.13 1371.56,-549.06 1398.73,-543.63"/>
      <polygon fill="none" stroke="black" points="1399.16,-547.12 1408.28,-541.73 1397.79,-540.25 1399.16,-547.12"/>
    </g>
    <!-- stage_14&#45;&gt;stage_23 -->
    <g id="edge94" class="edge">
      <title>stage_14&#45;&gt;stage_23</title>
      <path fill="none" stroke="black" d="M1308.69,-410.78C1315.32,-407.77 1321.68,-404.26 1327.5,-400.18 1398.4,-350.39 1447.55,-256.88 1468.99,-209.8"/>
      <polygon fill="none" stroke="black" points="1472.13,-211.36 1473,-200.8 1465.74,-208.51 1472.13,-211.36"/>
    </g>
    <!-- stage_14&#45;&gt;stage_17 -->
    <g id="edge93" class="edge">
      <title>stage_14&#45;&gt;stage_17</title>
      <path fill="none" stroke="black" d="M1279.74,-447.68C1295.35,-452.8 1312.13,-458.51 1327.5,-464.18 1361.23,-476.6 1398.54,-491.87 1427.95,-504.26"/>
      <polygon fill="none" stroke="black" points="1426.44,-507.42 1437.01,-508.1 1429.17,-500.98 1426.44,-507.42"/>
    </g>
    <!-- stage_15&#45;&gt;stage_24 -->
    <g id="edge96" class="edge">
      <title>stage_15&#45;&gt;stage_24</title>
      <path
        fill="none"
        stroke="black"
        d="M1310.86,-355.27C1317.02,-351.71 1322.68,-347.39 1327.5,-342.18 1385.86,-279.08 1304.4,-214.58 1363.5,-152.18 1372.65,-142.51 1384.47,-135.86 1397.07,-131.31"
      />
      <polygon fill="none" stroke="black" points="1397.85,-134.73 1406.35,-128.41 1395.76,-128.05 1397.85,-134.73"/>
    </g>
    <!-- stage_15&#45;&gt;stage_17 -->
    <g id="edge95" class="edge">
      <title>stage_15&#45;&gt;stage_17</title>
      <path fill="none" stroke="black" d="M1302.84,-389.6C1311.37,-392.65 1319.74,-396.16 1327.5,-400.18 1378.4,-426.55 1427.75,-471.97 1456.24,-500.74"/>
      <polygon fill="none" stroke="black" points="1453.51,-502.95 1463,-507.66 1458.52,-498.06 1453.51,-502.95"/>
    </g>
    <!-- stage_17&#45;&gt;stage_18 -->
    <g id="edge99" class="edge">
      <title>stage_17&#45;&gt;stage_18</title>
      <path fill="none" stroke="black" d="M1554.37,-533.32C1571.12,-537.67 1587.83,-544.75 1600.75,-556.18 1699.41,-643.45 1725.85,-811.28 1732.64,-878.89"/>
      <polygon fill="none" stroke="black" points="1729.11,-878.8 1733.52,-888.44 1736.08,-878.16 1729.11,-878.8"/>
    </g>
    <!-- stage_17&#45;&gt;stage_26 -->
    <g id="edge100" class="edge">
      <title>stage_17&#45;&gt;stage_26</title>
      <path fill="none" stroke="black" d="M1554.59,-527.18C1585.02,-527.18 1620.69,-527.18 1652.24,-527.18"/>
      <polygon fill="none" stroke="black" points="1652.15,-530.68 1662.15,-527.18 1652.15,-523.68 1652.15,-530.68"/>
    </g>
    <!-- stage_18&#45;&gt;stage_27 -->
    <g id="edge101" class="edge">
      <title>stage_18&#45;&gt;stage_27</title>
      <path fill="none" stroke="black" d="M1773.08,-926.53C1807.24,-943.85 1858.63,-969.91 1895.75,-988.73"/>
      <polygon fill="none" stroke="black" points="1893.97,-991.75 1904.47,-993.15 1897.13,-985.5 1893.97,-991.75"/>
    </g>
    <!-- external_image_1 -->
    <g id="node31" class="node">
      <title>external_image_1</title>
      <path
        fill="none"
        stroke="#333333"
        stroke-dasharray="5,2"
        d="M402.25,-427.18C402.25,-427.18 234,-427.18 234,-427.18 228,-427.18 222,-421.18 222,-415.18 222,-415.18 222,-403.18 222,-403.18 222,-397.18 228,-391.18 234,-391.18 234,-391.18 402.25,-391.18 402.25,-391.18 408.25,-391.18 414.25,-397.18 414.25,-403.18 414.25,-403.18 414.25,-415.18 414.25,-415.18 414.25,-421.18 408.25,-427.18 402.25,-427.18"
      />
      <text text-anchor="middle" x="318.12" y="-404.13" font-family="Times,serif" font-size="14.00" fill="#333333">$AUTOWARE_BASE_IMAGE</text>
    </g>
    <!-- external_image_1&#45;&gt;stage_7 -->
    <g id="edge66" class="edge">
      <title>external_image_1&#45;&gt;stage_7</title>
      <path fill="none" stroke="black" d="M412.5,-427.66C421.27,-429.39 430.12,-431.14 438.79,-432.86"/>
      <polygon fill="black" stroke="black" points="438.07,-436.28 448.56,-434.79 439.43,-429.42 438.07,-436.28"/>
    </g>
    <!-- external_image_1&#45;&gt;stage_19 -->
    <g id="edge67" class="edge">
      <title>external_image_1&#45;&gt;stage_19</title>
      <path fill="none" stroke="black" d="M523.25,-397.18C614.73,-391.95 612.49,-478.43 701.25,-501.18"/>
      <path fill="none" stroke="black" d="M703.25,-501.18C755,-514.44 813.49,-527.69 859.64,-537.75"/>
      <polygon fill="black" stroke="black" points="858.8,-541.15 869.31,-539.85 860.28,-534.31 858.8,-541.15"/>
    </g>
    <!-- external_image_1&#45;&gt;stage_25 -->
    <g id="edge72" class="edge">
      <title>external_image_1&#45;&gt;stage_25</title>
      <path fill="none" stroke="black" d="M1220.75,-123.18C1280.66,-112.62 1347.65,-97.62 1398.67,-85.53"/>
      <polygon fill="black" stroke="black" points="1399.25,-88.99 1408.16,-83.26 1397.62,-82.18 1399.25,-88.99"/>
    </g>
    <!-- external_image_1&#45;&gt;stage_20 -->
    <g id="edge68" class="edge">
      <title>external_image_1&#45;&gt;stage_20</title>
      <path fill="none" stroke="black" d="M944.12,-503.18C999.8,-524.16 1029.18,-489.47 1076,-526.18 1107.32,-550.73 1082.53,-581.43 1112,-608.18 1153.01,-645.4 1293.34,-684.66 1388.67,-708.03"/>
      <polygon fill="black" stroke="black" points="1387.76,-711.41 1398.3,-710.37 1389.41,-704.61 1387.76,-711.41"/>
    </g>
    <!-- external_image_1&#45;&gt;stage_22 -->
    <g id="edge69" class="edge">
      <title>external_image_1&#45;&gt;stage_22</title>
      <path fill="none" stroke="black" d="M944.12,-503.18C1025.45,-530.62 1242.95,-535.4 1327.5,-550.18 1349.86,-554.08 1373.87,-559.14 1396.1,-564.18"/>
      <polygon fill="black" stroke="black" points="1395.2,-567.56 1405.73,-566.39 1396.76,-560.74 1395.2,-567.56"/>
      <path fill="none" stroke="black" d="M523.25,-397.18C635.89,-390.74 676.51,-378.81 774.25,-435.18 796.44,-447.97 788.21,-467.13 810.25,-480.18 861.45,-510.48 886.73,-481.47 942.12,-503.18"/>
    </g>
    <!-- external_image_1&#45;&gt;stage_23 -->
    <g id="edge70" class="edge">
      <title>external_image_1&#45;&gt;stage_23</title>
      <path fill="none" stroke="black" d="M1220.75,-123.18C1229.52,-121.63 1321.79,-142.89 1394.03,-160.11"/>
      <polygon fill="black" stroke="black" points="1392.97,-163.45 1403.51,-162.37 1394.6,-156.64 1392.97,-163.45"/>
    </g>
    <!-- external_image_1&#45;&gt;stage_24 -->
    <g id="edge71" class="edge">
      <title>external_image_1&#45;&gt;stage_24</title>
      <path fill="none" stroke="black" d="M1220.75,-123.18C1278.8,-112.95 1345.26,-113.14 1396.51,-115.79"/>
      <polygon fill="black" stroke="black" points="1396.17,-119.28 1406.35,-116.34 1396.56,-112.29 1396.17,-119.28"/>
    </g>
    <!-- external_image_1&#45;&gt;stage_26 -->
    <g id="edge73" class="edge">
      <title>external_image_1&#45;&gt;stage_26</title>
      <path fill="none" stroke="black" d="M1220.75,-123.18C1293.92,-110.28 1291.97,-56.26 1363.5,-36.18 1465.02,-7.68 1516.94,27.81 1600.75,-36.18 1676.19,-93.77 1719.46,-400.43 1731.43,-497.61"/>
      <polygon fill="black" stroke="black" points="1727.94,-497.88 1732.62,-507.39 1734.89,-497.04 1727.94,-497.88"/>
      <path fill="none" stroke="black" d="M523.25,-397.18C575.12,-394.56 582.68,-371.04 630.25,-350.18 844.31,-256.29 887.41,-203.95 1112,-139.18 1158.1,-125.88 1171.48,-131.39 1218.75,-123.18"/>
      <path fill="none" stroke="black" d="M414.68,-400.91C448.34,-398.69 486.45,-396.94 521.25,-397.18"/>
    </g>
    <!-- stage_10&#45;&gt;stage_12 -->
    <g id="edge84" class="edge">
      <title>stage_10&#45;&gt;stage_12</title>
      <path fill="none" stroke="black" d="M1309.26,-850.85C1331.31,-855.26 1355.14,-860.02 1377.82,-864.55"/>
      <polygon fill="black" stroke="black" points="1376.88,-867.93 1387.37,-866.45 1378.25,-861.06 1376.88,-867.93"/>
    </g>
    <!-- stage_10&#45;&gt;stage_18 -->
    <g id="edge85" class="edge">
      <title>stage_10&#45;&gt;stage_18</title>
      <path fill="none" stroke="black" d="M1309.35,-830.86C1387.04,-830.64 1502.61,-834.73 1600.75,-856.18 1630.1,-862.59 1661.49,-874.46 1686.52,-885.24"/>
      <polygon fill="black" stroke="black" points="1684.88,-888.35 1695.44,-889.17 1687.7,-881.94 1684.88,-888.35"/>
    </g>
    <!-- external_image_2 -->
    <g id="node33" class="node">
      <title>external_image_2</title>
      <path
        fill="none"
        stroke="#333333"
        stroke-dasharray="5,2"
        d="M1588.75,-1059.18C1588.75,-1059.18 1375.5,-1059.18 1375.5,-1059.18 1369.5,-1059.18 1363.5,-1053.18 1363.5,-1047.18 1363.5,-1047.18 1363.5,-1035.18 1363.5,-1035.18 1363.5,-1029.18 1369.5,-1023.18 1375.5,-1023.18 1375.5,-1023.18 1588.75,-1023.18 1588.75,-1023.18 1594.75,-1023.18 1600.75,-1029.18 1600.75,-1035.18 1600.75,-1035.18 1600.75,-1047.18 1600.75,-1047.18 1600.75,-1053.18 1594.75,-1059.18 1588.75,-1059.18"
      />
      <text text-anchor="middle" x="1482.12" y="-1036.13" font-family="Times,serif" font-size="14.00" fill="#333333">$AUTOWARE_BASE_CUDA_IMAGE</text>
    </g>
    <!-- external_image_2&#45;&gt;stage_21 -->
    <g id="edge102" class="edge">
      <title>external_image_2&#45;&gt;stage_21</title>
      <path fill="none" stroke="black" d="M1572.59,-1022.7C1592.62,-1018.56 1614,-1014.14 1634.45,-1009.92"/>
      <polygon fill="black" stroke="black" points="1635.13,-1013.35 1644.21,-1007.9 1633.71,-1006.5 1635.13,-1013.35"/>
    </g>
    <!-- external_image_2&#45;&gt;stage_27 -->
    <g id="edge103" class="edge">
      <title>external_image_2&#45;&gt;stage_27</title>
      <path fill="none" stroke="black" d="M1736.88,-1093.18C1796.03,-1085.12 1859.22,-1056.83 1899.59,-1035.94"/>
      <polygon fill="black" stroke="black" points="1901.04,-1039.13 1908.25,-1031.38 1897.78,-1032.94 1901.04,-1039.13"/>
      <path fill="none" stroke="black" d="M1547.86,-1059.66C1610,-1076.48 1699.5,-1097.99 1734.88,-1093.18"/>
    </g>
  </g>
</svg>
