<?xml version="1.0" encoding="UTF-8" standalone="no"?>
<!DOCTYPE svg PUBLIC "-//W3C//DTD SVG 1.1//EN"
 "http://www.w3.org/Graphics/SVG/1.1/DTD/svg11.dtd">
<!-- Generated by graphviz version 12.1.2 (20240928.0832)
 -->
<!-- Title: G Pages: 1 -->
<svg width="1790pt" height="754pt"
 viewBox="0.00 0.00 1789.50 754.00" xmlns="http://www.w3.org/2000/svg" xmlns:xlink="http://www.w3.org/1999/xlink">
<g id="graph0" class="graph" transform="scale(1 1) rotate(0) translate(4 750)">
<title>G</title>
<polygon fill="white" stroke="none" points="-4,4 -4,-750 1785.5,-750 1785.5,4 -4,4"/>
<g id="clust1" class="cluster">
<title>cluster_legend</title>
<polygon fill="none" stroke="black" points="8,-153 8,-227 329,-227 329,-153 8,-153"/>
</g>
<!-- key -->
<g id="node1" class="node">
<title>key</title>
<text text-anchor="start" x="122" y="-203.62" font-family="monospace" font-size="10.00">FROM ... </text>
<text text-anchor="start" x="80" y="-186.88" font-family="monospace" font-size="10.00">COPY &#45;&#45;from=... </text>
<text text-anchor="start" x="26" y="-170.12" font-family="monospace" font-size="10.00">RUN &#45;&#45;mount=(.*)from=... </text>
</g>
<!-- key2 -->
<g id="node2" class="node">
<title>key2</title>
<text text-anchor="start" x="291" y="-203.62" font-family="monospace" font-size="10.00"> </text>
<text text-anchor="start" x="291" y="-186.88" font-family="monospace" font-size="10.00"> </text>
<text text-anchor="start" x="291" y="-170.12" font-family="monospace" font-size="10.00"> </text>
</g>
<!-- key&#45;&gt;key2 -->
<g id="edge1" class="edge">
<title>key:e&#45;&gt;key2:w</title>
<path fill="none" stroke="black" d="M179,-206.75C223.38,-206.75 237.26,-206.75 276.52,-206.75"/>
<polygon fill="black" stroke="black" points="276.49,-210.25 286.49,-206.75 276.49,-203.25 276.49,-210.25"/>
</g>
<!-- key&#45;&gt;key2 -->
<g id="edge2" class="edge">
<title>key:e&#45;&gt;key2:w</title>
<path fill="none" stroke="black" stroke-dasharray="5,2" d="M179,-190C223.38,-190 237.26,-190 276.52,-190"/>
<polygon fill="none" stroke="black" points="276.49,-193.5 286.49,-190 276.49,-186.5 276.49,-193.5"/>
</g>
<!-- key&#45;&gt;key2 -->
<g id="edge3" class="edge">
<title>key:e&#45;&gt;key2:w</title>
<path fill="none" stroke="black" stroke-dasharray="1,5" d="M179,-173.25C222.9,-173.25 236.97,-173.25 275.27,-173.25"/>
<polygon fill="none" stroke="black" points="275.1,-173.25 281.1,-169.25 287.1,-173.25 281.1,-177.25 275.1,-173.25"/>
</g>
<!-- external_image_0 -->
<g id="node3" class="node">
<title>external_image_0</title>
<path fill="none" stroke="#333333" stroke-dasharray="5,2" d="M161,-306C161,-306 41,-306 41,-306 35,-306 29,-300 29,-294 29,-294 29,-282 29,-282 29,-276 35,-270 41,-270 41,-270 161,-270 161,-270 167,-270 173,-276 173,-282 173,-282 173,-294 173,-294 173,-300 167,-306 161,-306"/>
<text text-anchor="middle" x="101" y="-282.95" font-family="Times,serif" font-size="14.00" fill="#333333">$BASE_IMAGE</text>
</g>
<!-- stage_0 -->
<g id="node4" class="node">
<title>stage_0</title>
<path fill="none" stroke="black" d="M354,-335C354,-335 234,-335 234,-335 228,-335 222,-329 222,-323 222,-323 222,-311 222,-311 222,-305 228,-299 234,-299 234,-299 354,-299 354,-299 360,-299 366,-305 366,-311 366,-311 366,-323 366,-323 366,-329 360,-335 354,-335"/>
<text text-anchor="middle" x="294" y="-311.95" font-family="Times,serif" font-size="14.00">base</text>
</g>
<!-- external_image_0&#45;&gt;stage_0 -->
<g id="edge4" class="edge">
<title>external_image_0&#45;&gt;stage_0</title>
<path fill="none" stroke="black" d="M173.39,-298.84C185.48,-300.68 198.12,-302.59 210.46,-304.47"/>
<polygon fill="black" stroke="black" points="209.79,-307.91 220.2,-305.95 210.84,-300.98 209.79,-307.91"/>
</g>
<!-- stage_2 -->
<g id="node5" class="node">
<title>stage_2</title>
<path fill="none" stroke="black" d="M354,-277C354,-277 234,-277 234,-277 228,-277 222,-271 222,-265 222,-265 222,-253 222,-253 222,-247 228,-241 234,-241 234,-241 354,-241 354,-241 360,-241 366,-247 366,-253 366,-253 366,-265 366,-265 366,-271 360,-277 354,-277"/>
<text text-anchor="middle" x="294" y="-253.95" font-family="Times,serif" font-size="14.00">rosdep&#45;depend</text>
</g>
<!-- external_image_0&#45;&gt;stage_2 -->
<g id="edge5" class="edge">
<title>external_image_0&#45;&gt;stage_2</title>
<path fill="none" stroke="black" d="M173.39,-277.16C185.48,-275.32 198.12,-273.41 210.46,-271.53"/>
<polygon fill="black" stroke="black" points="210.84,-275.02 220.2,-270.05 209.79,-268.09 210.84,-275.02"/>
</g>
<!-- stage_1 -->
<g id="node6" class="node">
<title>stage_1</title>
<path fill="none" stroke="black" d="M1311.25,-746C1311.25,-746 1191.25,-746 1191.25,-746 1185.25,-746 1179.25,-740 1179.25,-734 1179.25,-734 1179.25,-722 1179.25,-722 1179.25,-716 1185.25,-710 1191.25,-710 1191.25,-710 1311.25,-710 1311.25,-710 1317.25,-710 1323.25,-716 1323.25,-722 1323.25,-722 1323.25,-734 1323.25,-734 1323.25,-740 1317.25,-746 1311.25,-746"/>
<text text-anchor="middle" x="1251.25" y="-722.95" font-family="Times,serif" font-size="14.00">base&#45;cuda</text>
</g>
<!-- stage_0&#45;&gt;stage_1 -->
<g id="edge6" class="edge">
<title>stage_0&#45;&gt;stage_1</title>
<path fill="none" stroke="black" d="M992.5,-728C1050.93,-733.13 1117.11,-733 1167.77,-731.66"/>
<polygon fill="black" stroke="black" points="1167.58,-735.17 1177.48,-731.38 1167.38,-728.17 1167.58,-735.17"/>
</g>
<!-- stage_8 -->
<g id="node7" class="node">
<title>stage_8</title>
<path fill="none" stroke="black" d="M534,-212C534,-212 414,-212 414,-212 408,-212 402,-206 402,-200 402,-200 402,-188 402,-188 402,-182 408,-176 414,-176 414,-176 534,-176 534,-176 540,-176 546,-182 546,-188 546,-188 546,-200 546,-200 546,-206 540,-212 534,-212"/>
<text text-anchor="middle" x="474" y="-188.95" font-family="Times,serif" font-size="14.00">core&#45;devel</text>
</g>
<!-- stage_0&#45;&gt;stage_8 -->
<g id="edge7" class="edge">
<title>stage_0&#45;&gt;stage_8</title>
<path fill="none" stroke="black" d="M350.17,-298.69C355.83,-295.6 361.24,-292.06 366,-288 389.39,-268.09 379.33,-249.72 402,-229 406.44,-224.94 411.43,-221.25 416.66,-217.92"/>
<polygon fill="black" stroke="black" points="418.1,-221.14 424.96,-213.07 414.56,-215.09 418.1,-221.14"/>
</g>
<!-- stage_18 -->
<g id="node8" class="node">
<title>stage_18</title>
<path fill="none" stroke="black" d="M1323.38,-596C1323.38,-596 1179.12,-596 1179.12,-596 1173.12,-596 1167.12,-590 1167.12,-584 1167.12,-584 1167.12,-572 1167.12,-572 1167.12,-566 1173.12,-560 1179.12,-560 1179.12,-560 1323.38,-560 1323.38,-560 1329.38,-560 1335.38,-566 1335.38,-572 1335.38,-572 1335.38,-584 1335.38,-584 1335.38,-590 1329.38,-596 1323.38,-596"/>
<text text-anchor="middle" x="1251.25" y="-572.95" font-family="Times,serif" font-size="14.00">universe&#45;sensing&#45;perception</text>
</g>
<!-- stage_0&#45;&gt;stage_18 -->
<g id="edge8" class="edge">
<title>stage_0&#45;&gt;stage_18</title>
<path fill="none" stroke="black" d="M475,-556C573.53,-613.52 603.15,-622.48 713.88,-650"/>
<path fill="none" stroke="black" d="M715.88,-650C885.53,-692.17 1092.03,-634.5 1191.34,-600.21"/>
<polygon fill="black" stroke="black" points="1192.34,-603.57 1200.62,-596.96 1190.03,-596.96 1192.34,-603.57"/>
</g>
<!-- stage_20 -->
<g id="node9" class="node">
<title>stage_20</title>
<path fill="none" stroke="black" d="M1330.12,-189C1330.12,-189 1172.38,-189 1172.38,-189 1166.38,-189 1160.38,-183 1160.38,-177 1160.38,-177 1160.38,-165 1160.38,-165 1160.38,-159 1166.38,-153 1172.38,-153 1172.38,-153 1330.12,-153 1330.12,-153 1336.12,-153 1342.12,-159 1342.12,-165 1342.12,-165 1342.12,-177 1342.12,-177 1342.12,-183 1336.12,-189 1330.12,-189"/>
<text text-anchor="middle" x="1251.25" y="-165.95" font-family="Times,serif" font-size="14.00">universe&#45;localization&#45;mapping</text>
</g>
<!-- stage_0&#45;&gt;stage_20 -->
<g id="edge9" class="edge">
<title>stage_0&#45;&gt;stage_20</title>
<path fill="none" stroke="black" d="M366.49,-302.94C420.29,-289.54 493.5,-265.01 546,-223 568.81,-204.75 557.58,-184.04 582,-168 682.18,-102.18 738.53,-171.4 847.75,-122 866.47,-113.53 865.21,-101.85 883.75,-93 927.55,-72.1 942.2,-65.26 990.5,-70"/>
</g>
<!-- stage_21 -->
<g id="node10" class="node">
<title>stage_21</title>
<path fill="none" stroke="black" d="M1317.38,-305C1317.38,-305 1185.12,-305 1185.12,-305 1179.12,-305 1173.12,-299 1173.12,-293 1173.12,-293 1173.12,-281 1173.12,-281 1173.12,-275 1179.12,-269 1185.12,-269 1185.12,-269 1317.38,-269 1317.38,-269 1323.38,-269 1329.38,-275 1329.38,-281 1329.38,-281 1329.38,-293 1329.38,-293 1329.38,-299 1323.38,-305 1317.38,-305"/>
<text text-anchor="middle" x="1251.25" y="-281.95" font-family="Times,serif" font-size="14.00">universe&#45;planning&#45;control</text>
</g>
<!-- stage_0&#45;&gt;stage_21 -->
<g id="edge10" class="edge">
<title>stage_0&#45;&gt;stage_21</title>
<path fill="none" stroke="black" d="M366.33,-330.38C424.21,-340.53 508.04,-353.62 582,-359 696.64,-367.34 996.44,-410.4 1099.25,-359 1123.1,-347.07 1112.75,-325.31 1135.25,-311 1143.44,-305.79 1152.56,-301.69 1161.98,-298.46"/>
<polygon fill="black" stroke="black" points="1162.72,-301.9 1171.26,-295.62 1160.67,-295.2 1162.72,-301.9"/>
</g>
<!-- stage_22 -->
<g id="node11" class="node">
<title>stage_22</title>
<path fill="none" stroke="black" d="M1313.25,-475C1313.25,-475 1189.25,-475 1189.25,-475 1183.25,-475 1177.25,-469 1177.25,-463 1177.25,-463 1177.25,-451 1177.25,-451 1177.25,-445 1183.25,-439 1189.25,-439 1189.25,-439 1313.25,-439 1313.25,-439 1319.25,-439 1325.25,-445 1325.25,-451 1325.25,-451 1325.25,-463 1325.25,-463 1325.25,-469 1319.25,-475 1313.25,-475"/>
<text text-anchor="middle" x="1251.25" y="-451.95" font-family="Times,serif" font-size="14.00">universe&#45;vehicle&#45;system</text>
</g>
<!-- stage_0&#45;&gt;stage_22 -->
<g id="edge11" class="edge">
<title>stage_0&#45;&gt;stage_22</title>
<path fill="none" stroke="black" d="M475,-556C487.77,-562.77 976.1,-484.82 990.5,-486"/>
<path fill="none" stroke="black" d="M302.47,-335.31C322.36,-381.44 381.41,-502.53 473,-556"/>
</g>
<!-- stage_23 -->
<g id="node12" class="node">
<title>stage_23</title>
<path fill="none" stroke="black" d="M1562.38,-189C1562.38,-189 1442.38,-189 1442.38,-189 1436.38,-189 1430.38,-183 1430.38,-177 1430.38,-177 1430.38,-165 1430.38,-165 1430.38,-159 1436.38,-153 1442.38,-153 1442.38,-153 1562.38,-153 1562.38,-153 1568.38,-153 1574.38,-159 1574.38,-165 1574.38,-165 1574.38,-177 1574.38,-177 1574.38,-183 1568.38,-189 1562.38,-189"/>
<text text-anchor="middle" x="1502.38" y="-165.95" font-family="Times,serif" font-size="14.00">universe</text>
</g>
<!-- stage_0&#45;&gt;stage_23 -->
<g id="edge12" class="edge">
<title>stage_0&#45;&gt;stage_23</title>
<path fill="none" stroke="black" d="M992.5,-728C1036.09,-731.83 1339.96,-641.21 1367.25,-607 1423.87,-536.02 1345.75,-270.27 1403.25,-200 1408.01,-194.18 1413.88,-189.49 1420.36,-185.72"/>
<polygon fill="black" stroke="black" points="1421.48,-189.08 1428.88,-181.5 1418.37,-182.8 1421.48,-189.08"/>
<path fill="none" stroke="black" d="M715.88,-650C838.72,-681.76 863.88,-719.79 990.5,-728"/>
</g>
<!-- stage_2&#45;&gt;stage_8 -->
<g id="edge20" class="edge">
<title>stage_2&#45;&gt;stage_8</title>
<path fill="none" stroke="black" stroke-dasharray="5,2" d="M345.53,-240.55C366.11,-233.03 390.08,-224.28 411.64,-216.4"/>
<polygon fill="none" stroke="black" points="412.73,-219.74 420.92,-213.02 410.33,-213.16 412.73,-219.74"/>
</g>
<!-- stage_3 -->
<g id="node15" class="node">
<title>stage_3</title>
<path fill="none" stroke="black" d="M829,-593C829,-593 600.75,-593 600.75,-593 594.75,-593 588.75,-587 588.75,-581 588.75,-581 588.75,-569 588.75,-569 588.75,-563 594.75,-557 600.75,-557 600.75,-557 829,-557 829,-557 835,-557 841,-563 841,-569 841,-569 841,-581 841,-581 841,-587 835,-593 829,-593"/>
<text text-anchor="middle" x="714.88" y="-569.95" font-family="Times,serif" font-size="14.00">rosdep&#45;universe&#45;sensing&#45;perception&#45;depend</text>
</g>
<!-- stage_2&#45;&gt;stage_3 -->
<g id="edge15" class="edge">
<title>stage_2&#45;&gt;stage_3</title>
<path fill="none" stroke="black" d="M345.58,-277.44C352.6,-280.63 359.6,-284.17 366,-288 498.32,-367.1 632.88,-494.3 687.97,-548.82"/>
<polygon fill="black" stroke="black" points="685.18,-550.98 694.74,-555.55 690.12,-546.02 685.18,-550.98"/>
</g>
<!-- stage_4 -->
<g id="node16" class="node">
<title>stage_4</title>
<path fill="none" stroke="black" d="M835.75,-111C835.75,-111 594,-111 594,-111 588,-111 582,-105 582,-99 582,-99 582,-87 582,-87 582,-81 588,-75 594,-75 594,-75 835.75,-75 835.75,-75 841.75,-75 847.75,-81 847.75,-87 847.75,-87 847.75,-99 847.75,-99 847.75,-105 841.75,-111 835.75,-111"/>
<text text-anchor="middle" x="714.88" y="-87.95" font-family="Times,serif" font-size="14.00">rosdep&#45;universe&#45;localization&#45;mapping&#45;depend</text>
</g>
<!-- stage_2&#45;&gt;stage_4 -->
<g id="edge16" class="edge">
<title>stage_2&#45;&gt;stage_4</title>
<path fill="none" stroke="black" d="M475,-93C505.36,-84.82 538.68,-81.49 570.56,-80.84"/>
<polygon fill="black" stroke="black" points="570.29,-84.35 580.25,-80.74 570.21,-77.35 570.29,-84.35"/>
</g>
<!-- stage_5 -->
<g id="node17" class="node">
<title>stage_5</title>
<path fill="none" stroke="black" d="M823,-215C823,-215 606.75,-215 606.75,-215 600.75,-215 594.75,-209 594.75,-203 594.75,-203 594.75,-191 594.75,-191 594.75,-185 600.75,-179 606.75,-179 606.75,-179 823,-179 823,-179 829,-179 835,-185 835,-191 835,-191 835,-203 835,-203 835,-209 829,-215 823,-215"/>
<text text-anchor="middle" x="714.88" y="-191.95" font-family="Times,serif" font-size="14.00">rosdep&#45;universe&#45;planning&#45;control&#45;depend</text>
</g>
<!-- stage_2&#45;&gt;stage_5 -->
<g id="edge17" class="edge">
<title>stage_2&#45;&gt;stage_5</title>
<path fill="none" stroke="black" d="M475,-93C514.55,-82.34 617.71,-138.83 674.68,-172.78"/>
<polygon fill="black" stroke="black" points="672.74,-175.7 683.11,-177.85 676.35,-169.7 672.74,-175.7"/>
</g>
<!-- stage_6 -->
<g id="node18" class="node">
<title>stage_6</title>
<path fill="none" stroke="black" d="M818.88,-348C818.88,-348 610.88,-348 610.88,-348 604.88,-348 598.88,-342 598.88,-336 598.88,-336 598.88,-324 598.88,-324 598.88,-318 604.88,-312 610.88,-312 610.88,-312 818.88,-312 818.88,-312 824.88,-312 830.88,-318 830.88,-324 830.88,-324 830.88,-336 830.88,-336 830.88,-342 824.88,-348 818.88,-348"/>
<text text-anchor="middle" x="714.88" y="-324.95" font-family="Times,serif" font-size="14.00">rosdep&#45;universe&#45;vehicle&#45;system&#45;depend</text>
</g>
<!-- stage_2&#45;&gt;stage_6 -->
<g id="edge18" class="edge">
<title>stage_2&#45;&gt;stage_6</title>
<path fill="none" stroke="black" d="M366.06,-271.04C428.33,-281.6 520.15,-297.16 593.82,-309.65"/>
<polygon fill="black" stroke="black" points="593.07,-313.07 603.52,-311.29 594.24,-306.17 593.07,-313.07"/>
</g>
<!-- stage_7 -->
<g id="node19" class="node">
<title>stage_7</title>
<path fill="none" stroke="black" d="M1052.38,-36C1052.38,-36 930.62,-36 930.62,-36 924.62,-36 918.62,-30 918.62,-24 918.62,-24 918.62,-12 918.62,-12 918.62,-6 924.62,0 930.62,0 930.62,0 1052.38,0 1052.38,0 1058.38,0 1064.38,-6 1064.38,-12 1064.38,-12 1064.38,-24 1064.38,-24 1064.38,-30 1058.38,-36 1052.38,-36"/>
<text text-anchor="middle" x="991.5" y="-12.95" font-family="Times,serif" font-size="14.00">rosdep&#45;universe&#45;depend</text>
</g>
<!-- stage_2&#45;&gt;stage_7 -->
<g id="edge19" class="edge">
<title>stage_2&#45;&gt;stage_7</title>
<path fill="none" stroke="black" d="M475,-93C522.57,-80.18 533.6,-73.23 582,-64 693.48,-42.74 824.09,-30.15 907.04,-23.65"/>
<polygon fill="black" stroke="black" points="907.21,-27.15 916.91,-22.89 906.68,-20.17 907.21,-27.15"/>
<path fill="none" stroke="black" d="M353.93,-240.6C358.24,-238.07 362.33,-235.22 366,-232 391.4,-209.7 381.93,-192.2 402,-165 428.68,-128.84 429.57,-104.57 473,-93"/>
</g>
<!-- stage_9 -->
<g id="node20" class="node">
<title>stage_9</title>
<path fill="none" stroke="black" d="M777.25,-273C777.25,-273 652.5,-273 652.5,-273 646.5,-273 640.5,-267 640.5,-261 640.5,-261 640.5,-249 640.5,-249 640.5,-243 646.5,-237 652.5,-237 652.5,-237 777.25,-237 777.25,-237 783.25,-237 789.25,-243 789.25,-249 789.25,-249 789.25,-261 789.25,-261 789.25,-267 783.25,-273 777.25,-273"/>
<text text-anchor="middle" x="714.88" y="-249.95" font-family="Times,serif" font-size="14.00">universe&#45;common&#45;devel</text>
</g>
<!-- stage_2&#45;&gt;stage_9 -->
<g id="edge22" class="edge">
<title>stage_2&#45;&gt;stage_9</title>
<path fill="none" stroke="black" stroke-dasharray="5,2" d="M475,-93C518.39,-81.31 518.6,-129.38 546,-165 565.2,-189.95 556.51,-207.53 582,-226 595.86,-236.04 612.54,-242.72 629.3,-247.12"/>
<polygon fill="none" stroke="black" points="628.29,-250.48 638.83,-249.36 629.89,-243.67 628.29,-250.48"/>
</g>
<!-- stage_19 -->
<g id="node13" class="node">
<title>stage_19</title>
<path fill="none" stroke="black" d="M1589.5,-648C1589.5,-648 1415.25,-648 1415.25,-648 1409.25,-648 1403.25,-642 1403.25,-636 1403.25,-636 1403.25,-624 1403.25,-624 1403.25,-618 1409.25,-612 1415.25,-612 1415.25,-612 1589.5,-612 1589.5,-612 1595.5,-612 1601.5,-618 1601.5,-624 1601.5,-624 1601.5,-636 1601.5,-636 1601.5,-642 1595.5,-648 1589.5,-648"/>
<text text-anchor="middle" x="1502.38" y="-624.95" font-family="Times,serif" font-size="14.00">universe&#45;sensing&#45;perception&#45;cuda</text>
</g>
<!-- stage_1&#45;&gt;stage_19 -->
<g id="edge13" class="edge">
<title>stage_1&#45;&gt;stage_19</title>
<path fill="none" stroke="black" d="M1318.78,-709.53C1334.81,-704.59 1351.77,-698.96 1367.25,-693 1397.32,-681.43 1430.07,-666.1 1455.68,-653.46"/>
<polygon fill="black" stroke="black" points="1457.09,-656.67 1464.48,-649.08 1453.97,-650.41 1457.09,-656.67"/>
</g>
<!-- stage_24 -->
<g id="node14" class="node">
<title>stage_24</title>
<path fill="#e5e5e5" stroke="black" d="M1769.5,-247C1769.5,-247 1649.5,-247 1649.5,-247 1643.5,-247 1637.5,-241 1637.5,-235 1637.5,-235 1637.5,-223 1637.5,-223 1637.5,-217 1643.5,-211 1649.5,-211 1649.5,-211 1769.5,-211 1769.5,-211 1775.5,-211 1781.5,-217 1781.5,-223 1781.5,-223 1781.5,-235 1781.5,-235 1781.5,-241 1775.5,-247 1769.5,-247"/>
<text text-anchor="middle" x="1709.5" y="-223.95" font-family="Times,serif" font-size="14.00">universe&#45;cuda</text>
</g>
<!-- stage_1&#45;&gt;stage_24 -->
<g id="edge14" class="edge">
<title>stage_1&#45;&gt;stage_24</title>
<path fill="none" stroke="black" d="M1323.49,-734.63C1402.03,-737.79 1527.09,-729.86 1601.5,-659 1660.36,-602.95 1694.95,-346.45 1705.24,-258.61"/>
<polygon fill="black" stroke="black" points="1708.69,-259.21 1706.35,-248.88 1701.74,-258.41 1708.69,-259.21"/>
</g>
<!-- stage_8&#45;&gt;stage_9 -->
<g id="edge73" class="edge">
<title>stage_8&#45;&gt;stage_9</title>
<path fill="none" stroke="black" d="M533.93,-212.48C549.5,-217.12 566.33,-221.94 582,-226 597.21,-229.94 613.5,-233.81 629.25,-237.37"/>
<polygon fill="black" stroke="black" points="628.06,-240.69 638.58,-239.45 629.58,-233.85 628.06,-240.69"/>
</g>
<!-- stage_3&#45;&gt;stage_18 -->
<g id="edge40" class="edge">
<title>stage_3&#45;&gt;stage_18</title>
<path fill="none" stroke="black" stroke-dasharray="5,2" d="M992.5,-590C1046.34,-587.24 1106.53,-584.42 1155.19,-582.21"/>
<polygon fill="none" stroke="black" points="1155.32,-585.71 1165.15,-581.76 1155,-578.72 1155.32,-585.71"/>
</g>
<!-- stage_3&#45;&gt;stage_19 -->
<g id="edge41" class="edge">
<title>stage_3&#45;&gt;stage_19</title>
<path fill="none" stroke="black" stroke-dasharray="5,2" d="M799.18,-593.45C826.04,-598.71 856.04,-603.86 883.75,-607 1060.68,-627.04 1267.75,-630.76 1391.54,-630.9"/>
<polygon fill="none" stroke="black" points="1391.37,-634.4 1401.37,-630.91 1391.38,-627.4 1391.37,-634.4"/>
</g>
<!-- stage_11 -->
<g id="node21" class="node">
<title>stage_11</title>
<path fill="none" stroke="black" d="M1080.5,-556C1080.5,-556 902.5,-556 902.5,-556 896.5,-556 890.5,-550 890.5,-544 890.5,-544 890.5,-532 890.5,-532 890.5,-526 896.5,-520 902.5,-520 902.5,-520 1080.5,-520 1080.5,-520 1086.5,-520 1092.5,-526 1092.5,-532 1092.5,-532 1092.5,-544 1092.5,-544 1092.5,-550 1086.5,-556 1080.5,-556"/>
<text text-anchor="middle" x="991.5" y="-532.95" font-family="Times,serif" font-size="14.00">universe&#45;sensing&#45;perception&#45;devel</text>
</g>
<!-- stage_3&#45;&gt;stage_11 -->
<g id="edge25" class="edge">
<title>stage_3&#45;&gt;stage_11</title>
<path fill="none" stroke="black" stroke-dasharray="5,2" d="M841.13,-558.12C853.7,-556.43 866.4,-554.72 878.81,-553.05"/>
<polygon fill="none" stroke="black" points="879.17,-556.53 888.61,-551.73 878.23,-549.59 879.17,-556.53"/>
</g>
<!-- stage_12 -->
<g id="node22" class="node">
<title>stage_12</title>
<path fill="none" stroke="black" d="M1355.25,-538C1355.25,-538 1147.25,-538 1147.25,-538 1141.25,-538 1135.25,-532 1135.25,-526 1135.25,-526 1135.25,-514 1135.25,-514 1135.25,-508 1141.25,-502 1147.25,-502 1147.25,-502 1355.25,-502 1355.25,-502 1361.25,-502 1367.25,-508 1367.25,-514 1367.25,-514 1367.25,-526 1367.25,-526 1367.25,-532 1361.25,-538 1355.25,-538"/>
<text text-anchor="middle" x="1251.25" y="-514.95" font-family="Times,serif" font-size="14.00">universe&#45;sensing&#45;perception&#45;devel&#45;cuda</text>
</g>
<!-- stage_3&#45;&gt;stage_12 -->
<g id="edge28" class="edge">
<title>stage_3&#45;&gt;stage_12</title>
<path fill="none" stroke="black" stroke-dasharray="5,2" d="M992.5,-590C1040.97,-587.52 1053.46,-583.09 1099.25,-567 1116.13,-561.07 1118.48,-555.22 1135.25,-549 1142.25,-546.4 1149.58,-543.96 1157,-541.67"/>
<polygon fill="none" stroke="black" points="1157.86,-545.07 1166.46,-538.88 1155.88,-538.36 1157.86,-545.07"/>
<path fill="none" stroke="black" stroke-dasharray="5,2" d="M841.3,-587.44C888.12,-590.61 941.74,-592.5 990.5,-590"/>
</g>
<!-- stage_4&#45;&gt;stage_20 -->
<g id="edge45" class="edge">
<title>stage_4&#45;&gt;stage_20</title>
<path fill="none" stroke="black" stroke-dasharray="5,2" d="M827.18,-74.51C877.14,-68.57 936.81,-64.73 990.5,-70"/>
<path fill="none" stroke="black" stroke-dasharray="5,2" d="M992.5,-70C1040.8,-74.74 1057.7,-67.92 1099.25,-93 1120.59,-105.88 1114.46,-122.24 1135.25,-136 1142.27,-140.64 1149.93,-144.69 1157.86,-148.22"/>
<polygon fill="none" stroke="black" points="1156.42,-151.42 1167,-151.99 1159.09,-144.94 1156.42,-151.42"/>
</g>
<!-- stage_13 -->
<g id="node23" class="node">
<title>stage_13</title>
<path fill="none" stroke="black" d="M1087.25,-140C1087.25,-140 895.75,-140 895.75,-140 889.75,-140 883.75,-134 883.75,-128 883.75,-128 883.75,-116 883.75,-116 883.75,-110 889.75,-104 895.75,-104 895.75,-104 1087.25,-104 1087.25,-104 1093.25,-104 1099.25,-110 1099.25,-116 1099.25,-116 1099.25,-128 1099.25,-128 1099.25,-134 1093.25,-140 1087.25,-140"/>
<text text-anchor="middle" x="991.5" y="-116.95" font-family="Times,serif" font-size="14.00">universe&#45;localization&#45;mapping&#45;devel</text>
</g>
<!-- stage_4&#45;&gt;stage_13 -->
<g id="edge42" class="edge">
<title>stage_4&#45;&gt;stage_13</title>
<path fill="none" stroke="black" stroke-dasharray="5,2" d="M847.96,-106.95C856.08,-107.81 864.23,-108.67 872.29,-109.52"/>
<polygon fill="none" stroke="black" points="871.8,-112.98 882.11,-110.55 872.54,-106.02 871.8,-112.98"/>
</g>
<!-- stage_5&#45;&gt;stage_21 -->
<g id="edge53" class="edge">
<title>stage_5&#45;&gt;stage_21</title>
<path fill="none" stroke="black" stroke-dasharray="5,2" d="M825.63,-215.48C924.88,-232.2 1069.18,-256.5 1161.38,-272.03"/>
<polygon fill="none" stroke="black" points="1160.7,-275.47 1171.14,-273.68 1161.86,-268.56 1160.7,-275.47"/>
</g>
<!-- stage_14 -->
<g id="node24" class="node">
<title>stage_14</title>
<path fill="none" stroke="black" d="M1074.5,-198C1074.5,-198 908.5,-198 908.5,-198 902.5,-198 896.5,-192 896.5,-186 896.5,-186 896.5,-174 896.5,-174 896.5,-168 902.5,-162 908.5,-162 908.5,-162 1074.5,-162 1074.5,-162 1080.5,-162 1086.5,-168 1086.5,-174 1086.5,-174 1086.5,-186 1086.5,-186 1086.5,-192 1080.5,-198 1074.5,-198"/>
<text text-anchor="middle" x="991.5" y="-174.95" font-family="Times,serif" font-size="14.00">universe&#45;planning&#45;control&#45;devel</text>
</g>
<!-- stage_5&#45;&gt;stage_14 -->
<g id="edge46" class="edge">
<title>stage_5&#45;&gt;stage_14</title>
<path fill="none" stroke="black" stroke-dasharray="5,2" d="M835.13,-189.62C851.71,-188.59 868.66,-187.54 884.96,-186.53"/>
<polygon fill="none" stroke="black" points="884.87,-190.05 894.63,-185.93 884.43,-183.06 884.87,-190.05"/>
</g>
<!-- stage_6&#45;&gt;stage_22 -->
<g id="edge59" class="edge">
<title>stage_6&#45;&gt;stage_22</title>
<path fill="none" stroke="black" stroke-dasharray="5,2" d="M992.5,-486C1050.39,-490.75 1115.39,-483.35 1165.62,-474.84"/>
<polygon fill="none" stroke="black" points="1166.02,-478.32 1175.27,-473.15 1164.82,-471.42 1166.02,-478.32"/>
<path fill="none" stroke="black" stroke-dasharray="5,2" d="M733.1,-348.24C761.58,-377.25 821.55,-433.63 883.75,-463 927.64,-483.72 942.13,-482.03 990.5,-486"/>
</g>
<!-- stage_15 -->
<g id="node25" class="node">
<title>stage_15</title>
<path fill="none" stroke="black" d="M1070.38,-348C1070.38,-348 912.62,-348 912.62,-348 906.62,-348 900.62,-342 900.62,-336 900.62,-336 900.62,-324 900.62,-324 900.62,-318 906.62,-312 912.62,-312 912.62,-312 1070.38,-312 1070.38,-312 1076.38,-312 1082.38,-318 1082.38,-324 1082.38,-324 1082.38,-336 1082.38,-336 1082.38,-342 1076.38,-348 1070.38,-348"/>
<text text-anchor="middle" x="991.5" y="-324.95" font-family="Times,serif" font-size="14.00">universe&#45;vehicle&#45;system&#45;devel</text>
</g>
<!-- stage_6&#45;&gt;stage_15 -->
<g id="edge54" class="edge">
<title>stage_6&#45;&gt;stage_15</title>
<path fill="none" stroke="black" stroke-dasharray="5,2" d="M831.15,-330C850.32,-330 870.08,-330 888.89,-330"/>
<polygon fill="none" stroke="black" points="888.63,-333.5 898.63,-330 888.63,-326.5 888.63,-333.5"/>
</g>
<!-- stage_7&#45;&gt;stage_23 -->
<g id="edge71" class="edge">
<title>stage_7&#45;&gt;stage_23</title>
<path fill="none" stroke="black" stroke-dasharray="5,2" d="M1252.25,-119C1302.18,-133.97 1316.22,-131.38 1367.25,-142 1383.99,-145.48 1401.89,-149.29 1418.98,-152.97"/>
<polygon fill="none" stroke="black" points="1418.08,-156.36 1428.59,-155.05 1419.56,-149.52 1418.08,-156.36"/>
</g>
<!-- stage_7&#45;&gt;stage_24 -->
<g id="edge72" class="edge">
<title>stage_7&#45;&gt;stage_24</title>
<path fill="none" stroke="black" stroke-dasharray="5,2" d="M1252.25,-119C1401.25,-163.68 1456.71,-85.14 1601.5,-142 1634.45,-154.94 1665.04,-181.96 1685,-202.48"/>
<polygon fill="none" stroke="black" points="1682.42,-204.85 1691.84,-209.71 1687.51,-200.04 1682.42,-204.85"/>
<path fill="none" stroke="black" stroke-dasharray="5,2" d="M1052.14,-36.44C1067.59,-41.52 1084.13,-47.23 1099.25,-53 1167.68,-79.11 1180.26,-97.42 1250.25,-119"/>
</g>
<!-- stage_16 -->
<g id="node26" class="node">
<title>stage_16</title>
<path fill="none" stroke="black" d="M1311.25,-247C1311.25,-247 1191.25,-247 1191.25,-247 1185.25,-247 1179.25,-241 1179.25,-235 1179.25,-235 1179.25,-223 1179.25,-223 1179.25,-217 1185.25,-211 1191.25,-211 1191.25,-211 1311.25,-211 1311.25,-211 1317.25,-211 1323.25,-217 1323.25,-223 1323.25,-223 1323.25,-235 1323.25,-235 1323.25,-241 1317.25,-247 1311.25,-247"/>
<text text-anchor="middle" x="1251.25" y="-223.95" font-family="Times,serif" font-size="14.00">universe&#45;devel</text>
</g>
<!-- stage_7&#45;&gt;stage_16 -->
<g id="edge60" class="edge">
<title>stage_7&#45;&gt;stage_16</title>
<path fill="none" stroke="black" stroke-dasharray="5,2" d="M1030.01,-36.44C1052.9,-49.42 1081.16,-68.77 1099.25,-93 1129.27,-133.2 1098.42,-165.92 1135.25,-200 1144.54,-208.6 1156.01,-214.74 1168.06,-219.11"/>
<polygon fill="none" stroke="black" points="1166.73,-222.36 1177.32,-222.05 1168.85,-215.69 1166.73,-222.36"/>
</g>
<!-- stage_17 -->
<g id="node27" class="node">
<title>stage_17</title>
<path fill="none" stroke="black" d="M1562.38,-247C1562.38,-247 1442.38,-247 1442.38,-247 1436.38,-247 1430.38,-241 1430.38,-235 1430.38,-235 1430.38,-223 1430.38,-223 1430.38,-217 1436.38,-211 1442.38,-211 1442.38,-211 1562.38,-211 1562.38,-211 1568.38,-211 1574.38,-217 1574.38,-223 1574.38,-223 1574.38,-235 1574.38,-235 1574.38,-241 1568.38,-247 1562.38,-247"/>
<text text-anchor="middle" x="1502.38" y="-223.95" font-family="Times,serif" font-size="14.00">universe&#45;devel&#45;cuda</text>
</g>
<!-- stage_7&#45;&gt;stage_17 -->
<g id="edge70" class="edge">
<title>stage_7&#45;&gt;stage_17</title>
<path fill="none" stroke="black" stroke-dasharray="5,2" d="M1252.25,-119C1302.18,-133.97 1324.42,-112.3 1367.25,-142 1392.18,-159.29 1379.12,-181.61 1403.25,-200 1408.36,-203.9 1413.99,-207.27 1419.89,-210.2"/>
<polygon fill="none" stroke="black" points="1418.08,-213.22 1428.64,-214.09 1420.92,-206.83 1418.08,-213.22"/>
</g>
<!-- stage_9&#45;&gt;stage_11 -->
<g id="edge75" class="edge">
<title>stage_9&#45;&gt;stage_11</title>
<path fill="none" stroke="black" d="M789.71,-266.11C811.26,-272.84 832.97,-283.65 847.75,-301 906.9,-370.41 823.95,-434.15 883.75,-503 887.11,-506.87 890.91,-510.32 895.02,-513.39"/>
<polygon fill="black" stroke="black" points="892.91,-516.19 903.2,-518.69 896.72,-510.31 892.91,-516.19"/>
</g>
<!-- stage_9&#45;&gt;stage_13 -->
<g id="edge76" class="edge">
<title>stage_9&#45;&gt;stage_13</title>
<path fill="none" stroke="black" d="M789.45,-250.76C810,-246.57 831.21,-239.1 847.75,-226 876.73,-203.04 855.33,-174.66 883.75,-151 885.73,-149.35 887.79,-147.8 889.93,-146.33"/>
<polygon fill="black" stroke="black" points="891.64,-149.38 898.4,-141.23 888.03,-143.39 891.64,-149.38"/>
</g>
<!-- stage_9&#45;&gt;stage_14 -->
<g id="edge77" class="edge">
<title>stage_9&#45;&gt;stage_14</title>
<path fill="none" stroke="black" d="M789.42,-240.13C808.5,-235.91 828.97,-231.08 847.75,-226 873.81,-218.95 902.17,-210.07 926.69,-202"/>
<polygon fill="black" stroke="black" points="927.48,-205.42 935.87,-198.95 925.28,-198.78 927.48,-205.42"/>
</g>
<!-- stage_9&#45;&gt;stage_15 -->
<g id="edge78" class="edge">
<title>stage_9&#45;&gt;stage_15</title>
<path fill="none" stroke="black" d="M783.41,-273.44C822.4,-284.09 871.61,-297.53 912.27,-308.64"/>
<polygon fill="black" stroke="black" points="911.2,-311.97 921.77,-311.23 913.04,-305.22 911.2,-311.97"/>
</g>
<!-- stage_9&#45;&gt;stage_16 -->
<g id="edge79" class="edge">
<title>stage_9&#45;&gt;stage_16</title>
<path fill="none" stroke="black" d="M789.62,-251.41C888.69,-246.59 1064.24,-238.05 1167.65,-233.02"/>
<polygon fill="black" stroke="black" points="1167.64,-236.52 1177.46,-232.54 1167.3,-229.53 1167.64,-236.52"/>
</g>
<!-- stage_10 -->
<g id="node28" class="node">
<title>stage_10</title>
<path fill="none" stroke="black" d="M1068.88,-452C1068.88,-452 914.12,-452 914.12,-452 908.12,-452 902.12,-446 902.12,-440 902.12,-440 902.12,-428 902.12,-428 902.12,-422 908.12,-416 914.12,-416 914.12,-416 1068.88,-416 1068.88,-416 1074.88,-416 1080.88,-422 1080.88,-428 1080.88,-428 1080.88,-440 1080.88,-440 1080.88,-446 1074.88,-452 1068.88,-452"/>
<text text-anchor="middle" x="991.5" y="-428.95" font-family="Times,serif" font-size="14.00">universe&#45;common&#45;devel&#45;cuda</text>
</g>
<!-- stage_9&#45;&gt;stage_10 -->
<g id="edge74" class="edge">
<title>stage_9&#45;&gt;stage_10</title>
<path fill="none" stroke="black" d="M789.51,-270.96C809.84,-277.84 830.91,-287.51 847.75,-301 871.43,-319.97 862.92,-336.94 883.75,-359 902.41,-378.76 927.03,-396.47 947.93,-409.72"/>
<polygon fill="black" stroke="black" points="945.9,-412.58 956.25,-414.87 949.59,-406.63 945.9,-412.58"/>
</g>
<!-- stage_11&#45;&gt;stage_18 -->
<g id="edge84" class="edge">
<title>stage_11&#45;&gt;stage_18</title>
<path fill="none" stroke="black" stroke-dasharray="5,2" d="M1092.89,-553.58C1113.52,-556.78 1135.18,-560.14 1155.6,-563.31"/>
<polygon fill="none" stroke="black" points="1154.89,-566.74 1165.31,-564.82 1155.97,-559.83 1154.89,-566.74"/>
</g>
<!-- stage_11&#45;&gt;stage_12 -->
<g id="edge82" class="edge">
<title>stage_11&#45;&gt;stage_12</title>
<path fill="none" stroke="black" stroke-dasharray="5,2" d="M1092.89,-530.99C1103.06,-530.28 1113.49,-529.55 1123.89,-528.82"/>
<polygon fill="none" stroke="black" points="1123.91,-532.33 1133.64,-528.14 1123.42,-525.35 1123.91,-532.33"/>
</g>
<!-- stage_11&#45;&gt;stage_16 -->
<g id="edge83" class="edge">
<title>stage_11&#45;&gt;stage_16</title>
<path fill="none" stroke="black" stroke-dasharray="5,2" d="M1032.88,-519.59C1055.97,-506.95 1083.4,-487.95 1099.25,-463 1148.86,-384.93 1072.28,-325.76 1135.25,-258 1144.23,-248.34 1155.92,-241.7 1168.39,-237.17"/>
<polygon fill="none" stroke="black" points="1169.08,-240.62 1177.57,-234.29 1166.98,-233.94 1169.08,-240.62"/>
</g>
<!-- stage_12&#45;&gt;stage_19 -->
<g id="edge86" class="edge">
<title>stage_12&#45;&gt;stage_19</title>
<path fill="none" stroke="black" stroke-dasharray="5,2" d="M1337.35,-538.41C1347.57,-541.52 1357.75,-545.04 1367.25,-549 1403.09,-563.95 1440.67,-587.42 1466.9,-605.25"/>
<polygon fill="none" stroke="black" points="1464.91,-608.13 1475.13,-610.92 1468.88,-602.36 1464.91,-608.13"/>
</g>
<!-- stage_12&#45;&gt;stage_17 -->
<g id="edge85" class="edge">
<title>stage_12&#45;&gt;stage_17</title>
<path fill="none" stroke="black" stroke-dasharray="5,2" d="M1341.65,-501.58C1350.85,-497.41 1359.61,-492.28 1367.25,-486 1441.49,-424.9 1479.62,-311.86 1494.19,-258.43"/>
<polygon fill="none" stroke="black" points="1497.55,-259.41 1496.71,-248.85 1490.78,-257.63 1497.55,-259.41"/>
</g>
<!-- stage_13&#45;&gt;stage_20 -->
<g id="edge88" class="edge">
<title>stage_13&#45;&gt;stage_20</title>
<path fill="none" stroke="black" stroke-dasharray="5,2" d="M1089.58,-140.45C1108.99,-144.15 1129.44,-148.03 1148.99,-151.75"/>
<polygon fill="none" stroke="black" points="1148.1,-155.14 1158.58,-153.57 1149.41,-148.27 1148.1,-155.14"/>
</g>
<!-- stage_13&#45;&gt;stage_16 -->
<g id="edge87" class="edge">
<title>stage_13&#45;&gt;stage_16</title>
<path fill="none" stroke="black" stroke-dasharray="5,2" d="M1080.07,-140.41C1086.82,-143.42 1093.31,-146.93 1099.25,-151 1121.53,-166.29 1112.83,-184.92 1135.25,-200 1145.19,-206.69 1156.55,-211.83 1168.18,-215.79"/>
<polygon fill="none" stroke="black" points="1166.86,-219.05 1177.45,-218.66 1168.93,-212.36 1166.86,-219.05"/>
</g>
<!-- stage_14&#45;&gt;stage_21 -->
<g id="edge90" class="edge">
<title>stage_14&#45;&gt;stage_21</title>
<path fill="none" stroke="black" stroke-dasharray="5,2" d="M1067.09,-198.48C1078.37,-202.94 1089.48,-208.38 1099.25,-215 1119.89,-228.98 1114.14,-244.75 1135.25,-258 1143.49,-263.17 1152.6,-267.42 1161.98,-270.91"/>
<polygon fill="none" stroke="black" points="1160.63,-274.15 1171.23,-274.05 1162.88,-267.52 1160.63,-274.15"/>
</g>
<!-- stage_14&#45;&gt;stage_16 -->
<g id="edge89" class="edge">
<title>stage_14&#45;&gt;stage_16</title>
<path fill="none" stroke="black" stroke-dasharray="5,2" d="M1086.65,-197.9C1113.21,-202.95 1141.89,-208.4 1167.71,-213.31"/>
<polygon fill="none" stroke="black" points="1167,-216.74 1177.48,-215.17 1168.31,-209.86 1167,-216.74"/>
</g>
<!-- stage_15&#45;&gt;stage_22 -->
<g id="edge92" class="edge">
<title>stage_15&#45;&gt;stage_22</title>
<path fill="none" stroke="black" stroke-dasharray="5,2" d="M1029.98,-348.47C1075.6,-370.95 1152.71,-408.94 1202.53,-433.49"/>
<polygon fill="none" stroke="black" points="1200.85,-436.56 1211.37,-437.84 1203.94,-430.28 1200.85,-436.56"/>
</g>
<!-- stage_15&#45;&gt;stage_16 -->
<g id="edge91" class="edge">
<title>stage_15&#45;&gt;stage_16</title>
<path fill="none" stroke="black" stroke-dasharray="5,2" d="M1064.98,-311.52C1076.88,-307.01 1088.74,-301.56 1099.25,-295 1118.71,-282.85 1115.37,-269.46 1135.25,-258 1145.32,-252.19 1156.54,-247.54 1167.92,-243.81"/>
<polygon fill="none" stroke="black" points="1168.83,-247.19 1177.39,-240.94 1166.8,-240.49 1168.83,-247.19"/>
</g>
<!-- stage_16&#45;&gt;stage_23 -->
<g id="edge94" class="edge">
<title>stage_16&#45;&gt;stage_23</title>
<path fill="none" stroke="black" stroke-dasharray="5,2" d="M1323.64,-212.38C1353.35,-205.46 1388.02,-197.39 1418.82,-190.22"/>
<polygon fill="none" stroke="black" points="1419.56,-193.64 1428.5,-187.97 1417.97,-186.82 1419.56,-193.64"/>
</g>
<!-- stage_16&#45;&gt;stage_17 -->
<g id="edge93" class="edge">
<title>stage_16&#45;&gt;stage_17</title>
<path fill="none" stroke="black" stroke-dasharray="5,2" d="M1323.64,-229C1353.35,-229 1388.02,-229 1418.82,-229"/>
<polygon fill="none" stroke="black" points="1418.46,-232.5 1428.46,-229 1418.46,-225.5 1418.46,-232.5"/>
</g>
<!-- stage_17&#45;&gt;stage_24 -->
<g id="edge95" class="edge">
<title>stage_17&#45;&gt;stage_24</title>
<path fill="none" stroke="black" stroke-dasharray="5,2" d="M1574.83,-229C1591.43,-229 1609.23,-229 1626.25,-229"/>
<polygon fill="none" stroke="black" points="1625.79,-232.5 1635.79,-229 1625.79,-225.5 1625.79,-232.5"/>
</g>
<!-- stage_10&#45;&gt;stage_12 -->
<g id="edge80" class="edge">
<title>stage_10&#45;&gt;stage_12</title>
<path fill="none" stroke="black" d="M1040.8,-452.44C1068.33,-462.74 1103.56,-475.55 1135.25,-486 1147.84,-490.15 1161.28,-494.34 1174.37,-498.29"/>
<polygon fill="black" stroke="black" points="1173.22,-501.6 1183.81,-501.11 1175.23,-494.89 1173.22,-501.6"/>
</g>
<!-- stage_10&#45;&gt;stage_17 -->
<g id="edge81" class="edge">
<title>stage_10&#45;&gt;stage_17</title>
<path fill="none" stroke="black" d="M1072.34,-415.55C1149.85,-396.11 1269.75,-361.93 1367.25,-316 1403.7,-298.83 1441.94,-273.16 1468.22,-254.14"/>
<polygon fill="black" stroke="black" points="1470.12,-257.1 1476.12,-248.36 1465.98,-251.45 1470.12,-257.1"/>
</g>
</g>
</svg>
