<?xml version="1.0" encoding="UTF-8" standalone="no"?>
<!DOCTYPE svg PUBLIC "-//W3C//DTD SVG 1.1//EN"
 "http://www.w3.org/Graphics/SVG/1.1/DTD/svg11.dtd">
<!-- Generated by graphviz version 12.1.1 (20240910.0053)
 -->
<!-- Title: G Pages: 1 -->
<svg width="1858pt" height="739pt"
 viewBox="0.00 0.00 1858.25 739.46" xmlns="http://www.w3.org/2000/svg" xmlns:xlink="http://www.w3.org/1999/xlink">
<g id="graph0" class="graph" transform="scale(1 1) rotate(0) translate(4 735.46)">
<title>G</title>
<polygon fill="white" stroke="none" points="-4,4 -4,-735.46 1854.25,-735.46 1854.25,4 -4,4"/>
<g id="clust1" class="cluster">
<title>cluster_legend</title>
<polygon fill="none" stroke="black" points="8,-171 8,-245 358,-245 358,-171 8,-171"/>
</g>
<!-- key -->
<g id="node1" class="node">
<title>key</title>
<text text-anchor="start" x="122" y="-221.62" font-family="monospace" font-size="10.00">FROM ... </text>
<text text-anchor="start" x="80" y="-204.88" font-family="monospace" font-size="10.00">COPY &#45;&#45;from=... </text>
<text text-anchor="start" x="26" y="-188.12" font-family="monospace" font-size="10.00">RUN &#45;&#45;mount=(.*)from=... </text>
</g>
<!-- key2 -->
<g id="node2" class="node">
<title>key2</title>
<text text-anchor="start" x="320" y="-221.62" font-family="monospace" font-size="10.00"> </text>
<text text-anchor="start" x="320" y="-204.88" font-family="monospace" font-size="10.00"> </text>
<text text-anchor="start" x="320" y="-188.12" font-family="monospace" font-size="10.00"> </text>
</g>
<!-- key&#45;&gt;key2 -->
<g id="edge1" class="edge">
<title>key:e&#45;&gt;key2:w</title>
<path fill="none" stroke="black" d="M179,-224.75C236.38,-224.75 253.5,-224.75 305.69,-224.75"/>
<polygon fill="black" stroke="black" points="305.49,-228.25 315.49,-224.75 305.49,-221.25 305.49,-228.25"/>
</g>
<!-- key&#45;&gt;key2 -->
<g id="edge2" class="edge">
<title>key:e&#45;&gt;key2:w</title>
<path fill="none" stroke="black" stroke-dasharray="5,2" d="M179,-208C236.38,-208 253.5,-208 305.69,-208"/>
<polygon fill="none" stroke="black" points="305.49,-211.5 315.49,-208 305.49,-204.5 305.49,-211.5"/>
</g>
<!-- key&#45;&gt;key2 -->
<g id="edge3" class="edge">
<title>key:e&#45;&gt;key2:w</title>
<path fill="none" stroke="black" stroke-dasharray="1,5" d="M179,-191.25C235.78,-191.25 253.14,-191.25 304.07,-191.25"/>
<polygon fill="none" stroke="black" points="304.1,-191.25 310.1,-187.25 316.1,-191.25 310.1,-195.25 304.1,-191.25"/>
</g>
<!-- external_image_0 -->
<g id="node3" class="node">
<title>external_image_0</title>
<path fill="none" stroke="#333333" stroke-dasharray="5,2" d="M161,-334C161,-334 41,-334 41,-334 35,-334 29,-328 29,-322 29,-322 29,-310 29,-310 29,-304 35,-298 41,-298 41,-298 161,-298 161,-298 167,-298 173,-304 173,-310 173,-310 173,-322 173,-322 173,-328 167,-334 161,-334"/>
<text text-anchor="middle" x="101" y="-311.32" font-family="Times,serif" font-size="14.00" fill="#333333">$BASE_IMAGE</text>
</g>
<!-- stage_0 -->
<g id="node4" class="node">
<title>stage_0</title>
<path fill="none" stroke="black" d="M383,-367C383,-367 263,-367 263,-367 257,-367 251,-361 251,-355 251,-355 251,-343 251,-343 251,-337 257,-331 263,-331 263,-331 383,-331 383,-331 389,-331 395,-337 395,-343 395,-343 395,-355 395,-355 395,-361 389,-367 383,-367"/>
<text text-anchor="middle" x="323" y="-344.32" font-family="Times,serif" font-size="14.00">base</text>
</g>
<!-- external_image_0&#45;&gt;stage_0 -->
<g id="edge4" class="edge">
<title>external_image_0&#45;&gt;stage_0</title>
<path fill="none" stroke="black" d="M173.43,-326.71C194.48,-329.87 217.68,-333.35 239.37,-336.61"/>
<polygon fill="black" stroke="black" points="238.65,-340.04 249.06,-338.06 239.69,-333.11 238.65,-340.04"/>
</g>
<!-- stage_1 -->
<g id="node5" class="node">
<title>stage_1</title>
<path fill="none" stroke="black" d="M383,-302C383,-302 263,-302 263,-302 257,-302 251,-296 251,-290 251,-290 251,-278 251,-278 251,-272 257,-266 263,-266 263,-266 383,-266 383,-266 389,-266 395,-272 395,-278 395,-278 395,-290 395,-290 395,-296 389,-302 383,-302"/>
<text text-anchor="middle" x="323" y="-279.32" font-family="Times,serif" font-size="14.00">rosdep&#45;depend</text>
</g>
<!-- external_image_0&#45;&gt;stage_1 -->
<g id="edge5" class="edge">
<title>external_image_0&#45;&gt;stage_1</title>
<path fill="none" stroke="black" d="M173.43,-305.61C194.48,-302.55 217.68,-299.17 239.37,-296.02"/>
<polygon fill="black" stroke="black" points="239.66,-299.51 249.06,-294.61 238.66,-292.59 239.66,-299.51"/>
</g>
<!-- stage_7 -->
<g id="node6" class="node">
<title>stage_7</title>
<path fill="none" stroke="black" d="M592,-364C592,-364 472,-364 472,-364 466,-364 460,-358 460,-352 460,-352 460,-340 460,-340 460,-334 466,-328 472,-328 472,-328 592,-328 592,-328 598,-328 604,-334 604,-340 604,-340 604,-352 604,-352 604,-358 598,-364 592,-364"/>
<text text-anchor="middle" x="532" y="-341.32" font-family="Times,serif" font-size="14.00">core&#45;devel</text>
</g>
<!-- stage_0&#45;&gt;stage_7 -->
<g id="edge6" class="edge">
<title>stage_0&#45;&gt;stage_7</title>
<path fill="none" stroke="black" d="M395.24,-347.97C412.31,-347.72 430.69,-347.45 448.24,-347.2"/>
<polygon fill="black" stroke="black" points="448.17,-350.7 458.12,-347.06 448.07,-343.7 448.17,-350.7"/>
</g>
<!-- stage_14 -->
<g id="node7" class="node">
<title>stage_14</title>
<path fill="none" stroke="black" d="M1623.25,-657C1623.25,-657 1429.5,-657 1429.5,-657 1423.5,-657 1417.5,-651 1417.5,-645 1417.5,-645 1417.5,-633 1417.5,-633 1417.5,-627 1423.5,-621 1429.5,-621 1429.5,-621 1623.25,-621 1623.25,-621 1629.25,-621 1635.25,-627 1635.25,-633 1635.25,-633 1635.25,-645 1635.25,-645 1635.25,-651 1629.25,-657 1623.25,-657"/>
<text text-anchor="middle" x="1526.38" y="-634.33" font-family="Times,serif" font-size="14.00">universe&#45;sensing&#45;perception</text>
</g>
<!-- stage_0&#45;&gt;stage_14 -->
<g id="edge7" class="edge">
<title>stage_0&#45;&gt;stage_14</title>
<path fill="none" stroke="black" d="M840,-701C1003.08,-719.36 1045.33,-709.02 1209.25,-701"/>
<path fill="none" stroke="black" d="M1211.25,-701C1293.87,-696.96 1386.59,-676.66 1449.74,-660.38"/>
<polygon fill="black" stroke="black" points="1450.53,-663.79 1459.32,-657.88 1448.76,-657.02 1450.53,-663.79"/>
</g>
<!-- stage_15 -->
<g id="node8" class="node">
<title>stage_15</title>
<path fill="none" stroke="black" d="M1629.25,-592C1629.25,-592 1423.5,-592 1423.5,-592 1417.5,-592 1411.5,-586 1411.5,-580 1411.5,-580 1411.5,-568 1411.5,-568 1411.5,-562 1417.5,-556 1423.5,-556 1423.5,-556 1629.25,-556 1629.25,-556 1635.25,-556 1641.25,-562 1641.25,-568 1641.25,-568 1641.25,-580 1641.25,-580 1641.25,-586 1635.25,-592 1629.25,-592"/>
<text text-anchor="middle" x="1526.38" y="-569.33" font-family="Times,serif" font-size="14.00">universe&#45;localization&#45;mapping</text>
</g>
<!-- stage_0&#45;&gt;stage_15 -->
<g id="edge8" class="edge">
<title>stage_0&#45;&gt;stage_15</title>
<path fill="none" stroke="black" d="M1211.25,-576C1271.49,-557.05 1341.5,-554.84 1400.11,-558.09"/>
<polygon fill="black" stroke="black" points="1399.59,-561.57 1409.79,-558.69 1400.02,-554.58 1399.59,-561.57"/>
</g>
<!-- stage_16 -->
<g id="node9" class="node">
<title>stage_16</title>
<path fill="none" stroke="black" d="M1613.88,-411C1613.88,-411 1438.88,-411 1438.88,-411 1432.88,-411 1426.88,-405 1426.88,-399 1426.88,-399 1426.88,-387 1426.88,-387 1426.88,-381 1432.88,-375 1438.88,-375 1438.88,-375 1613.88,-375 1613.88,-375 1619.88,-375 1625.88,-381 1625.88,-387 1625.88,-387 1625.88,-399 1625.88,-399 1625.88,-405 1619.88,-411 1613.88,-411"/>
<text text-anchor="middle" x="1526.38" y="-388.32" font-family="Times,serif" font-size="14.00">universe&#45;planning&#45;control</text>
</g>
<!-- stage_0&#45;&gt;stage_16 -->
<g id="edge9" class="edge">
<title>stage_0&#45;&gt;stage_16</title>
<path fill="none" stroke="black" d="M336.31,-367.29C388.38,-442.23 599,-720.98 838,-701"/>
<path fill="none" stroke="black" d="M840,-701C1012.17,-720.38 1043.97,-627.98 1209.25,-576"/>
<path fill="none" stroke="black" d="M1211.25,-576C1323.66,-540.65 1439.18,-459.53 1493.49,-418.2"/>
<polygon fill="black" stroke="black" points="1495.29,-421.23 1501.09,-412.36 1491.03,-415.68 1495.29,-421.23"/>
</g>
<!-- stage_17 -->
<g id="node10" class="node">
<title>stage_17</title>
<path fill="none" stroke="black" d="M1608.25,-151C1608.25,-151 1444.5,-151 1444.5,-151 1438.5,-151 1432.5,-145 1432.5,-139 1432.5,-139 1432.5,-127 1432.5,-127 1432.5,-121 1438.5,-115 1444.5,-115 1444.5,-115 1608.25,-115 1608.25,-115 1614.25,-115 1620.25,-121 1620.25,-127 1620.25,-127 1620.25,-139 1620.25,-139 1620.25,-145 1614.25,-151 1608.25,-151"/>
<text text-anchor="middle" x="1526.38" y="-128.32" font-family="Times,serif" font-size="14.00">universe&#45;vehicle&#45;system</text>
</g>
<!-- stage_0&#45;&gt;stage_17 -->
<g id="edge10" class="edge">
<title>stage_0&#45;&gt;stage_17</title>
<path fill="none" stroke="black" d="M365.88,-330.66C375.5,-326.29 385.65,-321.58 395,-317 518.76,-256.44 538.55,-216.35 669,-172 676.21,-169.55 1201.65,-79.68 1209.25,-80"/>
</g>
<!-- stage_18 -->
<g id="node11" class="node">
<title>stage_18</title>
<path fill="#e5e5e5" stroke="black" d="M1838.25,-231C1838.25,-231 1718.25,-231 1718.25,-231 1712.25,-231 1706.25,-225 1706.25,-219 1706.25,-219 1706.25,-207 1706.25,-207 1706.25,-201 1712.25,-195 1718.25,-195 1718.25,-195 1838.25,-195 1838.25,-195 1844.25,-195 1850.25,-201 1850.25,-207 1850.25,-207 1850.25,-219 1850.25,-219 1850.25,-225 1844.25,-231 1838.25,-231"/>
<text text-anchor="middle" x="1778.25" y="-208.32" font-family="Times,serif" font-size="14.00">universe</text>
</g>
<!-- stage_0&#45;&gt;stage_18 -->
<g id="edge11" class="edge">
<title>stage_0&#45;&gt;stage_18</title>
<path fill="none" stroke="black" d="M1211.25,-701C1402.57,-691.64 1491.71,-791.7 1641.25,-672 1710.41,-616.64 1758.69,-335.19 1772.91,-242.58"/>
<polygon fill="black" stroke="black" points="1776.36,-243.2 1774.39,-232.79 1769.44,-242.15 1776.36,-243.2"/>
</g>
<!-- stage_1&#45;&gt;stage_7 -->
<g id="edge17" class="edge">
<title>stage_1&#45;&gt;stage_7</title>
<path fill="none" stroke="black" stroke-dasharray="5,2" d="M385.55,-302.43C408.49,-309.31 434.74,-317.17 458.57,-324.31"/>
<polygon fill="none" stroke="black" points="457.3,-327.58 467.88,-327.1 459.31,-320.87 457.3,-327.58"/>
</g>
<!-- stage_2 -->
<g id="node12" class="node">
<title>stage_2</title>
<path fill="none" stroke="black" d="M991,-473C991,-473 687,-473 687,-473 681,-473 675,-467 675,-461 675,-461 675,-449 675,-449 675,-443 681,-437 687,-437 687,-437 991,-437 991,-437 997,-437 1003,-443 1003,-449 1003,-449 1003,-461 1003,-461 1003,-467 997,-473 991,-473"/>
<text text-anchor="middle" x="839" y="-450.32" font-family="Times,serif" font-size="14.00">rosdep&#45;universe&#45;sensing&#45;perception&#45;depend</text>
</g>
<!-- stage_1&#45;&gt;stage_2 -->
<g id="edge12" class="edge">
<title>stage_1&#45;&gt;stage_2</title>
<path fill="none" stroke="black" d="M369.53,-302.46C378.27,-306.74 387.14,-311.64 395,-317 427.99,-339.49 424.59,-360.56 460,-379 522.29,-411.43 597,-430.05 663.5,-440.72"/>
<polygon fill="black" stroke="black" points="662.61,-444.13 673.03,-442.2 663.69,-437.21 662.61,-444.13"/>
</g>
<!-- stage_3 -->
<g id="node13" class="node">
<title>stage_3</title>
<path fill="none" stroke="black" d="M997,-352C997,-352 681,-352 681,-352 675,-352 669,-346 669,-340 669,-340 669,-328 669,-328 669,-322 675,-316 681,-316 681,-316 997,-316 997,-316 1003,-316 1009,-322 1009,-328 1009,-328 1009,-340 1009,-340 1009,-346 1003,-352 997,-352"/>
<text text-anchor="middle" x="839" y="-329.32" font-family="Times,serif" font-size="14.00">rosdep&#45;universe&#45;localization&#45;mapping&#45;depend</text>
</g>
<!-- stage_1&#45;&gt;stage_3 -->
<g id="edge13" class="edge">
<title>stage_1&#45;&gt;stage_3</title>
<path fill="none" stroke="black" d="M533,-284C570.88,-285.08 659.81,-300.19 731.93,-313.52"/>
<polygon fill="black" stroke="black" points="730.93,-316.89 741.4,-315.28 732.21,-310.01 730.93,-316.89"/>
</g>
<!-- stage_4 -->
<g id="node14" class="node">
<title>stage_4</title>
<path fill="none" stroke="black" d="M981.62,-287C981.62,-287 696.38,-287 696.38,-287 690.38,-287 684.38,-281 684.38,-275 684.38,-275 684.38,-263 684.38,-263 684.38,-257 690.38,-251 696.38,-251 696.38,-251 981.62,-251 981.62,-251 987.62,-251 993.62,-257 993.62,-263 993.62,-263 993.62,-275 993.62,-275 993.62,-281 987.62,-287 981.62,-287"/>
<text text-anchor="middle" x="839" y="-264.32" font-family="Times,serif" font-size="14.00">rosdep&#45;universe&#45;planning&#45;control&#45;depend</text>
</g>
<!-- stage_1&#45;&gt;stage_4 -->
<g id="edge14" class="edge">
<title>stage_1&#45;&gt;stage_4</title>
<path fill="none" stroke="black" d="M395.39,-283C435.29,-282.69 485.92,-282.72 531,-284"/>
<path fill="none" stroke="black" d="M533,-284C578.31,-285.29 627.38,-284.05 672.64,-281.81"/>
<polygon fill="black" stroke="black" points="672.74,-285.31 682.55,-281.31 672.38,-278.32 672.74,-285.31"/>
</g>
<!-- stage_5 -->
<g id="node15" class="node">
<title>stage_5</title>
<path fill="none" stroke="black" d="M976,-98C976,-98 702,-98 702,-98 696,-98 690,-92 690,-86 690,-86 690,-74 690,-74 690,-68 696,-62 702,-62 702,-62 976,-62 976,-62 982,-62 988,-68 988,-74 988,-74 988,-86 988,-86 988,-92 982,-98 976,-98"/>
<text text-anchor="middle" x="839" y="-75.33" font-family="Times,serif" font-size="14.00">rosdep&#45;universe&#45;vehicle&#45;system&#45;depend</text>
</g>
<!-- stage_1&#45;&gt;stage_5 -->
<g id="edge15" class="edge">
<title>stage_1&#45;&gt;stage_5</title>
<path fill="none" stroke="black" d="M533,-80C589.36,-59.23 655.66,-56.87 712.02,-60.68"/>
<polygon fill="black" stroke="black" points="711.41,-64.14 721.65,-61.4 711.94,-57.16 711.41,-64.14"/>
</g>
<!-- stage_6 -->
<g id="node16" class="node">
<title>stage_6</title>
<path fill="none" stroke="black" d="M1292.12,-36C1292.12,-36 1128.38,-36 1128.38,-36 1122.38,-36 1116.38,-30 1116.38,-24 1116.38,-24 1116.38,-12 1116.38,-12 1116.38,-6 1122.38,0 1128.38,0 1128.38,0 1292.12,0 1292.12,0 1298.12,0 1304.12,-6 1304.12,-12 1304.12,-12 1304.12,-24 1304.12,-24 1304.12,-30 1298.12,-36 1292.12,-36"/>
<text text-anchor="middle" x="1210.25" y="-13.32" font-family="Times,serif" font-size="14.00">rosdep&#45;universe&#45;depend</text>
</g>
<!-- stage_1&#45;&gt;stage_6 -->
<g id="edge16" class="edge">
<title>stage_1&#45;&gt;stage_6</title>
<path fill="none" stroke="black" d="M376.32,-265.56C383.1,-261.75 389.56,-257.26 395,-252 442.02,-206.56 415.06,-167.51 460,-120 484.89,-93.69 497.01,-92.52 531,-80"/>
<path fill="none" stroke="black" d="M533,-80C725.47,-9.08 968.68,-5.92 1104.76,-11.18"/>
<polygon fill="black" stroke="black" points="1104.33,-14.66 1114.47,-11.58 1104.62,-7.67 1104.33,-14.66"/>
</g>
<!-- stage_8 -->
<g id="node17" class="node">
<title>stage_8</title>
<path fill="none" stroke="black" d="M919.38,-222C919.38,-222 758.62,-222 758.62,-222 752.62,-222 746.62,-216 746.62,-210 746.62,-210 746.62,-198 746.62,-198 746.62,-192 752.62,-186 758.62,-186 758.62,-186 919.38,-186 919.38,-186 925.38,-186 931.38,-192 931.38,-198 931.38,-198 931.38,-210 931.38,-210 931.38,-216 925.38,-222 919.38,-222"/>
<text text-anchor="middle" x="839" y="-199.32" font-family="Times,serif" font-size="14.00">universe&#45;common&#45;devel</text>
</g>
<!-- stage_1&#45;&gt;stage_8 -->
<g id="edge19" class="edge">
<title>stage_1&#45;&gt;stage_8</title>
<path fill="none" stroke="black" stroke-dasharray="5,2" d="M533,-80C583.99,-61.21 727.5,-138.74 797.96,-179.88"/>
<polygon fill="none" stroke="black" points="796.11,-182.85 806.5,-184.9 799.66,-176.81 796.11,-182.85"/>
</g>
<!-- stage_7&#45;&gt;stage_8 -->
<g id="edge55" class="edge">
<title>stage_7&#45;&gt;stage_8</title>
<path fill="none" stroke="black" d="M570.46,-327.66C581.7,-321.45 593.75,-314.02 604,-306 637.18,-280.03 632.11,-257.35 669,-237 689.13,-225.9 712.42,-218.48 735.16,-213.55"/>
<polygon fill="black" stroke="black" points="735.66,-217.02 744.77,-211.62 734.28,-210.16 735.66,-217.02"/>
</g>
<!-- stage_2&#45;&gt;stage_14 -->
<g id="edge25" class="edge">
<title>stage_2&#45;&gt;stage_14</title>
<path fill="none" stroke="black" stroke-dasharray="5,2" d="M886.05,-473.49C932.83,-491.81 1007.65,-519.83 1074,-539 1188.36,-572.05 1321.72,-600.37 1413.67,-618.35"/>
<polygon fill="none" stroke="black" points="1412.99,-621.78 1423.47,-620.25 1414.32,-614.91 1412.99,-621.78"/>
</g>
<!-- stage_9 -->
<g id="node18" class="node">
<title>stage_9</title>
<path fill="none" stroke="black" d="M1328.5,-473C1328.5,-473 1092,-473 1092,-473 1086,-473 1080,-467 1080,-461 1080,-461 1080,-449 1080,-449 1080,-443 1086,-437 1092,-437 1092,-437 1328.5,-437 1328.5,-437 1334.5,-437 1340.5,-443 1340.5,-449 1340.5,-449 1340.5,-461 1340.5,-461 1340.5,-467 1334.5,-473 1328.5,-473"/>
<text text-anchor="middle" x="1210.25" y="-450.32" font-family="Times,serif" font-size="14.00">universe&#45;sensing&#45;perception&#45;devel</text>
</g>
<!-- stage_2&#45;&gt;stage_9 -->
<g id="edge22" class="edge">
<title>stage_2&#45;&gt;stage_9</title>
<path fill="none" stroke="black" stroke-dasharray="5,2" d="M1003.3,-455C1024.98,-455 1047.06,-455 1068.32,-455"/>
<polygon fill="none" stroke="black" points="1068.19,-458.5 1078.19,-455 1068.19,-451.5 1068.19,-458.5"/>
</g>
<!-- stage_3&#45;&gt;stage_15 -->
<g id="edge29" class="edge">
<title>stage_3&#45;&gt;stage_15</title>
<path fill="none" stroke="black" stroke-dasharray="5,2" d="M883.4,-352.45C918.84,-368.52 969.36,-393.79 1009,-423 1041.89,-447.24 1037.89,-468.89 1074,-488 1129.35,-517.3 1286.62,-543.01 1399.95,-558.51"/>
<polygon fill="none" stroke="black" points="1399.24,-561.95 1409.62,-559.82 1400.18,-555.01 1399.24,-561.95"/>
</g>
<!-- stage_10 -->
<g id="node19" class="node">
<title>stage_10</title>
<path fill="none" stroke="black" d="M1334.5,-349C1334.5,-349 1086,-349 1086,-349 1080,-349 1074,-343 1074,-337 1074,-337 1074,-325 1074,-325 1074,-319 1080,-313 1086,-313 1086,-313 1334.5,-313 1334.5,-313 1340.5,-313 1346.5,-319 1346.5,-325 1346.5,-325 1346.5,-337 1346.5,-337 1346.5,-343 1340.5,-349 1334.5,-349"/>
<text text-anchor="middle" x="1210.25" y="-326.32" font-family="Times,serif" font-size="14.00">universe&#45;localization&#45;mapping&#45;devel</text>
</g>
<!-- stage_3&#45;&gt;stage_10 -->
<g id="edge26" class="edge">
<title>stage_3&#45;&gt;stage_10</title>
<path fill="none" stroke="black" stroke-dasharray="5,2" d="M1009.5,-332.62C1027.15,-332.48 1044.98,-332.33 1062.36,-332.19"/>
<polygon fill="none" stroke="black" points="1062.21,-335.69 1072.18,-332.11 1062.16,-328.7 1062.21,-335.69"/>
</g>
<!-- stage_4&#45;&gt;stage_16 -->
<g id="edge37" class="edge">
<title>stage_4&#45;&gt;stage_16</title>
<path fill="none" stroke="black" stroke-dasharray="5,2" d="M973.03,-287.39C985.52,-291.36 997.71,-296.16 1009,-302 1044.46,-320.34 1037.43,-347.98 1074,-364 1182.86,-411.7 1320.76,-413.13 1415.33,-406.34"/>
<polygon fill="none" stroke="black" points="1415.43,-409.84 1425.13,-405.58 1414.89,-402.86 1415.43,-409.84"/>
</g>
<!-- stage_11 -->
<g id="node20" class="node">
<title>stage_11</title>
<path fill="none" stroke="black" d="M1319.12,-284C1319.12,-284 1101.38,-284 1101.38,-284 1095.38,-284 1089.38,-278 1089.38,-272 1089.38,-272 1089.38,-260 1089.38,-260 1089.38,-254 1095.38,-248 1101.38,-248 1101.38,-248 1319.12,-248 1319.12,-248 1325.12,-248 1331.12,-254 1331.12,-260 1331.12,-260 1331.12,-272 1331.12,-272 1331.12,-278 1325.12,-284 1319.12,-284"/>
<text text-anchor="middle" x="1210.25" y="-261.32" font-family="Times,serif" font-size="14.00">universe&#45;planning&#45;control&#45;devel</text>
</g>
<!-- stage_4&#45;&gt;stage_11 -->
<g id="edge30" class="edge">
<title>stage_4&#45;&gt;stage_11</title>
<path fill="none" stroke="black" stroke-dasharray="5,2" d="M993.92,-267.75C1021.71,-267.52 1050.46,-267.29 1077.54,-267.07"/>
<polygon fill="none" stroke="black" points="1077.56,-270.57 1087.53,-266.99 1077.5,-263.57 1077.56,-270.57"/>
</g>
<!-- stage_5&#45;&gt;stage_17 -->
<g id="edge43" class="edge">
<title>stage_5&#45;&gt;stage_17</title>
<path fill="none" stroke="black" stroke-dasharray="5,2" d="M988.29,-77.2C1055.73,-76.65 1136.55,-76.99 1209.25,-80"/>
<path fill="none" stroke="black" stroke-dasharray="5,2" d="M1211.25,-80C1288.53,-83.2 1375.12,-98.72 1437.79,-112.15"/>
<polygon fill="none" stroke="black" points="1436.82,-115.52 1447.33,-114.22 1438.3,-108.68 1436.82,-115.52"/>
</g>
<!-- stage_12 -->
<g id="node21" class="node">
<title>stage_12</title>
<path fill="none" stroke="black" d="M1313.5,-160C1313.5,-160 1107,-160 1107,-160 1101,-160 1095,-154 1095,-148 1095,-148 1095,-136 1095,-136 1095,-130 1101,-124 1107,-124 1107,-124 1313.5,-124 1313.5,-124 1319.5,-124 1325.5,-130 1325.5,-136 1325.5,-136 1325.5,-148 1325.5,-148 1325.5,-154 1319.5,-160 1313.5,-160"/>
<text text-anchor="middle" x="1210.25" y="-137.32" font-family="Times,serif" font-size="14.00">universe&#45;vehicle&#45;system&#45;devel</text>
</g>
<!-- stage_5&#45;&gt;stage_12 -->
<g id="edge38" class="edge">
<title>stage_5&#45;&gt;stage_12</title>
<path fill="none" stroke="black" stroke-dasharray="5,2" d="M949.79,-98.43C993.29,-105.74 1043.48,-114.17 1088.05,-121.65"/>
<polygon fill="none" stroke="black" points="1087.31,-125.07 1097.76,-123.28 1088.47,-118.17 1087.31,-125.07"/>
</g>
<!-- stage_6&#45;&gt;stage_18 -->
<g id="edge54" class="edge">
<title>stage_6&#45;&gt;stage_18</title>
<path fill="none" stroke="black" stroke-dasharray="5,2" d="M1304.31,-22.32C1394.31,-29.53 1532.65,-48.76 1641.25,-100 1685.9,-121.07 1728.12,-160.26 1753.35,-186.49"/>
<polygon fill="none" stroke="black" points="1750.78,-188.87 1760.19,-193.74 1755.87,-184.07 1750.78,-188.87"/>
</g>
<!-- stage_13 -->
<g id="node22" class="node">
<title>stage_13</title>
<path fill="none" stroke="black" d="M1586.38,-231C1586.38,-231 1466.38,-231 1466.38,-231 1460.38,-231 1454.38,-225 1454.38,-219 1454.38,-219 1454.38,-207 1454.38,-207 1454.38,-201 1460.38,-195 1466.38,-195 1466.38,-195 1586.38,-195 1586.38,-195 1592.38,-195 1598.38,-201 1598.38,-207 1598.38,-207 1598.38,-219 1598.38,-219 1598.38,-225 1592.38,-231 1586.38,-231"/>
<text text-anchor="middle" x="1526.38" y="-208.32" font-family="Times,serif" font-size="14.00">universe&#45;devel</text>
</g>
<!-- stage_6&#45;&gt;stage_13 -->
<g id="edge44" class="edge">
<title>stage_6&#45;&gt;stage_13</title>
<path fill="none" stroke="black" stroke-dasharray="5,2" d="M1241.03,-36.48C1268.95,-54.17 1311.52,-82.07 1346.5,-109 1376.95,-132.44 1378.86,-145.73 1411.5,-166 1426.48,-175.3 1443.62,-183.49 1459.98,-190.31"/>
<polygon fill="none" stroke="black" points="1458.6,-193.53 1469.18,-194.03 1461.22,-187.04 1458.6,-193.53"/>
</g>
<!-- stage_8&#45;&gt;stage_9 -->
<g id="edge56" class="edge">
<title>stage_8&#45;&gt;stage_9</title>
<path fill="none" stroke="black" d="M931.72,-206.84C958.72,-211.45 986.91,-220.37 1009,-237 1059.66,-275.14 1031.91,-316.57 1074,-364 1098.68,-391.81 1133.64,-415.04 1161.84,-431.07"/>
<polygon fill="black" stroke="black" points="1160.12,-434.12 1170.57,-435.91 1163.52,-428 1160.12,-434.12"/>
</g>
<!-- stage_8&#45;&gt;stage_10 -->
<g id="edge57" class="edge">
<title>stage_8&#45;&gt;stage_10</title>
<path fill="none" stroke="black" d="M931.75,-212.2C957.74,-217.06 985.37,-224.78 1009,-237 1044.46,-255.34 1038.91,-279.96 1074,-299 1080.63,-302.59 1087.65,-305.79 1094.87,-308.63"/>
<polygon fill="black" stroke="black" points="1093.57,-311.87 1104.16,-312.01 1095.96,-305.3 1093.57,-311.87"/>
</g>
<!-- stage_8&#45;&gt;stage_11 -->
<g id="edge58" class="edge">
<title>stage_8&#45;&gt;stage_11</title>
<path fill="none" stroke="black" d="M931.75,-219.41C979.01,-227.34 1037.25,-237.12 1088.15,-245.67"/>
<polygon fill="black" stroke="black" points="1087.29,-249.07 1097.74,-247.28 1088.45,-242.17 1087.29,-249.07"/>
</g>
<!-- stage_8&#45;&gt;stage_12 -->
<g id="edge59" class="edge">
<title>stage_8&#45;&gt;stage_12</title>
<path fill="none" stroke="black" d="M931.75,-188.59C979.01,-180.66 1037.25,-170.88 1088.15,-162.33"/>
<polygon fill="black" stroke="black" points="1088.45,-165.83 1097.74,-160.72 1087.29,-158.93 1088.45,-165.83"/>
</g>
<!-- stage_8&#45;&gt;stage_13 -->
<g id="edge60" class="edge">
<title>stage_8&#45;&gt;stage_13</title>
<path fill="none" stroke="black" d="M931.72,-205.2C1065.92,-206.97 1313.77,-210.22 1442.66,-211.91"/>
<polygon fill="black" stroke="black" points="1442.44,-215.41 1452.48,-212.04 1442.53,-208.41 1442.44,-215.41"/>
</g>
<!-- stage_9&#45;&gt;stage_14 -->
<g id="edge62" class="edge">
<title>stage_9&#45;&gt;stage_14</title>
<path fill="none" stroke="black" stroke-dasharray="5,2" d="M1237.22,-473.4C1264.67,-492.99 1309.09,-525.08 1346.5,-554 1375.99,-576.79 1378.42,-589.82 1411.5,-607 1418.37,-610.57 1425.7,-613.78 1433.18,-616.67"/>
<polygon fill="none" stroke="black" points="1431.83,-619.9 1442.43,-620.01 1434.21,-613.32 1431.83,-619.9"/>
</g>
<!-- stage_9&#45;&gt;stage_13 -->
<g id="edge61" class="edge">
<title>stage_9&#45;&gt;stage_13</title>
<path fill="none" stroke="black" stroke-dasharray="5,2" d="M1240.64,-436.54C1268.48,-418.75 1311.15,-390.69 1346.5,-364 1401.52,-322.46 1462.16,-269.68 1496.82,-238.78"/>
<polygon fill="none" stroke="black" points="1498.8,-241.71 1503.92,-232.43 1494.13,-236.49 1498.8,-241.71"/>
</g>
<!-- stage_10&#45;&gt;stage_15 -->
<g id="edge64" class="edge">
<title>stage_10&#45;&gt;stage_15</title>
<path fill="none" stroke="black" stroke-dasharray="5,2" d="M1240.09,-349.37C1267.89,-367.37 1310.87,-395.96 1346.5,-423 1401.41,-464.68 1462.09,-517.42 1496.78,-548.26"/>
<polygon fill="none" stroke="black" points="1494.1,-550.56 1503.89,-554.61 1498.76,-545.34 1494.1,-550.56"/>
</g>
<!-- stage_10&#45;&gt;stage_13 -->
<g id="edge63" class="edge">
<title>stage_10&#45;&gt;stage_13</title>
<path fill="none" stroke="black" stroke-dasharray="5,2" d="M1301.52,-312.51C1316.7,-308.59 1332.17,-304.07 1346.5,-299 1394.69,-281.94 1447.1,-255.77 1482.65,-236.78"/>
<polygon fill="none" stroke="black" points="1484.19,-239.93 1491.34,-232.1 1480.87,-233.76 1484.19,-239.93"/>
</g>
<!-- stage_11&#45;&gt;stage_16 -->
<g id="edge66" class="edge">
<title>stage_11&#45;&gt;stage_16</title>
<path fill="none" stroke="black" stroke-dasharray="5,2" d="M1300.23,-284.42C1315.85,-288.58 1331.81,-293.44 1346.5,-299 1396.74,-318 1450.87,-347.9 1486.26,-368.86"/>
<polygon fill="none" stroke="black" points="1484.05,-371.62 1494.43,-373.74 1487.64,-365.61 1484.05,-371.62"/>
</g>
<!-- stage_11&#45;&gt;stage_13 -->
<g id="edge65" class="edge">
<title>stage_11&#45;&gt;stage_13</title>
<path fill="none" stroke="black" stroke-dasharray="5,2" d="M1320.67,-247.54C1360.79,-240.77 1405.49,-233.23 1442.85,-226.92"/>
<polygon fill="none" stroke="black" points="1443.43,-230.38 1452.71,-225.26 1442.27,-223.47 1443.43,-230.38"/>
</g>
<!-- stage_12&#45;&gt;stage_17 -->
<g id="edge68" class="edge">
<title>stage_12&#45;&gt;stage_17</title>
<path fill="none" stroke="black" stroke-dasharray="5,2" d="M1325.99,-138.71C1356.92,-137.83 1390.21,-136.87 1420.56,-136"/>
<polygon fill="none" stroke="black" points="1420.63,-139.5 1430.53,-135.72 1420.43,-132.51 1420.63,-139.5"/>
</g>
<!-- stage_12&#45;&gt;stage_13 -->
<g id="edge67" class="edge">
<title>stage_12&#45;&gt;stage_13</title>
<path fill="none" stroke="black" stroke-dasharray="5,2" d="M1292.96,-160.47C1339.06,-170.89 1396.51,-183.87 1442.76,-194.33"/>
<polygon fill="none" stroke="black" points="1441.95,-197.73 1452.48,-196.52 1443.5,-190.9 1441.95,-197.73"/>
</g>
<!-- stage_13&#45;&gt;stage_18 -->
<g id="edge69" class="edge">
<title>stage_13&#45;&gt;stage_18</title>
<path fill="none" stroke="black" stroke-dasharray="5,2" d="M1598.64,-213C1628.58,-213 1663.59,-213 1694.64,-213"/>
<polygon fill="none" stroke="black" points="1694.37,-216.5 1704.37,-213 1694.37,-209.5 1694.37,-216.5"/>
</g>
</g>
</svg>
