<?xml version="1.0" encoding="utf-8" standalone="no"?>
<!DOCTYPE svg PUBLIC "-//W3C//DTD SVG 1.1//EN" "http://www.w3.org/Graphics/SVG/1.1/DTD/svg11.dtd">
<svg xmlns:xlink="http://www.w3.org/1999/xlink" width="1152pt" height="576pt" viewBox="0 0 1152 576" xmlns="http://www.w3.org/2000/svg" version="1.1">
  <metadata>
    <rdf:RDF xmlns:dc="http://purl.org/dc/elements/1.1/" xmlns:cc="http://creativecommons.org/ns#" xmlns:rdf="http://www.w3.org/1999/02/22-rdf-syntax-ns#">
      <cc:Work>
        <dc:type rdf:resource="http://purl.org/dc/dcmitype/StillImage"/>
        <dc:date>2024-08-19T15:08:36.202767</dc:date>
        <dc:format>image/svg+xml</dc:format>
        <dc:creator>
          <cc:Agent>
            <dc:title>Matplotlib v3.5.1, https://matplotlib.org/</dc:title>
          </cc:Agent>
        </dc:creator>
      </cc:Work>
    </rdf:RDF>
  </metadata>
  <defs>
    <style type="text/css">
* {
  stroke-linejoin: round;
  stroke-linecap: butt;
}
    </style>
  </defs>
  <g id="figure_1">
    <g id="patch_1">
      <path d="M 0 576
L 1152 576
L 1152 0
L 0 0
z
" style="fill: #ffffff"/>
    </g>
    <g id="axes_1">
      <g id="patch_2">
        <path d="M 55.2 533.22
L 575.55 533.22
L 575.55 45.744
L 55.2 45.744
z
" style="fill: #ffffff"/>
      </g>
      <g id="matplotlib.axis_1">
        <g id="xtick_1">
          <g id="line2d_1">
            <path
              d="M 78.852273 533.22
L 78.852273 45.744
"
              clip-path="url(#p9cf408fef2)"
              style="fill: none; stroke-dasharray: 2.96,1.28; stroke-dashoffset: 0; stroke: #cccccc; stroke-opacity: 0.7; stroke-width: 0.8"
            />
          </g>
          <g id="line2d_2"/>
          <g id="text_1">
            <!-- −10.0 -->
            <g style="fill: #262626" transform="translate(63.671335 545.41625)scale(0.12 -0.12)">
              <defs>
                <path id="LiberationSans-2212" d="M 316 1900
L 316 2356
L 3425 2356
L 3425 1900
L 316 1900
z
" transform="scale(0.015625)"/>
                <path id="LiberationSans-31" d="M 488 0
L 488 478
L 1609 478
L 1609 3866
L 616 3156
L 616 3688
L 1656 4403
L 2175 4403
L 2175 478
L 3247 478
L 3247 0
L 488 0
z
" transform="scale(0.015625)"/>
                <path
                  id="LiberationSans-30"
                  d="M 3309 2203
Q 3309 1569 3189 1136
Q 3069 703 2861 436
Q 2653 169 2372 53
Q 2091 -63 1772 -63
Q 1450 -63 1172 53
Q 894 169 689 434
Q 484 700 367 1133
Q 250 1566 250 2203
Q 250 2869 367 3305
Q 484 3741 690 4000
Q 897 4259 1178 4364
Q 1459 4469 1791 4469
Q 2106 4469 2382 4364
Q 2659 4259 2865 4000
Q 3072 3741 3190 3305
Q 3309 2869 3309 2203
z
M 2738 2203
Q 2738 2728 2675 3076
Q 2613 3425 2491 3633
Q 2369 3841 2192 3927
Q 2016 4013 1791 4013
Q 1553 4013 1372 3925
Q 1191 3838 1067 3630
Q 944 3422 881 3073
Q 819 2725 819 2203
Q 819 1697 883 1350
Q 947 1003 1070 792
Q 1194 581 1372 489
Q 1550 397 1778 397
Q 2000 397 2178 489
Q 2356 581 2479 792
Q 2603 1003 2670 1350
Q 2738 1697 2738 2203
z
"
                  transform="scale(0.015625)"
                />
                <path id="LiberationSans-2e" d="M 584 0
L 584 684
L 1194 684
L 1194 0
L 584 0
z
" transform="scale(0.015625)"/>
              </defs>
              <use xlink:href="#LiberationSans-2212"/>
              <use xlink:href="#LiberationSans-31" x="58.398438"/>
              <use xlink:href="#LiberationSans-30" x="114.013672"/>
              <use xlink:href="#LiberationSans-2e" x="169.628906"/>
              <use xlink:href="#LiberationSans-30" x="197.412109"/>
            </g>
          </g>
        </g>
        <g id="xtick_2">
          <g id="line2d_3">
            <path
              d="M 137.982955 533.22
L 137.982955 45.744
"
              clip-path="url(#p9cf408fef2)"
              style="fill: none; stroke-dasharray: 2.96,1.28; stroke-dashoffset: 0; stroke: #cccccc; stroke-opacity: 0.7; stroke-width: 0.8"
            />
          </g>
          <g id="line2d_4"/>
          <g id="text_2">
            <!-- −7.5 -->
            <g style="fill: #262626" transform="translate(126.13858 545.41625)scale(0.12 -0.12)">
              <defs>
                <path
                  id="LiberationSans-37"
                  d="M 3238 3947
Q 2906 3441 2628 2973
Q 2350 2506 2150 2032
Q 1950 1559 1839 1061
Q 1728 563 1728 0
L 1141 0
Q 1141 528 1266 1036
Q 1391 1544 1603 2033
Q 1816 2522 2097 2994
Q 2378 3466 2694 3925
L 328 3925
L 328 4403
L 3238 4403
L 3238 3947
z
"
                  transform="scale(0.015625)"
                />
                <path
                  id="LiberationSans-35"
                  d="M 3291 1434
Q 3291 1103 3191 828
Q 3091 553 2894 354
Q 2697 156 2405 46
Q 2113 -63 1728 -63
Q 1381 -63 1123 18
Q 866 100 687 242
Q 509 384 404 575
Q 300 766 256 984
L 825 1050
Q 859 925 921 808
Q 984 691 1092 598
Q 1200 506 1358 451
Q 1516 397 1741 397
Q 1959 397 2137 464
Q 2316 531 2442 662
Q 2569 794 2637 984
Q 2706 1175 2706 1422
Q 2706 1625 2640 1795
Q 2575 1966 2453 2089
Q 2331 2213 2154 2281
Q 1978 2350 1753 2350
Q 1613 2350 1494 2325
Q 1375 2300 1273 2256
Q 1172 2213 1089 2155
Q 1006 2097 934 2034
L 384 2034
L 531 4403
L 3034 4403
L 3034 3925
L 1044 3925
L 959 2528
Q 1109 2644 1334 2726
Q 1559 2809 1869 2809
Q 2197 2809 2459 2709
Q 2722 2609 2906 2426
Q 3091 2244 3191 1991
Q 3291 1738 3291 1434
z
"
                  transform="scale(0.015625)"
                />
              </defs>
              <use xlink:href="#LiberationSans-2212"/>
              <use xlink:href="#LiberationSans-37" x="58.398438"/>
              <use xlink:href="#LiberationSans-2e" x="114.013672"/>
              <use xlink:href="#LiberationSans-35" x="141.796875"/>
            </g>
          </g>
        </g>
        <g id="xtick_3">
          <g id="line2d_5">
            <path
              d="M 197.113636 533.22
L 197.113636 45.744
"
              clip-path="url(#p9cf408fef2)"
              style="fill: none; stroke-dasharray: 2.96,1.28; stroke-dashoffset: 0; stroke: #cccccc; stroke-opacity: 0.7; stroke-width: 0.8"
            />
          </g>
          <g id="line2d_6"/>
          <g id="text_3">
            <!-- −5.0 -->
            <g style="fill: #262626" transform="translate(185.269261 545.41625)scale(0.12 -0.12)">
              <use xlink:href="#LiberationSans-2212"/>
              <use xlink:href="#LiberationSans-35" x="58.398438"/>
              <use xlink:href="#LiberationSans-2e" x="114.013672"/>
              <use xlink:href="#LiberationSans-30" x="141.796875"/>
            </g>
          </g>
        </g>
        <g id="xtick_4">
          <g id="line2d_7">
            <path
              d="M 256.244318 533.22
L 256.244318 45.744
"
              clip-path="url(#p9cf408fef2)"
              style="fill: none; stroke-dasharray: 2.96,1.28; stroke-dashoffset: 0; stroke: #cccccc; stroke-opacity: 0.7; stroke-width: 0.8"
            />
          </g>
          <g id="line2d_8"/>
          <g id="text_4">
            <!-- −2.5 -->
            <g style="fill: #262626" transform="translate(244.399943 545.41625)scale(0.12 -0.12)">
              <defs>
                <path
                  id="LiberationSans-32"
                  d="M 322 0
L 322 397
Q 481 763 711 1042
Q 941 1322 1194 1548
Q 1447 1775 1695 1969
Q 1944 2163 2144 2356
Q 2344 2550 2467 2762
Q 2591 2975 2591 3244
Q 2591 3431 2534 3573
Q 2478 3716 2372 3812
Q 2266 3909 2117 3957
Q 1969 4006 1788 4006
Q 1619 4006 1470 3959
Q 1322 3913 1206 3819
Q 1091 3725 1017 3586
Q 944 3447 922 3263
L 347 3316
Q 375 3553 478 3762
Q 581 3972 762 4130
Q 944 4288 1198 4378
Q 1453 4469 1788 4469
Q 2116 4469 2372 4391
Q 2628 4313 2804 4159
Q 2981 4006 3075 3781
Q 3169 3556 3169 3263
Q 3169 3041 3089 2841
Q 3009 2641 2876 2459
Q 2744 2278 2569 2109
Q 2394 1941 2203 1780
Q 2013 1619 1819 1461
Q 1625 1303 1454 1143
Q 1284 984 1150 820
Q 1016 656 941 478
L 3238 478
L 3238 0
L 322 0
z
"
                  transform="scale(0.015625)"
                />
              </defs>
              <use xlink:href="#LiberationSans-2212"/>
              <use xlink:href="#LiberationSans-32" x="58.398438"/>
              <use xlink:href="#LiberationSans-2e" x="114.013672"/>
              <use xlink:href="#LiberationSans-35" x="141.796875"/>
            </g>
          </g>
        </g>
        <g id="xtick_5">
          <g id="line2d_9">
            <path
              d="M 315.375 533.22
L 315.375 45.744
"
              clip-path="url(#p9cf408fef2)"
              style="fill: none; stroke-dasharray: 2.96,1.28; stroke-dashoffset: 0; stroke: #cccccc; stroke-opacity: 0.7; stroke-width: 0.8"
            />
          </g>
          <g id="line2d_10"/>
          <g id="text_5">
            <!-- 0.0 -->
            <g style="fill: #262626" transform="translate(307.035 545.41625)scale(0.12 -0.12)">
              <use xlink:href="#LiberationSans-30"/>
              <use xlink:href="#LiberationSans-2e" x="55.615234"/>
              <use xlink:href="#LiberationSans-30" x="83.398438"/>
            </g>
          </g>
        </g>
        <g id="xtick_6">
          <g id="line2d_11">
            <path
              d="M 374.505682 533.22
L 374.505682 45.744
"
              clip-path="url(#p9cf408fef2)"
              style="fill: none; stroke-dasharray: 2.96,1.28; stroke-dashoffset: 0; stroke: #cccccc; stroke-opacity: 0.7; stroke-width: 0.8"
            />
          </g>
          <g id="line2d_12"/>
          <g id="text_6">
            <!-- 2.5 -->
            <g style="fill: #262626" transform="translate(366.165682 545.41625)scale(0.12 -0.12)">
              <use xlink:href="#LiberationSans-32"/>
              <use xlink:href="#LiberationSans-2e" x="55.615234"/>
              <use xlink:href="#LiberationSans-35" x="83.398438"/>
            </g>
          </g>
        </g>
        <g id="xtick_7">
          <g id="line2d_13">
            <path
              d="M 433.636364 533.22
L 433.636364 45.744
"
              clip-path="url(#p9cf408fef2)"
              style="fill: none; stroke-dasharray: 2.96,1.28; stroke-dashoffset: 0; stroke: #cccccc; stroke-opacity: 0.7; stroke-width: 0.8"
            />
          </g>
          <g id="line2d_14"/>
          <g id="text_7">
            <!-- 5.0 -->
            <g style="fill: #262626" transform="translate(425.296364 545.41625)scale(0.12 -0.12)">
              <use xlink:href="#LiberationSans-35"/>
              <use xlink:href="#LiberationSans-2e" x="55.615234"/>
              <use xlink:href="#LiberationSans-30" x="83.398438"/>
            </g>
          </g>
        </g>
        <g id="xtick_8">
          <g id="line2d_15">
            <path
              d="M 492.767045 533.22
L 492.767045 45.744
"
              clip-path="url(#p9cf408fef2)"
              style="fill: none; stroke-dasharray: 2.96,1.28; stroke-dashoffset: 0; stroke: #cccccc; stroke-opacity: 0.7; stroke-width: 0.8"
            />
          </g>
          <g id="line2d_16"/>
          <g id="text_8">
            <!-- 7.5 -->
            <g style="fill: #262626" transform="translate(484.427045 545.41625)scale(0.12 -0.12)">
              <use xlink:href="#LiberationSans-37"/>
              <use xlink:href="#LiberationSans-2e" x="55.615234"/>
              <use xlink:href="#LiberationSans-35" x="83.398438"/>
            </g>
          </g>
        </g>
        <g id="xtick_9">
          <g id="line2d_17">
            <path
              d="M 551.897727 533.22
L 551.897727 45.744
"
              clip-path="url(#p9cf408fef2)"
              style="fill: none; stroke-dasharray: 2.96,1.28; stroke-dashoffset: 0; stroke: #cccccc; stroke-opacity: 0.7; stroke-width: 0.8"
            />
          </g>
          <g id="line2d_18"/>
          <g id="text_9">
            <!-- 10.0 -->
            <g style="fill: #262626" transform="translate(540.221165 545.41625)scale(0.12 -0.12)">
              <use xlink:href="#LiberationSans-31"/>
              <use xlink:href="#LiberationSans-30" x="55.615234"/>
              <use xlink:href="#LiberationSans-2e" x="111.230469"/>
              <use xlink:href="#LiberationSans-30" x="139.013672"/>
            </g>
          </g>
        </g>
        <g id="text_10">
          <!-- Steer Wheel [rad] -->
          <g style="fill: #262626" transform="translate(260.909531 562.051875)scale(0.14 -0.14)">
            <defs>
              <path
                id="LiberationSans-53"
                d="M 3975 1216
Q 3975 938 3867 703
Q 3759 469 3534 298
Q 3309 128 2967 32
Q 2625 -63 2156 -63
Q 1334 -63 875 225
Q 416 513 291 1056
L 869 1172
Q 913 1000 1003 859
Q 1094 719 1248 617
Q 1403 516 1631 459
Q 1859 403 2178 403
Q 2444 403 2666 448
Q 2888 494 3047 587
Q 3206 681 3295 829
Q 3384 978 3384 1184
Q 3384 1400 3286 1534
Q 3188 1669 3009 1756
Q 2831 1844 2584 1903
Q 2338 1963 2038 2031
Q 1853 2072 1667 2120
Q 1481 2169 1311 2236
Q 1141 2303 991 2393
Q 841 2484 731 2611
Q 622 2738 559 2905
Q 497 3072 497 3291
Q 497 3603 623 3826
Q 750 4050 975 4194
Q 1200 4338 1506 4403
Q 1813 4469 2169 4469
Q 2578 4469 2868 4405
Q 3159 4341 3359 4212
Q 3559 4084 3679 3895
Q 3800 3706 3872 3456
L 3284 3353
Q 3241 3513 3158 3638
Q 3075 3763 2940 3847
Q 2806 3931 2614 3975
Q 2422 4019 2163 4019
Q 1856 4019 1648 3964
Q 1441 3909 1314 3815
Q 1188 3722 1133 3595
Q 1078 3469 1078 3322
Q 1078 3125 1176 2998
Q 1275 2872 1444 2787
Q 1613 2703 1834 2647
Q 2056 2591 2306 2534
Q 2509 2488 2711 2439
Q 2913 2391 3097 2323
Q 3281 2256 3442 2165
Q 3603 2075 3722 1944
Q 3841 1813 3908 1634
Q 3975 1456 3975 1216
z
"
                transform="scale(0.015625)"
              />
              <path
                id="LiberationSans-74"
                d="M 1731 25
Q 1603 -9 1470 -29
Q 1338 -50 1163 -50
Q 488 -50 488 716
L 488 2972
L 97 2972
L 97 3381
L 509 3381
L 675 4138
L 1050 4138
L 1050 3381
L 1675 3381
L 1675 2972
L 1050 2972
L 1050 838
Q 1050 594 1129 495
Q 1209 397 1406 397
Q 1488 397 1564 409
Q 1641 422 1731 441
L 1731 25
z
"
                transform="scale(0.015625)"
              />
              <path
                id="LiberationSans-65"
                d="M 863 1572
Q 863 1306 917 1082
Q 972 859 1086 698
Q 1200 538 1378 448
Q 1556 359 1806 359
Q 2172 359 2392 506
Q 2613 653 2691 878
L 3184 738
Q 3131 597 3036 455
Q 2941 313 2781 198
Q 2622 84 2383 10
Q 2144 -63 1806 -63
Q 1056 -63 664 384
Q 272 831 272 1713
Q 272 2188 390 2517
Q 509 2847 715 3053
Q 922 3259 1197 3351
Q 1472 3444 1784 3444
Q 2209 3444 2495 3306
Q 2781 3169 2954 2926
Q 3128 2684 3201 2356
Q 3275 2028 3275 1647
L 3275 1572
L 863 1572
z
M 2694 2003
Q 2647 2538 2422 2783
Q 2197 3028 1775 3028
Q 1634 3028 1479 2983
Q 1325 2938 1194 2822
Q 1063 2706 972 2507
Q 881 2309 869 2003
L 2694 2003
z
"
                transform="scale(0.015625)"
              />
              <path
                id="LiberationSans-72"
                d="M 444 0
L 444 2594
Q 444 2700 442 2811
Q 441 2922 437 3025
Q 434 3128 431 3218
Q 428 3309 425 3381
L 956 3381
Q 959 3309 964 3217
Q 969 3125 973 3028
Q 978 2931 979 2842
Q 981 2753 981 2691
L 994 2691
Q 1053 2884 1120 3026
Q 1188 3169 1278 3261
Q 1369 3353 1494 3398
Q 1619 3444 1797 3444
Q 1866 3444 1928 3433
Q 1991 3422 2025 3413
L 2025 2897
Q 1969 2913 1894 2920
Q 1819 2928 1725 2928
Q 1531 2928 1395 2840
Q 1259 2753 1173 2598
Q 1088 2444 1047 2230
Q 1006 2016 1006 1763
L 1006 0
L 444 0
z
"
                transform="scale(0.015625)"
              />
              <path id="LiberationSans-20" transform="scale(0.015625)"/>
              <path
                id="LiberationSans-57"
                d="M 4722 0
L 4009 0
L 3247 2797
Q 3213 2916 3173 3078
Q 3134 3241 3103 3388
Q 3066 3559 3028 3738
Q 2988 3556 2950 3384
Q 2916 3234 2878 3075
Q 2841 2916 2806 2797
L 2038 0
L 1325 0
L 28 4403
L 650 4403
L 1441 1606
Q 1494 1409 1542 1215
Q 1591 1022 1625 869
Q 1666 688 1700 525
Q 1747 741 1797 950
Q 1819 1038 1841 1134
Q 1863 1231 1886 1325
Q 1909 1419 1932 1505
Q 1956 1591 1975 1663
L 2741 4403
L 3313 4403
L 4078 1663
Q 4097 1591 4120 1505
Q 4144 1419 4167 1326
Q 4191 1234 4212 1137
Q 4234 1041 4256 953
Q 4306 744 4353 525
Q 4356 525 4381 633
Q 4406 741 4443 903
Q 4481 1066 4526 1255
Q 4572 1444 4619 1606
L 5397 4403
L 6019 4403
L 4722 0
z
"
                transform="scale(0.015625)"
              />
              <path
                id="LiberationSans-68"
                d="M 991 2803
Q 1084 2975 1193 3095
Q 1303 3216 1434 3294
Q 1566 3372 1722 3408
Q 1878 3444 2072 3444
Q 2397 3444 2605 3356
Q 2813 3269 2933 3111
Q 3053 2953 3098 2734
Q 3144 2516 3144 2253
L 3144 0
L 2578 0
L 2578 2144
Q 2578 2359 2551 2521
Q 2525 2684 2450 2792
Q 2375 2900 2237 2954
Q 2100 3009 1881 3009
Q 1681 3009 1520 2937
Q 1359 2866 1245 2734
Q 1131 2603 1068 2415
Q 1006 2228 1006 1994
L 1006 0
L 444 0
L 444 4638
L 1006 4638
L 1006 3431
Q 1006 3328 1003 3225
Q 1000 3122 995 3034
Q 991 2947 987 2886
Q 984 2825 981 2803
L 991 2803
z
"
                transform="scale(0.015625)"
              />
              <path id="LiberationSans-6c" d="M 431 0
L 431 4638
L 994 4638
L 994 0
L 431 0
z
" transform="scale(0.015625)"/>
              <path id="LiberationSans-5b" d="M 456 -1328
L 456 4638
L 1728 4638
L 1728 4234
L 1000 4234
L 1000 -925
L 1728 -925
L 1728 -1328
L 456 -1328
z
" transform="scale(0.015625)"/>
              <path
                id="LiberationSans-61"
                d="M 1294 -63
Q 784 -63 528 206
Q 272 475 272 944
Q 272 1278 398 1492
Q 525 1706 729 1828
Q 934 1950 1196 1997
Q 1459 2044 1731 2050
L 2491 2063
L 2491 2247
Q 2491 2456 2447 2603
Q 2403 2750 2312 2840
Q 2222 2931 2086 2973
Q 1950 3016 1766 3016
Q 1603 3016 1472 2992
Q 1341 2969 1244 2908
Q 1147 2847 1087 2742
Q 1028 2638 1009 2478
L 422 2531
Q 453 2731 540 2898
Q 628 3066 789 3187
Q 950 3309 1192 3376
Q 1434 3444 1778 3444
Q 2416 3444 2737 3151
Q 3059 2859 3059 2306
L 3059 850
Q 3059 600 3125 473
Q 3191 347 3375 347
Q 3422 347 3469 353
Q 3516 359 3559 369
L 3559 19
Q 3453 -6 3348 -18
Q 3244 -31 3125 -31
Q 2966 -31 2852 11
Q 2738 53 2666 139
Q 2594 225 2556 351
Q 2519 478 2509 647
L 2491 647
Q 2400 484 2292 353
Q 2184 222 2040 130
Q 1897 38 1714 -12
Q 1531 -63 1294 -63
z
M 1422 359
Q 1691 359 1892 457
Q 2094 556 2226 709
Q 2359 863 2425 1044
Q 2491 1225 2491 1391
L 2491 1669
L 1875 1656
Q 1669 1653 1483 1626
Q 1297 1600 1156 1522
Q 1016 1444 933 1303
Q 850 1163 850 934
Q 850 659 998 509
Q 1147 359 1422 359
z
"
                transform="scale(0.015625)"
              />
              <path
                id="LiberationSans-64"
                d="M 2566 544
Q 2409 219 2151 78
Q 1894 -63 1513 -63
Q 872 -63 570 368
Q 269 800 269 1675
Q 269 3444 1513 3444
Q 1897 3444 2153 3303
Q 2409 3163 2566 2856
L 2572 2856
Q 2572 2888 2570 2955
Q 2569 3022 2567 3095
Q 2566 3169 2566 3234
Q 2566 3300 2566 3328
L 2566 4638
L 3128 4638
L 3128 697
Q 3128 575 3129 462
Q 3131 350 3134 256
Q 3138 163 3141 95
Q 3144 28 3147 0
L 2609 0
Q 2603 31 2598 89
Q 2594 147 2589 222
Q 2584 297 2581 380
Q 2578 463 2578 544
L 2566 544
z
M 859 1694
Q 859 1344 903 1094
Q 947 844 1044 683
Q 1141 522 1291 447
Q 1441 372 1656 372
Q 1878 372 2048 444
Q 2219 516 2333 677
Q 2447 838 2506 1097
Q 2566 1356 2566 1731
Q 2566 2091 2506 2339
Q 2447 2588 2331 2741
Q 2216 2894 2048 2961
Q 1881 3028 1663 3028
Q 1456 3028 1306 2956
Q 1156 2884 1056 2725
Q 956 2566 907 2311
Q 859 2056 859 1694
z
"
                transform="scale(0.015625)"
              />
              <path id="LiberationSans-5d" d="M 50 -1328
L 50 -925
L 778 -925
L 778 4234
L 50 4234
L 50 4638
L 1322 4638
L 1322 -1328
L 50 -1328
z
" transform="scale(0.015625)"/>
            </defs>
            <use xlink:href="#LiberationSans-53"/>
            <use xlink:href="#LiberationSans-74" x="66.699219"/>
            <use xlink:href="#LiberationSans-65" x="94.482422"/>
            <use xlink:href="#LiberationSans-65" x="150.097656"/>
            <use xlink:href="#LiberationSans-72" x="205.712891"/>
            <use xlink:href="#LiberationSans-20" x="239.013672"/>
            <use xlink:href="#LiberationSans-57" x="266.796875"/>
            <use xlink:href="#LiberationSans-68" x="361.181641"/>
            <use xlink:href="#LiberationSans-65" x="416.796875"/>
            <use xlink:href="#LiberationSans-65" x="472.412109"/>
            <use xlink:href="#LiberationSans-6c" x="528.027344"/>
            <use xlink:href="#LiberationSans-20" x="550.244141"/>
            <use xlink:href="#LiberationSans-5b" x="578.027344"/>
            <use xlink:href="#LiberationSans-72" x="605.810547"/>
            <use xlink:href="#LiberationSans-61" x="639.111328"/>
            <use xlink:href="#LiberationSans-64" x="694.726562"/>
            <use xlink:href="#LiberationSans-5d" x="750.341797"/>
          </g>
        </g>
      </g>
      <g id="matplotlib.axis_2">
        <g id="ytick_1">
          <g id="line2d_19">
            <path
              d="M 55.2 479.736728
L 575.55 479.736728
"
              clip-path="url(#p9cf408fef2)"
              style="fill: none; stroke-dasharray: 2.96,1.28; stroke-dashoffset: 0; stroke: #cccccc; stroke-opacity: 0.7; stroke-width: 0.8"
            />
          </g>
          <g id="line2d_20"/>
          <g id="text_11">
            <!-- 19.0 -->
            <g style="fill: #262626" transform="translate(28.346875 484.084853)scale(0.12 -0.12)">
              <defs>
                <path
                  id="LiberationSans-39"
                  d="M 3256 2291
Q 3256 1703 3145 1261
Q 3034 819 2828 525
Q 2622 231 2326 84
Q 2031 -63 1663 -63
Q 1409 -63 1206 -11
Q 1003 41 843 150
Q 684 259 571 434
Q 459 609 391 856
L 928 941
Q 1016 656 1202 523
Q 1388 391 1672 391
Q 1900 391 2089 498
Q 2278 606 2411 822
Q 2544 1038 2619 1363
Q 2694 1688 2700 2125
Q 2634 1978 2520 1862
Q 2406 1747 2261 1667
Q 2116 1588 1947 1545
Q 1778 1503 1606 1503
Q 1306 1503 1064 1611
Q 822 1719 653 1912
Q 484 2106 392 2379
Q 300 2653 300 2988
Q 300 3328 398 3603
Q 497 3878 684 4070
Q 872 4263 1145 4366
Q 1419 4469 1766 4469
Q 2500 4469 2878 3925
Q 3256 3381 3256 2291
z
M 2644 2834
Q 2644 3078 2586 3293
Q 2528 3509 2414 3668
Q 2300 3828 2133 3920
Q 1966 4013 1747 4013
Q 1544 4013 1381 3941
Q 1219 3869 1106 3736
Q 994 3603 933 3412
Q 872 3222 872 2988
Q 872 2766 926 2575
Q 981 2384 1090 2245
Q 1200 2106 1362 2026
Q 1525 1947 1741 1947
Q 1897 1947 2058 2000
Q 2219 2053 2348 2162
Q 2478 2272 2561 2439
Q 2644 2606 2644 2834
z
"
                  transform="scale(0.015625)"
                />
              </defs>
              <use xlink:href="#LiberationSans-31"/>
              <use xlink:href="#LiberationSans-39" x="55.615234"/>
              <use xlink:href="#LiberationSans-2e" x="111.230469"/>
              <use xlink:href="#LiberationSans-30" x="139.013672"/>
            </g>
          </g>
        </g>
        <g id="ytick_2">
          <g id="line2d_21">
            <path
              d="M 55.2 373.145766
L 575.55 373.145766
"
              clip-path="url(#p9cf408fef2)"
              style="fill: none; stroke-dasharray: 2.96,1.28; stroke-dashoffset: 0; stroke: #cccccc; stroke-opacity: 0.7; stroke-width: 0.8"
            />
          </g>
          <g id="line2d_22"/>
          <g id="text_12">
            <!-- 19.1 -->
            <g style="fill: #262626" transform="translate(28.346875 377.493891)scale(0.12 -0.12)">
              <use xlink:href="#LiberationSans-31"/>
              <use xlink:href="#LiberationSans-39" x="55.615234"/>
              <use xlink:href="#LiberationSans-2e" x="111.230469"/>
              <use xlink:href="#LiberationSans-31" x="139.013672"/>
            </g>
          </g>
        </g>
        <g id="ytick_3">
          <g id="line2d_23">
            <path
              d="M 55.2 266.554804
L 575.55 266.554804
"
              clip-path="url(#p9cf408fef2)"
              style="fill: none; stroke-dasharray: 2.96,1.28; stroke-dashoffset: 0; stroke: #cccccc; stroke-opacity: 0.7; stroke-width: 0.8"
            />
          </g>
          <g id="line2d_24"/>
          <g id="text_13">
            <!-- 19.2 -->
            <g style="fill: #262626" transform="translate(28.346875 270.902929)scale(0.12 -0.12)">
              <use xlink:href="#LiberationSans-31"/>
              <use xlink:href="#LiberationSans-39" x="55.615234"/>
              <use xlink:href="#LiberationSans-2e" x="111.230469"/>
              <use xlink:href="#LiberationSans-32" x="139.013672"/>
            </g>
          </g>
        </g>
        <g id="ytick_4">
          <g id="line2d_25">
            <path
              d="M 55.2 159.963842
L 575.55 159.963842
"
              clip-path="url(#p9cf408fef2)"
              style="fill: none; stroke-dasharray: 2.96,1.28; stroke-dashoffset: 0; stroke: #cccccc; stroke-opacity: 0.7; stroke-width: 0.8"
            />
          </g>
          <g id="line2d_26"/>
          <g id="text_14">
            <!-- 19.3 -->
            <g style="fill: #262626" transform="translate(28.346875 164.311967)scale(0.12 -0.12)">
              <defs>
                <path
                  id="LiberationSans-33"
                  d="M 3278 1216
Q 3278 913 3179 675
Q 3081 438 2892 273
Q 2703 109 2423 23
Q 2144 -63 1784 -63
Q 1375 -63 1095 39
Q 816 141 634 308
Q 453 475 362 689
Q 272 903 244 1131
L 825 1184
Q 850 1009 917 865
Q 984 722 1100 619
Q 1216 516 1384 459
Q 1553 403 1784 403
Q 2209 403 2451 612
Q 2694 822 2694 1234
Q 2694 1478 2586 1626
Q 2478 1775 2317 1858
Q 2156 1941 1967 1969
Q 1778 1997 1619 1997
L 1300 1997
L 1300 2484
L 1606 2484
Q 1766 2484 1937 2517
Q 2109 2550 2251 2636
Q 2394 2722 2486 2869
Q 2578 3016 2578 3244
Q 2578 3597 2370 3801
Q 2163 4006 1753 4006
Q 1381 4006 1151 3815
Q 922 3625 884 3278
L 319 3322
Q 353 3613 478 3828
Q 603 4044 795 4186
Q 988 4328 1234 4398
Q 1481 4469 1759 4469
Q 2128 4469 2393 4376
Q 2659 4284 2828 4126
Q 2997 3969 3076 3756
Q 3156 3544 3156 3303
Q 3156 3109 3103 2940
Q 3050 2772 2937 2637
Q 2825 2503 2651 2406
Q 2478 2309 2234 2259
L 2234 2247
Q 2500 2219 2697 2126
Q 2894 2034 3022 1896
Q 3150 1759 3214 1584
Q 3278 1409 3278 1216
z
"
                  transform="scale(0.015625)"
                />
              </defs>
              <use xlink:href="#LiberationSans-31"/>
              <use xlink:href="#LiberationSans-39" x="55.615234"/>
              <use xlink:href="#LiberationSans-2e" x="111.230469"/>
              <use xlink:href="#LiberationSans-33" x="139.013672"/>
            </g>
          </g>
        </g>
        <g id="ytick_5">
          <g id="line2d_27">
            <path
              d="M 55.2 53.37288
L 575.55 53.37288
"
              clip-path="url(#p9cf408fef2)"
              style="fill: none; stroke-dasharray: 2.96,1.28; stroke-dashoffset: 0; stroke: #cccccc; stroke-opacity: 0.7; stroke-width: 0.8"
            />
          </g>
          <g id="line2d_28"/>
          <g id="text_15">
            <!-- 19.4 -->
            <g style="fill: #262626" transform="translate(28.346875 57.721005)scale(0.12 -0.12)">
              <defs>
                <path
                  id="LiberationSans-34"
                  d="M 2753 997
L 2753 0
L 2222 0
L 2222 997
L 147 997
L 147 1434
L 2163 4403
L 2753 4403
L 2753 1441
L 3372 1441
L 3372 997
L 2753 997
z
M 2222 3769
Q 2216 3753 2191 3708
Q 2166 3663 2134 3606
Q 2103 3550 2070 3492
Q 2038 3434 2013 3397
L 884 1734
Q 869 1709 839 1668
Q 809 1628 778 1586
Q 747 1544 715 1503
Q 684 1463 666 1441
L 2222 1441
L 2222 3769
z
"
                  transform="scale(0.015625)"
                />
              </defs>
              <use xlink:href="#LiberationSans-31"/>
              <use xlink:href="#LiberationSans-39" x="55.615234"/>
              <use xlink:href="#LiberationSans-2e" x="111.230469"/>
              <use xlink:href="#LiberationSans-34" x="139.013672"/>
            </g>
          </g>
        </g>
        <g id="text_16">
          <!-- Variable Gear Ratio -->
          <g style="fill: #262626" transform="translate(21.441875 350.437781)rotate(-90)scale(0.14 -0.14)">
            <defs>
              <path
                id="LiberationSans-56"
                d="M 2444 0
L 1825 0
L 28 4403
L 656 4403
L 1875 1303
Q 1922 1163 1969 1023
Q 2016 884 2053 775
Q 2097 647 2138 525
Q 2175 641 2219 769
Q 2256 878 2301 1015
Q 2347 1153 2400 1303
L 3613 4403
L 4241 4403
L 2444 0
z
"
                transform="scale(0.015625)"
              />
              <path id="LiberationSans-69" d="M 428 4100
L 428 4638
L 991 4638
L 991 4100
L 428 4100
z
M 428 0
L 428 3381
L 991 3381
L 991 0
L 428 0
z
" transform="scale(0.015625)"/>
              <path
                id="LiberationSans-62"
                d="M 3291 1706
Q 3291 -63 2047 -63
Q 1663 -63 1408 76
Q 1153 216 994 525
L 988 525
Q 988 444 983 356
Q 978 269 973 194
Q 969 119 964 66
Q 959 13 956 0
L 413 0
Q 416 28 419 95
Q 422 163 425 256
Q 428 350 429 462
Q 431 575 431 697
L 431 4638
L 994 4638
L 994 3316
Q 994 3222 992 3136
Q 991 3050 988 2984
Q 984 2906 981 2838
L 994 2838
Q 1150 3163 1408 3303
Q 1666 3444 2047 3444
Q 2688 3444 2989 3012
Q 3291 2581 3291 1706
z
M 2700 1688
Q 2700 2038 2656 2288
Q 2613 2538 2516 2698
Q 2419 2859 2269 2934
Q 2119 3009 1903 3009
Q 1681 3009 1511 2937
Q 1341 2866 1227 2706
Q 1113 2547 1053 2287
Q 994 2028 994 1653
Q 994 1291 1053 1044
Q 1113 797 1227 642
Q 1341 488 1509 420
Q 1678 353 1897 353
Q 2103 353 2253 425
Q 2403 497 2503 656
Q 2603 816 2651 1070
Q 2700 1325 2700 1688
z
"
                transform="scale(0.015625)"
              />
              <path
                id="LiberationSans-47"
                d="M 322 2222
Q 322 2738 461 3153
Q 600 3569 876 3861
Q 1153 4153 1562 4311
Q 1972 4469 2513 4469
Q 2919 4469 3225 4397
Q 3531 4325 3756 4190
Q 3981 4056 4137 3864
Q 4294 3672 4403 3431
L 3834 3263
Q 3753 3425 3639 3558
Q 3525 3691 3362 3784
Q 3200 3878 2986 3929
Q 2772 3981 2497 3981
Q 2097 3981 1801 3856
Q 1506 3731 1312 3500
Q 1119 3269 1023 2944
Q 928 2619 928 2222
Q 928 1825 1031 1495
Q 1134 1166 1337 927
Q 1541 688 1842 555
Q 2144 422 2541 422
Q 2800 422 3019 465
Q 3238 509 3414 579
Q 3591 650 3725 736
Q 3859 822 3950 909
L 3950 1703
L 2634 1703
L 2634 2203
L 4500 2203
L 4500 684
Q 4353 534 4154 398
Q 3956 263 3709 159
Q 3463 56 3169 -3
Q 2875 -63 2541 -63
Q 1984 -63 1568 107
Q 1153 278 876 583
Q 600 888 461 1306
Q 322 1725 322 2222
z
"
                transform="scale(0.015625)"
              />
              <path
                id="LiberationSans-52"
                d="M 3638 0
L 2494 1828
L 1122 1828
L 1122 0
L 525 0
L 525 4403
L 2597 4403
Q 2972 4403 3261 4317
Q 3550 4231 3747 4068
Q 3944 3906 4047 3672
Q 4150 3438 4150 3144
Q 4150 2934 4089 2731
Q 4028 2528 3897 2359
Q 3766 2191 3562 2069
Q 3359 1947 3075 1897
L 4325 0
L 3638 0
z
M 3550 3138
Q 3550 3338 3481 3484
Q 3413 3631 3281 3729
Q 3150 3828 2962 3876
Q 2775 3925 2538 3925
L 1122 3925
L 1122 2300
L 2563 2300
Q 2819 2300 3006 2364
Q 3194 2428 3314 2540
Q 3434 2653 3492 2806
Q 3550 2959 3550 3138
z
"
                transform="scale(0.015625)"
              />
              <path
                id="LiberationSans-6f"
                d="M 3291 1694
Q 3291 806 2900 371
Q 2509 -63 1766 -63
Q 1413 -63 1134 43
Q 856 150 664 369
Q 472 588 370 917
Q 269 1247 269 1694
Q 269 3444 1784 3444
Q 2178 3444 2464 3334
Q 2750 3225 2933 3006
Q 3116 2788 3203 2459
Q 3291 2131 3291 1694
z
M 2700 1694
Q 2700 2088 2639 2344
Q 2578 2600 2461 2753
Q 2344 2906 2175 2967
Q 2006 3028 1794 3028
Q 1578 3028 1404 2964
Q 1231 2900 1109 2745
Q 988 2591 923 2334
Q 859 2078 859 1694
Q 859 1300 928 1042
Q 997 784 1117 631
Q 1238 478 1402 415
Q 1566 353 1759 353
Q 1975 353 2150 414
Q 2325 475 2447 628
Q 2569 781 2634 1040
Q 2700 1300 2700 1694
z
"
                transform="scale(0.015625)"
              />
            </defs>
            <use xlink:href="#LiberationSans-56"/>
            <use xlink:href="#LiberationSans-61" x="59.324219"/>
            <use xlink:href="#LiberationSans-72" x="114.939453"/>
            <use xlink:href="#LiberationSans-69" x="148.240234"/>
            <use xlink:href="#LiberationSans-61" x="170.457031"/>
            <use xlink:href="#LiberationSans-62" x="226.072266"/>
            <use xlink:href="#LiberationSans-6c" x="281.6875"/>
            <use xlink:href="#LiberationSans-65" x="303.904297"/>
            <use xlink:href="#LiberationSans-20" x="359.519531"/>
            <use xlink:href="#LiberationSans-47" x="387.302734"/>
            <use xlink:href="#LiberationSans-65" x="465.085938"/>
            <use xlink:href="#LiberationSans-61" x="520.701172"/>
            <use xlink:href="#LiberationSans-72" x="576.316406"/>
            <use xlink:href="#LiberationSans-20" x="609.617188"/>
            <use xlink:href="#LiberationSans-52" x="637.400391"/>
            <use xlink:href="#LiberationSans-61" x="709.617188"/>
            <use xlink:href="#LiberationSans-74" x="765.232422"/>
            <use xlink:href="#LiberationSans-69" x="793.015625"/>
            <use xlink:href="#LiberationSans-6f" x="815.232422"/>
          </g>
        </g>
      </g>
      <g id="line2d_29">
        <path
          d="M 78.852273 511.062
L 83.63051 502.017918
L 88.408747 492.973837
L 93.186983 483.929755
L 97.96522 474.885673
L 102.743457 465.841592
L 107.521694 456.79751
L 112.299931 447.753429
L 117.078168 438.709347
L 121.856405 429.665265
L 126.634642 420.621184
L 131.412879 411.577102
L 136.191116 402.53302
L 140.969353 393.488939
L 145.74759 384.444857
L 150.525826 375.400776
L 155.304063 366.356694
L 160.0823 357.312612
L 164.860537 348.268531
L 169.638774 339.224449
L 174.417011 330.180367
L 179.195248 321.136286
L 183.973485 312.092204
L 188.751722 303.048122
L 193.529959 294.004041
L 198.308196 284.959959
L 203.086433 275.915878
L 207.864669 266.871796
L 212.642906 257.827714
L 217.421143 248.783633
L 222.19938 239.739551
L 226.977617 230.695469
L 231.755854 221.651388
L 236.534091 212.607306
L 241.312328 203.563224
L 246.090565 194.519143
L 250.868802 185.475061
L 255.647039 176.43098
L 260.425275 167.386898
L 265.203512 158.342816
L 269.981749 149.298735
L 274.759986 140.254653
L 279.538223 131.210571
L 284.31646 122.16649
L 289.094697 113.122408
L 293.872934 104.078327
L 298.651171 95.034245
L 303.429408 85.990163
L 308.207645 76.946082
L 312.985882 67.902
L 317.764118 67.902
L 322.542355 76.946082
L 327.320592 85.990163
L 332.098829 95.034245
L 336.877066 104.078327
L 341.655303 113.122408
L 346.43354 122.16649
L 351.211777 131.210571
L 355.990014 140.254653
L 360.768251 149.298735
L 365.546488 158.342816
L 370.324725 167.386898
L 375.102961 176.43098
L 379.881198 185.475061
L 384.659435 194.519143
L 389.437672 203.563224
L 394.215909 212.607306
L 398.994146 221.651388
L 403.772383 230.695469
L 408.55062 239.739551
L 413.328857 248.783633
L 418.107094 257.827714
L 422.885331 266.871796
L 427.663567 275.915878
L 432.441804 284.959959
L 437.220041 294.004041
L 441.998278 303.048122
L 446.776515 312.092204
L 451.554752 321.136286
L 456.332989 330.180367
L 461.111226 339.224449
L 465.889463 348.268531
L 470.6677 357.312612
L 475.445937 366.356694
L 480.224174 375.400776
L 485.00241 384.444857
L 489.780647 393.488939
L 494.558884 402.53302
L 499.337121 411.577102
L 504.115358 420.621184
L 508.893595 429.665265
L 513.671832 438.709347
L 518.450069 447.753429
L 523.228306 456.79751
L 528.006543 465.841592
L 532.78478 474.885673
L 537.563017 483.929755
L 542.341253 492.973837
L 547.11949 502.017918
L 551.897727 511.062
"
          clip-path="url(#p9cf408fef2)"
          style="fill: none; stroke: #1f77b4; stroke-width: 2; stroke-linecap: round"
        />
      </g>
      <g id="patch_3">
        <path d="M 55.2 533.22
L 55.2 45.744
" style="fill: none; stroke: #cccccc; stroke-linejoin: miter; stroke-linecap: square"/>
      </g>
      <g id="patch_4">
        <path d="M 575.55 533.22
L 575.55 45.744
" style="fill: none; stroke: #cccccc; stroke-linejoin: miter; stroke-linecap: square"/>
      </g>
      <g id="patch_5">
        <path d="M 55.2 533.22
L 575.55 533.22
" style="fill: none; stroke: #cccccc; stroke-linejoin: miter; stroke-linecap: square"/>
      </g>
      <g id="patch_6">
        <path d="M 55.2 45.744
L 575.55 45.744
" style="fill: none; stroke: #cccccc; stroke-linejoin: miter; stroke-linecap: square"/>
      </g>
      <g id="text_17">
        <!-- VGR vs Steer Wheel -->
        <g style="fill: #262626" transform="translate(238.905 22.51)scale(0.16 -0.16)">
          <defs>
            <path
              id="LiberationSans-Bold-56"
              d="M 2606 0
L 1672 0
L 44 4403
L 1006 4403
L 1913 1575
Q 1956 1434 1997 1287
Q 2038 1141 2072 1019
Q 2109 875 2144 744
Q 2175 872 2209 1013
Q 2241 1131 2283 1279
Q 2325 1428 2369 1575
L 3272 4403
L 4225 4403
L 2606 0
z
"
              transform="scale(0.015625)"
            />
            <path
              id="LiberationSans-Bold-47"
              d="M 2519 659
Q 2719 659 2903 690
Q 3088 722 3245 773
Q 3403 825 3529 892
Q 3656 959 3738 1031
L 3738 1641
L 2663 1641
L 2663 2322
L 4581 2322
L 4581 703
Q 4431 550 4218 411
Q 4006 272 3740 167
Q 3475 63 3161 0
Q 2847 -63 2494 -63
Q 1909 -63 1487 107
Q 1066 278 794 583
Q 522 888 392 1306
Q 263 1725 263 2222
Q 263 2738 400 3153
Q 538 3569 817 3861
Q 1097 4153 1520 4311
Q 1944 4469 2516 4469
Q 2931 4469 3254 4387
Q 3578 4306 3820 4156
Q 4063 4006 4227 3795
Q 4391 3584 4488 3322
L 3638 3066
Q 3581 3203 3487 3326
Q 3394 3450 3255 3542
Q 3116 3634 2933 3689
Q 2750 3744 2516 3744
Q 2172 3744 1922 3636
Q 1672 3528 1509 3328
Q 1347 3128 1269 2848
Q 1191 2569 1191 2222
Q 1191 1878 1270 1590
Q 1350 1303 1514 1097
Q 1678 891 1928 775
Q 2178 659 2519 659
z
"
              transform="scale(0.015625)"
            />
            <path
              id="LiberationSans-Bold-52"
              d="M 3453 0
L 2431 1672
L 1350 1672
L 1350 0
L 428 0
L 428 4403
L 2628 4403
Q 3041 4403 3348 4311
Q 3656 4219 3862 4048
Q 4069 3878 4170 3636
Q 4272 3394 4272 3091
Q 4272 2844 4198 2639
Q 4125 2434 3995 2275
Q 3866 2116 3687 2008
Q 3509 1900 3300 1850
L 4491 0
L 3453 0
z
M 3344 3053
Q 3344 3375 3133 3531
Q 2922 3688 2531 3688
L 1350 3688
L 1350 2388
L 2556 2388
Q 2763 2388 2911 2436
Q 3059 2484 3154 2573
Q 3250 2663 3297 2784
Q 3344 2906 3344 3053
z
"
              transform="scale(0.015625)"
            />
            <path id="LiberationSans-Bold-20" transform="scale(0.015625)"/>
            <path id="LiberationSans-Bold-76" d="M 1766 709
L 2613 3381
L 3531 3381
L 2284 0
L 1234 0
L 25 3381
L 953 3381
L 1766 709
z
" transform="scale(0.015625)"/>
            <path
              id="LiberationSans-Bold-73"
              d="M 3297 988
Q 3297 744 3195 550
Q 3094 356 2900 220
Q 2706 84 2425 10
Q 2144 -63 1784 -63
Q 1463 -63 1203 -16
Q 944 31 748 139
Q 553 247 422 419
Q 291 591 225 844
L 997 959
Q 1034 819 1100 731
Q 1166 644 1262 597
Q 1359 550 1489 534
Q 1619 519 1784 519
Q 1934 519 2064 536
Q 2194 553 2289 595
Q 2384 638 2437 714
Q 2491 791 2491 906
Q 2491 1038 2414 1114
Q 2338 1191 2205 1239
Q 2072 1288 1892 1323
Q 1713 1359 1509 1406
Q 1297 1453 1090 1518
Q 884 1584 721 1696
Q 559 1809 459 1982
Q 359 2156 359 2422
Q 359 2663 453 2852
Q 547 3041 728 3173
Q 909 3306 1176 3376
Q 1444 3447 1791 3447
Q 2066 3447 2303 3395
Q 2541 3344 2728 3233
Q 2916 3122 3042 2950
Q 3169 2778 3219 2534
L 2441 2453
Q 2419 2575 2362 2654
Q 2306 2734 2223 2781
Q 2141 2828 2031 2845
Q 1922 2863 1791 2863
Q 1478 2863 1322 2783
Q 1166 2703 1166 2516
Q 1166 2400 1230 2331
Q 1294 2263 1411 2217
Q 1528 2172 1689 2139
Q 1850 2106 2041 2059
Q 2275 2009 2501 1942
Q 2728 1875 2904 1758
Q 3081 1641 3189 1456
Q 3297 1272 3297 988
z
"
              transform="scale(0.015625)"
            />
            <path
              id="LiberationSans-Bold-53"
              d="M 4019 1269
Q 4019 969 3909 723
Q 3800 478 3570 303
Q 3341 128 2983 32
Q 2625 -63 2131 -63
Q 1694 -63 1359 15
Q 1025 94 786 247
Q 547 400 398 626
Q 250 853 184 1147
L 1075 1294
Q 1113 1147 1184 1025
Q 1256 903 1382 814
Q 1509 725 1698 676
Q 1888 628 2156 628
Q 2625 628 2873 770
Q 3122 913 3122 1216
Q 3122 1397 3022 1512
Q 2922 1628 2756 1703
Q 2591 1778 2375 1828
Q 2159 1878 1925 1925
Q 1738 1969 1550 2016
Q 1363 2063 1192 2128
Q 1022 2194 875 2284
Q 728 2375 620 2508
Q 513 2641 452 2819
Q 391 2997 391 3238
Q 391 3566 522 3800
Q 653 4034 886 4182
Q 1119 4331 1441 4400
Q 1763 4469 2144 4469
Q 2575 4469 2883 4401
Q 3191 4334 3398 4196
Q 3606 4059 3726 3851
Q 3847 3644 3903 3366
L 3009 3244
Q 2941 3528 2730 3672
Q 2519 3816 2125 3816
Q 1881 3816 1720 3773
Q 1559 3731 1464 3659
Q 1369 3588 1328 3492
Q 1288 3397 1288 3291
Q 1288 3128 1366 3023
Q 1444 2919 1584 2848
Q 1725 2778 1920 2729
Q 2116 2681 2350 2631
Q 2556 2588 2759 2539
Q 2963 2491 3147 2425
Q 3331 2359 3490 2265
Q 3650 2172 3767 2036
Q 3884 1900 3951 1712
Q 4019 1525 4019 1269
z
"
              transform="scale(0.015625)"
            />
            <path
              id="LiberationSans-Bold-74"
              d="M 1313 -56
Q 925 -56 715 155
Q 506 366 506 794
L 506 2788
L 78 2788
L 78 3381
L 550 3381
L 825 4175
L 1375 4175
L 1375 3381
L 2016 3381
L 2016 2788
L 1375 2788
L 1375 1031
Q 1375 784 1469 667
Q 1563 550 1759 550
Q 1841 550 1906 562
Q 1972 575 2053 594
L 2053 50
Q 1891 -3 1709 -29
Q 1528 -56 1313 -56
z
"
              transform="scale(0.015625)"
            />
            <path
              id="LiberationSans-Bold-65"
              d="M 1831 -63
Q 1466 -63 1173 45
Q 881 153 675 373
Q 469 594 359 926
Q 250 1259 250 1706
Q 250 2191 379 2522
Q 509 2853 729 3058
Q 950 3263 1237 3353
Q 1525 3444 1844 3444
Q 2244 3444 2526 3305
Q 2809 3166 2990 2916
Q 3172 2666 3256 2317
Q 3341 1969 3341 1547
L 3341 1522
L 1172 1522
Q 1172 1309 1209 1126
Q 1247 944 1331 811
Q 1416 678 1550 601
Q 1684 525 1875 525
Q 2106 525 2253 623
Q 2400 722 2463 928
L 3291 856
Q 3234 713 3132 550
Q 3031 388 2862 252
Q 2694 116 2442 26
Q 2191 -63 1831 -63
z
M 1831 2891
Q 1697 2891 1580 2845
Q 1463 2800 1377 2701
Q 1291 2603 1237 2447
Q 1184 2291 1178 2072
L 2491 2072
Q 2466 2481 2294 2686
Q 2122 2891 1831 2891
z
"
              transform="scale(0.015625)"
            />
            <path
              id="LiberationSans-Bold-72"
              d="M 447 0
L 447 2588
Q 447 2697 445 2819
Q 444 2941 439 3052
Q 434 3163 431 3252
Q 428 3341 422 3381
L 1259 3381
Q 1266 3344 1272 3251
Q 1278 3159 1284 3050
Q 1291 2941 1295 2833
Q 1300 2725 1300 2659
L 1313 2659
Q 1378 2844 1443 2989
Q 1509 3134 1598 3236
Q 1688 3338 1813 3392
Q 1938 3447 2122 3447
Q 2200 3447 2276 3433
Q 2353 3419 2394 3400
L 2394 2666
Q 2309 2684 2223 2698
Q 2138 2713 2019 2713
Q 1691 2713 1508 2447
Q 1325 2181 1325 1659
L 1325 0
L 447 0
z
"
              transform="scale(0.015625)"
            />
            <path
              id="LiberationSans-Bold-57"
              d="M 4897 0
L 3803 0
L 3206 2547
Q 3178 2663 3145 2822
Q 3113 2981 3084 3131
Q 3050 3303 3022 3488
Q 2988 3303 2953 3128
Q 2938 3053 2922 2973
Q 2906 2894 2889 2817
Q 2872 2741 2858 2672
Q 2844 2603 2828 2547
L 2234 0
L 1141 0
L 6 4403
L 941 4403
L 1491 1953
Q 1538 1753 1578 1559
Q 1619 1366 1653 1213
Q 1691 1034 1722 872
Q 1769 1103 1813 1322
Q 1831 1416 1853 1516
Q 1875 1616 1895 1712
Q 1916 1809 1936 1898
Q 1956 1988 1972 2059
L 2516 4403
L 3547 4403
L 4103 2059
Q 4122 1984 4140 1892
Q 4159 1800 4178 1701
Q 4197 1603 4215 1504
Q 4234 1406 4250 1313
Q 4288 1094 4325 872
Q 4363 1047 4403 1234
Q 4438 1394 4481 1584
Q 4525 1775 4569 1953
L 5100 4403
L 6034 4403
L 4897 0
z
"
              transform="scale(0.015625)"
            />
            <path
              id="LiberationSans-Bold-68"
              d="M 1313 2706
Q 1491 3094 1759 3269
Q 2028 3444 2400 3444
Q 2706 3444 2917 3344
Q 3128 3244 3261 3069
Q 3394 2894 3453 2656
Q 3513 2419 3513 2144
L 3513 0
L 2638 0
L 2638 1894
Q 2638 2091 2606 2255
Q 2575 2419 2503 2536
Q 2431 2653 2315 2718
Q 2200 2784 2034 2784
Q 1875 2784 1745 2714
Q 1616 2644 1522 2514
Q 1428 2384 1376 2204
Q 1325 2025 1325 1809
L 1325 0
L 447 0
L 447 4638
L 1325 4638
L 1325 3372
Q 1325 3272 1322 3170
Q 1319 3069 1314 2980
Q 1309 2891 1306 2819
Q 1303 2747 1300 2706
L 1313 2706
z
"
              transform="scale(0.015625)"
            />
            <path id="LiberationSans-Bold-6c" d="M 447 0
L 447 4638
L 1325 4638
L 1325 0
L 447 0
z
" transform="scale(0.015625)"/>
          </defs>
          <use xlink:href="#LiberationSans-Bold-56"/>
          <use xlink:href="#LiberationSans-Bold-47" x="66.699219"/>
          <use xlink:href="#LiberationSans-Bold-52" x="144.482422"/>
          <use xlink:href="#LiberationSans-Bold-20" x="216.699219"/>
          <use xlink:href="#LiberationSans-Bold-76" x="244.482422"/>
          <use xlink:href="#LiberationSans-Bold-73" x="300.097656"/>
          <use xlink:href="#LiberationSans-Bold-20" x="355.712891"/>
          <use xlink:href="#LiberationSans-Bold-53" x="383.496094"/>
          <use xlink:href="#LiberationSans-Bold-74" x="450.195312"/>
          <use xlink:href="#LiberationSans-Bold-65" x="483.496094"/>
          <use xlink:href="#LiberationSans-Bold-65" x="539.111328"/>
          <use xlink:href="#LiberationSans-Bold-72" x="594.726562"/>
          <use xlink:href="#LiberationSans-Bold-20" x="633.642578"/>
          <use xlink:href="#LiberationSans-Bold-57" x="661.425781"/>
          <use xlink:href="#LiberationSans-Bold-68" x="755.810547"/>
          <use xlink:href="#LiberationSans-Bold-65" x="816.894531"/>
          <use xlink:href="#LiberationSans-Bold-65" x="872.509766"/>
          <use xlink:href="#LiberationSans-Bold-6c" x="928.125"/>
        </g>
        <!-- (Velocity = 8.33 m/s, a = 15.713, b = 0.053, c = 0.042) -->
        <g style="fill: #262626" transform="translate(120.14375 39.744)scale(0.16 -0.16)">
          <defs>
            <path
              id="LiberationSans-Bold-28"
              d="M 1247 -1328
Q 1006 -981 831 -637
Q 656 -294 542 68
Q 428 431 373 823
Q 319 1216 319 1659
Q 319 2106 373 2495
Q 428 2884 542 3245
Q 656 3606 831 3948
Q 1006 4291 1247 4638
L 2125 4638
Q 1875 4275 1697 3922
Q 1519 3569 1405 3206
Q 1291 2844 1237 2461
Q 1184 2078 1184 1656
Q 1184 1231 1237 848
Q 1291 466 1405 103
Q 1519 -259 1697 -611
Q 1875 -963 2125 -1328
L 1247 -1328
z
"
              transform="scale(0.015625)"
            />
            <path
              id="LiberationSans-Bold-6f"
              d="M 3659 1694
Q 3659 1306 3551 984
Q 3444 663 3228 430
Q 3013 197 2691 67
Q 2369 -63 1941 -63
Q 1528 -63 1212 65
Q 897 194 683 425
Q 469 656 359 979
Q 250 1303 250 1694
Q 250 2072 354 2392
Q 459 2713 671 2947
Q 884 3181 1206 3312
Q 1528 3444 1959 3444
Q 2416 3444 2737 3312
Q 3059 3181 3264 2948
Q 3469 2716 3564 2395
Q 3659 2075 3659 1694
z
M 2741 1694
Q 2741 2297 2544 2569
Q 2347 2841 1972 2841
Q 1584 2841 1378 2566
Q 1172 2291 1172 1694
Q 1172 1391 1226 1172
Q 1281 953 1381 812
Q 1481 672 1622 605
Q 1763 538 1931 538
Q 2125 538 2276 605
Q 2428 672 2531 812
Q 2634 953 2687 1172
Q 2741 1391 2741 1694
z
"
              transform="scale(0.015625)"
            />
            <path
              id="LiberationSans-Bold-63"
              d="M 1856 -63
Q 1453 -63 1151 62
Q 850 188 650 416
Q 450 644 350 964
Q 250 1284 250 1672
Q 250 2094 359 2423
Q 469 2753 675 2979
Q 881 3206 1182 3325
Q 1484 3444 1869 3444
Q 2197 3444 2451 3356
Q 2706 3269 2890 3117
Q 3075 2966 3189 2759
Q 3303 2553 3347 2316
L 2463 2272
Q 2425 2531 2275 2686
Q 2125 2841 1850 2841
Q 1497 2841 1334 2550
Q 1172 2259 1172 1706
Q 1172 538 1863 538
Q 2113 538 2281 695
Q 2450 853 2491 1166
L 3372 1125
Q 3341 891 3230 677
Q 3119 463 2930 298
Q 2741 134 2472 35
Q 2203 -63 1856 -63
z
"
              transform="scale(0.015625)"
            />
            <path id="LiberationSans-Bold-69" d="M 447 3991
L 447 4638
L 1325 4638
L 1325 3991
L 447 3991
z
M 447 0
L 447 3381
L 1325 3381
L 1325 0
L 447 0
z
" transform="scale(0.015625)"/>
            <path
              id="LiberationSans-Bold-79"
              d="M 1825 753
L 2606 3381
L 3525 3381
L 2188 -178
Q 1934 -794 1663 -1050
Q 1366 -1328 884 -1328
Q 569 -1328 331 -1288
L 331 -663
Q 497 -688 630 -688
Q 763 -688 863 -659
Q 963 -631 1044 -566
Q 1203 -434 1331 -116
L 1388 34
L 50 3381
L 978 3381
L 1825 753
z
"
              transform="scale(0.015625)"
            />
            <path id="LiberationSans-Bold-3d" d="M 266 2631
L 266 3328
L 3475 3328
L 3475 2631
L 266 2631
z
M 266 909
L 266 1600
L 3475 1600
L 3475 909
L 266 909
z
" transform="scale(0.015625)"/>
            <path
              id="LiberationSans-Bold-38"
              d="M 3363 1241
Q 3363 956 3269 717
Q 3175 478 2981 304
Q 2788 131 2491 34
Q 2194 -63 1784 -63
Q 1378 -63 1079 34
Q 781 131 586 304
Q 391 478 297 715
Q 203 953 203 1234
Q 203 1475 278 1661
Q 353 1847 478 1981
Q 603 2116 765 2195
Q 928 2275 1100 2303
L 1100 2316
Q 916 2356 769 2450
Q 622 2544 519 2675
Q 416 2806 361 2967
Q 306 3128 306 3303
Q 306 3566 401 3781
Q 497 3997 681 4150
Q 866 4303 1139 4386
Q 1413 4469 1772 4469
Q 2156 4469 2436 4383
Q 2716 4297 2897 4142
Q 3078 3988 3165 3772
Q 3253 3556 3253 3297
Q 3253 3125 3198 2964
Q 3144 2803 3041 2672
Q 2938 2541 2789 2450
Q 2641 2359 2453 2322
L 2453 2309
Q 2647 2278 2814 2195
Q 2981 2113 3103 1980
Q 3225 1847 3294 1661
Q 3363 1475 3363 1241
z
M 2350 3250
Q 2350 3381 2322 3492
Q 2294 3603 2228 3683
Q 2163 3763 2052 3808
Q 1941 3853 1772 3853
Q 1609 3853 1500 3808
Q 1391 3763 1325 3683
Q 1259 3603 1231 3492
Q 1203 3381 1203 3250
Q 1203 3134 1226 3021
Q 1250 2909 1312 2820
Q 1375 2731 1487 2675
Q 1600 2619 1778 2619
Q 1966 2619 2080 2675
Q 2194 2731 2253 2822
Q 2313 2913 2331 3025
Q 2350 3138 2350 3250
z
M 2453 1313
Q 2453 1447 2423 1572
Q 2394 1697 2317 1792
Q 2241 1888 2106 1945
Q 1972 2003 1766 2003
Q 1578 2003 1451 1945
Q 1325 1888 1248 1791
Q 1172 1694 1139 1567
Q 1106 1441 1106 1300
Q 1106 1134 1139 996
Q 1172 859 1251 761
Q 1331 663 1462 609
Q 1594 556 1791 556
Q 1988 556 2116 611
Q 2244 666 2319 766
Q 2394 866 2423 1005
Q 2453 1144 2453 1313
z
"
              transform="scale(0.015625)"
            />
            <path id="LiberationSans-Bold-2e" d="M 434 0
L 434 953
L 1338 953
L 1338 0
L 434 0
z
" transform="scale(0.015625)"/>
            <path
              id="LiberationSans-Bold-33"
              d="M 3328 1222
Q 3328 922 3229 683
Q 3131 444 2934 275
Q 2738 106 2445 17
Q 2153 -72 1766 -72
Q 1334 -72 1039 37
Q 744 147 555 326
Q 366 506 270 734
Q 175 963 147 1197
L 1041 1275
Q 1059 1134 1111 1017
Q 1163 900 1250 815
Q 1338 731 1464 686
Q 1591 641 1763 641
Q 2078 641 2253 797
Q 2428 953 2428 1275
Q 2428 1472 2345 1590
Q 2263 1709 2136 1773
Q 2009 1838 1862 1859
Q 1716 1881 1584 1881
L 1278 1881
L 1278 2591
L 1566 2591
Q 1697 2591 1833 2616
Q 1969 2641 2078 2706
Q 2188 2772 2256 2889
Q 2325 3006 2325 3188
Q 2325 3459 2173 3614
Q 2022 3769 1731 3769
Q 1459 3769 1292 3619
Q 1125 3469 1100 3194
L 222 3256
Q 259 3566 392 3794
Q 525 4022 726 4172
Q 928 4322 1190 4395
Q 1453 4469 1747 4469
Q 2134 4469 2412 4375
Q 2691 4281 2869 4122
Q 3047 3963 3131 3750
Q 3216 3538 3216 3297
Q 3216 3103 3159 2936
Q 3103 2769 2989 2636
Q 2875 2503 2697 2408
Q 2519 2313 2275 2266
L 2275 2253
Q 2547 2222 2747 2130
Q 2947 2038 3075 1900
Q 3203 1763 3265 1589
Q 3328 1416 3328 1222
z
"
              transform="scale(0.015625)"
            />
            <path
              id="LiberationSans-Bold-6d"
              d="M 2438 0
L 2438 1897
Q 2438 2094 2411 2258
Q 2384 2422 2323 2539
Q 2263 2656 2164 2722
Q 2066 2788 1925 2788
Q 1791 2788 1681 2717
Q 1572 2647 1492 2517
Q 1413 2388 1369 2208
Q 1325 2028 1325 1813
L 1325 0
L 447 0
L 447 2625
Q 447 2734 445 2850
Q 444 2966 439 3070
Q 434 3175 431 3258
Q 428 3341 422 3381
L 1259 3381
Q 1266 3344 1272 3261
Q 1278 3178 1284 3078
Q 1291 2978 1295 2878
Q 1300 2778 1300 2709
L 1313 2709
Q 1475 3097 1717 3272
Q 1959 3447 2297 3447
Q 2684 3447 2920 3258
Q 3156 3069 3238 2709
L 3256 2709
Q 3347 2919 3451 3059
Q 3556 3200 3682 3286
Q 3809 3372 3957 3409
Q 4106 3447 4281 3447
Q 4559 3447 4751 3347
Q 4944 3247 5064 3072
Q 5184 2897 5239 2659
Q 5294 2422 5294 2147
L 5294 0
L 4422 0
L 4422 1897
Q 4422 2094 4395 2258
Q 4369 2422 4308 2539
Q 4247 2656 4148 2722
Q 4050 2788 3909 2788
Q 3778 2788 3670 2720
Q 3563 2653 3483 2529
Q 3403 2406 3359 2234
Q 3316 2063 3309 1853
L 3309 0
L 2438 0
z
"
              transform="scale(0.015625)"
            />
            <path id="LiberationSans-Bold-2f" d="M 63 -128
L 972 4638
L 1716 4638
L 822 -128
L 63 -128
z
" transform="scale(0.015625)"/>
            <path
              id="LiberationSans-Bold-2c"
              d="M 1350 206
Q 1350 -3 1326 -175
Q 1303 -347 1259 -492
Q 1216 -638 1153 -759
Q 1091 -881 1013 -991
L 434 -991
Q 525 -881 600 -759
Q 675 -638 731 -509
Q 788 -381 819 -253
Q 850 -125 850 0
L 447 0
L 447 953
L 1350 953
L 1350 206
z
"
              transform="scale(0.015625)"
            />
            <path
              id="LiberationSans-Bold-61"
              d="M 1228 -63
Q 984 -63 792 4
Q 600 72 465 201
Q 331 331 259 522
Q 188 713 188 956
Q 188 1256 292 1461
Q 397 1666 578 1792
Q 759 1919 1003 1976
Q 1247 2034 1522 2038
L 2250 2050
L 2250 2222
Q 2250 2406 2217 2529
Q 2184 2653 2121 2731
Q 2059 2809 1967 2842
Q 1875 2875 1756 2875
Q 1647 2875 1561 2853
Q 1475 2831 1412 2776
Q 1350 2722 1311 2630
Q 1272 2538 1256 2397
L 341 2441
Q 378 2663 478 2845
Q 578 3028 754 3162
Q 931 3297 1189 3370
Q 1447 3444 1794 3444
Q 2109 3444 2356 3366
Q 2603 3288 2775 3133
Q 2947 2978 3037 2753
Q 3128 2528 3128 2231
L 3128 1000
Q 3128 881 3139 787
Q 3150 694 3179 630
Q 3209 566 3264 533
Q 3319 500 3406 500
Q 3506 500 3600 519
L 3600 44
Q 3522 25 3459 9
Q 3397 -6 3334 -15
Q 3272 -25 3201 -31
Q 3131 -38 3038 -38
Q 2706 -38 2548 125
Q 2391 288 2359 603
L 2341 603
Q 2166 288 1892 112
Q 1619 -63 1228 -63
z
M 2250 1566
L 1800 1559
Q 1659 1553 1532 1536
Q 1406 1519 1311 1464
Q 1216 1409 1159 1306
Q 1103 1203 1103 1025
Q 1103 784 1214 667
Q 1325 550 1509 550
Q 1678 550 1815 622
Q 1953 694 2048 811
Q 2144 928 2197 1081
Q 2250 1234 2250 1394
L 2250 1566
z
"
              transform="scale(0.015625)"
            />
            <path id="LiberationSans-Bold-31" d="M 403 0
L 403 653
L 1494 653
L 1494 3656
L 438 2997
L 438 3688
L 1541 4403
L 2372 4403
L 2372 653
L 3381 653
L 3381 0
L 403 0
z
" transform="scale(0.015625)"/>
            <path
              id="LiberationSans-Bold-35"
              d="M 3381 1466
Q 3381 1134 3276 854
Q 3172 575 2965 370
Q 2759 166 2454 51
Q 2150 -63 1750 -63
Q 1381 -63 1106 26
Q 831 116 642 273
Q 453 431 345 643
Q 238 856 197 1100
L 1075 1172
Q 1100 1069 1145 972
Q 1191 875 1272 800
Q 1353 725 1472 679
Q 1591 634 1759 634
Q 2088 634 2283 843
Q 2478 1053 2478 1447
Q 2478 1622 2429 1762
Q 2381 1903 2292 2003
Q 2203 2103 2073 2156
Q 1944 2209 1778 2209
Q 1559 2209 1418 2126
Q 1278 2044 1181 1925
L 325 1925
L 478 4403
L 3125 4403
L 3125 3750
L 1275 3750
L 1203 2638
Q 1334 2753 1534 2836
Q 1734 2919 2000 2919
Q 2325 2919 2581 2812
Q 2838 2706 3016 2515
Q 3194 2325 3287 2058
Q 3381 1791 3381 1466
z
"
              transform="scale(0.015625)"
            />
            <path
              id="LiberationSans-Bold-37"
              d="M 3278 3706
Q 2981 3238 2717 2797
Q 2453 2356 2256 1911
Q 2059 1466 1945 995
Q 1831 525 1831 0
L 916 0
Q 916 522 1039 992
Q 1163 1463 1375 1909
Q 1588 2356 1869 2792
Q 2150 3228 2463 3681
L 275 3681
L 275 4403
L 3278 4403
L 3278 3706
z
"
              transform="scale(0.015625)"
            />
            <path
              id="LiberationSans-Bold-62"
              d="M 3647 1703
Q 3647 1319 3570 995
Q 3494 672 3334 436
Q 3175 200 2929 68
Q 2684 -63 2350 -63
Q 2200 -63 2050 -31
Q 1900 0 1765 72
Q 1631 144 1518 259
Q 1406 375 1325 544
L 1319 544
Q 1319 478 1314 393
Q 1309 309 1303 229
Q 1297 150 1289 87
Q 1281 25 1275 0
L 422 0
Q 431 109 439 311
Q 447 513 447 772
L 447 4638
L 1325 4638
L 1325 3344
Q 1325 3244 1323 3148
Q 1322 3053 1319 2972
Q 1316 2878 1313 2794
L 1325 2794
Q 1484 3144 1762 3294
Q 2041 3444 2406 3444
Q 2731 3444 2965 3314
Q 3200 3184 3351 2951
Q 3503 2719 3575 2400
Q 3647 2081 3647 1703
z
M 2731 1703
Q 2731 2278 2562 2556
Q 2394 2834 2041 2834
Q 1906 2834 1775 2781
Q 1644 2728 1541 2595
Q 1438 2463 1375 2239
Q 1313 2016 1313 1675
Q 1313 1344 1375 1125
Q 1438 906 1538 775
Q 1638 644 1769 591
Q 1900 538 2034 538
Q 2369 538 2550 814
Q 2731 1091 2731 1703
z
"
              transform="scale(0.015625)"
            />
            <path
              id="LiberationSans-Bold-30"
              d="M 3297 2203
Q 3297 1572 3181 1139
Q 3066 706 2861 439
Q 2656 172 2376 54
Q 2097 -63 1766 -63
Q 1434 -63 1156 53
Q 878 169 678 436
Q 478 703 365 1136
Q 253 1569 253 2203
Q 253 2869 364 3305
Q 475 3741 678 4000
Q 881 4259 1164 4364
Q 1447 4469 1791 4469
Q 2113 4469 2389 4364
Q 2666 4259 2867 4000
Q 3069 3741 3183 3305
Q 3297 2869 3297 2203
z
M 2416 2203
Q 2416 2669 2381 2973
Q 2347 3278 2272 3458
Q 2197 3638 2076 3709
Q 1956 3781 1784 3781
Q 1600 3781 1475 3707
Q 1350 3634 1273 3453
Q 1197 3272 1164 2967
Q 1131 2663 1131 2203
Q 1131 1750 1165 1447
Q 1200 1144 1275 961
Q 1350 778 1472 703
Q 1594 628 1772 628
Q 1944 628 2066 703
Q 2188 778 2266 961
Q 2344 1144 2380 1447
Q 2416 1750 2416 2203
z
"
              transform="scale(0.015625)"
            />
            <path
              id="LiberationSans-Bold-34"
              d="M 2938 897
L 2938 0
L 2100 0
L 2100 897
L 97 897
L 97 1556
L 1956 4403
L 2938 4403
L 2938 1550
L 3525 1550
L 3525 897
L 2938 897
z
M 2100 2991
Q 2100 3044 2101 3130
Q 2103 3216 2108 3306
Q 2113 3397 2117 3480
Q 2122 3563 2128 3609
Q 2113 3575 2078 3511
Q 2044 3447 2001 3373
Q 1959 3300 1914 3228
Q 1869 3156 1834 3103
L 813 1550
L 2100 1550
L 2100 2991
z
"
              transform="scale(0.015625)"
            />
            <path
              id="LiberationSans-Bold-32"
              d="M 222 0
L 222 609
Q 372 938 587 1202
Q 803 1466 1039 1686
Q 1275 1906 1508 2095
Q 1741 2284 1927 2461
Q 2113 2638 2228 2816
Q 2344 2994 2344 3194
Q 2344 3488 2197 3628
Q 2050 3769 1766 3769
Q 1484 3769 1336 3617
Q 1188 3466 1144 3163
L 259 3213
Q 291 3472 387 3700
Q 484 3928 664 4100
Q 844 4272 1114 4370
Q 1384 4469 1759 4469
Q 2116 4469 2391 4386
Q 2666 4303 2853 4143
Q 3041 3984 3137 3754
Q 3234 3525 3234 3231
Q 3234 2922 3112 2672
Q 2991 2422 2800 2211
Q 2609 2000 2376 1815
Q 2144 1631 1925 1456
Q 1706 1281 1526 1103
Q 1347 925 1259 722
L 3303 722
L 3303 0
L 222 0
z
"
              transform="scale(0.015625)"
            />
            <path
              id="LiberationSans-Bold-29"
              d="M 6 -1328
Q 256 -963 434 -611
Q 613 -259 727 103
Q 841 466 894 848
Q 947 1231 947 1656
Q 947 2078 894 2461
Q 841 2844 727 3206
Q 613 3569 434 3922
Q 256 4275 6 4638
L 884 4638
Q 1125 4291 1300 3948
Q 1475 3606 1589 3245
Q 1703 2884 1758 2495
Q 1813 2106 1813 1659
Q 1813 1216 1758 823
Q 1703 431 1589 68
Q 1475 -294 1300 -637
Q 1125 -981 884 -1328
L 6 -1328
z
"
              transform="scale(0.015625)"
            />
          </defs>
          <use xlink:href="#LiberationSans-Bold-28"/>
          <use xlink:href="#LiberationSans-Bold-56" x="33.300781"/>
          <use xlink:href="#LiberationSans-Bold-65" x="94.5"/>
          <use xlink:href="#LiberationSans-Bold-6c" x="150.115234"/>
          <use xlink:href="#LiberationSans-Bold-6f" x="177.898438"/>
          <use xlink:href="#LiberationSans-Bold-63" x="238.982422"/>
          <use xlink:href="#LiberationSans-Bold-69" x="294.597656"/>
          <use xlink:href="#LiberationSans-Bold-74" x="322.380859"/>
          <use xlink:href="#LiberationSans-Bold-79" x="355.681641"/>
          <use xlink:href="#LiberationSans-Bold-20" x="411.296875"/>
          <use xlink:href="#LiberationSans-Bold-3d" x="439.080078"/>
          <use xlink:href="#LiberationSans-Bold-20" x="497.478516"/>
          <use xlink:href="#LiberationSans-Bold-38" x="525.261719"/>
          <use xlink:href="#LiberationSans-Bold-2e" x="580.876953"/>
          <use xlink:href="#LiberationSans-Bold-33" x="608.660156"/>
          <use xlink:href="#LiberationSans-Bold-33" x="664.275391"/>
          <use xlink:href="#LiberationSans-Bold-20" x="719.890625"/>
          <use xlink:href="#LiberationSans-Bold-6d" x="747.673828"/>
          <use xlink:href="#LiberationSans-Bold-2f" x="836.589844"/>
          <use xlink:href="#LiberationSans-Bold-73" x="864.373047"/>
          <use xlink:href="#LiberationSans-Bold-2c" x="919.988281"/>
          <use xlink:href="#LiberationSans-Bold-20" x="947.771484"/>
          <use xlink:href="#LiberationSans-Bold-61" x="975.554688"/>
          <use xlink:href="#LiberationSans-Bold-20" x="1031.169922"/>
          <use xlink:href="#LiberationSans-Bold-3d" x="1058.953125"/>
          <use xlink:href="#LiberationSans-Bold-20" x="1117.351562"/>
          <use xlink:href="#LiberationSans-Bold-31" x="1145.134766"/>
          <use xlink:href="#LiberationSans-Bold-35" x="1200.75"/>
          <use xlink:href="#LiberationSans-Bold-2e" x="1256.365234"/>
          <use xlink:href="#LiberationSans-Bold-37" x="1284.148438"/>
          <use xlink:href="#LiberationSans-Bold-31" x="1339.763672"/>
          <use xlink:href="#LiberationSans-Bold-33" x="1395.378906"/>
          <use xlink:href="#LiberationSans-Bold-2c" x="1450.994141"/>
          <use xlink:href="#LiberationSans-Bold-20" x="1478.777344"/>
          <use xlink:href="#LiberationSans-Bold-62" x="1506.560547"/>
          <use xlink:href="#LiberationSans-Bold-20" x="1567.644531"/>
          <use xlink:href="#LiberationSans-Bold-3d" x="1595.427734"/>
          <use xlink:href="#LiberationSans-Bold-20" x="1653.826172"/>
          <use xlink:href="#LiberationSans-Bold-30" x="1681.609375"/>
          <use xlink:href="#LiberationSans-Bold-2e" x="1737.224609"/>
          <use xlink:href="#LiberationSans-Bold-30" x="1765.007812"/>
          <use xlink:href="#LiberationSans-Bold-35" x="1820.623047"/>
          <use xlink:href="#LiberationSans-Bold-33" x="1876.238281"/>
          <use xlink:href="#LiberationSans-Bold-2c" x="1931.853516"/>
          <use xlink:href="#LiberationSans-Bold-20" x="1959.636719"/>
          <use xlink:href="#LiberationSans-Bold-63" x="1987.419922"/>
          <use xlink:href="#LiberationSans-Bold-20" x="2043.035156"/>
          <use xlink:href="#LiberationSans-Bold-3d" x="2070.818359"/>
          <use xlink:href="#LiberationSans-Bold-20" x="2129.216797"/>
          <use xlink:href="#LiberationSans-Bold-30" x="2157"/>
          <use xlink:href="#LiberationSans-Bold-2e" x="2212.615234"/>
          <use xlink:href="#LiberationSans-Bold-30" x="2240.398438"/>
          <use xlink:href="#LiberationSans-Bold-34" x="2296.013672"/>
          <use xlink:href="#LiberationSans-Bold-32" x="2351.628906"/>
          <use xlink:href="#LiberationSans-Bold-29" x="2407.244141"/>
        </g>
      </g>
    </g>
    <g id="axes_2">
      <g id="patch_7">
        <path d="M 620.85 533.22
L 1141.2 533.22
L 1141.2 45.744
L 620.85 45.744
z
" style="fill: #ffffff"/>
      </g>
      <g id="matplotlib.axis_3">
        <g id="xtick_10">
          <g id="line2d_30">
            <path
              d="M 644.502273 533.22
L 644.502273 45.744
"
              clip-path="url(#p7496c49335)"
              style="fill: none; stroke-dasharray: 2.96,1.28; stroke-dashoffset: 0; stroke: #cccccc; stroke-opacity: 0.7; stroke-width: 0.8"
            />
          </g>
          <g id="line2d_31"/>
          <g id="text_18">
            <!-- 0.0 -->
            <g style="fill: #262626" transform="translate(636.162273 545.41625)scale(0.12 -0.12)">
              <use xlink:href="#LiberationSans-30"/>
              <use xlink:href="#LiberationSans-2e" x="55.615234"/>
              <use xlink:href="#LiberationSans-30" x="83.398438"/>
            </g>
          </g>
        </g>
        <g id="xtick_11">
          <g id="line2d_32">
            <path
              d="M 715.487485 533.22
L 715.487485 45.744
"
              clip-path="url(#p7496c49335)"
              style="fill: none; stroke-dasharray: 2.96,1.28; stroke-dashoffset: 0; stroke: #cccccc; stroke-opacity: 0.7; stroke-width: 0.8"
            />
          </g>
          <g id="line2d_33"/>
          <g id="text_19">
            <!-- 2.5 -->
            <g style="fill: #262626" transform="translate(707.147485 545.41625)scale(0.12 -0.12)">
              <use xlink:href="#LiberationSans-32"/>
              <use xlink:href="#LiberationSans-2e" x="55.615234"/>
              <use xlink:href="#LiberationSans-35" x="83.398438"/>
            </g>
          </g>
        </g>
        <g id="xtick_12">
          <g id="line2d_34">
            <path
              d="M 786.472697 533.22
L 786.472697 45.744
"
              clip-path="url(#p7496c49335)"
              style="fill: none; stroke-dasharray: 2.96,1.28; stroke-dashoffset: 0; stroke: #cccccc; stroke-opacity: 0.7; stroke-width: 0.8"
            />
          </g>
          <g id="line2d_35"/>
          <g id="text_20">
            <!-- 5.0 -->
            <g style="fill: #262626" transform="translate(778.132697 545.41625)scale(0.12 -0.12)">
              <use xlink:href="#LiberationSans-35"/>
              <use xlink:href="#LiberationSans-2e" x="55.615234"/>
              <use xlink:href="#LiberationSans-30" x="83.398438"/>
            </g>
          </g>
        </g>
        <g id="xtick_13">
          <g id="line2d_36">
            <path
              d="M 857.45791 533.22
L 857.45791 45.744
"
              clip-path="url(#p7496c49335)"
              style="fill: none; stroke-dasharray: 2.96,1.28; stroke-dashoffset: 0; stroke: #cccccc; stroke-opacity: 0.7; stroke-width: 0.8"
            />
          </g>
          <g id="line2d_37"/>
          <g id="text_21">
            <!-- 7.5 -->
            <g style="fill: #262626" transform="translate(849.11791 545.41625)scale(0.12 -0.12)">
              <use xlink:href="#LiberationSans-37"/>
              <use xlink:href="#LiberationSans-2e" x="55.615234"/>
              <use xlink:href="#LiberationSans-35" x="83.398438"/>
            </g>
          </g>
        </g>
        <g id="xtick_14">
          <g id="line2d_38">
            <path
              d="M 928.443122 533.22
L 928.443122 45.744
"
              clip-path="url(#p7496c49335)"
              style="fill: none; stroke-dasharray: 2.96,1.28; stroke-dashoffset: 0; stroke: #cccccc; stroke-opacity: 0.7; stroke-width: 0.8"
            />
          </g>
          <g id="line2d_39"/>
          <g id="text_22">
            <!-- 10.0 -->
            <g style="fill: #262626" transform="translate(916.766559 545.41625)scale(0.12 -0.12)">
              <use xlink:href="#LiberationSans-31"/>
              <use xlink:href="#LiberationSans-30" x="55.615234"/>
              <use xlink:href="#LiberationSans-2e" x="111.230469"/>
              <use xlink:href="#LiberationSans-30" x="139.013672"/>
            </g>
          </g>
        </g>
        <g id="xtick_15">
          <g id="line2d_40">
            <path
              d="M 999.428334 533.22
L 999.428334 45.744
"
              clip-path="url(#p7496c49335)"
              style="fill: none; stroke-dasharray: 2.96,1.28; stroke-dashoffset: 0; stroke: #cccccc; stroke-opacity: 0.7; stroke-width: 0.8"
            />
          </g>
          <g id="line2d_41"/>
          <g id="text_23">
            <!-- 12.5 -->
            <g style="fill: #262626" transform="translate(987.751772 545.41625)scale(0.12 -0.12)">
              <use xlink:href="#LiberationSans-31"/>
              <use xlink:href="#LiberationSans-32" x="55.615234"/>
              <use xlink:href="#LiberationSans-2e" x="111.230469"/>
              <use xlink:href="#LiberationSans-35" x="139.013672"/>
            </g>
          </g>
        </g>
        <g id="xtick_16">
          <g id="line2d_42">
            <path
              d="M 1070.413546 533.22
L 1070.413546 45.744
"
              clip-path="url(#p7496c49335)"
              style="fill: none; stroke-dasharray: 2.96,1.28; stroke-dashoffset: 0; stroke: #cccccc; stroke-opacity: 0.7; stroke-width: 0.8"
            />
          </g>
          <g id="line2d_43"/>
          <g id="text_24">
            <!-- 15.0 -->
            <g style="fill: #262626" transform="translate(1058.736984 545.41625)scale(0.12 -0.12)">
              <use xlink:href="#LiberationSans-31"/>
              <use xlink:href="#LiberationSans-35" x="55.615234"/>
              <use xlink:href="#LiberationSans-2e" x="111.230469"/>
              <use xlink:href="#LiberationSans-30" x="139.013672"/>
            </g>
          </g>
        </g>
        <g id="text_25">
          <!-- Velocity [m/s] -->
          <g style="fill: #262626" transform="translate(839.790625 562.051875)scale(0.14 -0.14)">
            <defs>
              <path
                id="LiberationSans-63"
                d="M 859 1706
Q 859 1416 901 1172
Q 944 928 1044 751
Q 1144 575 1308 478
Q 1472 381 1713 381
Q 2013 381 2214 543
Q 2416 706 2463 1044
L 3031 1006
Q 3003 797 2909 603
Q 2816 409 2655 262
Q 2494 116 2262 26
Q 2031 -63 1728 -63
Q 1331 -63 1053 71
Q 775 206 601 442
Q 428 678 350 998
Q 272 1319 272 1694
Q 272 2034 328 2295
Q 384 2556 486 2751
Q 588 2947 725 3080
Q 863 3213 1023 3292
Q 1184 3372 1362 3408
Q 1541 3444 1722 3444
Q 2006 3444 2228 3366
Q 2450 3288 2611 3152
Q 2772 3016 2872 2831
Q 2972 2647 3013 2434
L 2434 2391
Q 2391 2672 2212 2837
Q 2034 3003 1706 3003
Q 1466 3003 1305 2923
Q 1144 2844 1044 2683
Q 944 2522 901 2278
Q 859 2034 859 1706
z
"
                transform="scale(0.015625)"
              />
              <path
                id="LiberationSans-79"
                d="M 1888 0
Q 1769 -306 1645 -551
Q 1522 -797 1369 -970
Q 1216 -1144 1028 -1236
Q 841 -1328 597 -1328
Q 491 -1328 400 -1322
Q 309 -1316 209 -1294
L 209 -872
Q 269 -881 344 -886
Q 419 -891 472 -891
Q 719 -891 931 -706
Q 1144 -522 1303 -119
L 1356 16
L 16 3381
L 616 3381
L 1328 1513
Q 1359 1428 1407 1287
Q 1456 1147 1504 1006
Q 1553 866 1590 753
Q 1628 641 1634 613
Q 1644 647 1680 748
Q 1716 850 1761 975
Q 1806 1100 1853 1228
Q 1900 1356 1931 1450
L 2594 3381
L 3188 3381
L 1888 0
z
"
                transform="scale(0.015625)"
              />
              <path
                id="LiberationSans-6d"
                d="M 2400 0
L 2400 2144
Q 2400 2391 2369 2556
Q 2338 2722 2264 2823
Q 2191 2925 2072 2967
Q 1953 3009 1781 3009
Q 1603 3009 1459 2939
Q 1316 2869 1214 2736
Q 1113 2603 1058 2408
Q 1003 2213 1003 1959
L 1003 0
L 444 0
L 444 2659
Q 444 2766 442 2883
Q 441 3000 437 3104
Q 434 3209 431 3284
Q 428 3359 425 3381
L 956 3381
Q 959 3366 962 3297
Q 966 3228 970 3139
Q 975 3050 978 2958
Q 981 2866 981 2803
L 991 2803
Q 1066 2950 1153 3069
Q 1241 3188 1358 3270
Q 1475 3353 1626 3398
Q 1778 3444 1978 3444
Q 2363 3444 2586 3291
Q 2809 3138 2897 2803
L 2906 2803
Q 2981 2950 3075 3069
Q 3169 3188 3294 3270
Q 3419 3353 3575 3398
Q 3731 3444 3931 3444
Q 4188 3444 4373 3375
Q 4559 3306 4678 3162
Q 4797 3019 4853 2792
Q 4909 2566 4909 2253
L 4909 0
L 4353 0
L 4353 2144
Q 4353 2391 4322 2556
Q 4291 2722 4217 2823
Q 4144 2925 4025 2967
Q 3906 3009 3734 3009
Q 3556 3009 3412 2942
Q 3269 2875 3167 2744
Q 3066 2613 3011 2416
Q 2956 2219 2956 1959
L 2956 0
L 2400 0
z
"
                transform="scale(0.015625)"
              />
              <path id="LiberationSans-2f" d="M 0 -63
L 1284 4638
L 1778 4638
L 506 -63
L 0 -63
z
" transform="scale(0.015625)"/>
              <path
                id="LiberationSans-73"
                d="M 2969 934
Q 2969 697 2876 511
Q 2784 325 2609 198
Q 2434 72 2179 4
Q 1925 -63 1597 -63
Q 1303 -63 1067 -17
Q 831 28 653 128
Q 475 228 354 392
Q 234 556 178 794
L 675 891
Q 747 619 972 492
Q 1197 366 1597 366
Q 1778 366 1929 391
Q 2081 416 2190 477
Q 2300 538 2361 639
Q 2422 741 2422 891
Q 2422 1044 2350 1142
Q 2278 1241 2150 1306
Q 2022 1372 1839 1420
Q 1656 1469 1438 1528
Q 1234 1581 1034 1647
Q 834 1713 673 1820
Q 513 1928 413 2087
Q 313 2247 313 2488
Q 313 2950 642 3192
Q 972 3434 1603 3434
Q 2163 3434 2492 3237
Q 2822 3041 2909 2606
L 2403 2544
Q 2375 2675 2300 2764
Q 2225 2853 2119 2908
Q 2013 2963 1880 2986
Q 1747 3009 1603 3009
Q 1222 3009 1040 2893
Q 859 2778 859 2544
Q 859 2406 926 2317
Q 994 2228 1114 2167
Q 1234 2106 1403 2061
Q 1572 2016 1775 1966
Q 1909 1931 2050 1892
Q 2191 1853 2323 1798
Q 2456 1744 2573 1670
Q 2691 1597 2778 1494
Q 2866 1391 2917 1253
Q 2969 1116 2969 934
z
"
                transform="scale(0.015625)"
              />
            </defs>
            <use xlink:href="#LiberationSans-56"/>
            <use xlink:href="#LiberationSans-65" x="61.199219"/>
            <use xlink:href="#LiberationSans-6c" x="116.814453"/>
            <use xlink:href="#LiberationSans-6f" x="139.03125"/>
            <use xlink:href="#LiberationSans-63" x="194.646484"/>
            <use xlink:href="#LiberationSans-69" x="244.646484"/>
            <use xlink:href="#LiberationSans-74" x="266.863281"/>
            <use xlink:href="#LiberationSans-79" x="294.646484"/>
            <use xlink:href="#LiberationSans-20" x="344.646484"/>
            <use xlink:href="#LiberationSans-5b" x="372.429688"/>
            <use xlink:href="#LiberationSans-6d" x="400.212891"/>
            <use xlink:href="#LiberationSans-2f" x="483.513672"/>
            <use xlink:href="#LiberationSans-73" x="511.296875"/>
            <use xlink:href="#LiberationSans-5d" x="561.296875"/>
          </g>
        </g>
      </g>
      <g id="matplotlib.axis_4">
        <g id="ytick_6">
          <g id="line2d_44">
            <path
              d="M 620.85 502.415973
L 1141.2 502.415973
"
              clip-path="url(#p7496c49335)"
              style="fill: none; stroke-dasharray: 2.96,1.28; stroke-dashoffset: 0; stroke: #cccccc; stroke-opacity: 0.7; stroke-width: 0.8"
            />
          </g>
          <g id="line2d_45"/>
          <g id="text_26">
            <!-- 16 -->
            <g style="fill: #262626" transform="translate(604.00375 506.764098)scale(0.12 -0.12)">
              <defs>
                <path
                  id="LiberationSans-36"
                  d="M 3278 1441
Q 3278 1109 3186 832
Q 3094 556 2914 357
Q 2734 159 2468 48
Q 2203 -63 1856 -63
Q 1472 -63 1184 84
Q 897 231 706 507
Q 516 784 420 1186
Q 325 1588 325 2100
Q 325 2688 433 3131
Q 541 3575 744 3872
Q 947 4169 1239 4319
Q 1531 4469 1900 4469
Q 2125 4469 2322 4422
Q 2519 4375 2680 4270
Q 2841 4166 2962 3994
Q 3084 3822 3156 3572
L 2619 3475
Q 2531 3759 2339 3886
Q 2147 4013 1894 4013
Q 1663 4013 1475 3903
Q 1288 3794 1156 3576
Q 1025 3359 954 3031
Q 884 2703 884 2266
Q 1038 2550 1316 2698
Q 1594 2847 1953 2847
Q 2253 2847 2497 2750
Q 2741 2653 2914 2470
Q 3088 2288 3183 2027
Q 3278 1766 3278 1441
z
M 2706 1416
Q 2706 1644 2650 1828
Q 2594 2013 2481 2142
Q 2369 2272 2203 2342
Q 2038 2413 1819 2413
Q 1666 2413 1509 2367
Q 1353 2322 1226 2220
Q 1100 2119 1020 1953
Q 941 1788 941 1550
Q 941 1306 1003 1095
Q 1066 884 1183 728
Q 1300 572 1465 481
Q 1631 391 1838 391
Q 2041 391 2202 461
Q 2363 531 2475 664
Q 2588 797 2647 987
Q 2706 1178 2706 1416
z
"
                  transform="scale(0.015625)"
                />
              </defs>
              <use xlink:href="#LiberationSans-31"/>
              <use xlink:href="#LiberationSans-36" x="55.615234"/>
            </g>
          </g>
        </g>
        <g id="ytick_7">
          <g id="line2d_46">
            <path
              d="M 620.85 442.164914
L 1141.2 442.164914
"
              clip-path="url(#p7496c49335)"
              style="fill: none; stroke-dasharray: 2.96,1.28; stroke-dashoffset: 0; stroke: #cccccc; stroke-opacity: 0.7; stroke-width: 0.8"
            />
          </g>
          <g id="line2d_47"/>
          <g id="text_27">
            <!-- 18 -->
            <g style="fill: #262626" transform="translate(604.00375 446.513039)scale(0.12 -0.12)">
              <defs>
                <path
                  id="LiberationSans-38"
                  d="M 3281 1228
Q 3281 947 3192 711
Q 3103 475 2920 303
Q 2738 131 2453 34
Q 2169 -63 1781 -63
Q 1394 -63 1111 34
Q 828 131 642 301
Q 456 472 367 708
Q 278 944 278 1222
Q 278 1463 351 1650
Q 425 1838 548 1973
Q 672 2109 830 2192
Q 988 2275 1156 2303
L 1156 2316
Q 972 2359 826 2456
Q 681 2553 582 2689
Q 484 2825 432 2990
Q 381 3156 381 3341
Q 381 3572 470 3776
Q 559 3981 734 4136
Q 909 4291 1168 4380
Q 1428 4469 1769 4469
Q 2128 4469 2392 4378
Q 2656 4288 2829 4133
Q 3003 3978 3087 3772
Q 3172 3566 3172 3334
Q 3172 3153 3120 2987
Q 3069 2822 2970 2686
Q 2872 2550 2726 2454
Q 2581 2359 2391 2322
L 2391 2309
Q 2581 2278 2743 2195
Q 2906 2113 3025 1977
Q 3144 1841 3212 1653
Q 3281 1466 3281 1228
z
M 2588 3303
Q 2588 3469 2545 3606
Q 2503 3744 2406 3842
Q 2309 3941 2153 3995
Q 1997 4050 1769 4050
Q 1547 4050 1394 3995
Q 1241 3941 1142 3842
Q 1044 3744 1000 3606
Q 956 3469 956 3303
Q 956 3172 990 3034
Q 1025 2897 1115 2784
Q 1206 2672 1365 2600
Q 1525 2528 1775 2528
Q 2041 2528 2202 2600
Q 2363 2672 2448 2784
Q 2534 2897 2561 3034
Q 2588 3172 2588 3303
z
M 2697 1281
Q 2697 1441 2653 1589
Q 2609 1738 2503 1852
Q 2397 1966 2217 2036
Q 2038 2106 1769 2106
Q 1522 2106 1348 2036
Q 1175 1966 1067 1850
Q 959 1734 909 1582
Q 859 1431 859 1269
Q 859 1066 909 898
Q 959 731 1068 611
Q 1178 491 1356 425
Q 1534 359 1788 359
Q 2044 359 2219 425
Q 2394 491 2500 611
Q 2606 731 2651 901
Q 2697 1072 2697 1281
z
"
                  transform="scale(0.015625)"
                />
              </defs>
              <use xlink:href="#LiberationSans-31"/>
              <use xlink:href="#LiberationSans-38" x="55.615234"/>
            </g>
          </g>
        </g>
        <g id="ytick_8">
          <g id="line2d_48">
            <path
              d="M 620.85 381.913855
L 1141.2 381.913855
"
              clip-path="url(#p7496c49335)"
              style="fill: none; stroke-dasharray: 2.96,1.28; stroke-dashoffset: 0; stroke: #cccccc; stroke-opacity: 0.7; stroke-width: 0.8"
            />
          </g>
          <g id="line2d_49"/>
          <g id="text_28">
            <!-- 20 -->
            <g style="fill: #262626" transform="translate(604.00375 386.26198)scale(0.12 -0.12)">
              <use xlink:href="#LiberationSans-32"/>
              <use xlink:href="#LiberationSans-30" x="55.615234"/>
            </g>
          </g>
        </g>
        <g id="ytick_9">
          <g id="line2d_50">
            <path
              d="M 620.85 321.662796
L 1141.2 321.662796
"
              clip-path="url(#p7496c49335)"
              style="fill: none; stroke-dasharray: 2.96,1.28; stroke-dashoffset: 0; stroke: #cccccc; stroke-opacity: 0.7; stroke-width: 0.8"
            />
          </g>
          <g id="line2d_51"/>
          <g id="text_29">
            <!-- 22 -->
            <g style="fill: #262626" transform="translate(604.00375 326.010921)scale(0.12 -0.12)">
              <use xlink:href="#LiberationSans-32"/>
              <use xlink:href="#LiberationSans-32" x="55.615234"/>
            </g>
          </g>
        </g>
        <g id="ytick_10">
          <g id="line2d_52">
            <path
              d="M 620.85 261.411736
L 1141.2 261.411736
"
              clip-path="url(#p7496c49335)"
              style="fill: none; stroke-dasharray: 2.96,1.28; stroke-dashoffset: 0; stroke: #cccccc; stroke-opacity: 0.7; stroke-width: 0.8"
            />
          </g>
          <g id="line2d_53"/>
          <g id="text_30">
            <!-- 24 -->
            <g style="fill: #262626" transform="translate(604.00375 265.759861)scale(0.12 -0.12)">
              <use xlink:href="#LiberationSans-32"/>
              <use xlink:href="#LiberationSans-34" x="55.615234"/>
            </g>
          </g>
        </g>
        <g id="ytick_11">
          <g id="line2d_54">
            <path
              d="M 620.85 201.160677
L 1141.2 201.160677
"
              clip-path="url(#p7496c49335)"
              style="fill: none; stroke-dasharray: 2.96,1.28; stroke-dashoffset: 0; stroke: #cccccc; stroke-opacity: 0.7; stroke-width: 0.8"
            />
          </g>
          <g id="line2d_55"/>
          <g id="text_31">
            <!-- 26 -->
            <g style="fill: #262626" transform="translate(604.00375 205.508802)scale(0.12 -0.12)">
              <use xlink:href="#LiberationSans-32"/>
              <use xlink:href="#LiberationSans-36" x="55.615234"/>
            </g>
          </g>
        </g>
        <g id="ytick_12">
          <g id="line2d_56">
            <path
              d="M 620.85 140.909618
L 1141.2 140.909618
"
              clip-path="url(#p7496c49335)"
              style="fill: none; stroke-dasharray: 2.96,1.28; stroke-dashoffset: 0; stroke: #cccccc; stroke-opacity: 0.7; stroke-width: 0.8"
            />
          </g>
          <g id="line2d_57"/>
          <g id="text_32">
            <!-- 28 -->
            <g style="fill: #262626" transform="translate(604.00375 145.257743)scale(0.12 -0.12)">
              <use xlink:href="#LiberationSans-32"/>
              <use xlink:href="#LiberationSans-38" x="55.615234"/>
            </g>
          </g>
        </g>
        <g id="ytick_13">
          <g id="line2d_58">
            <path
              d="M 620.85 80.658559
L 1141.2 80.658559
"
              clip-path="url(#p7496c49335)"
              style="fill: none; stroke-dasharray: 2.96,1.28; stroke-dashoffset: 0; stroke: #cccccc; stroke-opacity: 0.7; stroke-width: 0.8"
            />
          </g>
          <g id="line2d_59"/>
          <g id="text_33">
            <!-- 30 -->
            <g style="fill: #262626" transform="translate(604.00375 85.006684)scale(0.12 -0.12)">
              <use xlink:href="#LiberationSans-33"/>
              <use xlink:href="#LiberationSans-30" x="55.615234"/>
            </g>
          </g>
        </g>
        <g id="text_34">
          <!-- Variable Gear Ratio -->
          <g style="fill: #262626" transform="translate(597.09875 350.437781)rotate(-90)scale(0.14 -0.14)">
            <use xlink:href="#LiberationSans-56"/>
            <use xlink:href="#LiberationSans-61" x="59.324219"/>
            <use xlink:href="#LiberationSans-72" x="114.939453"/>
            <use xlink:href="#LiberationSans-69" x="148.240234"/>
            <use xlink:href="#LiberationSans-61" x="170.457031"/>
            <use xlink:href="#LiberationSans-62" x="226.072266"/>
            <use xlink:href="#LiberationSans-6c" x="281.6875"/>
            <use xlink:href="#LiberationSans-65" x="303.904297"/>
            <use xlink:href="#LiberationSans-20" x="359.519531"/>
            <use xlink:href="#LiberationSans-47" x="387.302734"/>
            <use xlink:href="#LiberationSans-65" x="465.085938"/>
            <use xlink:href="#LiberationSans-61" x="520.701172"/>
            <use xlink:href="#LiberationSans-72" x="576.316406"/>
            <use xlink:href="#LiberationSans-20" x="609.617188"/>
            <use xlink:href="#LiberationSans-52" x="637.400391"/>
            <use xlink:href="#LiberationSans-61" x="709.617188"/>
            <use xlink:href="#LiberationSans-74" x="765.232422"/>
            <use xlink:href="#LiberationSans-69" x="793.015625"/>
            <use xlink:href="#LiberationSans-6f" x="815.232422"/>
          </g>
        </g>
      </g>
      <g id="line2d_60">
        <path
          d="M 644.502273 511.062
L 649.28051 511.016784
L 654.058747 510.881137
L 658.836983 510.655058
L 663.61522 510.338547
L 668.393457 509.931605
L 673.171694 509.434231
L 677.949931 508.846426
L 682.728168 508.168189
L 687.506405 507.399521
L 692.284642 506.540421
L 697.062879 505.590889
L 701.841116 504.550926
L 706.619353 503.420531
L 711.39759 502.199704
L 716.175826 500.888446
L 720.954063 499.486757
L 725.7323 497.994635
L 730.510537 496.412083
L 735.288774 494.739098
L 740.067011 492.975682
L 744.845248 491.121835
L 749.623485 489.177556
L 754.401722 487.142845
L 759.179959 485.017702
L 763.958196 482.802129
L 768.736433 480.496123
L 773.514669 478.099686
L 778.292906 475.612817
L 783.071143 473.035517
L 787.84938 470.367785
L 792.627617 467.609622
L 797.405854 464.761027
L 802.184091 461.822
L 806.962328 458.792542
L 811.740565 455.672652
L 816.518802 452.462331
L 821.297039 449.161578
L 826.075275 445.770393
L 830.853512 442.288777
L 835.631749 438.716729
L 840.409986 435.05425
L 845.188223 431.301339
L 849.96646 427.457996
L 854.744697 423.524222
L 859.522934 419.500017
L 864.301171 415.385379
L 869.079408 411.18031
L 873.857645 406.88481
L 878.635882 402.498878
L 883.414118 398.022514
L 888.192355 393.455719
L 892.970592 388.798492
L 897.748829 384.050834
L 902.527066 379.212744
L 907.305303 374.284222
L 912.08354 369.265269
L 916.861777 364.155884
L 921.640014 358.956068
L 926.418251 353.66582
L 931.196488 348.28514
L 935.974725 342.814029
L 940.752961 337.252487
L 945.531198 331.600512
L 950.309435 325.858107
L 955.087672 320.025269
L 959.865909 314.102
L 964.644146 308.088299
L 969.422383 301.984167
L 974.20062 295.789603
L 978.978857 289.504608
L 983.757094 283.129181
L 988.535331 276.663322
L 993.313567 270.107032
L 998.091804 263.46031
L 1002.870041 256.723157
L 1007.648278 249.895572
L 1012.426515 242.977556
L 1017.204752 235.969107
L 1021.982989 228.870228
L 1026.761226 221.680916
L 1031.539463 214.401174
L 1036.3177 207.030999
L 1041.095937 199.570393
L 1045.874174 192.019355
L 1050.65241 184.377886
L 1055.430647 176.645985
L 1060.208884 168.823653
L 1064.987121 160.910889
L 1069.765358 152.907693
L 1074.543595 144.814066
L 1079.321832 136.630007
L 1084.100069 128.355517
L 1088.878306 119.990595
L 1093.656543 111.535242
L 1098.43478 102.989456
L 1103.213017 94.35324
L 1107.991253 85.626591
L 1112.76949 76.809511
L 1117.547727 67.902
"
          clip-path="url(#p7496c49335)"
          style="fill: none; stroke: #1f77b4; stroke-width: 2; stroke-linecap: round"
        />
      </g>
      <g id="patch_8">
        <path d="M 620.85 533.22
L 620.85 45.744
" style="fill: none; stroke: #cccccc; stroke-linejoin: miter; stroke-linecap: square"/>
      </g>
      <g id="patch_9">
        <path d="M 1141.2 533.22
L 1141.2 45.744
" style="fill: none; stroke: #cccccc; stroke-linejoin: miter; stroke-linecap: square"/>
      </g>
      <g id="patch_10">
        <path d="M 620.85 533.22
L 1141.2 533.22
" style="fill: none; stroke: #cccccc; stroke-linejoin: miter; stroke-linecap: square"/>
      </g>
      <g id="patch_11">
        <path d="M 620.85 45.744
L 1141.2 45.744
" style="fill: none; stroke: #cccccc; stroke-linejoin: miter; stroke-linecap: square"/>
      </g>
      <g id="text_35">
        <!-- VGR vs Velocity -->
        <g style="fill: #262626" transform="translate(820.10875 22.51)scale(0.16 -0.16)">
          <use xlink:href="#LiberationSans-Bold-56"/>
          <use xlink:href="#LiberationSans-Bold-47" x="66.699219"/>
          <use xlink:href="#LiberationSans-Bold-52" x="144.482422"/>
          <use xlink:href="#LiberationSans-Bold-20" x="216.699219"/>
          <use xlink:href="#LiberationSans-Bold-76" x="244.482422"/>
          <use xlink:href="#LiberationSans-Bold-73" x="300.097656"/>
          <use xlink:href="#LiberationSans-Bold-20" x="355.712891"/>
          <use xlink:href="#LiberationSans-Bold-56" x="383.496094"/>
          <use xlink:href="#LiberationSans-Bold-65" x="444.695312"/>
          <use xlink:href="#LiberationSans-Bold-6c" x="500.310547"/>
          <use xlink:href="#LiberationSans-Bold-6f" x="528.09375"/>
          <use xlink:href="#LiberationSans-Bold-63" x="589.177734"/>
          <use xlink:href="#LiberationSans-Bold-69" x="644.792969"/>
          <use xlink:href="#LiberationSans-Bold-74" x="672.576172"/>
          <use xlink:href="#LiberationSans-Bold-79" x="705.876953"/>
        </g>
        <!-- (Steer Wheel = 0.0 rad, a = 15.713, b = 0.053, c = 0.042) -->
        <g style="fill: #262626" transform="translate(676.025 39.744)scale(0.16 -0.16)">
          <defs>
            <path
              id="LiberationSans-Bold-64"
              d="M 2638 0
Q 2631 25 2623 89
Q 2616 153 2608 234
Q 2600 316 2595 400
Q 2591 484 2591 550
L 2578 550
Q 2425 222 2151 79
Q 1878 -63 1497 -63
Q 1178 -63 945 68
Q 713 200 561 434
Q 409 669 336 989
Q 263 1309 263 1688
Q 263 2072 339 2394
Q 416 2716 575 2948
Q 734 3181 979 3312
Q 1225 3444 1563 3444
Q 1728 3444 1881 3409
Q 2034 3375 2165 3303
Q 2297 3231 2403 3118
Q 2509 3006 2584 2847
L 2591 2847
Q 2591 2878 2589 2939
Q 2588 3000 2588 3078
Q 2588 3156 2586 3240
Q 2584 3325 2584 3403
L 2584 4638
L 3463 4638
L 3463 738
Q 3463 491 3472 298
Q 3481 106 3488 0
L 2638 0
z
M 2597 1709
Q 2597 2044 2534 2264
Q 2472 2484 2370 2614
Q 2269 2744 2139 2795
Q 2009 2847 1875 2847
Q 1706 2847 1576 2781
Q 1447 2716 1358 2575
Q 1269 2434 1223 2215
Q 1178 1997 1178 1688
Q 1178 538 1869 538
Q 2000 538 2131 594
Q 2263 650 2366 784
Q 2469 919 2533 1145
Q 2597 1372 2597 1709
z
"
              transform="scale(0.015625)"
            />
          </defs>
          <use xlink:href="#LiberationSans-Bold-28"/>
          <use xlink:href="#LiberationSans-Bold-53" x="33.300781"/>
          <use xlink:href="#LiberationSans-Bold-74" x="100"/>
          <use xlink:href="#LiberationSans-Bold-65" x="133.300781"/>
          <use xlink:href="#LiberationSans-Bold-65" x="188.916016"/>
          <use xlink:href="#LiberationSans-Bold-72" x="244.53125"/>
          <use xlink:href="#LiberationSans-Bold-20" x="283.447266"/>
          <use xlink:href="#LiberationSans-Bold-57" x="311.230469"/>
          <use xlink:href="#LiberationSans-Bold-68" x="405.615234"/>
          <use xlink:href="#LiberationSans-Bold-65" x="466.699219"/>
          <use xlink:href="#LiberationSans-Bold-65" x="522.314453"/>
          <use xlink:href="#LiberationSans-Bold-6c" x="577.929688"/>
          <use xlink:href="#LiberationSans-Bold-20" x="605.712891"/>
          <use xlink:href="#LiberationSans-Bold-3d" x="633.496094"/>
          <use xlink:href="#LiberationSans-Bold-20" x="691.894531"/>
          <use xlink:href="#LiberationSans-Bold-30" x="719.677734"/>
          <use xlink:href="#LiberationSans-Bold-2e" x="775.292969"/>
          <use xlink:href="#LiberationSans-Bold-30" x="803.076172"/>
          <use xlink:href="#LiberationSans-Bold-20" x="858.691406"/>
          <use xlink:href="#LiberationSans-Bold-72" x="886.474609"/>
          <use xlink:href="#LiberationSans-Bold-61" x="925.390625"/>
          <use xlink:href="#LiberationSans-Bold-64" x="981.005859"/>
          <use xlink:href="#LiberationSans-Bold-2c" x="1042.089844"/>
          <use xlink:href="#LiberationSans-Bold-20" x="1069.873047"/>
          <use xlink:href="#LiberationSans-Bold-61" x="1097.65625"/>
          <use xlink:href="#LiberationSans-Bold-20" x="1153.271484"/>
          <use xlink:href="#LiberationSans-Bold-3d" x="1181.054688"/>
          <use xlink:href="#LiberationSans-Bold-20" x="1239.453125"/>
          <use xlink:href="#LiberationSans-Bold-31" x="1267.236328"/>
          <use xlink:href="#LiberationSans-Bold-35" x="1322.851562"/>
          <use xlink:href="#LiberationSans-Bold-2e" x="1378.466797"/>
          <use xlink:href="#LiberationSans-Bold-37" x="1406.25"/>
          <use xlink:href="#LiberationSans-Bold-31" x="1461.865234"/>
          <use xlink:href="#LiberationSans-Bold-33" x="1517.480469"/>
          <use xlink:href="#LiberationSans-Bold-2c" x="1573.095703"/>
          <use xlink:href="#LiberationSans-Bold-20" x="1600.878906"/>
          <use xlink:href="#LiberationSans-Bold-62" x="1628.662109"/>
          <use xlink:href="#LiberationSans-Bold-20" x="1689.746094"/>
          <use xlink:href="#LiberationSans-Bold-3d" x="1717.529297"/>
          <use xlink:href="#LiberationSans-Bold-20" x="1775.927734"/>
          <use xlink:href="#LiberationSans-Bold-30" x="1803.710938"/>
          <use xlink:href="#LiberationSans-Bold-2e" x="1859.326172"/>
          <use xlink:href="#LiberationSans-Bold-30" x="1887.109375"/>
          <use xlink:href="#LiberationSans-Bold-35" x="1942.724609"/>
          <use xlink:href="#LiberationSans-Bold-33" x="1998.339844"/>
          <use xlink:href="#LiberationSans-Bold-2c" x="2053.955078"/>
          <use xlink:href="#LiberationSans-Bold-20" x="2081.738281"/>
          <use xlink:href="#LiberationSans-Bold-63" x="2109.521484"/>
          <use xlink:href="#LiberationSans-Bold-20" x="2165.136719"/>
          <use xlink:href="#LiberationSans-Bold-3d" x="2192.919922"/>
          <use xlink:href="#LiberationSans-Bold-20" x="2251.318359"/>
          <use xlink:href="#LiberationSans-Bold-30" x="2279.101562"/>
          <use xlink:href="#LiberationSans-Bold-2e" x="2334.716797"/>
          <use xlink:href="#LiberationSans-Bold-30" x="2362.5"/>
          <use xlink:href="#LiberationSans-Bold-34" x="2418.115234"/>
          <use xlink:href="#LiberationSans-Bold-32" x="2473.730469"/>
          <use xlink:href="#LiberationSans-Bold-29" x="2529.345703"/>
        </g>
      </g>
    </g>
  </g>
  <defs>
    <clipPath id="p9cf408fef2">
      <rect x="55.2" y="45.744" width="520.35" height="487.476"/>
    </clipPath>
    <clipPath id="p7496c49335">
      <rect x="620.85" y="45.744" width="520.35" height="487.476"/>
    </clipPath>
  </defs>
</svg>
