<?xml version="1.0" encoding="utf-8" standalone="no"?>
<!DOCTYPE svg PUBLIC "-//W3C//DTD SVG 1.1//EN" "http://www.w3.org/Graphics/SVG/1.1/DTD/svg11.dtd">
<!-- Created with matplotlib (https://matplotlib.org/) -->
<svg height="707.04pt" version="1.1" viewBox="0 0 1330.56 707.04" width="1330.56pt" xmlns="http://www.w3.org/2000/svg" xmlns:xlink="http://www.w3.org/1999/xlink">
  <defs>
    <style type="text/css">
* {
  stroke-linecap: butt;
  stroke-linejoin: round;
}
    </style>
  </defs>
  <g id="figure_1">
    <g id="patch_1">
      <path d="M 0 707.04
L 1330.56 707.04
L 1330.56 0
L 0 0
z
" style="fill:#ffffff;"/>
    </g>
    <g id="axes_1">
      <g id="patch_2">
        <path d="M 166.32 629.2656
L 1197.504 629.2656
L 1197.504 84.8448
L 166.32 84.8448
z
" style="fill:#ffffff;"/>
      </g>
      <g id="matplotlib.axis_1">
        <g id="xtick_1">
          <g id="line2d_1">
            <defs>
              <path d="M 0 0
L 0 3.5
" id="m83a697cf2b" style="stroke:#000000;stroke-width:0.8;"/>
            </defs>
            <g>
              <use style="stroke:#000000;stroke-width:0.8;" x="166.32" xlink:href="#m83a697cf2b" y="629.2656"/>
            </g>
          </g>
          <g id="text_1">
            <!-- 0 -->
            <defs>
              <path
                d="M 31.78125 66.40625
Q 24.171875 66.40625 20.328125 58.90625
Q 16.5 51.421875 16.5 36.375
Q 16.5 21.390625 20.328125 13.890625
Q 24.171875 6.390625 31.78125 6.390625
Q 39.453125 6.390625 43.28125 13.890625
Q 47.125 21.390625 47.125 36.375
Q 47.125 51.421875 43.28125 58.90625
Q 39.453125 66.40625 31.78125 66.40625
z
M 31.78125 74.21875
Q 44.046875 74.21875 50.515625 64.515625
Q 56.984375 54.828125 56.984375 36.375
Q 56.984375 17.96875 50.515625 8.265625
Q 44.046875 -1.421875 31.78125 -1.421875
Q 19.53125 -1.421875 13.0625 8.265625
Q 6.59375 17.96875 6.59375 36.375
Q 6.59375 54.828125 13.0625 64.515625
Q 19.53125 74.21875 31.78125 74.21875
z
"
                id="DejaVuSans-48"
              />
            </defs>
            <g transform="translate(163.13875 643.864037)scale(0.1 -0.1)">
              <use xlink:href="#DejaVuSans-48"/>
            </g>
          </g>
        </g>
        <g id="xtick_2">
          <g id="line2d_2">
            <g>
              <use style="stroke:#000000;stroke-width:0.8;" x="374.64" xlink:href="#m83a697cf2b" y="629.2656"/>
            </g>
          </g>
          <g id="text_2">
            <!-- 20 -->
            <defs>
              <path
                d="M 19.1875 8.296875
L 53.609375 8.296875
L 53.609375 0
L 7.328125 0
L 7.328125 8.296875
Q 12.9375 14.109375 22.625 23.890625
Q 32.328125 33.6875 34.8125 36.53125
Q 39.546875 41.84375 41.421875 45.53125
Q 43.3125 49.21875 43.3125 52.78125
Q 43.3125 58.59375 39.234375 62.25
Q 35.15625 65.921875 28.609375 65.921875
Q 23.96875 65.921875 18.8125 64.3125
Q 13.671875 62.703125 7.8125 59.421875
L 7.8125 69.390625
Q 13.765625 71.78125 18.9375 73
Q 24.125 74.21875 28.421875 74.21875
Q 39.75 74.21875 46.484375 68.546875
Q 53.21875 62.890625 53.21875 53.421875
Q 53.21875 48.921875 51.53125 44.890625
Q 49.859375 40.875 45.40625 35.40625
Q 44.1875 33.984375 37.640625 27.21875
Q 31.109375 20.453125 19.1875 8.296875
z
"
                id="DejaVuSans-50"
              />
            </defs>
            <g transform="translate(368.2775 643.864037)scale(0.1 -0.1)">
              <use xlink:href="#DejaVuSans-50"/>
              <use x="63.623047" xlink:href="#DejaVuSans-48"/>
            </g>
          </g>
        </g>
        <g id="xtick_3">
          <g id="line2d_3">
            <g>
              <use style="stroke:#000000;stroke-width:0.8;" x="582.96" xlink:href="#m83a697cf2b" y="629.2656"/>
            </g>
          </g>
          <g id="text_3">
            <!-- 40 -->
            <defs>
              <path
                d="M 37.796875 64.3125
L 12.890625 25.390625
L 37.796875 25.390625
z
M 35.203125 72.90625
L 47.609375 72.90625
L 47.609375 25.390625
L 58.015625 25.390625
L 58.015625 17.1875
L 47.609375 17.1875
L 47.609375 0
L 37.796875 0
L 37.796875 17.1875
L 4.890625 17.1875
L 4.890625 26.703125
z
"
                id="DejaVuSans-52"
              />
            </defs>
            <g transform="translate(576.5975 643.864037)scale(0.1 -0.1)">
              <use xlink:href="#DejaVuSans-52"/>
              <use x="63.623047" xlink:href="#DejaVuSans-48"/>
            </g>
          </g>
        </g>
        <g id="xtick_4">
          <g id="line2d_4">
            <g>
              <use style="stroke:#000000;stroke-width:0.8;" x="791.28" xlink:href="#m83a697cf2b" y="629.2656"/>
            </g>
          </g>
          <g id="text_4">
            <!-- 60 -->
            <defs>
              <path
                d="M 33.015625 40.375
Q 26.375 40.375 22.484375 35.828125
Q 18.609375 31.296875 18.609375 23.390625
Q 18.609375 15.53125 22.484375 10.953125
Q 26.375 6.390625 33.015625 6.390625
Q 39.65625 6.390625 43.53125 10.953125
Q 47.40625 15.53125 47.40625 23.390625
Q 47.40625 31.296875 43.53125 35.828125
Q 39.65625 40.375 33.015625 40.375
z
M 52.59375 71.296875
L 52.59375 62.3125
Q 48.875 64.0625 45.09375 64.984375
Q 41.3125 65.921875 37.59375 65.921875
Q 27.828125 65.921875 22.671875 59.328125
Q 17.53125 52.734375 16.796875 39.40625
Q 19.671875 43.65625 24.015625 45.921875
Q 28.375 48.1875 33.59375 48.1875
Q 44.578125 48.1875 50.953125 41.515625
Q 57.328125 34.859375 57.328125 23.390625
Q 57.328125 12.15625 50.6875 5.359375
Q 44.046875 -1.421875 33.015625 -1.421875
Q 20.359375 -1.421875 13.671875 8.265625
Q 6.984375 17.96875 6.984375 36.375
Q 6.984375 53.65625 15.1875 63.9375
Q 23.390625 74.21875 37.203125 74.21875
Q 40.921875 74.21875 44.703125 73.484375
Q 48.484375 72.75 52.59375 71.296875
z
"
                id="DejaVuSans-54"
              />
            </defs>
            <g transform="translate(784.9175 643.864037)scale(0.1 -0.1)">
              <use xlink:href="#DejaVuSans-54"/>
              <use x="63.623047" xlink:href="#DejaVuSans-48"/>
            </g>
          </g>
        </g>
        <g id="xtick_5">
          <g id="line2d_5">
            <g>
              <use style="stroke:#000000;stroke-width:0.8;" x="999.6" xlink:href="#m83a697cf2b" y="629.2656"/>
            </g>
          </g>
          <g id="text_5">
            <!-- 80 -->
            <defs>
              <path
                d="M 31.78125 34.625
Q 24.75 34.625 20.71875 30.859375
Q 16.703125 27.09375 16.703125 20.515625
Q 16.703125 13.921875 20.71875 10.15625
Q 24.75 6.390625 31.78125 6.390625
Q 38.8125 6.390625 42.859375 10.171875
Q 46.921875 13.96875 46.921875 20.515625
Q 46.921875 27.09375 42.890625 30.859375
Q 38.875 34.625 31.78125 34.625
z
M 21.921875 38.8125
Q 15.578125 40.375 12.03125 44.71875
Q 8.5 49.078125 8.5 55.328125
Q 8.5 64.0625 14.71875 69.140625
Q 20.953125 74.21875 31.78125 74.21875
Q 42.671875 74.21875 48.875 69.140625
Q 55.078125 64.0625 55.078125 55.328125
Q 55.078125 49.078125 51.53125 44.71875
Q 48 40.375 41.703125 38.8125
Q 48.828125 37.15625 52.796875 32.3125
Q 56.78125 27.484375 56.78125 20.515625
Q 56.78125 9.90625 50.3125 4.234375
Q 43.84375 -1.421875 31.78125 -1.421875
Q 19.734375 -1.421875 13.25 4.234375
Q 6.78125 9.90625 6.78125 20.515625
Q 6.78125 27.484375 10.78125 32.3125
Q 14.796875 37.15625 21.921875 38.8125
z
M 18.3125 54.390625
Q 18.3125 48.734375 21.84375 45.5625
Q 25.390625 42.390625 31.78125 42.390625
Q 38.140625 42.390625 41.71875 45.5625
Q 45.3125 48.734375 45.3125 54.390625
Q 45.3125 60.0625 41.71875 63.234375
Q 38.140625 66.40625 31.78125 66.40625
Q 25.390625 66.40625 21.84375 63.234375
Q 18.3125 60.0625 18.3125 54.390625
z
"
                id="DejaVuSans-56"
              />
            </defs>
            <g transform="translate(993.2375 643.864037)scale(0.1 -0.1)">
              <use xlink:href="#DejaVuSans-56"/>
              <use x="63.623047" xlink:href="#DejaVuSans-48"/>
            </g>
          </g>
        </g>
      </g>
      <g id="matplotlib.axis_2">
        <g id="ytick_1">
          <g id="line2d_6">
            <defs>
              <path d="M 0 0
L -3.5 0
" id="ma0de9ae08d" style="stroke:#000000;stroke-width:0.8;"/>
            </defs>
            <g>
              <use style="stroke:#000000;stroke-width:0.8;" x="166.32" xlink:href="#ma0de9ae08d" y="629.2656"/>
            </g>
          </g>
          <g id="text_6">
            <!-- 0 -->
            <g transform="translate(152.9575 633.064819)scale(0.1 -0.1)">
              <use xlink:href="#DejaVuSans-48"/>
            </g>
          </g>
        </g>
        <g id="ytick_2">
          <g id="line2d_7">
            <g>
              <use style="stroke:#000000;stroke-width:0.8;" x="166.32" xlink:href="#ma0de9ae08d" y="527.251097"/>
            </g>
          </g>
          <g id="text_7">
            <!-- 10 -->
            <defs>
              <path
                d="M 12.40625 8.296875
L 28.515625 8.296875
L 28.515625 63.921875
L 10.984375 60.40625
L 10.984375 69.390625
L 28.421875 72.90625
L 38.28125 72.90625
L 38.28125 8.296875
L 54.390625 8.296875
L 54.390625 0
L 12.40625 0
z
"
                id="DejaVuSans-49"
              />
            </defs>
            <g transform="translate(146.595 531.050315)scale(0.1 -0.1)">
              <use xlink:href="#DejaVuSans-49"/>
              <use x="63.623047" xlink:href="#DejaVuSans-48"/>
            </g>
          </g>
        </g>
        <g id="ytick_3">
          <g id="line2d_8">
            <g>
              <use style="stroke:#000000;stroke-width:0.8;" x="166.32" xlink:href="#ma0de9ae08d" y="425.236593"/>
            </g>
          </g>
          <g id="text_8">
            <!-- 20 -->
            <g transform="translate(146.595 429.035812)scale(0.1 -0.1)">
              <use xlink:href="#DejaVuSans-50"/>
              <use x="63.623047" xlink:href="#DejaVuSans-48"/>
            </g>
          </g>
        </g>
        <g id="ytick_4">
          <g id="line2d_9">
            <g>
              <use style="stroke:#000000;stroke-width:0.8;" x="166.32" xlink:href="#ma0de9ae08d" y="323.22209"/>
            </g>
          </g>
          <g id="text_9">
            <!-- 30 -->
            <defs>
              <path
                d="M 40.578125 39.3125
Q 47.65625 37.796875 51.625 33
Q 55.609375 28.21875 55.609375 21.1875
Q 55.609375 10.40625 48.1875 4.484375
Q 40.765625 -1.421875 27.09375 -1.421875
Q 22.515625 -1.421875 17.65625 -0.515625
Q 12.796875 0.390625 7.625 2.203125
L 7.625 11.71875
Q 11.71875 9.328125 16.59375 8.109375
Q 21.484375 6.890625 26.8125 6.890625
Q 36.078125 6.890625 40.9375 10.546875
Q 45.796875 14.203125 45.796875 21.1875
Q 45.796875 27.640625 41.28125 31.265625
Q 36.765625 34.90625 28.71875 34.90625
L 20.21875 34.90625
L 20.21875 43.015625
L 29.109375 43.015625
Q 36.375 43.015625 40.234375 45.921875
Q 44.09375 48.828125 44.09375 54.296875
Q 44.09375 59.90625 40.109375 62.90625
Q 36.140625 65.921875 28.71875 65.921875
Q 24.65625 65.921875 20.015625 65.03125
Q 15.375 64.15625 9.8125 62.3125
L 9.8125 71.09375
Q 15.4375 72.65625 20.34375 73.4375
Q 25.25 74.21875 29.59375 74.21875
Q 40.828125 74.21875 47.359375 69.109375
Q 53.90625 64.015625 53.90625 55.328125
Q 53.90625 49.265625 50.4375 45.09375
Q 46.96875 40.921875 40.578125 39.3125
z
"
                id="DejaVuSans-51"
              />
            </defs>
            <g transform="translate(146.595 327.021309)scale(0.1 -0.1)">
              <use xlink:href="#DejaVuSans-51"/>
              <use x="63.623047" xlink:href="#DejaVuSans-48"/>
            </g>
          </g>
        </g>
        <g id="ytick_5">
          <g id="line2d_10">
            <g>
              <use style="stroke:#000000;stroke-width:0.8;" x="166.32" xlink:href="#ma0de9ae08d" y="221.207587"/>
            </g>
          </g>
          <g id="text_10">
            <!-- 40 -->
            <g transform="translate(146.595 225.006805)scale(0.1 -0.1)">
              <use xlink:href="#DejaVuSans-52"/>
              <use x="63.623047" xlink:href="#DejaVuSans-48"/>
            </g>
          </g>
        </g>
        <g id="ytick_6">
          <g id="line2d_11">
            <g>
              <use style="stroke:#000000;stroke-width:0.8;" x="166.32" xlink:href="#ma0de9ae08d" y="119.193083"/>
            </g>
          </g>
          <g id="text_11">
            <!-- 50 -->
            <defs>
              <path
                d="M 10.796875 72.90625
L 49.515625 72.90625
L 49.515625 64.59375
L 19.828125 64.59375
L 19.828125 46.734375
Q 21.96875 47.46875 24.109375 47.828125
Q 26.265625 48.1875 28.421875 48.1875
Q 40.625 48.1875 47.75 41.5
Q 54.890625 34.8125 54.890625 23.390625
Q 54.890625 11.625 47.5625 5.09375
Q 40.234375 -1.421875 26.90625 -1.421875
Q 22.3125 -1.421875 17.546875 -0.640625
Q 12.796875 0.140625 7.71875 1.703125
L 7.71875 11.625
Q 12.109375 9.234375 16.796875 8.0625
Q 21.484375 6.890625 26.703125 6.890625
Q 35.15625 6.890625 40.078125 11.328125
Q 45.015625 15.765625 45.015625 23.390625
Q 45.015625 31 40.078125 35.4375
Q 35.15625 39.890625 26.703125 39.890625
Q 22.75 39.890625 18.8125 39.015625
Q 14.890625 38.140625 10.796875 36.28125
z
"
                id="DejaVuSans-53"
              />
            </defs>
            <g transform="translate(146.595 122.992302)scale(0.1 -0.1)">
              <use xlink:href="#DejaVuSans-53"/>
              <use x="63.623047" xlink:href="#DejaVuSans-48"/>
            </g>
          </g>
        </g>
      </g>
      <g id="line2d_12">
        <path
          clip-path="url(#p1e946714ae)"
          d="M 166.32 576.279267
L 176.736 608.546454
L 187.152 599.834416
L 197.568 608.413836
L 207.984 607.148856
L 218.4 607.964972
L 228.816 608.719879
L 239.232 598.997897
L 249.648 606.149114
L 260.064 607.628324
L 270.48 600.650532
L 280.896 608.475044
L 291.312 599.956833
L 301.728 608.679073
L 312.144 607.893562
L 322.56 608.454641
L 332.976 607.587518
L 343.392 608.832095
L 353.808 607.148856
L 364.224 608.689275
L 374.64 608.556656
L 385.056 607.628324
L 395.472 606.934625
L 405.888 606.812208
L 416.304 605.945085
L 426.72 608.066986
L 437.136 599.528372
L 447.552 607.281475
L 457.968 607.893562
L 468.384 607.505906
L 478.8 607.138654
L 489.216 606.455157
L 499.632 598.212385
L 510.048 607.536511
L 520.464 604.414867
L 530.88 608.189404
L 541.296 608.475044
L 551.712 608.760685
L 562.128 608.536253
L 572.544 608.607663
L 582.96 604.476076
L 593.376 607.189661
L 603.792 592.744408
L 614.208 608.383231
L 624.624 608.679073
L 635.04 607.516108
L 645.456 607.975173
L 655.872 608.821894
L 666.288 608.577059
L 676.704 599.548775
L 687.12 599.671193
L 697.536 607.730338
L 707.952 608.485246
L 718.368 607.862957
L 728.784 608.44444
L 739.2 605.822667
L 749.616 608.260814
L 760.032 605.588034
L 770.448 607.964972
L 780.864 608.577059
L 791.28 607.016237
L 801.696 598.202184
L 812.112 608.413836
L 822.528 606.802006
L 832.944 607.88336
L 843.36 608.475044
L 853.776 607.536511
L 864.192 608.240411
L 874.608 608.505649
L 885.024 608.37303
L 895.44 598.559234
L 905.856 608.087389
L 916.272 608.107792
L 926.688 607.077446
L 937.104 605.241184
L 947.52 606.914222
L 957.936 608.097591
L 968.352 604.098622
L 978.768 608.250612
L 989.184 608.097591
L 999.6 606.812208
L 1010.016 608.628066
L 1020.432 599.252933
L 1030.848 608.322022
L 1041.264 607.240669
L 1051.68 608.648469
L 1062.096 607.271273
L 1072.512 605.220782
L 1082.928 606.373545
L 1093.344 607.424295
L 1103.76 604.414867
L 1114.176 606.781603
L 1124.592 608.260814
L 1135.008 606.863215
L 1145.424 598.232788
L 1155.84 606.465359
L 1166.256 607.352885
L 1176.672 597.845133
L 1187.088 608.383231
L 1197.504 607.383489
"
          style="fill:none;stroke:#1f77b4;stroke-linecap:square;stroke-width:1.5;"
        />
      </g>
      <g id="line2d_13">
        <path
          clip-path="url(#p1e946714ae)"
          d="M 166.32 506.409534
L 176.736 581.951273
L 187.152 555.560121
L 197.568 578.19714
L 207.984 575.259122
L 218.4 573.116817
L 228.816 580.778107
L 239.232 572.688356
L 249.648 578.543989
L 260.064 576.850548
L 270.48 558.426729
L 280.896 579.737559
L 291.312 582.889807
L 301.728 582.787792
L 312.144 577.044376
L 322.56 579.04386
L 332.976 582.155302
L 343.392 578.013514
L 353.808 582.134899
L 364.224 577.758477
L 374.64 577.554448
L 385.056 576.554706
L 395.472 580.584279
L 405.888 576.034432
L 416.304 575.585568
L 426.72 575.718187
L 437.136 555.090855
L 447.552 575.718187
L 457.968 575.59577
L 468.384 576.534303
L 478.8 573.55548
L 489.216 574.749049
L 499.632 559.763119
L 510.048 578.023715
L 520.464 577.503441
L 530.88 578.227744
L 541.296 577.064779
L 551.712 578.523586
L 562.128 578.870435
L 572.544 582.624569
L 582.96 574.18797
L 593.376 574.871467
L 603.792 556.753691
L 614.208 578.054319
L 624.624 582.583763
L 635.04 582.165504
L 645.456 578.370564
L 655.872 582.940814
L 666.288 579.360105
L 676.704 558.324714
L 687.12 557.110742
L 697.536 579.81917
L 707.952 578.625601
L 718.368 575.912015
L 728.784 580.370049
L 739.2 571.709017
L 749.616 580.951531
L 760.032 579.961991
L 770.448 574.085955
L 780.864 577.676866
L 791.28 579.768163
L 801.696 561.252531
L 812.112 578.207341
L 822.528 574.534819
L 832.944 572.565939
L 843.36 577.931902
L 853.776 579.768163
L 864.192 578.258348
L 874.608 574.085955
L 885.024 579.910983
L 895.44 555.988582
L 905.856 576.187454
L 916.272 570.81129
L 926.688 576.921958
L 937.104 577.00357
L 947.52 574.218574
L 957.936 572.688356
L 968.352 577.064779
L 978.768 576.942361
L 989.184 579.502925
L 999.6 577.49324
L 1010.016 578.615399
L 1020.432 559.650903
L 1030.848 578.26855
L 1041.264 577.401426
L 1051.68 572.616946
L 1062.096 576.738332
L 1072.512 579.931386
L 1082.928 574.157365
L 1093.344 575.626374
L 1103.76 576.93216
L 1114.176 566.781717
L 1124.592 575.146906
L 1135.008 576.707728
L 1145.424 557.049533
L 1155.84 578.952047
L 1166.256 577.789082
L 1176.672 572.933191
L 1187.088 576.126245
L 1197.504 578.564392
"
          style="fill:none;stroke:#ff7f0e;stroke-linecap:square;stroke-width:1.5;"
        />
      </g>
      <g id="line2d_14">
        <path
          clip-path="url(#p1e946714ae)"
          d="M 166.32 84.8448
L 176.736 321.95711
L 187.152 170.843026
L 197.568 321.538851
L 207.984 325.558222
L 218.4 302.237707
L 228.816 327.149648
L 239.232 318.080559
L 249.648 316.631953
L 260.064 318.815063
L 270.48 176.413018
L 280.896 327.629117
L 291.312 302.309117
L 301.728 320.518706
L 312.144 329.220543
L 322.56 319.590374
L 332.976 330.169278
L 343.392 330.699753
L 353.808 323.181284
L 364.224 327.425088
L 374.64 323.558738
L 385.056 323.670954
L 395.472 325.160366
L 405.888 315.83624
L 416.304 331.179221
L 426.72 324.650293
L 437.136 217.667683
L 447.552 324.262638
L 457.968 325.068552
L 468.384 325.313387
L 478.8 319.437352
L 489.216 323.426119
L 499.632 178.432905
L 510.048 327.843347
L 520.464 339.799447
L 530.88 324.609487
L 541.296 337.555128
L 551.712 330.179479
L 562.128 337.708149
L 572.544 335.014967
L 582.96 296.626909
L 593.376 285.293098
L 603.792 153.816806
L 614.208 300.411647
L 624.624 320.161655
L 635.04 318.488617
L 645.456 328.067779
L 655.872 322.201945
L 666.288 316.75437
L 676.704 208.56799
L 687.12 144.00301
L 697.536 316.693162
L 707.952 330.006054
L 718.368 325.078754
L 728.784 330.60794
L 739.2 324.77271
L 749.616 318.600833
L 760.032 306.542719
L 770.448 328.56765
L 780.864 328.353419
L 791.28 321.120591
L 801.696 188.971004
L 812.112 331.250631
L 822.528 333.107295
L 832.944 323.946393
L 843.36 335.412823
L 853.776 322.191743
L 864.192 332.301381
L 874.608 338.167215
L 885.024 329.404169
L 895.44 178.912374
L 905.856 335.361816
L 916.272 325.374596
L 926.688 331.556675
L 937.104 337.136868
L 947.52 336.422767
L 957.936 330.699753
L 968.352 330.842573
L 978.768 332.311582
L 989.184 317.458271
L 999.6 317.509278
L 1010.016 328.78188
L 1020.432 155.32662
L 1030.848 322.324362
L 1041.264 325.313387
L 1051.68 336.02491
L 1062.096 339.493403
L 1072.512 333.994822
L 1082.928 331.597481
L 1093.344 333.413339
L 1103.76 329.424572
L 1114.176 326.659979
L 1124.592 324.181026
L 1135.008 330.669149
L 1145.424 173.362785
L 1155.84 324.762509
L 1166.256 329.689809
L 1176.672 229.827812
L 1187.088 323.283299
L 1197.504 311.82707
"
          style="fill:none;stroke:#2ca02c;stroke-linecap:square;stroke-width:1.5;"
        />
      </g>
      <g id="patch_3">
        <path d="M 166.32 629.2656
L 166.32 84.8448
" style="fill:none;stroke:#000000;stroke-linecap:square;stroke-linejoin:miter;stroke-width:0.8;"/>
      </g>
      <g id="patch_4">
        <path d="M 1197.504 629.2656
L 1197.504 84.8448
" style="fill:none;stroke:#000000;stroke-linecap:square;stroke-linejoin:miter;stroke-width:0.8;"/>
      </g>
      <g id="patch_5">
        <path d="M 166.32 629.2656
L 1197.504 629.2656
" style="fill:none;stroke:#000000;stroke-linecap:square;stroke-linejoin:miter;stroke-width:0.8;"/>
      </g>
      <g id="patch_6">
        <path d="M 166.32 84.8448
L 1197.504 84.8448
" style="fill:none;stroke:#000000;stroke-linecap:square;stroke-linejoin:miter;stroke-width:0.8;"/>
      </g>
      <g id="legend_1">
        <g id="patch_7">
          <path
            d="M 173.32 624.2656
L 270.487188 624.2656
Q 272.487188 624.2656 272.487188 622.2656
L 272.487188 579.231225
Q 272.487188 577.231225 270.487188 577.231225
L 173.32 577.231225
Q 171.32 577.231225 171.32 579.231225
L 171.32 622.2656
Q 171.32 624.2656 173.32 624.2656
z
"
            style="fill:#ffffff;opacity:0.8;stroke:#cccccc;stroke-linejoin:miter;"
          />
        </g>
        <g id="line2d_15">
          <path d="M 175.32 585.329663
L 195.32 585.329663
" style="fill:none;stroke:#1f77b4;stroke-linecap:square;stroke-width:1.5;"/>
        </g>
        <g id="line2d_16"/>
        <g id="text_12">
          <!-- solveOsqp -->
          <defs>
            <path
              d="M 44.28125 53.078125
L 44.28125 44.578125
Q 40.484375 46.53125 36.375 47.5
Q 32.28125 48.484375 27.875 48.484375
Q 21.1875 48.484375 17.84375 46.4375
Q 14.5 44.390625 14.5 40.28125
Q 14.5 37.15625 16.890625 35.375
Q 19.28125 33.59375 26.515625 31.984375
L 29.59375 31.296875
Q 39.15625 29.25 43.1875 25.515625
Q 47.21875 21.78125 47.21875 15.09375
Q 47.21875 7.46875 41.1875 3.015625
Q 35.15625 -1.421875 24.609375 -1.421875
Q 20.21875 -1.421875 15.453125 -0.5625
Q 10.6875 0.296875 5.421875 2
L 5.421875 11.28125
Q 10.40625 8.6875 15.234375 7.390625
Q 20.0625 6.109375 24.8125 6.109375
Q 31.15625 6.109375 34.5625 8.28125
Q 37.984375 10.453125 37.984375 14.40625
Q 37.984375 18.0625 35.515625 20.015625
Q 33.0625 21.96875 24.703125 23.78125
L 21.578125 24.515625
Q 13.234375 26.265625 9.515625 29.90625
Q 5.8125 33.546875 5.8125 39.890625
Q 5.8125 47.609375 11.28125 51.796875
Q 16.75 56 26.8125 56
Q 31.78125 56 36.171875 55.265625
Q 40.578125 54.546875 44.28125 53.078125
z
"
              id="DejaVuSans-115"
            />
            <path
              d="M 30.609375 48.390625
Q 23.390625 48.390625 19.1875 42.75
Q 14.984375 37.109375 14.984375 27.296875
Q 14.984375 17.484375 19.15625 11.84375
Q 23.34375 6.203125 30.609375 6.203125
Q 37.796875 6.203125 41.984375 11.859375
Q 46.1875 17.53125 46.1875 27.296875
Q 46.1875 37.015625 41.984375 42.703125
Q 37.796875 48.390625 30.609375 48.390625
z
M 30.609375 56
Q 42.328125 56 49.015625 48.375
Q 55.71875 40.765625 55.71875 27.296875
Q 55.71875 13.875 49.015625 6.21875
Q 42.328125 -1.421875 30.609375 -1.421875
Q 18.84375 -1.421875 12.171875 6.21875
Q 5.515625 13.875 5.515625 27.296875
Q 5.515625 40.765625 12.171875 48.375
Q 18.84375 56 30.609375 56
z
"
              id="DejaVuSans-111"
            />
            <path d="M 9.421875 75.984375
L 18.40625 75.984375
L 18.40625 0
L 9.421875 0
z
" id="DejaVuSans-108"/>
            <path d="M 2.984375 54.6875
L 12.5 54.6875
L 29.59375 8.796875
L 46.6875 54.6875
L 56.203125 54.6875
L 35.6875 0
L 23.484375 0
z
" id="DejaVuSans-118"/>
            <path
              d="M 56.203125 29.59375
L 56.203125 25.203125
L 14.890625 25.203125
Q 15.484375 15.921875 20.484375 11.0625
Q 25.484375 6.203125 34.421875 6.203125
Q 39.59375 6.203125 44.453125 7.46875
Q 49.3125 8.734375 54.109375 11.28125
L 54.109375 2.78125
Q 49.265625 0.734375 44.1875 -0.34375
Q 39.109375 -1.421875 33.890625 -1.421875
Q 20.796875 -1.421875 13.15625 6.1875
Q 5.515625 13.8125 5.515625 26.8125
Q 5.515625 40.234375 12.765625 48.109375
Q 20.015625 56 32.328125 56
Q 43.359375 56 49.78125 48.890625
Q 56.203125 41.796875 56.203125 29.59375
z
M 47.21875 32.234375
Q 47.125 39.59375 43.09375 43.984375
Q 39.0625 48.390625 32.421875 48.390625
Q 24.90625 48.390625 20.390625 44.140625
Q 15.875 39.890625 15.1875 32.171875
z
"
              id="DejaVuSans-101"
            />
            <path
              d="M 39.40625 66.21875
Q 28.65625 66.21875 22.328125 58.203125
Q 16.015625 50.203125 16.015625 36.375
Q 16.015625 22.609375 22.328125 14.59375
Q 28.65625 6.59375 39.40625 6.59375
Q 50.140625 6.59375 56.421875 14.59375
Q 62.703125 22.609375 62.703125 36.375
Q 62.703125 50.203125 56.421875 58.203125
Q 50.140625 66.21875 39.40625 66.21875
z
M 39.40625 74.21875
Q 54.734375 74.21875 63.90625 63.9375
Q 73.09375 53.65625 73.09375 36.375
Q 73.09375 19.140625 63.90625 8.859375
Q 54.734375 -1.421875 39.40625 -1.421875
Q 24.03125 -1.421875 14.8125 8.828125
Q 5.609375 19.09375 5.609375 36.375
Q 5.609375 53.65625 14.8125 63.9375
Q 24.03125 74.21875 39.40625 74.21875
z
"
              id="DejaVuSans-79"
            />
            <path
              d="M 14.796875 27.296875
Q 14.796875 17.390625 18.875 11.75
Q 22.953125 6.109375 30.078125 6.109375
Q 37.203125 6.109375 41.296875 11.75
Q 45.40625 17.390625 45.40625 27.296875
Q 45.40625 37.203125 41.296875 42.84375
Q 37.203125 48.484375 30.078125 48.484375
Q 22.953125 48.484375 18.875 42.84375
Q 14.796875 37.203125 14.796875 27.296875
z
M 45.40625 8.203125
Q 42.578125 3.328125 38.25 0.953125
Q 33.9375 -1.421875 27.875 -1.421875
Q 17.96875 -1.421875 11.734375 6.484375
Q 5.515625 14.40625 5.515625 27.296875
Q 5.515625 40.1875 11.734375 48.09375
Q 17.96875 56 27.875 56
Q 33.9375 56 38.25 53.625
Q 42.578125 51.265625 45.40625 46.390625
L 45.40625 54.6875
L 54.390625 54.6875
L 54.390625 -20.796875
L 45.40625 -20.796875
z
"
              id="DejaVuSans-113"
            />
            <path
              d="M 18.109375 8.203125
L 18.109375 -20.796875
L 9.078125 -20.796875
L 9.078125 54.6875
L 18.109375 54.6875
L 18.109375 46.390625
Q 20.953125 51.265625 25.265625 53.625
Q 29.59375 56 35.59375 56
Q 45.5625 56 51.78125 48.09375
Q 58.015625 40.1875 58.015625 27.296875
Q 58.015625 14.40625 51.78125 6.484375
Q 45.5625 -1.421875 35.59375 -1.421875
Q 29.59375 -1.421875 25.265625 0.953125
Q 20.953125 3.328125 18.109375 8.203125
z
M 48.6875 27.296875
Q 48.6875 37.203125 44.609375 42.84375
Q 40.53125 48.484375 33.40625 48.484375
Q 26.265625 48.484375 22.1875 42.84375
Q 18.109375 37.203125 18.109375 27.296875
Q 18.109375 17.390625 22.1875 11.75
Q 26.265625 6.109375 33.40625 6.109375
Q 40.53125 6.109375 44.609375 11.75
Q 48.6875 17.390625 48.6875 27.296875
z
"
              id="DejaVuSans-112"
            />
          </defs>
          <g transform="translate(203.32 588.829663)scale(0.1 -0.1)">
            <use xlink:href="#DejaVuSans-115"/>
            <use x="52.099609" xlink:href="#DejaVuSans-111"/>
            <use x="113.28125" xlink:href="#DejaVuSans-108"/>
            <use x="141.064453" xlink:href="#DejaVuSans-118"/>
            <use x="200.244141" xlink:href="#DejaVuSans-101"/>
            <use x="261.767578" xlink:href="#DejaVuSans-79"/>
            <use x="340.478516" xlink:href="#DejaVuSans-115"/>
            <use x="392.578125" xlink:href="#DejaVuSans-113"/>
            <use x="456.054688" xlink:href="#DejaVuSans-112"/>
          </g>
        </g>
        <g id="line2d_17">
          <path d="M 175.32 600.007787
L 195.32 600.007787
" style="fill:none;stroke:#ff7f0e;stroke-linecap:square;stroke-width:1.5;"/>
        </g>
        <g id="line2d_18"/>
        <g id="text_13">
          <!-- initOsqp -->
          <defs>
            <path d="M 9.421875 54.6875
L 18.40625 54.6875
L 18.40625 0
L 9.421875 0
z
M 9.421875 75.984375
L 18.40625 75.984375
L 18.40625 64.59375
L 9.421875 64.59375
z
" id="DejaVuSans-105"/>
            <path
              d="M 54.890625 33.015625
L 54.890625 0
L 45.90625 0
L 45.90625 32.71875
Q 45.90625 40.484375 42.875 44.328125
Q 39.84375 48.1875 33.796875 48.1875
Q 26.515625 48.1875 22.3125 43.546875
Q 18.109375 38.921875 18.109375 30.90625
L 18.109375 0
L 9.078125 0
L 9.078125 54.6875
L 18.109375 54.6875
L 18.109375 46.1875
Q 21.34375 51.125 25.703125 53.5625
Q 30.078125 56 35.796875 56
Q 45.21875 56 50.046875 50.171875
Q 54.890625 44.34375 54.890625 33.015625
z
"
              id="DejaVuSans-110"
            />
            <path
              d="M 18.3125 70.21875
L 18.3125 54.6875
L 36.8125 54.6875
L 36.8125 47.703125
L 18.3125 47.703125
L 18.3125 18.015625
Q 18.3125 11.328125 20.140625 9.421875
Q 21.96875 7.515625 27.59375 7.515625
L 36.8125 7.515625
L 36.8125 0
L 27.59375 0
Q 17.1875 0 13.234375 3.875
Q 9.28125 7.765625 9.28125 18.015625
L 9.28125 47.703125
L 2.6875 47.703125
L 2.6875 54.6875
L 9.28125 54.6875
L 9.28125 70.21875
z
"
              id="DejaVuSans-116"
            />
          </defs>
          <g transform="translate(203.32 603.507787)scale(0.1 -0.1)">
            <use xlink:href="#DejaVuSans-105"/>
            <use x="27.783203" xlink:href="#DejaVuSans-110"/>
            <use x="91.162109" xlink:href="#DejaVuSans-105"/>
            <use x="118.945312" xlink:href="#DejaVuSans-116"/>
            <use x="158.154297" xlink:href="#DejaVuSans-79"/>
            <use x="236.865234" xlink:href="#DejaVuSans-115"/>
            <use x="288.964844" xlink:href="#DejaVuSans-113"/>
            <use x="352.441406" xlink:href="#DejaVuSans-112"/>
          </g>
        </g>
        <g id="line2d_19">
          <path d="M 175.32 614.685912
L 195.32 614.685912
" style="fill:none;stroke:#2ca02c;stroke-linecap:square;stroke-width:1.5;"/>
        </g>
        <g id="line2d_20"/>
        <g id="text_14">
          <!-- pathCallback -->
          <defs>
            <path
              d="M 34.28125 27.484375
Q 23.390625 27.484375 19.1875 25
Q 14.984375 22.515625 14.984375 16.5
Q 14.984375 11.71875 18.140625 8.90625
Q 21.296875 6.109375 26.703125 6.109375
Q 34.1875 6.109375 38.703125 11.40625
Q 43.21875 16.703125 43.21875 25.484375
L 43.21875 27.484375
z
M 52.203125 31.203125
L 52.203125 0
L 43.21875 0
L 43.21875 8.296875
Q 40.140625 3.328125 35.546875 0.953125
Q 30.953125 -1.421875 24.3125 -1.421875
Q 15.921875 -1.421875 10.953125 3.296875
Q 6 8.015625 6 15.921875
Q 6 25.140625 12.171875 29.828125
Q 18.359375 34.515625 30.609375 34.515625
L 43.21875 34.515625
L 43.21875 35.40625
Q 43.21875 41.609375 39.140625 45
Q 35.0625 48.390625 27.6875 48.390625
Q 23 48.390625 18.546875 47.265625
Q 14.109375 46.140625 10.015625 43.890625
L 10.015625 52.203125
Q 14.9375 54.109375 19.578125 55.046875
Q 24.21875 56 28.609375 56
Q 40.484375 56 46.34375 49.84375
Q 52.203125 43.703125 52.203125 31.203125
z
"
              id="DejaVuSans-97"
            />
            <path
              d="M 54.890625 33.015625
L 54.890625 0
L 45.90625 0
L 45.90625 32.71875
Q 45.90625 40.484375 42.875 44.328125
Q 39.84375 48.1875 33.796875 48.1875
Q 26.515625 48.1875 22.3125 43.546875
Q 18.109375 38.921875 18.109375 30.90625
L 18.109375 0
L 9.078125 0
L 9.078125 75.984375
L 18.109375 75.984375
L 18.109375 46.1875
Q 21.34375 51.125 25.703125 53.5625
Q 30.078125 56 35.796875 56
Q 45.21875 56 50.046875 50.171875
Q 54.890625 44.34375 54.890625 33.015625
z
"
              id="DejaVuSans-104"
            />
            <path
              d="M 64.40625 67.28125
L 64.40625 56.890625
Q 59.421875 61.53125 53.78125 63.8125
Q 48.140625 66.109375 41.796875 66.109375
Q 29.296875 66.109375 22.65625 58.46875
Q 16.015625 50.828125 16.015625 36.375
Q 16.015625 21.96875 22.65625 14.328125
Q 29.296875 6.6875 41.796875 6.6875
Q 48.140625 6.6875 53.78125 8.984375
Q 59.421875 11.28125 64.40625 15.921875
L 64.40625 5.609375
Q 59.234375 2.09375 53.4375 0.328125
Q 47.65625 -1.421875 41.21875 -1.421875
Q 24.65625 -1.421875 15.125 8.703125
Q 5.609375 18.84375 5.609375 36.375
Q 5.609375 53.953125 15.125 64.078125
Q 24.65625 74.21875 41.21875 74.21875
Q 47.75 74.21875 53.53125 72.484375
Q 59.328125 70.75 64.40625 67.28125
z
"
              id="DejaVuSans-67"
            />
            <path
              d="M 48.6875 27.296875
Q 48.6875 37.203125 44.609375 42.84375
Q 40.53125 48.484375 33.40625 48.484375
Q 26.265625 48.484375 22.1875 42.84375
Q 18.109375 37.203125 18.109375 27.296875
Q 18.109375 17.390625 22.1875 11.75
Q 26.265625 6.109375 33.40625 6.109375
Q 40.53125 6.109375 44.609375 11.75
Q 48.6875 17.390625 48.6875 27.296875
z
M 18.109375 46.390625
Q 20.953125 51.265625 25.265625 53.625
Q 29.59375 56 35.59375 56
Q 45.5625 56 51.78125 48.09375
Q 58.015625 40.1875 58.015625 27.296875
Q 58.015625 14.40625 51.78125 6.484375
Q 45.5625 -1.421875 35.59375 -1.421875
Q 29.59375 -1.421875 25.265625 0.953125
Q 20.953125 3.328125 18.109375 8.203125
L 18.109375 0
L 9.078125 0
L 9.078125 75.984375
L 18.109375 75.984375
z
"
              id="DejaVuSans-98"
            />
            <path
              d="M 48.78125 52.59375
L 48.78125 44.1875
Q 44.96875 46.296875 41.140625 47.34375
Q 37.3125 48.390625 33.40625 48.390625
Q 24.65625 48.390625 19.8125 42.84375
Q 14.984375 37.3125 14.984375 27.296875
Q 14.984375 17.28125 19.8125 11.734375
Q 24.65625 6.203125 33.40625 6.203125
Q 37.3125 6.203125 41.140625 7.25
Q 44.96875 8.296875 48.78125 10.40625
L 48.78125 2.09375
Q 45.015625 0.34375 40.984375 -0.53125
Q 36.96875 -1.421875 32.421875 -1.421875
Q 20.0625 -1.421875 12.78125 6.34375
Q 5.515625 14.109375 5.515625 27.296875
Q 5.515625 40.671875 12.859375 48.328125
Q 20.21875 56 33.015625 56
Q 37.15625 56 41.109375 55.140625
Q 45.0625 54.296875 48.78125 52.59375
z
"
              id="DejaVuSans-99"
            />
            <path
              d="M 9.078125 75.984375
L 18.109375 75.984375
L 18.109375 31.109375
L 44.921875 54.6875
L 56.390625 54.6875
L 27.390625 29.109375
L 57.625 0
L 45.90625 0
L 18.109375 26.703125
L 18.109375 0
L 9.078125 0
z
"
              id="DejaVuSans-107"
            />
          </defs>
          <g transform="translate(203.32 618.185912)scale(0.1 -0.1)">
            <use xlink:href="#DejaVuSans-112"/>
            <use x="63.476562" xlink:href="#DejaVuSans-97"/>
            <use x="124.755859" xlink:href="#DejaVuSans-116"/>
            <use x="163.964844" xlink:href="#DejaVuSans-104"/>
            <use x="227.34375" xlink:href="#DejaVuSans-67"/>
            <use x="297.167969" xlink:href="#DejaVuSans-97"/>
            <use x="358.447266" xlink:href="#DejaVuSans-108"/>
            <use x="386.230469" xlink:href="#DejaVuSans-108"/>
            <use x="414.013672" xlink:href="#DejaVuSans-98"/>
            <use x="477.490234" xlink:href="#DejaVuSans-97"/>
            <use x="538.769531" xlink:href="#DejaVuSans-99"/>
            <use x="593.75" xlink:href="#DejaVuSans-107"/>
          </g>
        </g>
      </g>
    </g>
  </g>
  <defs>
    <clipPath id="p1e946714ae">
      <rect height="544.4208" width="1031.184" x="166.32" y="84.8448"/>
    </clipPath>
  </defs>
</svg>
