<?xml version="1.0" encoding="UTF-8" standalone="no"?><svg xmlns="http://www.w3.org/2000/svg" xmlns:xlink="http://www.w3.org/1999/xlink" contentScriptType="application/ecmascript" contentStyleType="text/css" height="746px" preserveAspectRatio="none" style="width:363px;height:746px;background:#FFFFFF;" version="1.1" viewBox="0 0 363 746" width="363px" zoomAndPan="magnify"><defs><filter height="300%" id="fouqzdwjprpe" width="300%" x="-1" y="-1"><feGaussianBlur result="blurOut" stdDeviation="2.0"/><feColorMatrix in="blurOut" result="blurOut2" type="matrix" values="0 0 0 0 0 0 0 0 0 0 0 0 0 0 0 0 0 0 .4 0"/><feOffset dx="4.0" dy="4.0" in="blurOut2" result="blurOut3"/><feBlend in="SourceGraphic" in2="blurOut3" mode="normal"/></filter></defs><g><ellipse cx="196" cy="16" fill="#000000" filter="url(#fouqzdwjprpe)" rx="10" ry="10" style="stroke:none;stroke-width:1.0;"/><rect fill="#FEFECE" filter="url(#fouqzdwjprpe)" height="37.3761" rx="12.5" ry="12.5" style="stroke:#A80036;stroke-width:1.5;" width="134" x="129" y="67"/><text fill="#000000" font-family="sans-serif" font-size="12" lengthAdjust="spacing" textLength="114" x="139" y="90.9201">Subscribe trajectory</text><rect fill="#FEFECE" filter="url(#fouqzdwjprpe)" height="37.3761" rx="12.5" ry="12.5" style="stroke:#A80036;stroke-width:1.5;" width="84" x="154" y="145"/><text fill="#000000" font-family="sans-serif" font-size="12" lengthAdjust="spacing" textLength="64" x="164" y="168.9201">Check data</text><rect fill="#FEFECE" filter="url(#fouqzdwjprpe)" height="37.3761" rx="12.5" ry="12.5" style="stroke:#A80036;stroke-width:1.5;" width="191" x="100.5" y="223"/><text fill="#000000" font-family="sans-serif" font-size="12" lengthAdjust="spacing" textLength="171" x="110.5" y="246.9201">Get distance to nearest object</text><polygon fill="#FEFECE" filter="url(#fouqzdwjprpe)" points="196,301,208,313,196,325,184,313,196,301" style="stroke:#A80036;stroke-width:1.5;"/><rect fill="#FEFECE" filter="url(#fouqzdwjprpe)" height="37.3761" rx="12.5" ry="12.5" style="stroke:#A80036;stroke-width:1.5;" width="182" x="167" y="402"/><text fill="#000000" font-family="sans-serif" font-size="12" lengthAdjust="spacing" textLength="162" x="177" y="425.9201">Change state to State::STOP</text><rect fill="#FEFECE" filter="url(#fouqzdwjprpe)" height="37.3761" rx="12.5" ry="12.5" style="stroke:#A80036;stroke-width:1.5;" width="180" x="49" y="345"/><text fill="#000000" font-family="sans-serif" font-size="12" lengthAdjust="spacing" textLength="160" x="59" y="368.9201">Change state to State::PASS</text><rect fill="#FEFECE" filter="url(#fouqzdwjprpe)" height="37.3761" rx="12.5" ry="12.5" style="stroke:#A80036;stroke-width:1.5;" width="284" x="7" y="636"/><text fill="#000000" font-family="sans-serif" font-size="12" lengthAdjust="spacing" textLength="264" x="17" y="659.9201">Publish trajectory, stop reason and debug data</text><rect fill="#FEFECE" filter="url(#fouqzdwjprpe)" height="37.3761" rx="12.5" ry="12.5" style="stroke:#A80036;stroke-width:1.5;" width="114" x="197" y="480"/><text fill="#000000" font-family="sans-serif" font-size="12" lengthAdjust="spacing" textLength="94" x="207" y="503.9201">Insert stop point</text><rect fill="#FEFECE" filter="url(#fouqzdwjprpe)" height="37.3761" rx="12.5" ry="12.5" style="stroke:#A80036;stroke-width:1.5;" width="126" x="181" y="558"/><text fill="#000000" font-family="sans-serif" font-size="12" lengthAdjust="spacing" textLength="106" x="191" y="581.9201">Create debug data</text><ellipse cx="149" cy="724" filter="url(#fouqzdwjprpe)" rx="10" ry="10" style="stroke:#000000;stroke-width:1.0;fill:none;"/><ellipse cx="149.5" cy="724.5" fill="#000000" rx="6" ry="6" style="stroke:none;stroke-width:1.0;"/><!--MD5=[017c99f706313e8cee43aaa44e775fe4]
link start to Subscribe trajectory--><path d="M196,26.255 C196,35.572 196,49.6689 196,61.7745 " fill="none" id="start-to-Subscribe trajectory" style="stroke:#A80036;stroke-width:1.0;"/><polygon fill="#A80036" points="196,66.821,200,57.821,196,61.821,192,57.821,196,66.821" style="stroke:#A80036;stroke-width:1.0;"/><!--MD5=[e313864ae605e8acdc26aeab5e5e0741]
link Subscribe trajectory to Check data--><path d="M196,104.3816 C196,115.0164 196,128.3996 196,139.7418 " fill="none" id="Subscribe trajectory-to-Check data" style="stroke:#A80036;stroke-width:1.0;"/><polygon fill="#A80036" points="196,144.7923,200,135.7923,196,139.7923,192,135.7923,196,144.7923" style="stroke:#A80036;stroke-width:1.0;"/><!--MD5=[21a5f0ba52f3d142da35495d7a6c4721]
link Check data to Get distance to nearest object--><path d="M196,182.3816 C196,193.0164 196,206.3996 196,217.7418 " fill="none" id="Check data-to-Get distance to nearest object" style="stroke:#A80036;stroke-width:1.0;"/><polygon fill="#A80036" points="196,222.7923,200,213.7923,196,217.7923,192,213.7923,196,222.7923" style="stroke:#A80036;stroke-width:1.0;"/><!--MD5=[d7133516ab64bf7d09d93729af589fc2]
link Get distance to nearest object to #9--><path d="M196,260.2858 C196,271.1378 196,284.7047 196,295.3572 " fill="none" id="Get distance to nearest object-to-#9" style="stroke:#A80036;stroke-width:1.0;"/><polygon fill="#A80036" points="196,300.6324,200,291.6324,196,295.6324,192,291.6324,196,300.6324" style="stroke:#A80036;stroke-width:1.0;"/><text fill="#000000" font-family="sans-serif" font-size="11" lengthAdjust="spacing" textLength="84" x="93.625" y="289.9032">Is stop required?</text><!--MD5=[7f6fbad5ddf954f52119e8af6a67a283]
link #9 to Change state to State::STOP--><path d="M203.3652,317.8015 C211.4498,323.4233 224.3012,333.4493 232,345 C242.4999,360.7533 249.1962,381.1842 253.1591,396.8194 " fill="none" id="#9-to-Change state to State::STOP" style="stroke:#A80036;stroke-width:1.0;"/><polygon fill="#A80036" points="254.3998,401.9242,256.1611,392.2341,253.2189,397.0656,248.3874,394.1235,254.3998,401.9242" style="stroke:#A80036;stroke-width:1.0;"/><text fill="#000000" font-family="sans-serif" font-size="11" lengthAdjust="spacing" textLength="17" x="249" y="368.7599">yes</text><!--MD5=[0ca9b119f18622d3bc4f18e22af0409a]
link #9 to Change state to State::PASS--><path d="M189.4614,318.793 C183.167,324.3696 173.2462,333.159 163.8608,341.4742 " fill="none" id="#9-to-Change state to State::PASS" style="stroke:#A80036;stroke-width:1.0;"/><polygon fill="#A80036" points="159.8834,344.9981,169.2724,342.0237,163.6258,341.6824,163.9672,336.0358,159.8834,344.9981" style="stroke:#A80036;stroke-width:1.0;"/><text fill="#000000" font-family="sans-serif" font-size="11" lengthAdjust="spacing" textLength="14" x="159.8563" y="328.4924">no</text><!--MD5=[7f76ac5eae30e4f3b67f8d4e7e928ec2]
link Change state to State::PASS to Publish trajectory, stop reason and debug data--><path d="M138.0672,382.2577 C137.1866,401.6047 136,432.6536 136,459.5 C136,459.5 136,459.5 136,576.5 C136,594.8779 139.5548,615.3641 142.9466,630.7284 " fill="none" id="Change state to State::PASS-to-Publish trajectory, stop reason and debug data" style="stroke:#A80036;stroke-width:1.0;"/><polygon fill="#A80036" points="144.0853,635.7321,145.9883,626.0688,142.9757,630.8568,138.1878,627.8442,144.0853,635.7321" style="stroke:#A80036;stroke-width:1.0;"/><!--MD5=[c04dcea3f073dab71c58ba4d68518a78]
link Change state to State::STOP to Insert stop point--><path d="M257.0317,439.3816 C256.4863,450.0164 255.8,463.3996 255.2184,474.7418 " fill="none" id="Change state to State::STOP-to-Insert stop point" style="stroke:#A80036;stroke-width:1.0;"/><polygon fill="#A80036" points="254.9594,479.7923,259.4152,471.009,255.2155,474.7989,251.4257,470.5992,254.9594,479.7923" style="stroke:#A80036;stroke-width:1.0;"/><!--MD5=[688f19e29d17eb72623892e4de5fa085]
link Insert stop point to Create debug data--><path d="M251.5793,517.3816 C250.2158,528.0164 248.5,541.3996 247.0459,552.7418 " fill="none" id="Insert stop point-to-Create debug data" style="stroke:#A80036;stroke-width:1.0;"/><polygon fill="#A80036" points="246.3984,557.7923,251.5105,549.3741,247.0343,552.8329,243.5754,548.3567,246.3984,557.7923" style="stroke:#A80036;stroke-width:1.0;"/><!--MD5=[02e0a7144a3602d9ba07861a2033b735]
link Create debug data to Publish trajectory, stop reason and debug data--><path d="M221.0031,595.3816 C207.3504,606.5913 189.9785,620.8545 175.7188,632.5624 " fill="none" id="Create debug data-to-Publish trajectory, stop reason and debug data" style="stroke:#A80036;stroke-width:1.0;"/><polygon fill="#A80036" points="171.7851,635.7923,181.2792,633.1726,175.6494,632.6194,176.2026,626.9897,171.7851,635.7923" style="stroke:#A80036;stroke-width:1.0;"/><!--MD5=[d6e8fd4f68504d8784f8ce9f7f5adcbd]
link Publish trajectory, stop reason and debug data to end--><path d="M149,673.1247 C149,684.2185 149,698.1296 149,708.6001 " fill="none" id="Publish trajectory, stop reason and debug data-to-end" style="stroke:#A80036;stroke-width:1.0;"/><polygon fill="#A80036" points="149,713.7287,153,704.7287,149,708.7287,145,704.7287,149,713.7287" style="stroke:#A80036;stroke-width:1.0;"/><!--MD5=[228ffaed789f24eeef23f4bb81601a8e]
@startuml
(*) - -> "Subscribe trajectory"
"Subscribe trajectory" - -> "Check data"
"Check data" - -> "Get distance to nearest object"

if "Is stop required?" then
  - ->[yes] "Change state to State::STOP"
else
  ->[no] "Change state to State::PASS"
endif

"Change state to State::PASS" - -> "Publish trajectory, stop reason and debug data"
"Change state to State::STOP" - -> "Insert stop point"
"Insert stop point" - -> "Create debug data"
"Create debug data" - -> "Publish trajectory, stop reason and debug data"
"Publish trajectory, stop reason and debug data" - -> (*)
@enduml

PlantUML version 1.2021.9(Sun Jul 25 19:13:56 JST 2021)
(GPL source distribution)
Java Runtime: OpenJDK Runtime Environment
JVM: OpenJDK 64-Bit Server VM
Default Encoding: UTF-8
Language: ja
Country: JP
--></g></svg>