/* XPM */
static char * rtm_xpm[] = {
"40 40 821 2",
"  	c None",
". 	c #FFFFFF",
"+ 	c #FDFDFD",
"@ 	c #F9F9F9",
"# 	c #F6F6F5",
"$ 	c #F2F2F2",
"% 	c #EEEEEE",
"& 	c #EBEBEB",
"* 	c #E7E7E7",
"= 	c #E3E4E4",
"- 	c #E0E0E0",
"; 	c #DCDCDD",
"> 	c #D8D9D9",
", 	c #D4D4D4",
"' 	c #D1D1D1",
") 	c #CECECE",
"! 	c #CACACA",
"~ 	c #C6C7C6",
"{ 	c #C3C3C2",
"] 	c #BFBFBE",
"^ 	c #BBBBBC",
"/ 	c #B7B7B7",
"( 	c #B4B4B4",
"_ 	c #B0B0B1",
": 	c #ADADAD",
"< 	c #A9A9A9",
"[ 	c #A5A6A6",
"} 	c #A2A2A2",
"| 	c #9E9E9E",
"1 	c #9A9B9B",
"2 	c #979797",
"3 	c #939393",
"4 	c #8F9090",
"5 	c #8C8C8C",
"6 	c #898989",
"7 	c #848485",
"8 	c #818281",
"9 	c #F9F9FA",
"0 	c #F6F5F6",
"a 	c #EBEAEB",
"b 	c #E7E7E8",
"c 	c #E3E4E3",
"d 	c #DCDCDC",
"e 	c #D9D8D8",
"f 	c #D5D4D5",
"g 	c #CECDCD",
"h 	c #C6C6C7",
"i 	c #C2C3C3",
"j 	c #BFBFBF",
"k 	c #B8B7B8",
"l 	c #B0B0B0",
"m 	c #ADACAD",
"n 	c #AAAAA9",
"o 	c #A5A5A6",
"p 	c #A2A2A1",
"q 	c #9F9E9F",
"r 	c #9B9A9B",
"s 	c #949493",
"t 	c #908F90",
"u 	c #898889",
"v 	c #858585",
"w 	c #818181",
"x 	c #7D7D7E",
"y 	c #FEFDFD",
"z 	c #F9FAF9",
"A 	c #F6F6F6",
"B 	c #F2F3F3",
"C 	c #EFEFEE",
"D 	c #E3E3E4",
"E 	c #DDDCDD",
"F 	c #D9D8D9",
"G 	c #D5D5D5",
"H 	c #D2D1D1",
"I 	c #CACBCA",
"J 	c #C6C7C7",
"K 	c #C3C3C3",
"L 	c #BFBFC0",
"M 	c #BCBCBB",
"N 	c #B7B8B8",
"O 	c #B4B4B5",
"P 	c #B1B1B1",
"Q 	c #A9AAA9",
"R 	c #A6A5A5",
"S 	c #9E9F9E",
"T 	c #9B9B9B",
"U 	c #979898",
"V 	c #949494",
"W 	c #909090",
"X 	c #7D7E7D",
"Y 	c #7A7A7A",
"Z 	c #FDFEFD",
"` 	c #FAFAFA",
" .	c #F2F2F3",
"..	c #EEEFEE",
"+.	c #E8E8E8",
"@.	c #E4E4E3",
"#.	c #D9D9D9",
"$.	c #D6D5D5",
"%.	c #D2D1D2",
"&.	c #CBCBCA",
"*.	c #C7C6C7",
"=.	c #BCBCBC",
"-.	c #B8B9B9",
";.	c #B4B5B5",
">.	c #B0B1B0",
",.	c #ADAEAD",
"'.	c #A6A6A6",
").	c #9F9F9F",
"!.	c #8C8D8D",
"~.	c #7E7E7E",
"{.	c #7A7B7A",
"].	c #777777",
"^.	c #F9FAFA",
"/.	c #F6F6F7",
"(.	c #F2F3F2",
"_.	c #E7E8E8",
":.	c #E4E4E4",
"<.	c #E1E0E0",
"[.	c #DCDDDD",
"}.	c #D2D2D2",
"|.	c #CACBCB",
"1.	c #C4C3C3",
"2.	c #C0BFC0",
"3.	c #BCBBBC",
"4.	c #B8B8B9",
"5.	c #AEADAD",
"6.	c #A9A9AA",
"7.	c #A6A7A6",
"8.	c #A3A2A2",
"9.	c #9E9F9F",
"0.	c #939494",
"a.	c #919091",
"b.	c #888989",
"c.	c #868586",
"d.	c #828282",
"e.	c #767777",
"f.	c #737373",
"g.	c #F3F3F3",
"h.	c #EFEFEF",
"i.	c #EBECEB",
"j.	c #E1E1E1",
"k.	c #DDDDDC",
"l.	c #D5D6D6",
"m.	c #CECECF",
"n.	c #CBCBCB",
"o.	c #C7C7C7",
"p.	c #C0C0C0",
"q.	c #B5B4B4",
"r.	c #AAAAAA",
"s.	c #9B9C9B",
"t.	c #989898",
"u.	c #919090",
"v.	c #8D8D8D",
"w.	c #868585",
"x.	c #7E7E7F",
"y.	c #7B7B7A",
"z.	c #737473",
"A.	c #6F7070",
"B.	c #F7F6F7",
"C.	c #F0EFEF",
"D.	c #EBEBEC",
"E.	c #E4E4E5",
"F.	c #E1E1E0",
"G.	c #DDDDDD",
"H.	c #DAD9D9",
"I.	c #D6D6D5",
"J.	c #CBCACA",
"K.	c #C4C4C4",
"L.	c #BFC0C0",
"M.	c #B8B9B8",
"N.	c #B5B5B5",
"O.	c #B2B1B1",
"P.	c #ADADAE",
"Q.	c #A3A2A3",
"R.	c #9B9C9C",
"S.	c #989897",
"T.	c #959495",
"U.	c #919190",
"V.	c #898A89",
"W.	c #868685",
"X.	c #7E7F7E",
"Y.	c #7B7A7B",
"Z.	c #777778",
"`.	c #6C6C6D",
" +	c #ECEBEB",
".+	c #E9E8E8",
"++	c #E5E5E5",
"@+	c #E1E0E1",
"#+	c #DADAD9",
"$+	c #D6D5D6",
"%+	c #D2D3D2",
"&+	c #CFCFCE",
"*+	c #C8C7C7",
"=+	c #BCBDBC",
"-+	c #B9B8B9",
";+	c #B1B2B2",
">+	c #A7A6A7",
",+	c #A3A3A3",
"'+	c #9F9FA0",
")+	c #909091",
"!+	c #868686",
"~+	c #7F7E7F",
"{+	c #7A7B7B",
"]+	c #787777",
"^+	c #747373",
"/+	c #707070",
"(+	c #6C6C6C",
"_+	c #686869",
":+	c #E5E5E4",
"<+	c #DEDEDD",
"[+	c #D6D6D6",
"}+	c #D3D2D2",
"|+	c #CFCFCF",
"1+	c #C7C8C7",
"2+	c #C1C1C0",
"3+	c #B9B9B9",
"4+	c #B6B6B5",
"5+	c #B2B1B2",
"6+	c #AEAEAE",
"7+	c #ABAAAB",
"8+	c #A7A7A7",
"9+	c #9C9C9C",
"0+	c #949595",
"a+	c #919191",
"b+	c #8E8D8D",
"c+	c #8A8989",
"d+	c #7F7F7E",
"e+	c #7B7B7B",
"f+	c #787877",
"g+	c #737474",
"h+	c #696969",
"i+	c #656565",
"j+	c #EFF0F0",
"k+	c #ECECEC",
"l+	c #E8E9E9",
"m+	c #DEDDDD",
"n+	c #D9D9DA",
"o+	c #D2D2D3",
"p+	c #CCCCCB",
"q+	c #C0C1C0",
"r+	c #B5B5B6",
"s+	c #B2B2B2",
"t+	c #AAABAB",
"u+	c #A6A7A7",
"v+	c #A4A4A4",
"w+	c #A0A0A0",
"x+	c #959595",
"y+	c #8E8D8E",
"z+	c #8A8A8A",
"A+	c #828383",
"B+	c #7F7F7F",
"C+	c #777878",
"D+	c #747474",
"E+	c #707071",
"F+	c #656566",
"G+	c #626262",
"H+	c #E9E9E8",
"I+	c #E1E2E2",
"J+	c #DEDEDE",
"K+	c #DADADA",
"L+	c #D6D7D6",
"M+	c #D3D3D2",
"N+	c #CBCCCB",
"O+	c #C8C8C8",
"P+	c #BDBCBC",
"Q+	c #B5B6B5",
"R+	c #AFAEAE",
"S+	c #ABABAA",
"T+	c #A3A3A4",
"U+	c #9C9D9C",
"V+	c #8D8E8E",
"W+	c #878686",
"X+	c #828382",
"Y+	c #7B7B7C",
"Z+	c #6D6D6D",
"`+	c #666665",
" @	c #626261",
".@	c #5E5E5E",
"+@	c #E9E8E9",
"@@	c #E1E2E1",
"#@	c #DBDADA",
"$@	c #D7D7D6",
"%@	c #D3D3D3",
"&@	c #CBCBCC",
"*@	c #C5C4C4",
"=@	c #C1C0C1",
"-@	c #BDBDBD",
";@	c #B6B5B5",
">@	c #AFAFAE",
",@	c #ABABAB",
"'@	c #A7A8A7",
")@	c #A4A4A3",
"!@	c #989998",
"~@	c #919292",
"{@	c #838383",
"]@	c #747475",
"^@	c #717070",
"/@	c #6A696A",
"(@	c #666566",
"_@	c #5B5B5B",
":@	c #0627F4",
"<@	c #0E2DF1",
"[@	c #304AEA",
"}@	c #838FD6",
"|@	c #C4C4C5",
"1@	c #C1C1C1",
"2@	c #BAB9BA",
"3@	c #B6B6B6",
"4@	c #A7A8A8",
"5@	c #A3A4A3",
"6@	c #999898",
"7@	c #7F8080",
"8@	c #3749B9",
"9@	c #717170",
"0@	c #575757",
"a@	c #E2E2E2",
"b@	c #7B88D2",
"c@	c #BABAB9",
"d@	c #B5B6B6",
"e@	c #B2B3B2",
"f@	c #A0A0A1",
"g@	c #999999",
"h@	c #929292",
"i@	c #878787",
"j@	c #7C7C7C",
"k@	c #0827F0",
"l@	c #5E6281",
"m@	c #6A6969",
"n@	c #666666",
"o@	c #626363",
"p@	c #5E5E5F",
"q@	c #545453",
"r@	c #DBDBDB",
"s@	c #D0CFCF",
"t@	c #CCCCCC",
"u@	c #B5B8CC",
"v@	c #4B60E2",
"w@	c #2742E9",
"x@	c #BABABA",
"y@	c #B2B3B3",
"z@	c #A0A1A1",
"A@	c #9D9C9D",
"B@	c #969596",
"C@	c #929291",
"D@	c #8E8F8E",
"E@	c #838483",
"F@	c #7F7F80",
"G@	c #787878",
"H@	c #2138CC",
"I@	c #636263",
"J@	c #5F5F5F",
"K@	c #5B5C5C",
"L@	c #505151",
"M@	c #D7D7D7",
"N@	c #C8C9C8",
"O@	c #C4C5C4",
"P@	c #B2B3C4",
"Q@	c #0A2BF1",
"R@	c #B3B3B2",
"S@	c #AFAFAF",
"T@	c #A8A8A8",
"U@	c #9D9D9C",
"V@	c #999A99",
"W@	c #969595",
"X@	c #8E8E8F",
"Y@	c #797978",
"Z@	c #757575",
"`@	c #213ACB",
" #	c #454F8F",
".#	c #5B5B5C",
"+#	c #585857",
"@#	c #4D4D4D",
"##	c #D4D4D3",
"$#	c #C9C9C9",
"%#	c #C5C5C5",
"&#	c #C1C2C1",
"*#	c #AEB1C1",
"=#	c #1330EF",
"-#	c #B3B3B3",
";#	c #ACABAC",
">#	c #8E8F8F",
",#	c #8B8B8B",
"'#	c #787979",
")#	c #727271",
"!#	c #565B7B",
"~#	c #0726F0",
"{#	c #102EDF",
"]#	c #59595F",
"^#	c #575857",
"/#	c #555455",
"(#	c #494949",
"_#	c #D3D4D4",
":#	c #D0D0D0",
"<#	c #ADAFC2",
"[#	c #475CDE",
"}#	c #4357DC",
"|#	c #ACABAB",
"1#	c #A5A4A4",
"2#	c #A1A0A0",
"3#	c #969696",
"4#	c #929293",
"5#	c #878788",
"6#	c #838384",
"7#	c #797979",
"8#	c #757675",
"9#	c #727171",
"0#	c #6D6E6D",
"a#	c #2C3EB2",
"b#	c #2F3FA3",
"c#	c #555454",
"d#	c #505051",
"e#	c #464546",
"f#	c #D0D1D1",
"g#	c #CDCCCD",
"h#	c #2C45E4",
"i#	c #A0A2B4",
"j#	c #ABACAB",
"k#	c #A5A5A4",
"l#	c #9D9D9D",
"m#	c #929392",
"n#	c #8F8E8F",
"o#	c #8B8B8C",
"p#	c #848384",
"q#	c #808080",
"r#	c #727272",
"s#	c #6E6E6E",
"t#	c #6B6B6A",
"u#	c #5F6060",
"v#	c #545864",
"w#	c #0C29E8",
"x#	c #0927EC",
"y#	c #484C63",
"z#	c #424343",
"A#	c #CDCDCC",
"B#	c #0E2CF0",
"C#	c #7D86C3",
"D#	c #ACACAC",
"E#	c #A8A9A8",
"F#	c #A1A1A1",
"G#	c #9A9A9A",
"H#	c #0627F2",
"I#	c #8D8D8F",
"J#	c #848484",
"K#	c #7B7C7C",
"L#	c #727172",
"M#	c #6E6E6F",
"N#	c #6B6A6B",
"O#	c #676667",
"P#	c #5C5C5C",
"Q#	c #585858",
"R#	c #334195",
"S#	c #1D33BC",
"T#	c #4A4A49",
"U#	c #3F3F3E",
"V#	c #CAC9CA",
"W#	c #C6C6C5",
"X#	c #BBBABB",
"Y#	c #B1B2B8",
"Z#	c #7682C8",
"`#	c #0A2AF1",
" $	c #0929F1",
".$	c #888FB6",
"+$	c #A5A4A5",
"@$	c #9E9D9E",
"#$	c #979696",
"$$	c #0E2DEE",
"%$	c #808294",
"&$	c #888888",
"*$	c #808181",
"=$	c #7D7C7D",
"-$	c #6E7183",
";$	c #0C2BEB",
">$	c #6E6F6E",
",$	c #6A6B6A",
"'$	c #676766",
")$	c #636364",
"!$	c #595959",
"~$	c #555555",
"{$	c #505052",
"]$	c #122CD6",
"^$	c #363D72",
"/$	c #3B3B3B",
"($	c #C6C5C5",
"_$	c #C2C2C2",
":$	c #B3B4B3",
"<$	c #5F6ECC",
"[$	c #2842E2",
"}$	c #A0A1A0",
"|$	c #9D9E9D",
"1$	c #939293",
"2$	c #243DDC",
"3$	c #5965AD",
"4$	c #7D7D7D",
"5$	c #797A79",
"6$	c #4C58A2",
"7$	c #1D36D5",
"8$	c #6B6A6A",
"9$	c #676767",
"0$	c #636463",
"a$	c #605F5F",
"b$	c #525152",
"c$	c #4E4E4E",
"d$	c #384075",
"e$	c #0F2BD6",
"f$	c #383837",
"g$	c #B4B3B4",
"h$	c #ACACAD",
"i$	c #A4A5A9",
"j$	c #1E3BE7",
"k$	c #5F6DC0",
"l$	c #90908F",
"m$	c #515FB7",
"n$	c #102EEA",
"o$	c #5762A6",
"p$	c #737684",
"q$	c #6F7382",
"r$	c #4F5A9F",
"s$	c #0E2CE9",
"t$	c #3F4DA5",
"u$	c #686767",
"v$	c #636363",
"w$	c #606060",
"x$	c #5C5C5D",
"y$	c #515251",
"z$	c #4E4E4D",
"A$	c #4A4B4A",
"B$	c #474747",
"C$	c #182FBB",
"D$	c #343435",
"E$	c #BFBEBF",
"F$	c #BBBBBB",
"G$	c #B1B1B0",
"H$	c #ADACAC",
"I$	c #A8A9A9",
"J$	c #787FB7",
"K$	c #888C9F",
"L$	c #8B8C8B",
"M$	c #848589",
"N$	c #223BDA",
"O$	c #1D35D4",
"P$	c #646569",
"Q$	c #636464",
"R$	c #616060",
"S$	c #5C5D5C",
"T$	c #595859",
"U$	c #4A4A4B",
"V$	c #464747",
"W$	c #434343",
"X$	c #363C57",
"Y$	c #0726EE",
"Z$	c #313031",
"`$	c #B7B8B7",
" %	c #354CD6",
".%	c #3249D3",
"+%	c #898888",
"@%	c #7C7D84",
"#%	c #4352B6",
"$%	c #1934DE",
"%%	c #0929EF",
"&%	c #0929EE",
"*%	c #1832DC",
"=%	c #3949AD",
"-%	c #63646C",
";%	c #646364",
">%	c #5D5D5D",
",%	c #555656",
"'%	c #4A4A4A",
")%	c #444343",
"!%	c #3F4040",
"~%	c #3C3C3C",
"{%	c #1C2E9D",
"]%	c #2D2D2D",
"^%	c #B8B8B8",
"/%	c #B1B0B0",
"(%	c #A6A6A5",
"_%	c #7E7E7D",
":%	c #767776",
"<%	c #6F6F6F",
"[%	c #6B6B6B",
"}%	c #686867",
"|%	c #646464",
"1%	c #5C5D5D",
"2%	c #565556",
"3%	c #525252",
"4%	c #4B4A4A",
"5%	c #434344",
"6%	c #3F403F",
"7%	c #383839",
"8%	c #353535",
"9%	c #313131",
"0%	c #2E2D2D",
"a%	c #2A2A2A",
"b%	c #9F9F9E",
"c%	c #9B9B9A",
"d%	c #949393",
"e%	c #777677",
"f%	c #737272",
"g%	c #676868",
"h%	c #606161",
"i%	c #5A5959",
"j%	c #565656",
"k%	c #4E4F4F",
"l%	c #404040",
"m%	c #393938",
"n%	c #353435",
"o%	c #313132",
"p%	c #262626",
"q%	c #B0B1B1",
"r%	c #989797",
"s%	c #8D8D8C",
"t%	c #828281",
"u%	c #7E7D7E",
"v%	c #777776",
"w%	c #706F6F",
"x%	c #6C6B6C",
"y%	c #686868",
"z%	c #616061",
"A%	c #5A5A59",
"B%	c #4F4F4E",
"C%	c #4B4B4B",
"D%	c #484747",
"E%	c #444344",
"F%	c #403F40",
"G%	c #353635",
"H%	c #313232",
"I%	c #2E2E2E",
"J%	c #272727",
"K%	c #222323",
"L%	c #A2A2A3",
"M%	c #979798",
"N%	c #909190",
"O%	c #646565",
"P%	c #5A595A",
"Q%	c #525253",
"R%	c #4F4F4F",
"S%	c #474847",
"T%	c #444444",
"U%	c #414041",
"V%	c #3D3D3C",
"W%	c #393939",
"X%	c #323131",
"Y%	c #2A2A2B",
"Z%	c #272627",
"`%	c #232323",
" &	c #1F201F",
".&	c #6F6F70",
"+&	c #696868",
"@&	c #646564",
"#&	c #616161",
"$&	c #5D5E5D",
"%&	c #5A5A5A",
"&&	c #525352",
"*&	c #4F4E4F",
"=&	c #404041",
"-&	c #353636",
";&	c #323232",
">&	c #201F20",
",&	c #1C1C1C",
"'&	c #A7A7A6",
")&	c #9B9B9C",
"!&	c #989798",
"~&	c #959494",
"{&	c #7F7E7E",
"]&	c #6C6D6C",
"^&	c #616261",
"/&	c #535252",
"(&	c #414040",
"_&	c #3D3D3D",
":&	c #363535",
"<&	c #2E2F2F",
"[&	c #2B2B2A",
"}&	c #191818",
"|&	c #9FA09F",
"1&	c #6D6C6C",
"2&	c #5D5E5E",
"3&	c #535253",
"4&	c #4C4C4B",
"5&	c #484847",
"6&	c #3A3939",
"7&	c #363536",
"8&	c #242324",
"9&	c #202020",
"0&	c #1D1C1C",
"a&	c #181819",
"b&	c #151515",
"c&	c #A09FA0",
"d&	c #858685",
"e&	c #656665",
"f&	c #575656",
"g&	c #484848",
"h&	c #454545",
"i&	c #414140",
"j&	c #363636",
"k&	c #2F2E2E",
"l&	c #2B2B2B",
"m&	c #272827",
"n&	c #232424",
"o&	c #191919",
"p&	c #121111",
"q&	c #999899",
"r&	c #949495",
"s&	c #898A8A",
"t&	c #838382",
"u&	c #787778",
"v&	c #737374",
"w&	c #6D6D6C",
"x&	c #696968",
"y&	c #626162",
"z&	c #5A5B5B",
"A&	c #535354",
"B&	c #4F5050",
"C&	c #4C4C4C",
"D&	c #484948",
"E&	c #444545",
"F&	c #414141",
"G&	c #3D3D3E",
"H&	c #39393A",
"I&	c #272828",
"J&	c #242424",
"K&	c #1C1D1C",
"L&	c #191819",
"M&	c #111211",
"N&	c #0E0E0E",
"O&	c #8E8E8D",
"P&	c #828283",
"Q&	c #7B7C7B",
"R&	c #666565",
"S&	c #616262",
"T&	c #5E5F5F",
"U&	c #5B5A5A",
"V&	c #535353",
"W&	c #494948",
"X&	c #3E3D3D",
"Y&	c #323332",
"Z&	c #2F2F2F",
"`&	c #282827",
" *	c #212020",
".*	c #1D1D1D",
"+*	c #151516",
"@*	c #121212",
"#*	c #0B0B0A",
"$*	c #878687",
"%*	c #7C7B7C",
"&*	c #717071",
"**	c #6C6D6D",
"=*	c #696A6A",
"-*	c #535453",
";*	c #4F504F",
">*	c #494849",
",*	c #414241",
"'*	c #3A3A3A",
")*	c #363736",
"!*	c #333333",
"~*	c #2C2C2B",
"{*	c #282828",
"]*	c #1A1919",
"^*	c #151615",
"/*	c #0A0B0A",
"(*	c #070707",
"_*	c #919291",
":*	c #868687",
"<*	c #3E3E3E",
"[*	c #302F2F",
"}*	c #2C2C2C",
"|*	c #272728",
"1*	c #202021",
"2*	c #151616",
"3*	c #030304",
"4*	c #626263",
"5*	c #5F5E5F",
"6*	c #5B5A5B",
"7*	c #545454",
"8*	c #505050",
"9*	c #484949",
"0*	c #424241",
"a*	c #3D3E3E",
"b*	c #3B3A3B",
"c*	c #2F2F30",
"d*	c #2B2C2C",
"e*	c #242525",
"f*	c #212121",
"g*	c #19191A",
"h*	c #161615",
"i*	c #0E0E0F",
"j*	c #0B0B0B",
"k*	c #030403",
"l*	c #000000",
"m*	c #8A8B8B",
"n*	c #7F807F",
"o*	c #797878",
"p*	c #757574",
"q*	c #717171",
"r*	c #6E6D6E",
"s*	c #696A69",
"t*	c #535454",
"u*	c #515050",
"v*	c #4C4C4D",
"w*	c #3B3A3A",
"x*	c #363637",
"y*	c #2C2B2C",
"z*	c #282829",
"A*	c #252524",
"B*	c #131312",
"C*	c #070708",
"D*	c #040403",
"E*	c #747575",
"F*	c #6D6E6E",
"G*	c #5F5E5E",
"H*	c #454546",
"I*	c #424242",
"J*	c #3E3F3E",
"K*	c #3A3B3A",
"L*	c #373737",
"M*	c #252425",
"N*	c #1E1E1E",
"O*	c #191A1A",
"P*	c #161616",
"Q*	c #121312",
"R*	c #0F0F0F",
"S*	c #080807",
"T*	c #040404",
". . . . . + @ # $ % & * = - ; > , ' ) ! ~ { ] ^ / ( _ : < [ } | 1 2 3 4 5 6 7 8 ",
". . . . + 9 0 $ % a b c - d e f ' g ! h i j ^ k ( l m n o p q r 2 s t 5 u v w x ",
". . . y z A B C & * D - E F G H ) I J K L M N O P : Q R } S T U V W 5 6 v w X Y ",
". . Z ` A  ...& +.@.- E #.$.%.) &.*.K L =.-.;.>.,.n '.} ).T 2 V W !.6 v 8 ~.{.].",
". Z ^./.(...& _.:.<.[.#.$.}.) |.*.1.2.3.4.;.P 5.6.7.8.9.T U 0.a.!.b.c.d.~.Y e.f.",
"Z ` /.g.h.i.+.:.j.k.#.l.%.m.n.o.K p.=.4.q.P ,.r.'.8.).s.t.V u.v.6 w.d.x.y.].z.A.",
"` B.(.C.D.+.E.F.G.H.I.}.) J.o.K.L.=.M.N.O.P.r.'.Q.).R.S.T.U.v.V.W.d.X.Y.Z.f.A.`.",
"A g.h. +.+++@+G.#+$+%+&+n.*+K.p.=+-+N.;+,.r.>+,+'+T t.V )+v.6 !+d.~+{+]+^+/+(+_+",
"g.C. ++.:+F.<+#.[+}+|+n.1+K.2+=.3+4+5+6+7+8+,+'+9+t.0+a+b+c+!+d.d+e+f+g+/+(+h+i+",
"j+k+l+:+j.m+n+[+o+|+p+1+K.q+=.3+r+s+6+t+u+v+w+9+t.x+a+y+z+!+A+B+e+C+D+E+`.h+F+G+",
"k+H+++I+J+K+L+M+|+N+O+K.2+P+3+Q+s+R+S+8+T+w+U+t.x+a+V+z+W+X+B+Y+C+D+/+Z+h+`+ @.@",
"+@++@@J+#@$@%@|+&@O+*@=@-@3+;@s+>@,@'@)@w+9+!@x+~@v.z+!+{@B+Y+C+]@^@Z+/@(@G+.@_@",
"++j.:@:@:@:@<@[@}@|@1@-@2@3@s+:@:@4@5@w+9+6@x+:@:@z+!+{@7@:@:@8@9@Z+h+`+G+:@:@0@",
"a@J+:@:@:@:@:@:@:@b@-@c@d@e@>@:@:@v+f@U+g@x+h@:@:@i@{@7@j@:@:@k@l@m@n@o@p@:@:@q@",
"J+r@:@:@s@t@u@v@:@w@x@3@y@>@,@:@:@z@A@g@B@C@D@:@:@E@F@j@G@:@:@:@H@n@I@J@K@:@:@L@",
"K+M@:@:@t@N@O@P@:@Q@3@R@S@,@T@:@:@U@V@W@h@X@z+:@:@F@j@Y@Z@:@:@`@:@ #J@.#+#:@:@@#",
"M@##:@:@$#%#&#*#:@=#-#S@;#T@v+:@:@g@x+h@>#,#i@:@:@j@'#Z@)#:@:@!#~#{#]#^#/#:@:@(#",
"_#:#:@:@%#&#<#[#:@}#S@|#T@1#2#:@:@3#4#>#,#5#6#:@:@7#8#9#0#:@:@I@a#:@b#c#d#:@:@e#",
"f#g#:@:@:@:@:@:@h#i#j#T@k#z@l#:@:@m#n#o#i@p#q#:@:@Z@r#s#t#:@:@u#v#w#x#y#@#:@:@z#",
"A#$#:@:@:@:@:@B#C#D#E#k#F#l#G#H#:@I#,#5#J#q#K#:@H#L#M#N#O#:@:@P#Q#R#:@S#T#:@:@U#",
"V#W#:@:@X#Y#Z#`# $.$+$F#@$G##$$$:@%$&$J#*$=$-$:@;$>$,$'$)$:@:@!$~${$]$:@^$:@:@/$",
"($_$:@:@/ :$l <$:@[$}$|$G#3#1$2$:@3$J#q#4$5$6$:@7$8$9$0$a$:@:@~$b$c$d$:@e$:@:@f$",
"_$] :@:@g$l h$i$j$:@k$1 2 3 l$m$:@n$o$p$q$r$s$:@t$u$v$w$x$:@:@y$z$A$B$C$:@:@:@D$",
"E$F$:@:@G$H$I$[ J$:@$$K$3 l$L$M$N$:@:@:@:@:@:@O$P$Q$R$S$T$:@:@c$U$V$W$X$Y$:@:@Z$",
"^ `$:@:@h$< R } |  %:@.%W 5 +%7 @%#%$%%%&%*%=%-%;%R$>%!$,%:@:@'%B$)%!%~%{%:@:@]%",
"^%O /%: Q (%} | 1 2 3 t 5 &$v 8 _%Y :%r#<%[%}%|%R$1%!$2%3%c$4%B$5%6%~%7%8%9%0%a%",
"O >.: < '.} b%c%2 d%W 5 +%v 8 x Y e%f%<%[%g%|%h%>%i%j%3%k%4%B$5%l%~%m%n%o%0%a%p%",
"q%: Q '.Q.).T r%V W s%u W.t%u%Y v%f.w%x%y%i+z%>%A%j%3%B%C%D%E%F%~%m%G%H%I%a%J%K%",
": n '.L%9.T M%V N%s%b.v d.~.{+].f.w%x%y%O%h%>%P%j%Q%R%C%S%T%U%V%W%8%X%I%Y%Z%`% &",
"r.'.} b%T U V W v.6 w.d.~.Y ].^+.&(++&@&#&$&%&j%&&*&C%S%T%=&~%W%-&;&I%a%J%`%>&,&",
"'&} ).)&!&~&W s%6 !+d.{&e+].f./+]&y%@&^&>%A%j%/&R%C%S%T%(&_&W%:&;&<&[&J%`%>&,&}&",
",+|&)&t.V a+v.6 !+d.X.e+].f./+1&h+i+#&2&%&j%3&R%4&5&T%=&_&6&7&;&I%[&J%8&9&0&a&b&",
"c&9+t.~&a+v.z+d&X+B+e+C+g+/+`.h+e& @.@%&f&3&R%4&g&h&i&_&W%j&;&k&l&m&n&9&0&o&b&p&",
"9+q&r&a+v.s&!+t&d+e+u&v&/+w&x&i+y&.@z&0@A&B&C&D&E&F&G&H&j&;&<&l&I&J&9&K&L&b&M&N&",
"q&x+a+O&z+W+P&B+Q&].D+E+w&h+R&S&T&U&0@V&B&C&W&E&F&X&6&j&Y&Z&l&`&J& *.*o&+*@*N&#*",
"x+C@v.z+$*t&B+%*G@D+&***=*n@y&T&z&0@-*;*C&>*h&,*X&'*)*!*Z&~*{*J&9&.*]*^*@*N&/*(*",
"_*y+z+:*{@F@e+G@D+9@Z+h+F+G+J@_@0@q@B&C&W&h&,*<*'*)*!*[*}*|*J&1*.*o&2*@*N&/*(*3*",
"V+z+i@{@B+j@G@]@^@0#m@n@4*5*6*0@7*8*@#9*h&0*a*b*)*!*c*d*{*e*f*.*g*h*@*i*j*(*k*l*",
"m*i@E@n*j@o*p*q*r*s*n@G+J@_@0@t*u*v*(#h&F&<*w*x*!*c*y*z*A*f*.*o&2*B*i*j*C*D*l*l*",
"i@{@7@j@G@E*q*F*=*O#o@G*.#Q#7*u*@#(#H*I*J*K*L*!*c*}*{*M*f*N*O*P*Q*R*j*S*T*l*l*l*"};
