/* XPM */
static char * rtm_xpm[] = {
"40 40 773 2",
"  	c None",
". 	c #252524",
"+ 	c #29292A",
"@ 	c #2E2D2E",
"# 	c #333333",
"$ 	c #373737",
"% 	c #3B3C3C",
"& 	c #404040",
"* 	c #454545",
"= 	c #4A4A49",
"- 	c #4E4D4E",
"; 	c #535253",
"> 	c #575757",
", 	c #5C5C5B",
"' 	c #606160",
") 	c #656565",
"! 	c #696969",
"~ 	c #6E6E6E",
"{ 	c #737272",
"] 	c #777777",
"^ 	c #7B7C7C",
"/ 	c #808081",
"( 	c #858585",
"_ 	c #8A8989",
": 	c #8E8F8E",
"< 	c #939393",
"[ 	c #979898",
"} 	c #9D9C9D",
"| 	c #A1A0A0",
"1 	c #A5A5A5",
"2 	c #A9AAAA",
"3 	c #AFAEAF",
"4 	c #B3B3B3",
"5 	c #B7B8B8",
"6 	c #BCBCBC",
"7 	c #C1C0C1",
"8 	c #C6C5C5",
"9 	c #CACACA",
"0 	c #CECFCE",
"a 	c #D3D3D3",
"b 	c #D8D8D7",
"c 	c #252424",
"d 	c #2A2929",
"e 	c #2E2E2E",
"f 	c #333232",
"g 	c #3C3B3C",
"h 	c #414041",
"i 	c #454445",
"j 	c #494A49",
"k 	c #4E4E4E",
"l 	c #535353",
"m 	c #575857",
"n 	c #5C5C5C",
"o 	c #616160",
"p 	c #6A6A69",
"q 	c #777877",
"r 	c #7C7C7C",
"s 	c #808080",
"t 	c #8A8A89",
"u 	c #8E8E8E",
"v 	c #989897",
"w 	c #9C9C9C",
"x 	c #A0A0A1",
"y 	c #A6A5A6",
"z 	c #AAAAAA",
"A 	c #AEAFAF",
"B 	c #B8B8B7",
"C 	c #C1C1C1",
"D 	c #C5C5C5",
"E 	c #CECFCF",
"F 	c #D4D4D3",
"G 	c #D8D8D8",
"H 	c #252525",
"I 	c #323333",
"J 	c #373837",
"K 	c #3C3C3C",
"L 	c #404041",
"M 	c #49494A",
"N 	c #535352",
"O 	c #585757",
"P 	c #656665",
"Q 	c #696A6A",
"R 	c #737373",
"S 	c #777778",
"T 	c #7C7C7D",
"U 	c #818081",
"V 	c #858685",
"W 	c #8A8A8A",
"X 	c #8F8F8F",
"Y 	c #979798",
"Z 	c #9C9C9D",
"` 	c #A1A1A1",
" .	c #A6A5A5",
"..	c #AFAFAF",
"+.	c #B3B3B4",
"@.	c #B8B8B8",
"#.	c #BDBCBC",
"$.	c #C5C5C6",
"%.	c #CFCFCF",
"&.	c #D4D3D4",
"*.	c #404141",
"=.	c #4A4A4A",
"-.	c #4F4E4E",
";.	c #575858",
">.	c #616161",
",.	c #656566",
"'.	c #6A696A",
").	c #787778",
"!.	c #7D7C7C",
"~.	c #818181",
"{.	c #8E8F8F",
"].	c #989798",
"^.	c #9C9D9D",
"/.	c #A5A5A6",
"(.	c #B3B4B3",
"_.	c #BCBCBD",
":.	c #C5C6C6",
"<.	c #CACBCB",
"[.	c #D4D3D3",
"}.	c #292A2A",
"|.	c #2F2E2E",
"1.	c #373738",
"2.	c #464546",
"3.	c #4A494A",
"4.	c #656666",
"5.	c #6A6A6A",
"6.	c #6E6F6F",
"7.	c #737374",
"8.	c #787877",
"9.	c #7D7C7D",
"0.	c #868686",
"a.	c #939493",
"b.	c #989898",
"c.	c #ABABAB",
"d.	c #BDBCBD",
"e.	c #C6C6C6",
"f.	c #CBCACB",
"g.	c #D3D4D3",
"h.	c #2A2A29",
"i.	c #2E2F2E",
"j.	c #383838",
"k.	c #585857",
"l.	c #5D5C5C",
"m.	c #666665",
"n.	c #6F6F6F",
"o.	c #7D7D7C",
"p.	c #808181",
"q.	c #8A8B8A",
"r.	c #8F8E8E",
"s.	c #949394",
"t.	c #A5A6A5",
"u.	c #B4B4B4",
"v.	c #C1C2C1",
"w.	c #CACACB",
"x.	c #CFCFD0",
"y.	c #D9D9D8",
"z.	c #2A2A2A",
"A.	c #2E2F2F",
"B.	c #383737",
"C.	c #3D3D3C",
"D.	c #414141",
"E.	c #464545",
"F.	c #4F4F4E",
"G.	c #545453",
"H.	c #585858",
"I.	c #5C5C5D",
"J.	c #616061",
"K.	c #666566",
"L.	c #787878",
"M.	c #7C7D7D",
"N.	c #858586",
"O.	c #8B8A8A",
"P.	c #A1A2A1",
"Q.	c #A6A6A5",
"R.	c #AAABAB",
"S.	c #B4B4B3",
"T.	c #BDBDBC",
"U.	c #C2C1C1",
"V.	c #D3D3D4",
"W.	c #D8D8D9",
"X.	c #262625",
"Y.	c #383738",
"Z.	c #3C3D3C",
"`.	c #464645",
" +	c #545353",
".+	c #5C5D5C",
"++	c #6A6B6A",
"@+	c #6F6F6E",
"#+	c #737473",
"$+	c #868585",
"%+	c #8A8A8B",
"&+	c #939394",
"*+	c #989998",
"=+	c #9D9D9D",
"-+	c #A2A2A1",
";+	c #A6A6A6",
">+	c #B8B9B8",
",+	c #BDBDBD",
"'+	c #D0CFD0",
")+	c #D8D9D8",
"!+	c #262526",
"~+	c #2A2B2A",
"{+	c #333334",
"]+	c #4F4F4F",
"^+	c #666666",
"/+	c #828282",
"(+	c #8B8B8B",
"_+	c #949494",
":+	c #999899",
"<+	c #ABABAA",
"[+	c #B0AFB0",
"}+	c #B8B8B9",
"|+	c #C1C2C2",
"1+	c #C7C6C6",
"2+	c #CBCBCB",
"3+	c #D4D4D4",
"4+	c #D9D9D9",
"5+	c #252626",
"6+	c #2A2A2B",
"7+	c #2F2E2F",
"8+	c #343433",
"9+	c #414142",
"0+	c #4B4A4A",
"a+	c #5D5D5D",
"b+	c #6B6A6A",
"c+	c #747474",
"d+	c #787879",
"e+	c #828181",
"f+	c #989899",
"g+	c #A1A1A2",
"h+	c #A6A7A6",
"i+	c #AFB0B0",
"j+	c #C2C2C2",
"k+	c #D9D8D8",
"l+	c #3D3C3C",
"m+	c #464646",
"n+	c #4A4B4B",
"o+	c #6B6B6A",
"p+	c #787978",
"q+	c #7D7D7D",
"r+	c #818182",
"s+	c #8B8A8B",
"t+	c #908F90",
"u+	c #A2A1A2",
"v+	c #B9B9B9",
"w+	c #C6C7C6",
"x+	c #CFD0CF",
"y+	c #D4D5D4",
"z+	c #D9D8D9",
"A+	c #2F2F2F",
"B+	c #343333",
"C+	c #3D3D3D",
"D+	c #424141",
"E+	c #545354",
"F+	c #585958",
"G+	c #6B6B6B",
"H+	c #707070",
"I+	c #797978",
"J+	c #828281",
"K+	c #909090",
"L+	c #A2A2A2",
"M+	c #AFAFB0",
"N+	c #B9B8B9",
"O+	c #BEBDBD",
"P+	c #C6C7C7",
"Q+	c #D0CFCF",
"R+	c #2B2B2A",
"S+	c #343434",
"T+	c #424242",
"U+	c #4B4B4B",
"V+	c #504F4F",
"W+	c #545454",
"X+	c #585859",
"Y+	c #626162",
"Z+	c #6F6F70",
"`+	c #7E7D7D",
" @	c #8F908F",
".@	c #949495",
"+@	c #999999",
"@@	c #9D9E9E",
"#@	c #A1A2A2",
"$@	c #A6A7A7",
"%@	c #AFB0AF",
"&@	c #B5B4B5",
"*@	c #BDBEBD",
"=@	c #C7C7C7",
"-@	c #CBCCCB",
";@	c #CFD0D0",
">@	c #262626",
",@	c #2A2B2B",
"'@	c #393838",
")@	c #414242",
"!@	c #4B4A4B",
"~@	c #535454",
"{@	c #595858",
"]@	c #666766",
"^@	c #747574",
"/@	c #787979",
"(@	c #7D7E7D",
"_@	c #878687",
":@	c #9D9D9E",
"<@	c #A7A6A7",
"[@	c #B0B0AF",
"}@	c #B4B5B5",
"|@	c #BEBEBD",
"1@	c #C2C3C2",
"2@	c #D0D0CF",
"3@	c #D4D5D5",
"4@	c #0000EC",
"5@	c #0303E4",
"6@	c #0E0ECE",
"7@	c #2C2C9A",
"8@	c #57575B",
"9@	c #90908F",
"0@	c #949595",
"a@	c #1C1CDE",
"b@	c #ACABAC",
"c@	c #B0B0B0",
"d@	c #B5B4B4",
"e@	c #BDBEBE",
"f@	c #2322E4",
"g@	c #262726",
"h@	c #2B2B2B",
"i@	c #2425AD",
"j@	c #8F9090",
"k@	c #959494",
"l@	c #7170BC",
"m@	c #B5B5B5",
"n@	c #BEBEBE",
"o@	c #8283CF",
"p@	c #D5D4D4",
"q@	c #262627",
"r@	c #30302F",
"s@	c #444549",
"t@	c #41415E",
"u@	c #2423A5",
"v@	c #0505E1",
"w@	c #5E5D5E",
"x@	c #626262",
"y@	c #666667",
"z@	c #878787",
"A@	c #959594",
"B@	c #1E1EDF",
"C@	c #B9B9BA",
"D@	c #2322E3",
"E@	c #D5D5D5",
"F@	c #D9D9DA",
"G@	c #272627",
"H@	c #2F2F30",
"I@	c #3E3E3E",
"J@	c #474747",
"K@	c #4B4B57",
"L@	c #0303E6",
"M@	c #5E5D5D",
"N@	c #676667",
"O@	c #6B6B6C",
"P@	c #7D7E7E",
"Q@	c #828283",
"R@	c #878786",
"S@	c #8B8B8C",
"T@	c #959595",
"U@	c #1111E3",
"V@	c #7576BF",
"W@	c #8181CB",
"X@	c #1515E7",
"Y@	c #D5D4D5",
"Z@	c #DADADA",
"`@	c #272626",
" #	c #2C2B2B",
".#	c #2F3030",
"+#	c #3D3E3D",
"@#	c #444449",
"##	c #2323A5",
"$#	c #1414C9",
"%#	c #6C6B6C",
"&#	c #7E7D7E",
"*#	c #838282",
"=#	c #8B8C8B",
"-#	c #5E5EC0",
";#	c #2020DF",
">#	c #B9B9B8",
",#	c #2323E3",
"'#	c #7474D5",
")#	c #2B2C2B",
"!#	c #303030",
"~#	c #0606DF",
"{#	c #464578",
"]#	c #5E5E5E",
"^#	c #626263",
"/#	c #676767",
"(#	c #6B6C6C",
"_#	c #838382",
":#	c #8C8C8C",
"<#	c #9D9DA3",
"[#	c #1212E3",
"}#	c #7979C2",
"|#	c #7E7FC8",
"1#	c #1515E6",
"2#	c #C2C2C7",
"3#	c #272727",
"4#	c #4C4C6D",
"5#	c #7E7E7E",
"6#	c #828382",
"7#	c #909190",
"8#	c #6160C3",
"9#	c #2222E0",
"0#	c #2323E2",
"a#	c #7171D3",
"b#	c #C7C8C8",
"c#	c #D5D6D5",
"d#	c #DADAD9",
"e#	c #2B2B2C",
"f#	c #424243",
"g#	c #404055",
"h#	c #2F2F87",
"i#	c #0505E0",
"j#	c #2020B5",
"k#	c #636363",
"l#	c #676867",
"m#	c #6C6C6C",
"n#	c #838283",
"o#	c #A3A3A2",
"p#	c #A3A2A8",
"q#	c #1212E4",
"r#	c #4748D6",
"s#	c #1414E6",
"t#	c #BDBDC2",
"u#	c #C7C8C7",
"v#	c #D5D5D6",
"w#	c #2B2C2C",
"x#	c #434242",
"y#	c #4B4C4C",
"z#	c #3D3D74",
"A#	c #0404E5",
"B#	c #5B5B60",
"C#	c #626362",
"D#	c #717070",
"E#	c #828383",
"F#	c #888787",
"G#	c #8C8C8B",
"H#	c #919190",
"I#	c #A3A3A3",
"J#	c #A7A7A7",
"K#	c #6363C6",
"L#	c #6E6ED1",
"M#	c #C3C3C4",
"N#	c #C8C8C8",
"O#	c #303130",
"P#	c #434243",
"Q#	c #4C4C4C",
"R#	c #505051",
"S#	c #0F0FCF",
"T#	c #444483",
"U#	c #686868",
"V#	c #7E7E7F",
"W#	c #8C8C8D",
"X#	c #919091",
"Y#	c #959695",
"Z#	c #A8A7A8",
"`#	c #A7A7AC",
" $	c #1313E5",
".$	c #B8B8BE",
"+$	c #C3C3C3",
"@$	c #D6D5D5",
"#$	c #272827",
"$$	c #2C2B2C",
"%$	c #303031",
"&$	c #424343",
"*$	c #4C4B4C",
"=$	c #515151",
"-$	c #2828A3",
";$	c #2929AC",
">$	c #686867",
",$	c #707071",
"'$	c #7F7F7E",
")$	c #838383",
"!$	c #888788",
"~$	c #909091",
"{$	c #969595",
"]$	c #A8A8A8",
"^$	c #ADACAC",
"/$	c #B1B1B1",
"($	c #B5B5B6",
"_$	c #BABABA",
":$	c #BFBFBF",
"<$	c #D6D6D5",
"[$	c #DBDADA",
"}$	c #2C2C2C",
"|$	c #313131",
"1$	c #3F3E3E",
"2$	c #474847",
"3$	c #515050",
"4$	c #414176",
"5$	c #0D0DD7",
"6$	c #636263",
"7$	c #686768",
"8$	c #707171",
"9$	c #7F7E7E",
"0$	c #888888",
"a$	c #8D8C8C",
"b$	c #919191",
"c$	c #959696",
"d$	c #A3A4A3",
"e$	c #ACACAC",
"f$	c #B6B5B5",
"g$	c #BABBBA",
"h$	c #BEBFBF",
"i$	c #D5D6D6",
"j$	c #DADADB",
"k$	c #282828",
"l$	c #2C2C2B",
"m$	c #313130",
"n$	c #353635",
"o$	c #3A3939",
"p$	c #3E3F3E",
"q$	c #434343",
"r$	c #555655",
"s$	c #5A595A",
"t$	c #717171",
"u$	c #767575",
"v$	c #7A7A7A",
"w$	c #969695",
"x$	c #9A9A9A",
"y$	c #9F9F9E",
"z$	c #A3A3A4",
"A$	c #ACADAC",
"B$	c #B6B6B6",
"C$	c #BBBBBA",
"D$	c #C4C4C3",
"E$	c #CDCDCC",
"F$	c #D1D1D2",
"G$	c #D6D6D6",
"H$	c #282728",
"I$	c #313031",
"J$	c #363535",
"K$	c #393A3A",
"L$	c #3E3E3F",
"M$	c #434342",
"N$	c #484747",
"O$	c #5A5A5A",
"P$	c #5F5F5E",
"Q$	c #636463",
"R$	c #676768",
"S$	c #6C6D6C",
"T$	c #757676",
"U$	c #7E7F7F",
"V$	c #838384",
"W$	c #959596",
"X$	c #9B9A9A",
"Y$	c #9E9E9F",
"Z$	c #ADADAC",
"`$	c #C8C9C9",
" %	c #CDCDCD",
".%	c #D1D2D2",
"+%	c #DBDBDA",
"@%	c #272828",
"#%	c #303131",
"$%	c #3A3A3A",
"%%	c #3F3F3F",
"&%	c #484748",
"*%	c #4D4C4C",
"=%	c #515051",
"-%	c #555556",
";%	c #5E5F5F",
">%	c #6D6C6C",
",%	c #757675",
"'%	c #7A7B7A",
")%	c #848483",
"!%	c #8C8D8C",
"~%	c #969596",
"{%	c #9A9A9B",
"]%	c #9F9F9F",
"^%	c #A4A4A4",
"/%	c #ACADAD",
"(%	c #BBBABA",
"_%	c #CCCCCC",
":%	c #D2D2D1",
"<%	c #DADBDA",
"[%	c #282827",
"}%	c #484848",
"|%	c #4C4C4D",
"1%	c #565555",
"2%	c #5F5F5F",
"3%	c #727171",
"4%	c #767576",
"5%	c #7B7B7A",
"6%	c #848384",
"7%	c #A4A3A4",
"8%	c #ADACAD",
"9%	c #B2B2B2",
"0%	c #BFBFC0",
"a%	c #C4C4C4",
"b%	c #C8C8C9",
"c%	c #D2D2D2",
"d%	c #2D2C2C",
"e%	c #353535",
"f%	c #3B3A3A",
"g%	c #434443",
"h%	c #4D4D4C",
"i%	c #525151",
"j%	c #5B5A5B",
"k%	c #6D6D6D",
"l%	c #7F7F7F",
"m%	c #898888",
"n%	c #919192",
"o%	c #969696",
"p%	c #9B9B9A",
"q%	c #A09F9F",
"r%	c #A8A9A9",
"s%	c #ADADAD",
"t%	c #B1B1B2",
"u%	c #B7B6B6",
"v%	c #BBBABB",
"w%	c #BFC0BF",
"x%	c #D2D1D1",
"y%	c #D6D6D7",
"z%	c #DBDADB",
"A%	c #2C2D2C",
"B%	c #353536",
"C%	c #3F3E3F",
"D%	c #444443",
"E%	c #4D4D4D",
"F%	c #565656",
"G%	c #5A5A5B",
"H%	c #646464",
"I%	c #6D6D6C",
"J%	c #767676",
"K%	c #7B7A7A",
"L%	c #8D8D8D",
"M%	c #929291",
"N%	c #9B9B9B",
"O%	c #9F9FA0",
"P%	c #A9A9A9",
"Q%	c #B1B2B1",
"R%	c #C0C0BF",
"S%	c #C9C9C9",
"T%	c #D7D7D6",
"U%	c #DBDBDB",
"V%	c #363635",
"W%	c #3F3F3E",
"X%	c #434444",
"Y%	c #484849",
"Z%	c #636464",
"`%	c #6C6D6D",
" &	c #7A7B7B",
".&	c #898889",
"+&	c #969796",
"@&	c #B6B6B7",
"#&	c #BBBBBB",
"$&	c #C0C0C0",
"%&	c #CDCECD",
"&&	c #D7D6D7",
"*&	c #2C2D2D",
"=&	c #444343",
"-&	c #525152",
";&	c #5A5B5A",
">&	c #646463",
",&	c #727172",
"'&	c #767777",
")&	c #7B7A7B",
"!&	c #848484",
"~&	c #888988",
"{&	c #929292",
"]&	c #969697",
"^&	c #A09FA0",
"/&	c #AEADAE",
"(&	c #B1B2B2",
"_&	c #C0BFBF",
":&	c #C9C8C9",
"<&	c #CECDCD",
"[&	c #D6D7D7",
"}&	c #282829",
"|&	c #363636",
"1&	c #3B3B3B",
"2&	c #403F3F",
"3&	c #444344",
"4&	c #484948",
"5&	c #5B5B5B",
"6&	c #686969",
"7&	c #727272",
"8&	c #777676",
"9&	c #7B7B7B",
"0&	c #888989",
"a&	c #8E8D8D",
"b&	c #A0A0A0",
"c&	c #A9A8A8",
"d&	c #AEAEAD",
"e&	c #B7B7B7",
"f&	c #C0BFC0",
"g&	c #C4C4C5",
"h&	c #CDCECE",
"i&	c #DBDBDC",
"j&	c #2D2D2D",
"k&	c #3A3B3B",
"l&	c #444444",
"m&	c #494849",
"n&	c #605F5F",
"o&	c #696968",
"p&	c #6D6E6D",
"q&	c #80807F",
"r&	c #979796",
"s&	c #9FA0A0",
"t&	c #A5A4A4",
"u&	c #ADAEAE",
"v&	c #BBBCBB",
"w&	c #C5C4C5",
"x&	c #CDCDCE",
"y&	c #D7D6D6",
"z&	c #292828",
"A&	c #313232",
"B&	c #3F403F",
"C&	c #484949",
"D&	c #4E4D4D",
"E&	c #515252",
"F&	c #5B5B5A",
"G&	c #5F5F60",
"H&	c #686968",
"I&	c #6D6D6E",
"J&	c #717272",
"K&	c #898989",
"L&	c #8D8E8D",
"M&	c #979797",
"N&	c #9B9B9C",
"O&	c #B7B6B7",
"P&	c #D7D7D7",
"Q&	c #DCDBDB",
"R&	c #323232",
"S&	c #494949",
"T&	c #4D4E4D",
"U&	c #575657",
"V&	c #656464",
"W&	c #6E6D6D",
"X&	c #807F80",
"Y&	c #848584",
"Z&	c #8D8E8E",
"`&	c #979696",
" *	c #A5A5A4",
".*	c #AEADAD",
"+*	c #CECECE",
"@*	c #D2D2D3",
"#*	c #DCDCDC",
"$*	c #282929",
"%*	c #323231",
"&*	c #363637",
"**	c #444445",
"=*	c #494948",
"-*	c #5C5B5B",
";*	c #5F605F",
">*	c #646565",
",*	c #929293",
"'*	c #9C9B9B",
")*	c #A5A4A5",
"!*	c #B2B3B2",
"~*	c #BCBCBB",
"{*	c #CAC9CA",
"]*	c #D3D2D2",
"^*	c #D8D7D7",
"/*	c #2D2D2E",
"(*	c #373636",
"_*	c #3F3F40",
":*	c #4D4D4E",
"<*	c #525252",
"[*	c #5F6060",
"}*	c #6E6D6E",
"|*	c #727273",
"1*	c #777677",
"2*	c #8E8D8E",
"3*	c #A4A5A5",
"4*	c #A9AAA9",
"5*	c #BBBBBC",
"6*	c #C0C1C0",
"7*	c #D2D3D3",
"8*	c #D7D8D7",
". + @ # $ % & * = - ; > , ' ) ! ~ { ] ^ / ( _ : < [ } | 1 2 3 4 5 6 7 8 9 0 a b ",
"c d e f $ g h i j k l m n o ) p ~ { q r s ( t u < v w x y z A 4 B 6 C D 9 E F G ",
"H d e I J K L * M k N O n ' P Q ~ R S T U V W X < Y Z `  .z ..+.@.#.C $.9 %.&.G ",
"H d e # $ K *.* =.-.l ;.n >.,.'.~ R ).!.~.( W {.< ].^.` /.z ..(.@._.C :.<.%.[.G ",
"H }.|.# 1.K *.2.3.k l ;.n >.4.5.6.7.8.9.~.0.W {.a.b.w ` 1 c...4 @.d.C e.f.%.g.G ",
"H h.i.# j.K *.2.=.k l k.l.>.m.5.n.R 8.o.p.( q.r.s.b.^.` t.z ..u.@.d.v.e.w.x.&.y.",
"H z.A.# B.C.D.E.=.F.G.H.I.J.K.5.6.R L.M.~.N.O.X s.b.Z P.Q.R...S.@.T.U.e.9 %.V.W.",
"X.z.i.# Y.Z.D.`.=.k  +H..+>.P ++@+#+L.o.~.$+%+X &+*+=+-+;+R...(.>+,+U.e.<.'+g.)+",
"!+~+|.{+j.Z.D.`.=.]+l H.n >.^+5.n.#+L.T /+0.(+X _+:+=+P.;+<+[+u.}+,+|+1+2+%.3+4+",
"5+6+7+8+j.Z.9+E.0+]+ +H.a+>.^+b+n.c+d+9.e+0.(+X _+f+=+g+h+c.i+u.}+,+j+1+2+'+3+k+",
"X.z.7+# j.l+D.m+n+]+G.H.l.>.^+o+n.#+p+q+r+0.s+t+_+b.=+u+;+R.i+u.v+,+j+w+2+x+y+z+",
"!+z.A+B+j.C+D+2.=.]+E+F+a+>.^+G+H+c+I+q+J+0.(+K+_+:+=+L+h+c.M+u.N+O+j+P+2+Q+3+4+",
"5+R+A+S+j.C+T+m+U+V+W+X+a+Y+^+G+Z+c+L.`+/+0.(+ @.@+@@@#@$@c.%@&@v+*@j+=@-@;@3+4+",
">@,@A+8+'@C+)@m+!@]+~@{@a+Y+]@G+Z+^@/@(@/+_@(+X _+:+:@L+<@c.[@}@N+|@1@=@2+2@3@4+",
">@z.A+4@4@4@4@4@5@6@7@8@a+4@4@4@4@4@4@4@4@4@4@9@0@4@4@a@t.b@c@d@v+e@U.f@4@4@3@4+",
"g@h@A+4@4@4@4@4@4@4@4@i@a+4@4@4@4@4@4@4@4@4@4@j@k@4@4@4@l@c.c@m@v+n@o@4@4@4@p@4+",
"q@h@r@4@4@C+T+s@t@u@4@v@w@x@y@G+H+4@4@(@/+z@(+j@A@4@4@4@B@z c@m@C@,+D@4@4@4@E@F@",
"G@h@H@4@4@I@T+J@U+K@4@L@M@x@N@O@H+4@4@P@Q@R@S@K+T@4@4@U@4@V@c@}@C@W@4@X@4@4@Y@Z@",
"`@ #.#4@4@+#T+@#t@##4@$#M@x@y@%#H+4@4@&#*#z@=#K+A@4@4@-#4@;#..}@>#,#4@'#4@4@E@4+",
"G@)#!#4@4@4@4@4@4@4@~#{#]#^#/#(#H+4@4@&#_#z@:#K+T@4@4@<#[#4@}#m@|#4@1#2#4@4@E@Z@",
"3#)#!#4@4@4@4@4@4@4@~#4#]#^#/#(#H+4@4@5#6#z@:#7#T@4@4@L+8#4@9#u.0#4@a#b#4@4@c#d#",
"G@e#!#4@4@I@f#g#h#i#4@j#w@k#l#m#H+4@4@5#n#z@:#K+T@4@4@o#p#q#4@r#4@s#t#u#4@4@v#d#",
"3#w#!#4@4@I@x#J@y#z#4@A#B#C#/#m#D#4@4@5#E#F#G#H#T@4@4@I#J#K#4@4@4@L#M#N#4@4@E@Z@",
"3#e#O#4@4@I@P#J@Q#R#S#4@T#^#U#m#H+4@4@V#_#F#W#X#Y#4@4@I#Z#`#q#4@ $.$+$N#4@4@@$Z@",
"#$$$%$4@4@I@&$J@*$=$-$4@;$k#>$m#,$4@4@'$)$!$W#~${$4@4@I#]$^$/$($_$:$M#N#4@4@<$[$",
"3#}$|$4@4@1$f#2$Q#3$4$4@5$6$7$m#8$4@4@9$)$0$a$b$c$4@4@d$Z#e$/$f$g$h$+$N#4@4@i$j$",
"k$l$m$n$o$p$q$J@Q#=$r$s$]#k#U#m#t$u$v$'$)$0$a$b$w$x$y$z$]$A$/$B$C$:$D$N#E$F$G$[$",
"H$}$I$J$K$L$M$N$Q#=$r$O$P$Q$R$S$t$T$v$U$V$0$:#b$W$X$Y$d$]$Z$/$B$_$:$D$`$ %.%G$+%",
"@%}$#%n$$%%%q$&%*%=%-%O$;%k#R$>%t$,%'%9$)%0$!%b$~%{%]%^%]$/%/$B$(%:$D$`$_%:%G$<%",
"[%}$m$n$$%%%q$}%|%=$1%O$2%k#U#m#3%4%5%U$6%0$W#b${$x$]%7%]$8%9%B$g$0%a%b% %c%G$+%",
"k$d%|$e%f%p$g%}%h%i%1%j%2%k#U#k%t$T$v$l%V$m%!%n%o%p%q%^%r%s%t%u%v%w%a%`$ %x%y%z%",
"k$A%|$B%$%C%D%}%E%=$F%G%2%H%U#I%t$J%K%l%6%0$L%M%o%N%O%7%P%s%Q%B$_$R%a%S% %c%T%U%",
"H$}$|$V%f%W%X%Y%E%i%F%G%2%Z%U#`%3%J% &l%)%.&L%M%+&N%]%^%r%s%9%@&#&$&a%S%%&F$&&U%",
"k$*&|$e%$%%%=&}%*%-&F%;&2%>&! k%,&'&)&l%!&~&L%{&]&N%^&^%r%/&(&B$#&_&a%:&<&c%[&U%",
"}&*&|$|&1&2&3&4&E%i%F%5&2%H%6&k%7&8&9&l%!&0&a&{&+&N%b&^%c&d&9%e&#&f&g&S%h&c%T%i&",
"k$j&|$|&k&%%l&m&E%-&F%5&n&H%o&p&7&J%5%q&!&0$L%{&r&N%s&t&P%u&9%B$v&f&w&S%x&c%y&U%",
"z&j&A&|&1&B&l&C&D&E&F%F&G&H%H&I&J&] 9&s !&K&L&{&M&N&q%t&P%u&9%O&#&$&g&S%h&c%P&Q&",
"k$j&R&|&1&B&l&S&T&-&U&5&n&V&U#W&7&8&9&X&Y&K&Z&{&`&N%b& *P%.*9%e&#&$&g&S%+*@*P&#*",
"$*j&%*&*1&%%**=*E%E&> -*;*>*o&I&7&] 9&q&!&K&a&,*M&'*b&)*P%d&!*e&~*$&D {*+*]*^*Q&",
"$*/*%*(*1&_***S&:*<*U&5&[*H%! }*|*1*^ s ( K&2*{&M&w b&3*4*/&9%e&5*6*D S%+*7*8*#*"};
